<?xml version="1.0" encoding="UTF-8" standalone="no"?>
<!DOCTYPE svg PUBLIC "-//W3C//DTD SVG 1.1//EN"
 "http://www.w3.org/Graphics/SVG/1.1/DTD/svg11.dtd">
<!-- Generated by graphviz version 2.43.0 (0)
 -->
<!-- Title: G Pages: 1 -->
<svg width="2980pt" height="251pt"
 viewBox="0.00 0.00 2980.00 251.00" xmlns="http://www.w3.org/2000/svg" xmlns:xlink="http://www.w3.org/1999/xlink">
<g id="graph0" class="graph" transform="scale(1 1) rotate(0) translate(4 247)">
<title>G</title>
<polygon fill="white" stroke="transparent" points="-4,4 -4,-247 2976,-247 2976,4 -4,4"/>
<!-- external_image_0 -->
<g id="node1" class="node">
<title>external_image_0</title>
<path fill="none" stroke="#333333" stroke-dasharray="5,2" d="M852,-185C852,-185 12,-185 12,-185 6,-185 0,-179 0,-173 0,-173 0,-161 0,-161 0,-155 6,-149 12,-149 12,-149 852,-149 852,-149 858,-149 864,-155 864,-161 864,-161 864,-173 864,-173 864,-179 858,-185 852,-185"/>
<text text-anchor="middle" x="432" y="-163.3" font-family="Times,serif" font-size="14.00" fill="#333333">docker.io/library/rust:1.84.0&#45;slim@sha256:0ec205a9abb049604cb085f2fdf7630f1a31dad1f7ad4986154a56501fb7ca77</text>
</g>
<!-- stage_0 -->
<g id="node2" class="node">
<title>stage_0</title>
<path fill="none" stroke="black" d="M1052,-185C1052,-185 932,-185 932,-185 926,-185 920,-179 920,-173 920,-173 920,-161 920,-161 920,-155 926,-149 932,-149 932,-149 1052,-149 1052,-149 1058,-149 1064,-155 1064,-161 1064,-161 1064,-173 1064,-173 1064,-179 1058,-185 1052,-185"/>
<text text-anchor="middle" x="992" y="-163.3" font-family="Times,serif" font-size="14.00">rust&#45;base</text>
</g>
<!-- external_image_0&#45;&gt;stage_0 -->
<g id="edge1" class="edge">
<title>external_image_0&#45;&gt;stage_0</title>
<path fill="none" stroke="black" d="M864.03,-167C880.31,-167 895.6,-167 909.53,-167"/>
<polygon fill="black" stroke="black" points="909.92,-170.5 919.92,-167 909.92,-163.5 909.92,-170.5"/>
</g>
<!-- stage_2 -->
<g id="node3" class="node">
<title>stage_2</title>
<path fill="none" stroke="black" d="M1417,-240C1417,-240 1132,-240 1132,-240 1126,-240 1120,-234 1120,-228 1120,-228 1120,-216 1120,-216 1120,-210 1126,-204 1132,-204 1132,-204 1417,-204 1417,-204 1423,-204 1429,-210 1429,-216 1429,-216 1429,-228 1429,-228 1429,-234 1423,-240 1417,-240"/>
<text text-anchor="middle" x="1274.5" y="-218.3" font-family="Times,serif" font-size="14.00">dep&#45;n&#45;pico&#45;args&#45;0.5.0&#45;c679ee00da2ce76d</text>
</g>
<!-- stage_0&#45;&gt;stage_2 -->
<g id="edge2" class="edge">
<title>stage_0&#45;&gt;stage_2</title>
<path fill="none" stroke="black" d="M1064.14,-180.95C1096.71,-187.34 1135.9,-195.02 1171.52,-202"/>
<polygon fill="black" stroke="black" points="1170.98,-205.47 1181.47,-203.95 1172.33,-198.6 1170.98,-205.47"/>
</g>
<!-- stage_5 -->
<g id="node4" class="node">
<title>stage_5</title>
<path fill="none" stroke="black" d="M1403,-104C1403,-104 1146,-104 1146,-104 1140,-104 1134,-98 1134,-92 1134,-92 1134,-80 1134,-80 1134,-74 1140,-68 1146,-68 1146,-68 1403,-68 1403,-68 1409,-68 1415,-74 1415,-80 1415,-80 1415,-92 1415,-92 1415,-98 1409,-104 1403,-104"/>
<text text-anchor="middle" x="1274.5" y="-82.3" font-family="Times,serif" font-size="14.00">dep&#45;n&#45;shlex&#45;1.3.0&#45;c2266d437937f30d</text>
</g>
<!-- stage_0&#45;&gt;stage_5 -->
<g id="edge3" class="edge">
<title>stage_0&#45;&gt;stage_5</title>
<path fill="none" stroke="black" d="M1055.6,-148.92C1098.77,-136.46 1156.28,-119.85 1201.38,-106.83"/>
<polygon fill="black" stroke="black" points="1202.45,-110.16 1211.09,-104.02 1200.51,-103.43 1202.45,-110.16"/>
</g>
<!-- stage_8 -->
<g id="node5" class="node">
<title>stage_8</title>
<path fill="none" stroke="black" d="M1998,-146C1998,-146 1707,-146 1707,-146 1701,-146 1695,-140 1695,-134 1695,-134 1695,-122 1695,-122 1695,-116 1701,-110 1707,-110 1707,-110 1998,-110 1998,-110 2004,-110 2010,-116 2010,-122 2010,-122 2010,-134 2010,-134 2010,-140 2004,-146 1998,-146"/>
<text text-anchor="middle" x="1852.5" y="-124.3" font-family="Times,serif" font-size="14.00">dep&#45;n&#45;buildxargs&#45;1.4.0&#45;1c5c80f20f2734b5</text>
</g>
<!-- stage_0&#45;&gt;stage_8 -->
<g id="edge4" class="edge">
<title>stage_0&#45;&gt;stage_8</title>
<path fill="none" stroke="black" d="M1064.3,-168.88C1171.94,-171.37 1382.33,-174.92 1561,-170"/>
<path fill="none" stroke="black" d="M1563,-170C1627.19,-168.12 1698.62,-157.79 1754.35,-147.84"/>
<polygon fill="black" stroke="black" points="1755,-151.28 1764.21,-146.06 1753.75,-144.39 1755,-151.28"/>
</g>
<!-- stage_10 -->
<g id="node6" class="node">
<title>stage_10</title>
<path fill="none" stroke="black" d="M2565,-146C2565,-146 2272,-146 2272,-146 2266,-146 2260,-140 2260,-134 2260,-134 2260,-122 2260,-122 2260,-116 2266,-110 2272,-110 2272,-110 2565,-110 2565,-110 2571,-110 2577,-116 2577,-122 2577,-122 2577,-134 2577,-134 2577,-140 2571,-146 2565,-146"/>
<text text-anchor="middle" x="2418.5" y="-124.3" font-family="Times,serif" font-size="14.00">dep&#45;n&#45;buildxargs&#45;1.4.0&#45;259af26fed844397</text>
</g>
<!-- stage_0&#45;&gt;stage_10 -->
<g id="edge5" class="edge">
<title>stage_0&#45;&gt;stage_10</title>
<path fill="none" stroke="black" d="M1563,-170C1691.24,-166.25 1723.25,-183.53 1851.5,-180"/>
<path fill="none" stroke="black" d="M1853.5,-180C2018.42,-175.46 2059.93,-174.35 2224,-157 2248.12,-154.45 2273.84,-151.06 2298.4,-147.51"/>
<polygon fill="black" stroke="black" points="2299.08,-150.95 2308.47,-146.03 2298.07,-144.02 2299.08,-150.95"/>
</g>
<!-- stage_3 -->
<g id="node7" class="node">
<title>stage_3</title>
<path fill="none" stroke="black" d="M1641,-240C1641,-240 1483,-240 1483,-240 1477,-240 1471,-234 1471,-228 1471,-228 1471,-216 1471,-216 1471,-210 1477,-204 1483,-204 1483,-204 1641,-204 1641,-204 1647,-204 1653,-210 1653,-216 1653,-216 1653,-228 1653,-228 1653,-234 1647,-240 1641,-240"/>
<text text-anchor="middle" x="1562" y="-218.3" font-family="Times,serif" font-size="14.00">out&#45;c679ee00da2ce76d</text>
</g>
<!-- stage_2&#45;&gt;stage_3 -->
<g id="edge6" class="edge">
<title>stage_2&#45;&gt;stage_3</title>
<path fill="none" stroke="black" stroke-dasharray="5,2" d="M1429.11,-222C1439.8,-222 1450.41,-222 1460.7,-222"/>
<polygon fill="none" stroke="black" points="1460.87,-225.5 1470.87,-222 1460.87,-218.5 1460.87,-225.5"/>
</g>
<!-- stage_6 -->
<g id="node9" class="node">
<title>stage_6</title>
<path fill="none" stroke="black" d="M1641.5,-94C1641.5,-94 1482.5,-94 1482.5,-94 1476.5,-94 1470.5,-88 1470.5,-82 1470.5,-82 1470.5,-70 1470.5,-70 1470.5,-64 1476.5,-58 1482.5,-58 1482.5,-58 1641.5,-58 1641.5,-58 1647.5,-58 1653.5,-64 1653.5,-70 1653.5,-70 1653.5,-82 1653.5,-82 1653.5,-88 1647.5,-94 1641.5,-94"/>
<text text-anchor="middle" x="1562" y="-72.3" font-family="Times,serif" font-size="14.00">out&#45;c2266d437937f30d</text>
</g>
<!-- stage_5&#45;&gt;stage_6 -->
<g id="edge11" class="edge">
<title>stage_5&#45;&gt;stage_6</title>
<path fill="none" stroke="black" stroke-dasharray="5,2" d="M1415.32,-81.1C1430.33,-80.58 1445.38,-80.05 1459.81,-79.54"/>
<polygon fill="none" stroke="black" points="1460.33,-83.03 1470.2,-79.18 1460.08,-76.03 1460.33,-83.03"/>
</g>
<!-- stage_9 -->
<g id="node11" class="node">
<title>stage_9</title>
<path fill="none" stroke="black" d="M2212,-146C2212,-146 2058,-146 2058,-146 2052,-146 2046,-140 2046,-134 2046,-134 2046,-122 2046,-122 2046,-116 2052,-110 2058,-110 2058,-110 2212,-110 2212,-110 2218,-110 2224,-116 2224,-122 2224,-122 2224,-134 2224,-134 2224,-140 2218,-146 2212,-146"/>
<text text-anchor="middle" x="2135" y="-124.3" font-family="Times,serif" font-size="14.00">out&#45;1c5c80f20f2734b5</text>
</g>
<!-- stage_8&#45;&gt;stage_9 -->
<g id="edge16" class="edge">
<title>stage_8&#45;&gt;stage_9</title>
<path fill="none" stroke="black" stroke-dasharray="5,2" d="M2010.15,-128C2018.81,-128 2027.38,-128 2035.73,-128"/>
<polygon fill="none" stroke="black" points="2035.8,-131.5 2045.8,-128 2035.8,-124.5 2035.8,-131.5"/>
</g>
<!-- stage_11 -->
<g id="node13" class="node">
<title>stage_11</title>
<path fill="none" stroke="black" d="M2780,-146C2780,-146 2625,-146 2625,-146 2619,-146 2613,-140 2613,-134 2613,-134 2613,-122 2613,-122 2613,-116 2619,-110 2625,-110 2625,-110 2780,-110 2780,-110 2786,-110 2792,-116 2792,-122 2792,-122 2792,-134 2792,-134 2792,-140 2786,-146 2780,-146"/>
<text text-anchor="middle" x="2702.5" y="-124.3" font-family="Times,serif" font-size="14.00">out&#45;259af26fed844397</text>
</g>
<!-- stage_10&#45;&gt;stage_11 -->
<g id="edge20" class="edge">
<title>stage_10&#45;&gt;stage_11</title>
<path fill="none" stroke="black" stroke-dasharray="5,2" d="M2577.4,-128C2585.9,-128 2594.31,-128 2602.51,-128"/>
<polygon fill="none" stroke="black" points="2602.78,-131.5 2612.78,-128 2602.78,-124.5 2602.78,-131.5"/>
</g>
<!-- stage_3&#45;&gt;stage_8 -->
<g id="edge8" class="edge">
<title>stage_3&#45;&gt;stage_8</title>
<path fill="none" stroke="black" stroke-dasharray="1,5" d="M1619.54,-203.93C1632.75,-199.02 1646.58,-193.29 1659,-187 1676.15,-178.31 1677.32,-170.56 1695,-163 1707.37,-157.71 1720.66,-153.17 1734.06,-149.28"/>
<polygon fill="none" stroke="black" points="1734.28,-149.22 1739.01,-143.77 1745.85,-146.04 1741.13,-151.49 1734.28,-149.22"/>
</g>
<!-- stage_3&#45;&gt;stage_10 -->
<g id="edge10" class="edge">
<title>stage_3&#45;&gt;stage_10</title>
<path fill="none" stroke="black" stroke-dasharray="1,5" d="M1649.65,-203.98C1706.7,-193.46 1783.2,-181.88 1851.5,-180"/>
</g>
<!-- stage_1 -->
<g id="node8" class="node">
<title>stage_1</title>
<path fill="none" stroke="black" d="M1072,-243C1072,-243 912,-243 912,-243 906,-243 900,-237 900,-231 900,-231 900,-219 900,-219 900,-213 906,-207 912,-207 912,-207 1072,-207 1072,-207 1078,-207 1084,-213 1084,-219 1084,-219 1084,-231 1084,-231 1084,-237 1078,-243 1072,-243"/>
<text text-anchor="middle" x="992" y="-221.3" font-family="Times,serif" font-size="14.00">cratesio&#45;pico&#45;args&#45;0.5.0</text>
</g>
<!-- stage_1&#45;&gt;stage_2 -->
<g id="edge7" class="edge">
<title>stage_1&#45;&gt;stage_2</title>
<path fill="none" stroke="black" stroke-dasharray="1,5" d="M1084.07,-224.03C1091.72,-223.94 1099.59,-223.86 1107.58,-223.77"/>
<polygon fill="none" stroke="black" points="1107.77,-223.77 1113.73,-219.71 1119.77,-223.64 1113.82,-227.71 1107.77,-223.77"/>
</g>
<!-- stage_6&#45;&gt;stage_8 -->
<g id="edge13" class="edge">
<title>stage_6&#45;&gt;stage_8</title>
<path fill="none" stroke="black" stroke-dasharray="1,5" d="M1653.89,-92.38C1681.06,-97.28 1711.17,-102.71 1739.52,-107.82"/>
<polygon fill="none" stroke="black" points="1739.75,-107.86 1746.36,-104.98 1751.55,-109.99 1744.94,-112.86 1739.75,-107.86"/>
</g>
<!-- stage_6&#45;&gt;stage_10 -->
<g id="edge15" class="edge">
<title>stage_6&#45;&gt;stage_10</title>
<path fill="none" stroke="black" stroke-dasharray="1,5" d="M1653.69,-73.69C1710.54,-72.82 1785.34,-72.71 1851.5,-76"/>
</g>
<!-- stage_4 -->
<g id="node10" class="node">
<title>stage_4</title>
<path fill="none" stroke="black" d="M1057.5,-104C1057.5,-104 926.5,-104 926.5,-104 920.5,-104 914.5,-98 914.5,-92 914.5,-92 914.5,-80 914.5,-80 914.5,-74 920.5,-68 926.5,-68 926.5,-68 1057.5,-68 1057.5,-68 1063.5,-68 1069.5,-74 1069.5,-80 1069.5,-80 1069.5,-92 1069.5,-92 1069.5,-98 1063.5,-104 1057.5,-104"/>
<text text-anchor="middle" x="992" y="-82.3" font-family="Times,serif" font-size="14.00">cratesio&#45;shlex&#45;1.3.0</text>
</g>
<!-- stage_4&#45;&gt;stage_5 -->
<g id="edge12" class="edge">
<title>stage_4&#45;&gt;stage_5</title>
<path fill="none" stroke="black" stroke-dasharray="1,5" d="M1069.65,-86C1085.94,-86 1103.68,-86 1121.67,-86"/>
<polygon fill="none" stroke="black" points="1121.84,-86 1127.84,-82 1133.84,-86 1127.84,-90 1121.84,-86"/>
</g>
<!-- stage_9&#45;&gt;stage_10 -->
<g id="edge19" class="edge">
<title>stage_9&#45;&gt;stage_10</title>
<path fill="none" stroke="black" stroke-dasharray="1,5" d="M2224.3,-128C2231.9,-128 2239.74,-128 2247.71,-128"/>
<polygon fill="none" stroke="black" points="2247.89,-128 2253.89,-124 2259.89,-128 2253.89,-132 2247.89,-128"/>
</g>
<!-- stage_7 -->
<g id="node12" class="node">
<title>stage_7</title>
<path fill="none" stroke="black" d="M1647,-36C1647,-36 1477,-36 1477,-36 1471,-36 1465,-30 1465,-24 1465,-24 1465,-12 1465,-12 1465,-6 1471,0 1477,0 1477,0 1647,0 1647,0 1653,0 1659,-6 1659,-12 1659,-12 1659,-24 1659,-24 1659,-30 1653,-36 1647,-36"/>
<text text-anchor="middle" x="1562" y="-14.3" font-family="Times,serif" font-size="14.00">cratesio&#45;buildxargs&#45;1.4.0</text>
</g>
<!-- stage_7&#45;&gt;stage_8 -->
<g id="edge17" class="edge">
<title>stage_7&#45;&gt;stage_8</title>
<path fill="none" stroke="black" stroke-dasharray="1,5" d="M1638.95,-36.04C1646.01,-39.15 1652.82,-42.77 1659,-47 1680.43,-61.66 1673.05,-79.14 1695,-93 1702.61,-97.81 1710.79,-101.96 1719.29,-105.54"/>
<polygon fill="none" stroke="black" points="1719.42,-105.59 1726.46,-104.04 1730.61,-109.94 1723.56,-111.49 1719.42,-105.59"/>
</g>
<!-- stage_7&#45;&gt;stage_10 -->
<g id="edge18" class="edge">
<title>stage_7&#45;&gt;stage_10</title>
<path fill="none" stroke="black" stroke-dasharray="1,5" d="M1625.07,-36.05C1683.04,-51.56 1772.28,-72.06 1851.5,-76"/>
<path fill="none" stroke="black" stroke-dasharray="1,5" d="M1853.5,-76C2018.28,-84.2 2059.93,-81.65 2224,-99 2247.48,-101.48 2272.47,-104.76 2296.43,-108.21"/>
<polygon fill="none" stroke="black" points="2296.6,-108.23 2303.11,-105.14 2308.47,-109.97 2301.95,-113.06 2296.6,-108.23"/>
</g>
<!-- stage_12 -->
<g id="node14" class="node">
<title>stage_12</title>
<path fill="#e5e5e5" stroke="black" d="M2960,-146C2960,-146 2840,-146 2840,-146 2834,-146 2828,-140 2828,-134 2828,-134 2828,-122 2828,-122 2828,-116 2834,-110 2840,-110 2840,-110 2960,-110 2960,-110 2966,-110 2972,-116 2972,-122 2972,-122 2972,-134 2972,-134 2972,-140 2966,-146 2960,-146"/>
<text text-anchor="middle" x="2900" y="-124.3" font-family="Times,serif" font-size="14.00">12</text>
</g>
<!-- stage_11&#45;&gt;stage_12 -->
<g id="edge21" class="edge">
<title>stage_11&#45;&gt;stage_12</title>
<path fill="none" stroke="black" stroke-dasharray="5,2" d="M2792.1,-128C2800.65,-128 2809.29,-128 2817.76,-128"/>
<polygon fill="none" stroke="black" points="2817.99,-131.5 2827.99,-128 2817.99,-124.5 2817.99,-131.5"/>
</g>
</g>
</svg>
