<?xml version="1.0" encoding="UTF-8" standalone="no"?>
<!DOCTYPE svg PUBLIC "-//W3C//DTD SVG 1.1//EN"
 "http://www.w3.org/Graphics/SVG/1.1/DTD/svg11.dtd">
<!-- Generated by graphviz version 2.43.0 (0)
 -->
<!-- Title: G Pages: 1 -->
<svg width="3426pt" height="251pt"
 viewBox="0.00 0.00 3426.00 251.00" xmlns="http://www.w3.org/2000/svg" xmlns:xlink="http://www.w3.org/1999/xlink">
<g id="graph0" class="graph" transform="scale(1 1) rotate(0) translate(4 247)">
<title>G</title>
<polygon fill="white" stroke="transparent" points="-4,4 -4,-247 3422,-247 3422,4 -4,4"/>
<!-- external_image_0 -->
<g id="node1" class="node">
<title>external_image_0</title>
<path fill="none" stroke="#333333" stroke-dasharray="5,2" d="M851,-185C851,-185 12,-185 12,-185 6,-185 0,-179 0,-173 0,-173 0,-161 0,-161 0,-155 6,-149 12,-149 12,-149 851,-149 851,-149 857,-149 863,-155 863,-161 863,-161 863,-173 863,-173 863,-179 857,-185 851,-185"/>
<text text-anchor="middle" x="431.5" y="-163.3" font-family="Times,serif" font-size="14.00" fill="#333333">docker.io/library/rust:1.90.0&#45;slim@sha256:7fa728f3678acf5980d5db70960cf8491aff9411976789086676bdf0c19db39e</text>
</g>
<!-- stage_0 -->
<g id="node2" class="node">
<title>stage_0</title>
<path fill="none" stroke="black" d="M1051,-185C1051,-185 931,-185 931,-185 925,-185 919,-179 919,-173 919,-173 919,-161 919,-161 919,-155 925,-149 931,-149 931,-149 1051,-149 1051,-149 1057,-149 1063,-155 1063,-161 1063,-161 1063,-173 1063,-173 1063,-179 1057,-185 1051,-185"/>
<text text-anchor="middle" x="991" y="-163.3" font-family="Times,serif" font-size="14.00">rust&#45;base</text>
</g>
<!-- external_image_0&#45;&gt;stage_0 -->
<g id="edge1" class="edge">
<title>external_image_0&#45;&gt;stage_0</title>
<path fill="none" stroke="black" d="M863.15,-167C879.41,-167 894.68,-167 908.61,-167"/>
<polygon fill="black" stroke="black" points="908.98,-170.5 918.98,-167 908.98,-163.5 908.98,-170.5"/>
</g>
<!-- stage_2 -->
<g id="node3" class="node">
<title>stage_2</title>
<path fill="none" stroke="black" d="M1418,-240C1418,-240 1131,-240 1131,-240 1125,-240 1119,-234 1119,-228 1119,-228 1119,-216 1119,-216 1119,-210 1125,-204 1131,-204 1131,-204 1418,-204 1418,-204 1424,-204 1430,-210 1430,-216 1430,-216 1430,-228 1430,-228 1430,-234 1424,-240 1418,-240"/>
<text text-anchor="middle" x="1274.5" y="-218.3" font-family="Times,serif" font-size="14.00">dep&#45;n&#45;pico&#45;args&#45;0.5.0&#45;b23dd1fb69296b44</text>
</g>
<!-- stage_0&#45;&gt;stage_2 -->
<g id="edge2" class="edge">
<title>stage_0&#45;&gt;stage_2</title>
<path fill="none" stroke="black" d="M1063.03,-180.88C1095.79,-187.28 1135.28,-194.99 1171.16,-202.01"/>
<polygon fill="black" stroke="black" points="1170.69,-205.48 1181.18,-203.96 1172.04,-198.61 1170.69,-205.48"/>
</g>
<!-- stage_5 -->
<g id="node4" class="node">
<title>stage_5</title>
<path fill="none" stroke="black" d="M1400.5,-104C1400.5,-104 1148.5,-104 1148.5,-104 1142.5,-104 1136.5,-98 1136.5,-92 1136.5,-92 1136.5,-80 1136.5,-80 1136.5,-74 1142.5,-68 1148.5,-68 1148.5,-68 1400.5,-68 1400.5,-68 1406.5,-68 1412.5,-74 1412.5,-80 1412.5,-80 1412.5,-92 1412.5,-92 1412.5,-98 1406.5,-104 1400.5,-104"/>
<text text-anchor="middle" x="1274.5" y="-82.3" font-family="Times,serif" font-size="14.00">dep&#45;n&#45;shlex&#45;1.3.0&#45;a2dd0fe0df0b57cb</text>
</g>
<!-- stage_0&#45;&gt;stage_5 -->
<g id="edge3" class="edge">
<title>stage_0&#45;&gt;stage_5</title>
<path fill="none" stroke="black" d="M1054.82,-148.92C1098.15,-136.46 1155.86,-119.85 1201.12,-106.83"/>
<polygon fill="black" stroke="black" points="1202.23,-110.15 1210.87,-104.02 1200.29,-103.42 1202.23,-110.15"/>
</g>
<!-- stage_8 -->
<g id="node5" class="node">
<title>stage_8</title>
<path fill="none" stroke="black" d="M2442,-146C2442,-146 2149,-146 2149,-146 2143,-146 2137,-140 2137,-134 2137,-134 2137,-122 2137,-122 2137,-116 2143,-110 2149,-110 2149,-110 2442,-110 2442,-110 2448,-110 2454,-116 2454,-122 2454,-122 2454,-134 2454,-134 2454,-140 2448,-146 2442,-146"/>
<text text-anchor="middle" x="2295.5" y="-124.3" font-family="Times,serif" font-size="14.00">dep&#45;n&#45;buildxargs&#45;1.4.0&#45;6b139e29a6fbee8c</text>
</g>
<!-- stage_0&#45;&gt;stage_8 -->
<g id="edge4" class="edge">
<title>stage_0&#45;&gt;stage_8</title>
<path fill="none" stroke="black" d="M1063.13,-168.19C1201.62,-170.32 1517.14,-174.15 1782.5,-170"/>
<path fill="none" stroke="black" d="M1784.5,-170C1900.44,-168.19 2030.72,-157.31 2130.59,-147.08"/>
<polygon fill="black" stroke="black" points="2131.18,-150.53 2140.77,-146.02 2130.46,-143.57 2131.18,-150.53"/>
</g>
<!-- stage_10 -->
<g id="node6" class="node">
<title>stage_10</title>
<path fill="none" stroke="black" d="M3011,-146C3011,-146 2718,-146 2718,-146 2712,-146 2706,-140 2706,-134 2706,-134 2706,-122 2706,-122 2706,-116 2712,-110 2718,-110 2718,-110 3011,-110 3011,-110 3017,-110 3023,-116 3023,-122 3023,-122 3023,-134 3023,-134 3023,-140 3017,-146 3011,-146"/>
<text text-anchor="middle" x="2864.5" y="-124.3" font-family="Times,serif" font-size="14.00">dep&#45;n&#45;buildxargs&#45;1.4.0&#45;08fbf7e44bba6617</text>
</g>
<!-- stage_0&#45;&gt;stage_10 -->
<g id="edge5" class="edge">
<title>stage_0&#45;&gt;stage_10</title>
<path fill="none" stroke="black" d="M1784.5,-170C2011.18,-166.46 2067.82,-183.54 2294.5,-180"/>
<path fill="none" stroke="black" d="M2296.5,-180C2462.79,-177.4 2504.6,-174.45 2670,-157 2694.2,-154.45 2720,-151.05 2744.62,-147.49"/>
<polygon fill="black" stroke="black" points="2745.34,-150.92 2754.72,-146 2744.32,-143.99 2745.34,-150.92"/>
</g>
<!-- stage_3 -->
<g id="node7" class="node">
<title>stage_3</title>
<path fill="none" stroke="black" d="M1864,-240C1864,-240 1703,-240 1703,-240 1697,-240 1691,-234 1691,-228 1691,-228 1691,-216 1691,-216 1691,-210 1697,-204 1703,-204 1703,-204 1864,-204 1864,-204 1870,-204 1876,-210 1876,-216 1876,-216 1876,-228 1876,-228 1876,-234 1870,-240 1864,-240"/>
<text text-anchor="middle" x="1783.5" y="-218.3" font-family="Times,serif" font-size="14.00">out&#45;b23dd1fb69296b44</text>
</g>
<!-- stage_2&#45;&gt;stage_3 -->
<g id="edge6" class="edge">
<title>stage_2&#45;&gt;stage_3</title>
<path fill="none" stroke="black" stroke-dasharray="5,2" d="M1430.03,-222C1511.23,-222 1608.51,-222 1680.28,-222"/>
<polygon fill="none" stroke="black" points="1680.67,-225.5 1690.67,-222 1680.67,-218.5 1680.67,-225.5"/>
</g>
<!-- stage_6 -->
<g id="node9" class="node">
<title>stage_6</title>
<path fill="none" stroke="black" d="M1860.5,-94C1860.5,-94 1706.5,-94 1706.5,-94 1700.5,-94 1694.5,-88 1694.5,-82 1694.5,-82 1694.5,-70 1694.5,-70 1694.5,-64 1700.5,-58 1706.5,-58 1706.5,-58 1860.5,-58 1860.5,-58 1866.5,-58 1872.5,-64 1872.5,-70 1872.5,-70 1872.5,-82 1872.5,-82 1872.5,-88 1866.5,-94 1860.5,-94"/>
<text text-anchor="middle" x="1783.5" y="-72.3" font-family="Times,serif" font-size="14.00">out&#45;a2dd0fe0df0b57cb</text>
</g>
<!-- stage_5&#45;&gt;stage_6 -->
<g id="edge11" class="edge">
<title>stage_5&#45;&gt;stage_6</title>
<path fill="none" stroke="black" stroke-dasharray="5,2" d="M1412.7,-83.29C1498.44,-81.6 1606.85,-79.46 1684.07,-77.94"/>
<polygon fill="none" stroke="black" points="1684.35,-81.44 1694.28,-77.74 1684.21,-74.44 1684.35,-81.44"/>
</g>
<!-- stage_9 -->
<g id="node11" class="node">
<title>stage_9</title>
<path fill="none" stroke="black" d="M2658,-146C2658,-146 2502,-146 2502,-146 2496,-146 2490,-140 2490,-134 2490,-134 2490,-122 2490,-122 2490,-116 2496,-110 2502,-110 2502,-110 2658,-110 2658,-110 2664,-110 2670,-116 2670,-122 2670,-122 2670,-134 2670,-134 2670,-140 2664,-146 2658,-146"/>
<text text-anchor="middle" x="2580" y="-124.3" font-family="Times,serif" font-size="14.00">out&#45;6b139e29a6fbee8c</text>
</g>
<!-- stage_8&#45;&gt;stage_9 -->
<g id="edge16" class="edge">
<title>stage_8&#45;&gt;stage_9</title>
<path fill="none" stroke="black" stroke-dasharray="5,2" d="M2454.27,-128C2462.89,-128 2471.44,-128 2479.77,-128"/>
<polygon fill="none" stroke="black" points="2479.81,-131.5 2489.81,-128 2479.81,-124.5 2479.81,-131.5"/>
</g>
<!-- stage_11 -->
<g id="node13" class="node">
<title>stage_11</title>
<path fill="none" stroke="black" d="M3226,-146C3226,-146 3071,-146 3071,-146 3065,-146 3059,-140 3059,-134 3059,-134 3059,-122 3059,-122 3059,-116 3065,-110 3071,-110 3071,-110 3226,-110 3226,-110 3232,-110 3238,-116 3238,-122 3238,-122 3238,-134 3238,-134 3238,-140 3232,-146 3226,-146"/>
<text text-anchor="middle" x="3148.5" y="-124.3" font-family="Times,serif" font-size="14.00">out&#45;08fbf7e44bba6617</text>
</g>
<!-- stage_10&#45;&gt;stage_11 -->
<g id="edge20" class="edge">
<title>stage_10&#45;&gt;stage_11</title>
<path fill="none" stroke="black" stroke-dasharray="5,2" d="M3023.4,-128C3031.9,-128 3040.31,-128 3048.51,-128"/>
<polygon fill="none" stroke="black" points="3048.78,-131.5 3058.78,-128 3048.78,-124.5 3048.78,-131.5"/>
</g>
<!-- stage_3&#45;&gt;stage_8 -->
<g id="edge8" class="edge">
<title>stage_3&#45;&gt;stage_8</title>
<path fill="none" stroke="black" stroke-dasharray="1,5" d="M1876.11,-223.25C1940.75,-221.43 2028.4,-213.42 2101,-187 2119.07,-180.42 2119.31,-170.55 2137,-163 2149.35,-157.73 2162.61,-153.2 2175.99,-149.33"/>
<polygon fill="none" stroke="black" points="2176.19,-149.27 2180.91,-143.83 2187.76,-146.09 2183.03,-151.54 2176.19,-149.27"/>
</g>
<!-- stage_3&#45;&gt;stage_10 -->
<g id="edge10" class="edge">
<title>stage_3&#45;&gt;stage_10</title>
<path fill="none" stroke="black" stroke-dasharray="1,5" d="M1876.45,-210.72C1978.43,-199.08 2147.93,-182.29 2294.5,-180"/>
</g>
<!-- stage_1 -->
<g id="node8" class="node">
<title>stage_1</title>
<path fill="none" stroke="black" d="M1071,-243C1071,-243 911,-243 911,-243 905,-243 899,-237 899,-231 899,-231 899,-219 899,-219 899,-213 905,-207 911,-207 911,-207 1071,-207 1071,-207 1077,-207 1083,-213 1083,-219 1083,-219 1083,-231 1083,-231 1083,-237 1077,-243 1071,-243"/>
<text text-anchor="middle" x="991" y="-221.3" font-family="Times,serif" font-size="14.00">cratesio&#45;pico&#45;args&#45;0.5.0</text>
</g>
<!-- stage_1&#45;&gt;stage_2 -->
<g id="edge7" class="edge">
<title>stage_1&#45;&gt;stage_2</title>
<path fill="none" stroke="black" stroke-dasharray="1,5" d="M1083.01,-224.03C1090.69,-223.95 1098.59,-223.86 1106.62,-223.78"/>
<polygon fill="none" stroke="black" points="1106.87,-223.78 1112.83,-219.71 1118.87,-223.65 1112.92,-227.71 1106.87,-223.78"/>
</g>
<!-- stage_6&#45;&gt;stage_8 -->
<g id="edge13" class="edge">
<title>stage_6&#45;&gt;stage_8</title>
<path fill="none" stroke="black" stroke-dasharray="1,5" d="M1872.75,-85C1941.98,-92.06 2040.4,-102.09 2124.76,-110.69"/>
<polygon fill="none" stroke="black" points="2124.89,-110.71 2131.27,-107.34 2136.83,-111.92 2130.46,-115.29 2124.89,-110.71"/>
</g>
<!-- stage_6&#45;&gt;stage_10 -->
<g id="edge15" class="edge">
<title>stage_6&#45;&gt;stage_10</title>
<path fill="none" stroke="black" stroke-dasharray="1,5" d="M1872.51,-74.49C1974.18,-73.1 2146.47,-71.81 2294.5,-76"/>
</g>
<!-- stage_4 -->
<g id="node10" class="node">
<title>stage_4</title>
<path fill="none" stroke="black" d="M1056.5,-104C1056.5,-104 925.5,-104 925.5,-104 919.5,-104 913.5,-98 913.5,-92 913.5,-92 913.5,-80 913.5,-80 913.5,-74 919.5,-68 925.5,-68 925.5,-68 1056.5,-68 1056.5,-68 1062.5,-68 1068.5,-74 1068.5,-80 1068.5,-80 1068.5,-92 1068.5,-92 1068.5,-98 1062.5,-104 1056.5,-104"/>
<text text-anchor="middle" x="991" y="-82.3" font-family="Times,serif" font-size="14.00">cratesio&#45;shlex&#45;1.3.0</text>
</g>
<!-- stage_4&#45;&gt;stage_5 -->
<g id="edge12" class="edge">
<title>stage_4&#45;&gt;stage_5</title>
<path fill="none" stroke="black" stroke-dasharray="1,5" d="M1068.55,-86C1085.94,-86 1105,-86 1124.27,-86"/>
<polygon fill="none" stroke="black" points="1124.28,-86 1130.28,-82 1136.28,-86 1130.28,-90 1124.28,-86"/>
</g>
<!-- stage_9&#45;&gt;stage_10 -->
<g id="edge19" class="edge">
<title>stage_9&#45;&gt;stage_10</title>
<path fill="none" stroke="black" stroke-dasharray="1,5" d="M2670.38,-128C2677.95,-128 2685.75,-128 2693.67,-128"/>
<polygon fill="none" stroke="black" points="2693.78,-128 2699.78,-124 2705.78,-128 2699.78,-132 2693.78,-128"/>
</g>
<!-- stage_7 -->
<g id="node12" class="node">
<title>stage_7</title>
<path fill="none" stroke="black" d="M2089,-36C2089,-36 1478,-36 1478,-36 1472,-36 1466,-30 1466,-24 1466,-24 1466,-12 1466,-12 1466,-6 1472,0 1478,0 1478,0 2089,0 2089,0 2095,0 2101,-6 2101,-12 2101,-12 2101,-24 2101,-24 2101,-30 2095,-36 2089,-36"/>
<text text-anchor="middle" x="1783.5" y="-14.3" font-family="Times,serif" font-size="14.00">checkout&#45;buildxargs&#45;76dd4ee9dadcdcf0&#45;0060a682a2f84b295cfd2cff36602784f36ed9cf</text>
</g>
<!-- stage_7&#45;&gt;stage_8 -->
<g id="edge17" class="edge">
<title>stage_7&#45;&gt;stage_8</title>
<path fill="none" stroke="black" stroke-dasharray="1,5" d="M2078.16,-36.02C2085.98,-39.32 2093.61,-42.97 2101,-47 2123.79,-59.42 2115.04,-79.15 2137,-93 2144.58,-97.78 2152.72,-101.91 2161.17,-105.48"/>
<polygon fill="none" stroke="black" points="2161.24,-105.51 2168.29,-103.96 2172.43,-109.86 2165.39,-111.41 2161.24,-105.51"/>
</g>
<!-- stage_7&#45;&gt;stage_10 -->
<g id="edge18" class="edge">
<title>stage_7&#45;&gt;stage_10</title>
<path fill="none" stroke="black" stroke-dasharray="1,5" d="M1999.62,-36.04C2033.57,-39.37 2068.27,-43.05 2101,-47 2187.33,-57.42 2207.57,-73.54 2294.5,-76"/>
<path fill="none" stroke="black" stroke-dasharray="1,5" d="M2296.5,-76C2462.75,-80.7 2504.6,-81.55 2670,-99 2693.55,-101.49 2718.63,-104.77 2742.65,-108.23"/>
<polygon fill="none" stroke="black" points="2742.85,-108.26 2749.37,-105.17 2754.72,-110 2748.21,-113.08 2742.85,-108.26"/>
</g>
<!-- stage_12 -->
<g id="node14" class="node">
<title>stage_12</title>
<path fill="#e5e5e5" stroke="black" d="M3406,-146C3406,-146 3286,-146 3286,-146 3280,-146 3274,-140 3274,-134 3274,-134 3274,-122 3274,-122 3274,-116 3280,-110 3286,-110 3286,-110 3406,-110 3406,-110 3412,-110 3418,-116 3418,-122 3418,-122 3418,-134 3418,-134 3418,-140 3412,-146 3406,-146"/>
<text text-anchor="middle" x="3346" y="-124.3" font-family="Times,serif" font-size="14.00">12</text>
</g>
<!-- stage_11&#45;&gt;stage_12 -->
<g id="edge21" class="edge">
<title>stage_11&#45;&gt;stage_12</title>
<path fill="none" stroke="black" stroke-dasharray="5,2" d="M3238.1,-128C3246.65,-128 3255.29,-128 3263.76,-128"/>
<polygon fill="none" stroke="black" points="3263.99,-131.5 3273.99,-128 3263.99,-124.5 3263.99,-131.5"/>
</g>
</g>
</svg>
