<?xml version="1.0" encoding="UTF-8" standalone="no"?>
<!DOCTYPE svg PUBLIC "-//W3C//DTD SVG 1.1//EN"
 "http://www.w3.org/Graphics/SVG/1.1/DTD/svg11.dtd">
<!-- Generated by graphviz version 2.43.0 (0)
 -->
<!-- Title: G Pages: 1 -->
<svg width="2850pt" height="308pt"
 viewBox="0.00 0.00 2850.00 308.00" xmlns="http://www.w3.org/2000/svg" xmlns:xlink="http://www.w3.org/1999/xlink">
<g id="graph0" class="graph" transform="scale(1 1) rotate(0) translate(4 304)">
<title>G</title>
<polygon fill="white" stroke="transparent" points="-4,4 -4,-304 2846,-304 2846,4 -4,4"/>
<!-- external_image_0 -->
<g id="node1" class="node">
<title>external_image_0</title>
<path fill="none" stroke="#333333" stroke-dasharray="5,2" d="M851,-229C851,-229 12,-229 12,-229 6,-229 0,-223 0,-217 0,-217 0,-205 0,-205 0,-199 6,-193 12,-193 12,-193 851,-193 851,-193 857,-193 863,-199 863,-205 863,-205 863,-217 863,-217 863,-223 857,-229 851,-229"/>
<text text-anchor="middle" x="431.5" y="-207.3" font-family="Times,serif" font-size="14.00" fill="#333333">docker.io/library/rust:1.90.0&#45;slim@sha256:7fa728f3678acf5980d5db70960cf8491aff9411976789086676bdf0c19db39e</text>
</g>
<!-- stage_0 -->
<g id="node2" class="node">
<title>stage_0</title>
<path fill="none" stroke="black" d="M1059.5,-229C1059.5,-229 939.5,-229 939.5,-229 933.5,-229 927.5,-223 927.5,-217 927.5,-217 927.5,-205 927.5,-205 927.5,-199 933.5,-193 939.5,-193 939.5,-193 1059.5,-193 1059.5,-193 1065.5,-193 1071.5,-199 1071.5,-205 1071.5,-205 1071.5,-217 1071.5,-217 1071.5,-223 1065.5,-229 1059.5,-229"/>
<text text-anchor="middle" x="999.5" y="-207.3" font-family="Times,serif" font-size="14.00">rust&#45;base</text>
</g>
<!-- external_image_0&#45;&gt;stage_0 -->
<g id="edge1" class="edge">
<title>external_image_0&#45;&gt;stage_0</title>
<path fill="none" stroke="black" d="M863.29,-211C882.66,-211 900.76,-211 917,-211"/>
<polygon fill="black" stroke="black" points="917.41,-214.5 927.41,-211 917.41,-207.5 917.41,-214.5"/>
</g>
<!-- stage_2 -->
<g id="node3" class="node">
<title>stage_2</title>
<path fill="none" stroke="black" d="M1429,-293C1429,-293 1169,-293 1169,-293 1163,-293 1157,-287 1157,-281 1157,-281 1157,-269 1157,-269 1157,-263 1163,-257 1169,-257 1169,-257 1429,-257 1429,-257 1435,-257 1441,-263 1441,-269 1441,-269 1441,-281 1441,-281 1441,-287 1435,-293 1429,-293"/>
<text text-anchor="middle" x="1299" y="-271.3" font-family="Times,serif" font-size="14.00">dep&#45;n&#45;shlex&#45;1.3.0&#45;b166d1c75d83103c</text>
</g>
<!-- stage_0&#45;&gt;stage_2 -->
<g id="edge2" class="edge">
<title>stage_0&#45;&gt;stage_2</title>
<path fill="none" stroke="black" d="M1071.76,-226.33C1111.47,-234.87 1161.4,-245.61 1204.25,-254.83"/>
<polygon fill="black" stroke="black" points="1203.61,-258.27 1214.12,-256.96 1205.08,-251.43 1203.61,-258.27"/>
</g>
<!-- stage_5 -->
<g id="node4" class="node">
<title>stage_5</title>
<path fill="none" stroke="black" d="M1979,-235C1979,-235 1731,-235 1731,-235 1725,-235 1719,-229 1719,-223 1719,-223 1719,-211 1719,-211 1719,-205 1725,-199 1731,-199 1731,-199 1979,-199 1979,-199 1985,-199 1991,-205 1991,-211 1991,-211 1991,-223 1991,-223 1991,-229 1985,-235 1979,-235"/>
<text text-anchor="middle" x="1855" y="-213.3" font-family="Times,serif" font-size="14.00">dep&#45;n&#45;cc&#45;1.2.21&#45;2be5714462e04e0b</text>
</g>
<!-- stage_0&#45;&gt;stage_5 -->
<g id="edge3" class="edge">
<title>stage_0&#45;&gt;stage_5</title>
<path fill="none" stroke="black" d="M1300,-217C1438.52,-209.17 1596.83,-210.16 1708.64,-212.52"/>
<polygon fill="black" stroke="black" points="1708.9,-216.03 1718.98,-212.75 1709.06,-209.03 1708.9,-216.03"/>
</g>
<!-- stage_8 -->
<g id="node5" class="node">
<title>stage_8</title>
<path fill="none" stroke="black" d="M1450,-158C1450,-158 1148,-158 1148,-158 1142,-158 1136,-152 1136,-146 1136,-146 1136,-134 1136,-134 1136,-128 1142,-122 1148,-122 1148,-122 1450,-122 1450,-122 1456,-122 1462,-128 1462,-134 1462,-134 1462,-146 1462,-146 1462,-152 1456,-158 1450,-158"/>
<text text-anchor="middle" x="1299" y="-136.3" font-family="Times,serif" font-size="14.00">dep&#45;n&#45;pkg&#45;config&#45;0.3.32&#45;ec662f2448b0e090</text>
</g>
<!-- stage_0&#45;&gt;stage_8 -->
<g id="edge4" class="edge">
<title>stage_0&#45;&gt;stage_8</title>
<path fill="none" stroke="black" d="M1071.76,-193.99C1114.03,-183.91 1167.88,-171.05 1212.44,-160.42"/>
<polygon fill="black" stroke="black" points="1213.47,-163.77 1222.38,-158.05 1211.85,-156.96 1213.47,-163.77"/>
</g>
<!-- stage_11 -->
<g id="node6" class="node">
<title>stage_11</title>
<path fill="none" stroke="black" d="M1436,-63C1436,-63 1162,-63 1162,-63 1156,-63 1150,-57 1150,-51 1150,-51 1150,-39 1150,-39 1150,-33 1156,-27 1162,-27 1162,-27 1436,-27 1436,-27 1442,-27 1448,-33 1448,-39 1448,-39 1448,-51 1448,-51 1448,-57 1442,-63 1436,-63"/>
<text text-anchor="middle" x="1299" y="-41.3" font-family="Times,serif" font-size="14.00">dep&#45;n&#45;vcpkg&#45;0.2.15&#45;1550bc32abbab327</text>
</g>
<!-- stage_0&#45;&gt;stage_11 -->
<g id="edge5" class="edge">
<title>stage_0&#45;&gt;stage_11</title>
<path fill="none" stroke="black" d="M1059.98,-192.9C1074.08,-186.79 1088.38,-178.93 1100,-169 1123.06,-149.28 1112.82,-130.57 1136,-111 1159.46,-91.2 1189.65,-76.74 1217.6,-66.5"/>
<polygon fill="black" stroke="black" points="1219.11,-69.68 1227.37,-63.05 1216.78,-63.08 1219.11,-69.68"/>
</g>
<!-- stage_14 -->
<g id="node7" class="node">
<title>stage_14</title>
<path fill="none" stroke="black" d="M2615,-184C2615,-184 2297,-184 2297,-184 2291,-184 2285,-178 2285,-172 2285,-172 2285,-160 2285,-160 2285,-154 2291,-148 2297,-148 2297,-148 2615,-148 2615,-148 2621,-148 2627,-154 2627,-160 2627,-160 2627,-172 2627,-172 2627,-178 2621,-184 2615,-184"/>
<text text-anchor="middle" x="2456" y="-162.3" font-family="Times,serif" font-size="14.00">dep&#45;x&#45;libsqlite3&#45;sys&#45;0.33.0&#45;9398af2897719efa</text>
</g>
<!-- stage_0&#45;&gt;stage_14 -->
<g id="edge6" class="edge">
<title>stage_0&#45;&gt;stage_14</title>
<path fill="none" stroke="black" d="M1071.53,-216.12C1131.86,-219.58 1220.71,-222.61 1298,-217"/>
<path fill="none" stroke="black" d="M1300,-217C1374.9,-211.57 1392.76,-198.08 1462,-169 1478.88,-161.91 1480.36,-153.88 1498,-149 1634.93,-111.11 1996.6,-106.24 2137,-128"/>
</g>
<!-- stage_3 -->
<g id="node8" class="node">
<title>stage_3</title>
<path fill="none" stroke="black" d="M1671,-300C1671,-300 1510,-300 1510,-300 1504,-300 1498,-294 1498,-288 1498,-288 1498,-276 1498,-276 1498,-270 1504,-264 1510,-264 1510,-264 1671,-264 1671,-264 1677,-264 1683,-270 1683,-276 1683,-276 1683,-288 1683,-288 1683,-294 1677,-300 1671,-300"/>
<text text-anchor="middle" x="1590.5" y="-278.3" font-family="Times,serif" font-size="14.00">out&#45;b166d1c75d83103c</text>
</g>
<!-- stage_2&#45;&gt;stage_3 -->
<g id="edge7" class="edge">
<title>stage_2&#45;&gt;stage_3</title>
<path fill="none" stroke="black" stroke-dasharray="5,2" d="M1441.36,-278.42C1456.98,-278.8 1472.66,-279.17 1487.67,-279.54"/>
<polygon fill="none" stroke="black" points="1487.86,-283.04 1497.94,-279.79 1488.03,-276.05 1487.86,-283.04"/>
</g>
<!-- stage_6 -->
<g id="node10" class="node">
<title>stage_6</title>
<path fill="none" stroke="black" d="M2219,-223C2219,-223 2057,-223 2057,-223 2051,-223 2045,-217 2045,-211 2045,-211 2045,-199 2045,-199 2045,-193 2051,-187 2057,-187 2057,-187 2219,-187 2219,-187 2225,-187 2231,-193 2231,-199 2231,-199 2231,-211 2231,-211 2231,-217 2225,-223 2219,-223"/>
<text text-anchor="middle" x="2138" y="-201.3" font-family="Times,serif" font-size="14.00">out&#45;2be5714462e04e0b</text>
</g>
<!-- stage_5&#45;&gt;stage_6 -->
<g id="edge12" class="edge">
<title>stage_5&#45;&gt;stage_6</title>
<path fill="none" stroke="black" stroke-dasharray="5,2" d="M1991.15,-211.23C2005.75,-210.61 2020.42,-209.98 2034.54,-209.38"/>
<polygon fill="none" stroke="black" points="2034.87,-212.86 2044.71,-208.94 2034.57,-205.87 2034.87,-212.86"/>
</g>
<!-- stage_9 -->
<g id="node12" class="node">
<title>stage_9</title>
<path fill="none" stroke="black" d="M1934,-94C1934,-94 1776,-94 1776,-94 1770,-94 1764,-88 1764,-82 1764,-82 1764,-70 1764,-70 1764,-64 1770,-58 1776,-58 1776,-58 1934,-58 1934,-58 1940,-58 1946,-64 1946,-70 1946,-70 1946,-82 1946,-82 1946,-88 1940,-94 1934,-94"/>
<text text-anchor="middle" x="1855" y="-72.3" font-family="Times,serif" font-size="14.00">out&#45;ec662f2448b0e090</text>
</g>
<!-- stage_8&#45;&gt;stage_9 -->
<g id="edge15" class="edge">
<title>stage_8&#45;&gt;stage_9</title>
<path fill="none" stroke="black" stroke-dasharray="5,2" d="M1406.95,-122C1436.4,-117.38 1468.39,-112.69 1498,-109 1584.01,-98.29 1682.1,-89.45 1753.51,-83.62"/>
<polygon fill="none" stroke="black" points="1754.16,-87.08 1763.85,-82.78 1753.6,-80.1 1754.16,-87.08"/>
</g>
<!-- stage_12 -->
<g id="node14" class="node">
<title>stage_12</title>
<path fill="none" stroke="black" d="M1935.5,-36C1935.5,-36 1774.5,-36 1774.5,-36 1768.5,-36 1762.5,-30 1762.5,-24 1762.5,-24 1762.5,-12 1762.5,-12 1762.5,-6 1768.5,0 1774.5,0 1774.5,0 1935.5,0 1935.5,0 1941.5,0 1947.5,-6 1947.5,-12 1947.5,-12 1947.5,-24 1947.5,-24 1947.5,-30 1941.5,-36 1935.5,-36"/>
<text text-anchor="middle" x="1855" y="-14.3" font-family="Times,serif" font-size="14.00">out&#45;1550bc32abbab327</text>
</g>
<!-- stage_11&#45;&gt;stage_12 -->
<g id="edge18" class="edge">
<title>stage_11&#45;&gt;stage_12</title>
<path fill="none" stroke="black" stroke-dasharray="5,2" d="M1448.1,-37.78C1544.19,-33.1 1666.93,-27.12 1752.15,-22.96"/>
<polygon fill="none" stroke="black" points="1752.54,-26.45 1762.36,-22.47 1752.2,-19.46 1752.54,-26.45"/>
</g>
<!-- stage_15 -->
<g id="node16" class="node">
<title>stage_15</title>
<path fill="none" stroke="black" d="M2830,-184C2830,-184 2675,-184 2675,-184 2669,-184 2663,-178 2663,-172 2663,-172 2663,-160 2663,-160 2663,-154 2669,-148 2675,-148 2675,-148 2830,-148 2830,-148 2836,-148 2842,-154 2842,-160 2842,-160 2842,-172 2842,-172 2842,-178 2836,-184 2830,-184"/>
<text text-anchor="middle" x="2752.5" y="-162.3" font-family="Times,serif" font-size="14.00">out&#45;9398af2897719efa</text>
</g>
<!-- stage_14&#45;&gt;stage_15 -->
<g id="edge21" class="edge">
<title>stage_14&#45;&gt;stage_15</title>
<path fill="none" stroke="black" stroke-dasharray="5,2" d="M2627.03,-166C2635.74,-166 2644.33,-166 2652.69,-166"/>
<polygon fill="none" stroke="black" points="2652.77,-169.5 2662.77,-166 2652.77,-162.5 2652.77,-169.5"/>
</g>
<!-- stage_3&#45;&gt;stage_5 -->
<g id="edge9" class="edge">
<title>stage_3&#45;&gt;stage_5</title>
<path fill="none" stroke="black" stroke-dasharray="1,5" d="M1664.27,-263.98C1696.85,-255.91 1735.46,-246.35 1769.32,-237.97"/>
<polygon fill="none" stroke="black" points="1769.44,-237.94 1774.3,-232.61 1781.09,-235.05 1776.22,-240.38 1769.44,-237.94"/>
</g>
<!-- stage_3&#45;&gt;stage_14 -->
<g id="edge11" class="edge">
<title>stage_3&#45;&gt;stage_14</title>
<path fill="none" stroke="black" stroke-dasharray="1,5" d="M1683.11,-282.38C1811.04,-281.31 2049.87,-273.51 2249,-234 2301.23,-223.64 2358.6,-203.98 2399.5,-188.46"/>
<polygon fill="none" stroke="black" points="2399.64,-188.4 2403.81,-182.52 2410.84,-184.1 2406.68,-189.98 2399.64,-188.4"/>
</g>
<!-- stage_1 -->
<g id="node9" class="node">
<title>stage_1</title>
<path fill="none" stroke="black" d="M1065,-293C1065,-293 934,-293 934,-293 928,-293 922,-287 922,-281 922,-281 922,-269 922,-269 922,-263 928,-257 934,-257 934,-257 1065,-257 1065,-257 1071,-257 1077,-263 1077,-269 1077,-269 1077,-281 1077,-281 1077,-287 1071,-293 1065,-293"/>
<text text-anchor="middle" x="999.5" y="-271.3" font-family="Times,serif" font-size="14.00">cratesio&#45;shlex&#45;1.3.0</text>
</g>
<!-- stage_1&#45;&gt;stage_2 -->
<g id="edge8" class="edge">
<title>stage_1&#45;&gt;stage_2</title>
<path fill="none" stroke="black" stroke-dasharray="1,5" d="M1077.11,-275C1097.93,-275 1121.24,-275 1144.69,-275"/>
<polygon fill="none" stroke="black" points="1144.96,-275 1150.96,-271 1156.96,-275 1150.96,-279 1144.96,-275"/>
</g>
<!-- stage_6&#45;&gt;stage_14 -->
<g id="edge14" class="edge">
<title>stage_6&#45;&gt;stage_14</title>
<path fill="none" stroke="black" stroke-dasharray="1,5" d="M2231.25,-193.61C2251.94,-191.06 2274.47,-188.28 2296.99,-185.5"/>
<polygon fill="none" stroke="black" points="2297.21,-185.47 2302.68,-180.77 2309.12,-184 2303.66,-188.71 2297.21,-185.47"/>
</g>
<!-- stage_4 -->
<g id="node11" class="node">
<title>stage_4</title>
<path fill="none" stroke="black" d="M1650.5,-196C1650.5,-196 1530.5,-196 1530.5,-196 1524.5,-196 1518.5,-190 1518.5,-184 1518.5,-184 1518.5,-172 1518.5,-172 1518.5,-166 1524.5,-160 1530.5,-160 1530.5,-160 1650.5,-160 1650.5,-160 1656.5,-160 1662.5,-166 1662.5,-172 1662.5,-172 1662.5,-184 1662.5,-184 1662.5,-190 1656.5,-196 1650.5,-196"/>
<text text-anchor="middle" x="1590.5" y="-174.3" font-family="Times,serif" font-size="14.00">cratesio&#45;cc&#45;1.2.21</text>
</g>
<!-- stage_4&#45;&gt;stage_5 -->
<g id="edge13" class="edge">
<title>stage_4&#45;&gt;stage_5</title>
<path fill="none" stroke="black" stroke-dasharray="1,5" d="M1662.54,-188.55C1680.6,-191.24 1700.61,-194.21 1720.68,-197.19"/>
<polygon fill="none" stroke="black" points="1720.96,-197.23 1727.49,-194.16 1732.83,-199 1726.31,-202.07 1720.96,-197.23"/>
</g>
<!-- stage_9&#45;&gt;stage_14 -->
<g id="edge17" class="edge">
<title>stage_9&#45;&gt;stage_14</title>
<path fill="none" stroke="black" stroke-dasharray="1,5" d="M1945.94,-94.03C2000.97,-104.72 2072.9,-118.07 2137,-128"/>
</g>
<!-- stage_7 -->
<g id="node13" class="node">
<title>stage_7</title>
<path fill="none" stroke="black" d="M1088,-158C1088,-158 911,-158 911,-158 905,-158 899,-152 899,-146 899,-146 899,-134 899,-134 899,-128 905,-122 911,-122 911,-122 1088,-122 1088,-122 1094,-122 1100,-128 1100,-134 1100,-134 1100,-146 1100,-146 1100,-152 1094,-158 1088,-158"/>
<text text-anchor="middle" x="999.5" y="-136.3" font-family="Times,serif" font-size="14.00">cratesio&#45;pkg&#45;config&#45;0.3.32</text>
</g>
<!-- stage_7&#45;&gt;stage_8 -->
<g id="edge16" class="edge">
<title>stage_7&#45;&gt;stage_8</title>
<path fill="none" stroke="black" stroke-dasharray="1,5" d="M1100.39,-140C1108.01,-140 1115.83,-140 1123.74,-140"/>
<polygon fill="none" stroke="black" points="1123.82,-140 1129.82,-136 1135.82,-140 1129.82,-144 1123.82,-140"/>
</g>
<!-- stage_12&#45;&gt;stage_14 -->
<g id="edge20" class="edge">
<title>stage_12&#45;&gt;stage_14</title>
<path fill="none" stroke="black" stroke-dasharray="1,5" d="M1947.68,-27.26C1963.05,-31.65 1978.16,-37.96 1991,-47 2015.81,-64.47 2002.14,-87.6 2027,-105 2067.92,-133.64 2087.64,-120.35 2137,-128"/>
<path fill="none" stroke="black" stroke-dasharray="1,5" d="M2139,-128C2182.89,-134.8 2230.37,-141.08 2274.86,-146.49"/>
<polygon fill="none" stroke="black" points="2275.11,-146.52 2281.54,-143.27 2287.02,-147.96 2280.59,-151.21 2275.11,-146.52"/>
</g>
<!-- stage_10 -->
<g id="node15" class="node">
<title>stage_10</title>
<path fill="none" stroke="black" d="M1072.5,-63C1072.5,-63 926.5,-63 926.5,-63 920.5,-63 914.5,-57 914.5,-51 914.5,-51 914.5,-39 914.5,-39 914.5,-33 920.5,-27 926.5,-27 926.5,-27 1072.5,-27 1072.5,-27 1078.5,-27 1084.5,-33 1084.5,-39 1084.5,-39 1084.5,-51 1084.5,-51 1084.5,-57 1078.5,-63 1072.5,-63"/>
<text text-anchor="middle" x="999.5" y="-41.3" font-family="Times,serif" font-size="14.00">cratesio&#45;vcpkg&#45;0.2.15</text>
</g>
<!-- stage_10&#45;&gt;stage_11 -->
<g id="edge19" class="edge">
<title>stage_10&#45;&gt;stage_11</title>
<path fill="none" stroke="black" stroke-dasharray="1,5" d="M1084.56,-45C1101.33,-45 1119.47,-45 1137.84,-45"/>
<polygon fill="none" stroke="black" points="1137.93,-45 1143.93,-41 1149.93,-45 1143.93,-49 1137.93,-45"/>
</g>
<!-- stage_13 -->
<g id="node17" class="node">
<title>stage_13</title>
<path fill="none" stroke="black" d="M2237,-94C2237,-94 2039,-94 2039,-94 2033,-94 2027,-88 2027,-82 2027,-82 2027,-70 2027,-70 2027,-64 2033,-58 2039,-58 2039,-58 2237,-58 2237,-58 2243,-58 2249,-64 2249,-70 2249,-70 2249,-82 2249,-82 2249,-88 2243,-94 2237,-94"/>
<text text-anchor="middle" x="2138" y="-72.3" font-family="Times,serif" font-size="14.00">cratesio&#45;libsqlite3&#45;sys&#45;0.33.0</text>
</g>
<!-- stage_13&#45;&gt;stage_14 -->
<g id="edge22" class="edge">
<title>stage_13&#45;&gt;stage_14</title>
<path fill="none" stroke="black" stroke-dasharray="1,5" d="M2202.57,-94.1C2253.78,-108.69 2325.9,-129.23 2379.94,-144.62"/>
<polygon fill="none" stroke="black" points="2379.99,-144.64 2386.86,-142.43 2391.53,-147.92 2384.67,-150.13 2379.99,-144.64"/>
</g>
<!-- stage_16 -->
<g id="node18" class="node">
<title>stage_16</title>
<path fill="#e5e5e5" stroke="black" d="M491.5,-287C491.5,-287 371.5,-287 371.5,-287 365.5,-287 359.5,-281 359.5,-275 359.5,-275 359.5,-263 359.5,-263 359.5,-257 365.5,-251 371.5,-251 371.5,-251 491.5,-251 491.5,-251 497.5,-251 503.5,-257 503.5,-263 503.5,-263 503.5,-275 503.5,-275 503.5,-281 497.5,-287 491.5,-287"/>
<text text-anchor="middle" x="431.5" y="-265.3" font-family="Times,serif" font-size="14.00">16</text>
</g>
</g>
</svg>
