<?xml version="1.0" encoding="UTF-8" standalone="no"?>
<!DOCTYPE svg PUBLIC "-//W3C//DTD SVG 1.1//EN"
 "http://www.w3.org/Graphics/SVG/1.1/DTD/svg11.dtd">
<!-- Generated by graphviz version 2.43.0 (0)
 -->
<!-- Title: G Pages: 1 -->
<svg width="4255pt" height="674pt"
 viewBox="0.00 0.00 4255.00 673.72" xmlns="http://www.w3.org/2000/svg" xmlns:xlink="http://www.w3.org/1999/xlink">
<g id="graph0" class="graph" transform="scale(1 1) rotate(0) translate(4 669.72)">
<title>G</title>
<polygon fill="white" stroke="transparent" points="-4,4 -4,-669.72 4251,-669.72 4251,4 -4,4"/>
<!-- external_image_0 -->
<g id="node1" class="node">
<title>external_image_0</title>
<path fill="none" stroke="#333333" stroke-dasharray="5,2" d="M851,-265.57C851,-265.57 12,-265.57 12,-265.57 6,-265.57 0,-259.57 0,-253.57 0,-253.57 0,-241.57 0,-241.57 0,-235.57 6,-229.57 12,-229.57 12,-229.57 851,-229.57 851,-229.57 857,-229.57 863,-235.57 863,-241.57 863,-241.57 863,-253.57 863,-253.57 863,-259.57 857,-265.57 851,-265.57"/>
<text text-anchor="middle" x="431.5" y="-243.87" font-family="Times,serif" font-size="14.00" fill="#333333">docker.io/library/rust:1.90.0&#45;slim@sha256:7fa728f3678acf5980d5db70960cf8491aff9411976789086676bdf0c19db39e</text>
</g>
<!-- stage_0 -->
<g id="node2" class="node">
<title>stage_0</title>
<path fill="none" stroke="black" d="M1054.5,-265.57C1054.5,-265.57 934.5,-265.57 934.5,-265.57 928.5,-265.57 922.5,-259.57 922.5,-253.57 922.5,-253.57 922.5,-241.57 922.5,-241.57 922.5,-235.57 928.5,-229.57 934.5,-229.57 934.5,-229.57 1054.5,-229.57 1054.5,-229.57 1060.5,-229.57 1066.5,-235.57 1066.5,-241.57 1066.5,-241.57 1066.5,-253.57 1066.5,-253.57 1066.5,-259.57 1060.5,-265.57 1054.5,-265.57"/>
<text text-anchor="middle" x="994.5" y="-243.87" font-family="Times,serif" font-size="14.00">rust&#45;base</text>
</g>
<!-- external_image_0&#45;&gt;stage_0 -->
<g id="edge1" class="edge">
<title>external_image_0&#45;&gt;stage_0</title>
<path fill="none" stroke="black" d="M863.03,-247.57C880.65,-247.57 897.14,-247.57 912.08,-247.57"/>
<polygon fill="black" stroke="black" points="912.17,-251.07 922.17,-247.57 912.17,-244.07 912.17,-251.07"/>
</g>
<!-- stage_2 -->
<g id="node3" class="node">
<title>stage_2</title>
<path fill="none" stroke="black" d="M1421,-148.57C1421,-148.57 1138,-148.57 1138,-148.57 1132,-148.57 1126,-142.57 1126,-136.57 1126,-136.57 1126,-124.57 1126,-124.57 1126,-118.57 1132,-112.57 1138,-112.57 1138,-112.57 1421,-112.57 1421,-112.57 1427,-112.57 1433,-118.57 1433,-124.57 1433,-124.57 1433,-136.57 1433,-136.57 1433,-142.57 1427,-148.57 1421,-148.57"/>
<text text-anchor="middle" x="1279.5" y="-126.87" font-family="Times,serif" font-size="14.00">dep&#45;x&#45;anyhow&#45;1.0.100&#45;f9fd03f8c3c43dd1</text>
</g>
<!-- stage_0&#45;&gt;stage_2 -->
<g id="edge2" class="edge">
<title>stage_0&#45;&gt;stage_2</title>
<path fill="none" stroke="black" d="M1039.1,-229.55C1089.27,-208.81 1171.64,-174.75 1225.48,-152.49"/>
<polygon fill="black" stroke="black" points="1226.95,-155.67 1234.85,-148.62 1224.27,-149.2 1226.95,-155.67"/>
</g>
<!-- stage_4 -->
<g id="node4" class="node">
<title>stage_4</title>
<path fill="none" stroke="black" d="M2034,-96.57C2034,-96.57 1742,-96.57 1742,-96.57 1736,-96.57 1730,-90.57 1730,-84.57 1730,-84.57 1730,-72.57 1730,-72.57 1730,-66.57 1736,-60.57 1742,-60.57 1742,-60.57 2034,-60.57 2034,-60.57 2040,-60.57 2046,-66.57 2046,-72.57 2046,-72.57 2046,-84.57 2046,-84.57 2046,-90.57 2040,-96.57 2034,-96.57"/>
<text text-anchor="middle" x="1888" y="-74.87" font-family="Times,serif" font-size="14.00">run&#45;z&#45;anyhow&#45;1.0.100&#45;d45b6249b823f856</text>
</g>
<!-- stage_0&#45;&gt;stage_4 -->
<g id="edge3" class="edge">
<title>stage_0&#45;&gt;stage_4</title>
<path fill="none" stroke="black" d="M1050.41,-265.64C1107.13,-283.94 1198.42,-312.34 1278.5,-332.57"/>
<path fill="none" stroke="black" d="M1280.5,-332.57C1370.88,-355.41 1382.65,-275.71 1469,-240.57 1514.95,-221.87 1527.14,-218.64 1575,-205.57"/>
<path fill="none" stroke="black" d="M1577,-205.57C1674.73,-178.88 1782.98,-129.72 1842.19,-101.02"/>
<polygon fill="black" stroke="black" points="1843.81,-104.12 1851.26,-96.6 1840.74,-97.83 1843.81,-104.12"/>
</g>
<!-- stage_6 -->
<g id="node5" class="node">
<title>stage_6</title>
<path fill="none" stroke="black" d="M2630,-96.57C2630,-96.57 2339,-96.57 2339,-96.57 2333,-96.57 2327,-90.57 2327,-84.57 2327,-84.57 2327,-72.57 2327,-72.57 2327,-66.57 2333,-60.57 2339,-60.57 2339,-60.57 2630,-60.57 2630,-60.57 2636,-60.57 2642,-66.57 2642,-72.57 2642,-72.57 2642,-84.57 2642,-84.57 2642,-90.57 2636,-96.57 2630,-96.57"/>
<text text-anchor="middle" x="2484.5" y="-74.87" font-family="Times,serif" font-size="14.00">dep&#45;n&#45;anyhow&#45;1.0.100&#45;8d1dc5ae4f738a51</text>
</g>
<!-- stage_0&#45;&gt;stage_6 -->
<g id="edge4" class="edge">
<title>stage_0&#45;&gt;stage_6</title>
<path fill="none" stroke="black" d="M1577,-205.57C1837.65,-134.38 1915.31,-205.81 2184.5,-182.57"/>
<path fill="none" stroke="black" d="M2186.5,-182.57C2235.02,-178.55 2359.96,-129.71 2431.38,-100.41"/>
<polygon fill="black" stroke="black" points="2432.75,-103.63 2440.66,-96.59 2430.08,-97.16 2432.75,-103.63"/>
</g>
<!-- stage_9 -->
<g id="node6" class="node">
<title>stage_9</title>
<path fill="none" stroke="black" d="M2619,-610.57C2619,-610.57 2350,-610.57 2350,-610.57 2344,-610.57 2338,-604.57 2338,-598.57 2338,-598.57 2338,-586.57 2338,-586.57 2338,-580.57 2344,-574.57 2350,-574.57 2350,-574.57 2619,-574.57 2619,-574.57 2625,-574.57 2631,-580.57 2631,-586.57 2631,-586.57 2631,-598.57 2631,-598.57 2631,-604.57 2625,-610.57 2619,-610.57"/>
<text text-anchor="middle" x="2484.5" y="-588.87" font-family="Times,serif" font-size="14.00">dep&#45;n&#45;home&#45;0.5.12&#45;46a3f77b3083d543</text>
</g>
<!-- stage_0&#45;&gt;stage_9 -->
<g id="edge5" class="edge">
<title>stage_0&#45;&gt;stage_9</title>
<path fill="none" stroke="black" d="M1889,-644.57C2019.85,-633.33 2053.29,-650.27 2184.5,-644.57"/>
<path fill="none" stroke="black" d="M2186.5,-644.57C2224.34,-642.93 2314.28,-626.53 2385.34,-612.58"/>
<polygon fill="black" stroke="black" points="2386.1,-616 2395.24,-610.63 2384.75,-609.13 2386.1,-616"/>
</g>
<!-- stage_12 -->
<g id="node7" class="node">
<title>stage_12</title>
<path fill="none" stroke="black" d="M2014.5,-529.57C2014.5,-529.57 1761.5,-529.57 1761.5,-529.57 1755.5,-529.57 1749.5,-523.57 1749.5,-517.57 1749.5,-517.57 1749.5,-505.57 1749.5,-505.57 1749.5,-499.57 1755.5,-493.57 1761.5,-493.57 1761.5,-493.57 2014.5,-493.57 2014.5,-493.57 2020.5,-493.57 2026.5,-499.57 2026.5,-505.57 2026.5,-505.57 2026.5,-517.57 2026.5,-517.57 2026.5,-523.57 2020.5,-529.57 2014.5,-529.57"/>
<text text-anchor="middle" x="1888" y="-507.87" font-family="Times,serif" font-size="14.00">dep&#45;n&#45;log&#45;0.4.28&#45;64be2e589e1b58c5</text>
</g>
<!-- stage_0&#45;&gt;stage_12 -->
<g id="edge6" class="edge">
<title>stage_0&#45;&gt;stage_12</title>
<path fill="none" stroke="black" d="M1280.5,-332.57C1465.38,-379.28 1392.86,-588.14 1575,-644.57"/>
<path fill="none" stroke="black" d="M1577,-644.57C1630.91,-661.28 1779.39,-577.42 1849.46,-534.97"/>
<polygon fill="black" stroke="black" points="1851.29,-537.96 1858.01,-529.76 1847.65,-531.98 1851.29,-537.96"/>
</g>
<!-- stage_15 -->
<g id="node8" class="node">
<title>stage_15</title>
<path fill="none" stroke="black" d="M2622.5,-503.57C2622.5,-503.57 2346.5,-503.57 2346.5,-503.57 2340.5,-503.57 2334.5,-497.57 2334.5,-491.57 2334.5,-491.57 2334.5,-479.57 2334.5,-479.57 2334.5,-473.57 2340.5,-467.57 2346.5,-467.57 2346.5,-467.57 2622.5,-467.57 2622.5,-467.57 2628.5,-467.57 2634.5,-473.57 2634.5,-479.57 2634.5,-479.57 2634.5,-491.57 2634.5,-491.57 2634.5,-497.57 2628.5,-503.57 2622.5,-503.57"/>
<text text-anchor="middle" x="2484.5" y="-481.87" font-family="Times,serif" font-size="14.00">dep&#45;n&#45;os_info&#45;3.12.0&#45;2e95c4cd8dc3cea9</text>
</g>
<!-- stage_0&#45;&gt;stage_15 -->
<g id="edge7" class="edge">
<title>stage_0&#45;&gt;stage_15</title>
<path fill="none" stroke="black" d="M1577,-644.57C1708.61,-685.35 1749.74,-656.48 1887,-644.57"/>
<path fill="none" stroke="black" d="M1889,-644.57C1986.19,-636.14 1999.45,-591.24 2093,-563.57 2178.65,-538.24 2277.31,-518.61 2354.04,-505.38"/>
<polygon fill="black" stroke="black" points="2354.97,-508.77 2364.23,-503.64 2353.79,-501.87 2354.97,-508.77"/>
</g>
<!-- stage_18 -->
<g id="node9" class="node">
<title>stage_18</title>
<path fill="none" stroke="black" d="M2045,-252.57C2045,-252.57 1731,-252.57 1731,-252.57 1725,-252.57 1719,-246.57 1719,-240.57 1719,-240.57 1719,-228.57 1719,-228.57 1719,-222.57 1725,-216.57 1731,-216.57 1731,-216.57 2045,-216.57 2045,-216.57 2051,-216.57 2057,-222.57 2057,-228.57 2057,-228.57 2057,-240.57 2057,-240.57 2057,-246.57 2051,-252.57 2045,-252.57"/>
<text text-anchor="middle" x="1888" y="-230.87" font-family="Times,serif" font-size="14.00">dep&#45;x&#45;kani&#45;verifier&#45;0.66.0&#45;0875237c4d7f2d7d</text>
</g>
<!-- stage_0&#45;&gt;stage_18 -->
<g id="edge8" class="edge">
<title>stage_0&#45;&gt;stage_18</title>
<path fill="none" stroke="black" d="M1577,-205.57C1612.48,-195.88 1697.86,-204.69 1770.04,-215.07"/>
<polygon fill="black" stroke="black" points="1769.73,-218.56 1780.13,-216.54 1770.74,-211.63 1769.73,-218.56"/>
</g>
<!-- stage_20 -->
<g id="node10" class="node">
<title>stage_20</title>
<path fill="none" stroke="black" d="M2643,-200.57C2643,-200.57 2326,-200.57 2326,-200.57 2320,-200.57 2314,-194.57 2314,-188.57 2314,-188.57 2314,-176.57 2314,-176.57 2314,-170.57 2320,-164.57 2326,-164.57 2326,-164.57 2643,-164.57 2643,-164.57 2649,-164.57 2655,-170.57 2655,-176.57 2655,-176.57 2655,-188.57 2655,-188.57 2655,-194.57 2649,-200.57 2643,-200.57"/>
<text text-anchor="middle" x="2484.5" y="-178.87" font-family="Times,serif" font-size="14.00">run&#45;z&#45;kani&#45;verifier&#45;0.66.0&#45;5b332a90b563b71d</text>
</g>
<!-- stage_0&#45;&gt;stage_20 -->
<g id="edge9" class="edge">
<title>stage_0&#45;&gt;stage_20</title>
<path fill="none" stroke="black" d="M2186.5,-182.57C2224.23,-179.32 2264.75,-177.93 2303.36,-177.61"/>
<polygon fill="black" stroke="black" points="2303.68,-181.1 2313.66,-177.54 2303.64,-174.1 2303.68,-181.1"/>
</g>
<!-- stage_22 -->
<g id="node11" class="node">
<title>stage_22</title>
<path fill="none" stroke="black" d="M3243,-327.57C3243,-327.57 2927,-327.57 2927,-327.57 2921,-327.57 2915,-321.57 2915,-315.57 2915,-315.57 2915,-303.57 2915,-303.57 2915,-297.57 2921,-291.57 2927,-291.57 2927,-291.57 3243,-291.57 3243,-291.57 3249,-291.57 3255,-297.57 3255,-303.57 3255,-303.57 3255,-315.57 3255,-315.57 3255,-321.57 3249,-327.57 3243,-327.57"/>
<text text-anchor="middle" x="3085" y="-305.87" font-family="Times,serif" font-size="14.00">dep&#45;n&#45;kani&#45;verifier&#45;0.66.0&#45;dfd373a18b646a92</text>
</g>
<!-- stage_0&#45;&gt;stage_22 -->
<g id="edge10" class="edge">
<title>stage_0&#45;&gt;stage_22</title>
<path fill="none" stroke="black" d="M1280.5,-332.57C1798.98,-463.56 1948.74,-309.57 2483.5,-309.57"/>
</g>
<!-- stage_24 -->
<g id="node12" class="node">
<title>stage_24</title>
<path fill="none" stroke="black" d="M3837,-327.57C3837,-327.57 3522,-327.57 3522,-327.57 3516,-327.57 3510,-321.57 3510,-315.57 3510,-315.57 3510,-303.57 3510,-303.57 3510,-297.57 3516,-291.57 3522,-291.57 3522,-291.57 3837,-291.57 3837,-291.57 3843,-291.57 3849,-297.57 3849,-303.57 3849,-303.57 3849,-315.57 3849,-315.57 3849,-321.57 3843,-327.57 3837,-327.57"/>
<text text-anchor="middle" x="3679.5" y="-305.87" font-family="Times,serif" font-size="14.00">dep&#45;n&#45;kani&#45;verifier&#45;0.66.0&#45;9e144b88b270f21c</text>
</g>
<!-- stage_0&#45;&gt;stage_24 -->
<g id="edge11" class="edge">
<title>stage_0&#45;&gt;stage_24</title>
<path fill="none" stroke="black" d="M2186.5,-644.57C2494.38,-631.21 2577.92,-675.29 2879,-609.57 2974.71,-588.68 2986.68,-539.77 3084,-528.57"/>
</g>
<!-- stage_3 -->
<g id="node13" class="node">
<title>stage_3</title>
<path fill="none" stroke="black" d="M1651,-148.57C1651,-148.57 1501,-148.57 1501,-148.57 1495,-148.57 1489,-142.57 1489,-136.57 1489,-136.57 1489,-124.57 1489,-124.57 1489,-118.57 1495,-112.57 1501,-112.57 1501,-112.57 1651,-112.57 1651,-112.57 1657,-112.57 1663,-118.57 1663,-124.57 1663,-124.57 1663,-136.57 1663,-136.57 1663,-142.57 1657,-148.57 1651,-148.57"/>
<text text-anchor="middle" x="1576" y="-126.87" font-family="Times,serif" font-size="14.00">out&#45;f9fd03f8c3c43dd1</text>
</g>
<!-- stage_2&#45;&gt;stage_3 -->
<g id="edge12" class="edge">
<title>stage_2&#45;&gt;stage_3</title>
<path fill="none" stroke="black" stroke-dasharray="5,2" d="M1433.36,-130.57C1448.68,-130.57 1463.93,-130.57 1478.43,-130.57"/>
<polygon fill="none" stroke="black" points="1478.85,-134.07 1488.85,-130.57 1478.85,-127.07 1478.85,-134.07"/>
</g>
<!-- stage_5 -->
<g id="node15" class="node">
<title>stage_5</title>
<path fill="none" stroke="black" d="M2266,-96.57C2266,-96.57 2105,-96.57 2105,-96.57 2099,-96.57 2093,-90.57 2093,-84.57 2093,-84.57 2093,-72.57 2093,-72.57 2093,-66.57 2099,-60.57 2105,-60.57 2105,-60.57 2266,-60.57 2266,-60.57 2272,-60.57 2278,-66.57 2278,-72.57 2278,-72.57 2278,-84.57 2278,-84.57 2278,-90.57 2272,-96.57 2266,-96.57"/>
<text text-anchor="middle" x="2185.5" y="-74.87" font-family="Times,serif" font-size="14.00">out&#45;d45b6249b823f856</text>
</g>
<!-- stage_4&#45;&gt;stage_5 -->
<g id="edge19" class="edge">
<title>stage_4&#45;&gt;stage_5</title>
<path fill="none" stroke="black" stroke-dasharray="5,2" d="M2046.27,-78.57C2058.53,-78.57 2070.7,-78.57 2082.44,-78.57"/>
<polygon fill="none" stroke="black" points="2082.65,-82.07 2092.65,-78.57 2082.65,-75.07 2082.65,-82.07"/>
</g>
<!-- stage_7 -->
<g id="node16" class="node">
<title>stage_7</title>
<path fill="none" stroke="black" d="M2863.5,-96.57C2863.5,-96.57 2706.5,-96.57 2706.5,-96.57 2700.5,-96.57 2694.5,-90.57 2694.5,-84.57 2694.5,-84.57 2694.5,-72.57 2694.5,-72.57 2694.5,-66.57 2700.5,-60.57 2706.5,-60.57 2706.5,-60.57 2863.5,-60.57 2863.5,-60.57 2869.5,-60.57 2875.5,-66.57 2875.5,-72.57 2875.5,-72.57 2875.5,-84.57 2875.5,-84.57 2875.5,-90.57 2869.5,-96.57 2863.5,-96.57"/>
<text text-anchor="middle" x="2785" y="-74.87" font-family="Times,serif" font-size="14.00">out&#45;8d1dc5ae4f738a51</text>
</g>
<!-- stage_6&#45;&gt;stage_7 -->
<g id="edge21" class="edge">
<title>stage_6&#45;&gt;stage_7</title>
<path fill="none" stroke="black" stroke-dasharray="5,2" d="M2642.18,-78.57C2656.43,-78.57 2670.58,-78.57 2684.12,-78.57"/>
<polygon fill="none" stroke="black" points="2684.35,-82.07 2694.35,-78.57 2684.35,-75.07 2684.35,-82.07"/>
</g>
<!-- stage_10 -->
<g id="node17" class="node">
<title>stage_10</title>
<path fill="none" stroke="black" d="M2865,-598.57C2865,-598.57 2705,-598.57 2705,-598.57 2699,-598.57 2693,-592.57 2693,-586.57 2693,-586.57 2693,-574.57 2693,-574.57 2693,-568.57 2699,-562.57 2705,-562.57 2705,-562.57 2865,-562.57 2865,-562.57 2871,-562.57 2877,-568.57 2877,-574.57 2877,-574.57 2877,-586.57 2877,-586.57 2877,-592.57 2871,-598.57 2865,-598.57"/>
<text text-anchor="middle" x="2785" y="-576.87" font-family="Times,serif" font-size="14.00">out&#45;46a3f77b3083d543</text>
</g>
<!-- stage_9&#45;&gt;stage_10 -->
<g id="edge25" class="edge">
<title>stage_9&#45;&gt;stage_10</title>
<path fill="none" stroke="black" stroke-dasharray="5,2" d="M2631.25,-586.71C2648.66,-586.01 2666.12,-585.31 2682.7,-584.65"/>
<polygon fill="none" stroke="black" points="2683.06,-588.13 2692.91,-584.23 2682.77,-581.14 2683.06,-588.13"/>
</g>
<!-- stage_13 -->
<g id="node19" class="node">
<title>stage_13</title>
<path fill="none" stroke="black" d="M2266,-448.57C2266,-448.57 2105,-448.57 2105,-448.57 2099,-448.57 2093,-442.57 2093,-436.57 2093,-436.57 2093,-424.57 2093,-424.57 2093,-418.57 2099,-412.57 2105,-412.57 2105,-412.57 2266,-412.57 2266,-412.57 2272,-412.57 2278,-418.57 2278,-424.57 2278,-424.57 2278,-436.57 2278,-436.57 2278,-442.57 2272,-448.57 2266,-448.57"/>
<text text-anchor="middle" x="2185.5" y="-426.87" font-family="Times,serif" font-size="14.00">out&#45;64be2e589e1b58c5</text>
</g>
<!-- stage_12&#45;&gt;stage_13 -->
<g id="edge30" class="edge">
<title>stage_12&#45;&gt;stage_13</title>
<path fill="none" stroke="black" stroke-dasharray="5,2" d="M1954.95,-493.5C2000.52,-481 2061.27,-464.35 2108.82,-451.32"/>
<polygon fill="none" stroke="black" points="2110.03,-454.61 2118.75,-448.59 2108.18,-447.86 2110.03,-454.61"/>
</g>
<!-- stage_16 -->
<g id="node21" class="node">
<title>stage_16</title>
<path fill="none" stroke="black" d="M2863,-494.57C2863,-494.57 2707,-494.57 2707,-494.57 2701,-494.57 2695,-488.57 2695,-482.57 2695,-482.57 2695,-470.57 2695,-470.57 2695,-464.57 2701,-458.57 2707,-458.57 2707,-458.57 2863,-458.57 2863,-458.57 2869,-458.57 2875,-464.57 2875,-470.57 2875,-470.57 2875,-482.57 2875,-482.57 2875,-488.57 2869,-494.57 2863,-494.57"/>
<text text-anchor="middle" x="2785" y="-472.87" font-family="Times,serif" font-size="14.00">out&#45;2e95c4cd8dc3cea9</text>
</g>
<!-- stage_15&#45;&gt;stage_16 -->
<g id="edge37" class="edge">
<title>stage_15&#45;&gt;stage_16</title>
<path fill="none" stroke="black" stroke-dasharray="5,2" d="M2634.75,-481.07C2651.61,-480.56 2668.47,-480.06 2684.46,-479.57"/>
<polygon fill="none" stroke="black" points="2684.95,-483.06 2694.84,-479.26 2684.74,-476.06 2684.95,-483.06"/>
</g>
<!-- stage_19 -->
<g id="node23" class="node">
<title>stage_19</title>
<path fill="none" stroke="black" d="M2265,-252.57C2265,-252.57 2106,-252.57 2106,-252.57 2100,-252.57 2094,-246.57 2094,-240.57 2094,-240.57 2094,-228.57 2094,-228.57 2094,-222.57 2100,-216.57 2106,-216.57 2106,-216.57 2265,-216.57 2265,-216.57 2271,-216.57 2277,-222.57 2277,-228.57 2277,-228.57 2277,-240.57 2277,-240.57 2277,-246.57 2271,-252.57 2265,-252.57"/>
<text text-anchor="middle" x="2185.5" y="-230.87" font-family="Times,serif" font-size="14.00">out&#45;0875237c4d7f2d7d</text>
</g>
<!-- stage_18&#45;&gt;stage_19 -->
<g id="edge42" class="edge">
<title>stage_18&#45;&gt;stage_19</title>
<path fill="none" stroke="black" stroke-dasharray="5,2" d="M2057.04,-234.57C2066.1,-234.57 2075.05,-234.57 2083.76,-234.57"/>
<polygon fill="none" stroke="black" points="2083.87,-238.07 2093.87,-234.57 2083.87,-231.07 2083.87,-238.07"/>
</g>
<!-- stage_21 -->
<g id="node25" class="node">
<title>stage_21</title>
<path fill="none" stroke="black" d="M2867,-200.57C2867,-200.57 2703,-200.57 2703,-200.57 2697,-200.57 2691,-194.57 2691,-188.57 2691,-188.57 2691,-176.57 2691,-176.57 2691,-170.57 2697,-164.57 2703,-164.57 2703,-164.57 2867,-164.57 2867,-164.57 2873,-164.57 2879,-170.57 2879,-176.57 2879,-176.57 2879,-188.57 2879,-188.57 2879,-194.57 2873,-200.57 2867,-200.57"/>
<text text-anchor="middle" x="2785" y="-178.87" font-family="Times,serif" font-size="14.00">out&#45;5b332a90b563b71d</text>
</g>
<!-- stage_20&#45;&gt;stage_21 -->
<g id="edge49" class="edge">
<title>stage_20&#45;&gt;stage_21</title>
<path fill="none" stroke="black" stroke-dasharray="5,2" d="M2655.24,-182.57C2663.92,-182.57 2672.51,-182.57 2680.88,-182.57"/>
<polygon fill="none" stroke="black" points="2680.97,-186.07 2690.97,-182.57 2680.97,-179.07 2680.97,-186.07"/>
</g>
<!-- stage_23 -->
<g id="node26" class="node">
<title>stage_23</title>
<path fill="none" stroke="black" d="M3462,-327.57C3462,-327.57 3303,-327.57 3303,-327.57 3297,-327.57 3291,-321.57 3291,-315.57 3291,-315.57 3291,-303.57 3291,-303.57 3291,-297.57 3297,-291.57 3303,-291.57 3303,-291.57 3462,-291.57 3462,-291.57 3468,-291.57 3474,-297.57 3474,-303.57 3474,-303.57 3474,-315.57 3474,-315.57 3474,-321.57 3468,-327.57 3462,-327.57"/>
<text text-anchor="middle" x="3382.5" y="-305.87" font-family="Times,serif" font-size="14.00">out&#45;dfd373a18b646a92</text>
</g>
<!-- stage_22&#45;&gt;stage_23 -->
<g id="edge52" class="edge">
<title>stage_22&#45;&gt;stage_23</title>
<path fill="none" stroke="black" stroke-dasharray="5,2" d="M3255.32,-309.57C3263.94,-309.57 3272.46,-309.57 3280.76,-309.57"/>
<polygon fill="none" stroke="black" points="3280.76,-313.07 3290.76,-309.57 3280.76,-306.07 3280.76,-313.07"/>
</g>
<!-- stage_25 -->
<g id="node27" class="node">
<title>stage_25</title>
<path fill="none" stroke="black" d="M4055,-327.57C4055,-327.57 3897,-327.57 3897,-327.57 3891,-327.57 3885,-321.57 3885,-315.57 3885,-315.57 3885,-303.57 3885,-303.57 3885,-297.57 3891,-291.57 3897,-291.57 3897,-291.57 4055,-291.57 4055,-291.57 4061,-291.57 4067,-297.57 4067,-303.57 4067,-303.57 4067,-315.57 4067,-315.57 4067,-321.57 4061,-327.57 4055,-327.57"/>
<text text-anchor="middle" x="3976" y="-305.87" font-family="Times,serif" font-size="14.00">out&#45;9e144b88b270f21c</text>
</g>
<!-- stage_24&#45;&gt;stage_25 -->
<g id="edge54" class="edge">
<title>stage_24&#45;&gt;stage_25</title>
<path fill="none" stroke="black" stroke-dasharray="5,2" d="M3849.25,-309.57C3857.93,-309.57 3866.51,-309.57 3874.86,-309.57"/>
<polygon fill="none" stroke="black" points="3874.93,-313.07 3884.93,-309.57 3874.93,-306.07 3874.93,-313.07"/>
</g>
<!-- stage_3&#45;&gt;stage_4 -->
<g id="edge16" class="edge">
<title>stage_3&#45;&gt;stage_4</title>
<path fill="none" stroke="black" stroke-dasharray="1,5" d="M1663.35,-116.09C1695.56,-110.68 1732.73,-104.45 1767.4,-98.63"/>
<polygon fill="none" stroke="black" points="1767.72,-98.58 1772.97,-93.64 1779.55,-96.6 1774.3,-101.53 1767.72,-98.58"/>
</g>
<!-- stage_3&#45;&gt;stage_22 -->
<g id="edge17" class="edge">
<title>stage_3&#45;&gt;stage_22</title>
<path fill="none" stroke="black" stroke-dasharray="1,5" d="M1663.02,-130.57C1780.73,-130.57 1998.61,-130.57 2184.5,-130.57 2184.5,-130.57 2184.5,-130.57 2485.5,-130.57 2660.69,-130.57 2723.82,-72.28 2879,-153.57 2902,-165.62 2895.86,-182.03 2915,-199.57 2952.89,-234.3 3002.9,-265.37 3038.67,-285.56"/>
<polygon fill="none" stroke="black" points="3038.8,-285.63 3045.99,-285.06 3049.29,-291.47 3042.1,-292.05 3038.8,-285.63"/>
</g>
<!-- stage_3&#45;&gt;stage_24 -->
<g id="edge18" class="edge">
<title>stage_3&#45;&gt;stage_24</title>
<path fill="none" stroke="black" stroke-dasharray="1,5" d="M1650.7,-112.53C1662.07,-108.01 1673.25,-102.43 1683,-95.57 1704.24,-80.64 1695.95,-61.52 1719,-49.57 1902.92,45.72 1977.36,-26.57 2184.5,-26.57 2184.5,-26.57 2184.5,-26.57 2485.5,-26.57 2660.69,-26.57 2712.54,5.03 2879,-49.57 2982.2,-83.42 2975.86,-172.52 3084,-182.57"/>
<path fill="none" stroke="black" stroke-dasharray="1,5" d="M3086,-182.57C3276.56,-199.74 3495.41,-256.62 3606.17,-288.11"/>
<polygon fill="none" stroke="black" points="3606.3,-288.15 3613.17,-285.96 3617.84,-291.45 3610.97,-293.65 3606.3,-288.15"/>
</g>
<!-- stage_1 -->
<g id="node14" class="node">
<title>stage_1</title>
<path fill="none" stroke="black" d="M1078,-122.57C1078,-122.57 911,-122.57 911,-122.57 905,-122.57 899,-116.57 899,-110.57 899,-110.57 899,-98.57 899,-98.57 899,-92.57 905,-86.57 911,-86.57 911,-86.57 1078,-86.57 1078,-86.57 1084,-86.57 1090,-92.57 1090,-98.57 1090,-98.57 1090,-110.57 1090,-110.57 1090,-116.57 1084,-122.57 1078,-122.57"/>
<text text-anchor="middle" x="994.5" y="-100.87" font-family="Times,serif" font-size="14.00">cratesio&#45;anyhow&#45;1.0.100</text>
</g>
<!-- stage_1&#45;&gt;stage_2 -->
<g id="edge13" class="edge">
<title>stage_1&#45;&gt;stage_2</title>
<path fill="none" stroke="black" stroke-dasharray="1,5" d="M1090.13,-113.27C1097.81,-113.97 1105.7,-114.7 1113.69,-115.43"/>
<polygon fill="none" stroke="black" points="1113.94,-115.45 1120.28,-112.02 1125.89,-116.55 1119.55,-119.99 1113.94,-115.45"/>
</g>
<!-- stage_1&#45;&gt;stage_4 -->
<g id="edge14" class="edge">
<title>stage_1&#45;&gt;stage_4</title>
<path fill="none" stroke="black" stroke-dasharray="1,5" d="M1577,-78.57C1622.56,-75.02 1672,-73.82 1717.74,-73.81"/>
<polygon fill="none" stroke="black" points="1717.91,-73.81 1723.91,-69.82 1729.91,-73.83 1723.9,-77.82 1717.91,-73.81"/>
</g>
<!-- stage_1&#45;&gt;stage_6 -->
<g id="edge15" class="edge">
<title>stage_1&#45;&gt;stage_6</title>
<path fill="none" stroke="black" stroke-dasharray="1,5" d="M1090.22,-102.24C1205.07,-98.98 1404.44,-91.88 1575,-78.57"/>
<path fill="none" stroke="black" stroke-dasharray="1,5" d="M1577,-78.57C1641.06,-71.83 1654.91,-56.05 1719,-49.57 1966.19,-24.59 2030.17,-32.17 2278,-49.57 2306.07,-51.54 2336.14,-55.01 2364.37,-58.88"/>
<polygon fill="none" stroke="black" points="2364.46,-58.89 2370.96,-55.76 2376.35,-60.56 2369.85,-63.68 2364.46,-58.89"/>
</g>
<!-- stage_5&#45;&gt;stage_6 -->
<g id="edge20" class="edge">
<title>stage_5&#45;&gt;stage_6</title>
<path fill="none" stroke="black" stroke-dasharray="1,5" d="M2278.03,-78.57C2289.85,-78.57 2302.24,-78.57 2314.82,-78.57"/>
<polygon fill="none" stroke="black" points="2314.93,-78.57 2320.93,-74.57 2326.93,-78.57 2320.93,-82.57 2314.93,-78.57"/>
</g>
<!-- stage_7&#45;&gt;stage_22 -->
<g id="edge22" class="edge">
<title>stage_7&#45;&gt;stage_22</title>
<path fill="none" stroke="black" stroke-dasharray="1,5" d="M2854.39,-96.77C2863.38,-101.23 2871.92,-106.75 2879,-113.57 2908.83,-142.33 2888.46,-167.75 2915,-199.57 2946.7,-237.58 2994.93,-267.16 3031.76,-286.02"/>
<polygon fill="none" stroke="black" points="3032.06,-286.17 3039.21,-285.27 3042.8,-291.53 3035.64,-292.43 3032.06,-286.17"/>
</g>
<!-- stage_7&#45;&gt;stage_24 -->
<g id="edge24" class="edge">
<title>stage_7&#45;&gt;stage_24</title>
<path fill="none" stroke="black" stroke-dasharray="1,5" d="M2835.84,-96.69C2917.29,-126.19 3071.2,-181.47 3084,-182.57"/>
</g>
<!-- stage_10&#45;&gt;stage_22 -->
<g id="edge27" class="edge">
<title>stage_10&#45;&gt;stage_22</title>
<path fill="none" stroke="black" stroke-dasharray="1,5" d="M2809.76,-562.31C2828.83,-547.44 2856.09,-525.7 2879,-505.57 2945.27,-447.36 3019.17,-374.64 3057.58,-336.22"/>
<polygon fill="none" stroke="black" points="3057.64,-336.17 3059.04,-329.1 3066.11,-327.67 3064.7,-334.74 3057.64,-336.17"/>
</g>
<!-- stage_10&#45;&gt;stage_24 -->
<g id="edge29" class="edge">
<title>stage_10&#45;&gt;stage_24</title>
<path fill="none" stroke="black" stroke-dasharray="1,5" d="M2848.81,-562.54C2908.75,-547.03 3001.82,-527.31 3084,-528.57"/>
</g>
<!-- stage_8 -->
<g id="node18" class="node">
<title>stage_8</title>
<path fill="none" stroke="black" d="M2257,-610.57C2257,-610.57 2114,-610.57 2114,-610.57 2108,-610.57 2102,-604.57 2102,-598.57 2102,-598.57 2102,-586.57 2102,-586.57 2102,-580.57 2108,-574.57 2114,-574.57 2114,-574.57 2257,-574.57 2257,-574.57 2263,-574.57 2269,-580.57 2269,-586.57 2269,-586.57 2269,-598.57 2269,-598.57 2269,-604.57 2263,-610.57 2257,-610.57"/>
<text text-anchor="middle" x="2185.5" y="-588.87" font-family="Times,serif" font-size="14.00">cratesio&#45;home&#45;0.5.12</text>
</g>
<!-- stage_8&#45;&gt;stage_9 -->
<g id="edge26" class="edge">
<title>stage_8&#45;&gt;stage_9</title>
<path fill="none" stroke="black" stroke-dasharray="1,5" d="M2269.23,-592.57C2286.93,-592.57 2306.19,-592.57 2325.66,-592.57"/>
<polygon fill="none" stroke="black" points="2325.8,-592.57 2331.8,-588.57 2337.8,-592.57 2331.8,-596.57 2325.8,-592.57"/>
</g>
<!-- stage_13&#45;&gt;stage_15 -->
<g id="edge32" class="edge">
<title>stage_13&#45;&gt;stage_15</title>
<path fill="none" stroke="black" stroke-dasharray="1,5" d="M2278.03,-447.52C2308.41,-453.15 2342.54,-459.47 2374.12,-465.32"/>
<polygon fill="none" stroke="black" points="2374.29,-465.35 2380.92,-462.51 2386.09,-467.53 2379.46,-470.37 2374.29,-465.35"/>
</g>
<!-- stage_13&#45;&gt;stage_22 -->
<g id="edge34" class="edge">
<title>stage_13&#45;&gt;stage_22</title>
<path fill="none" stroke="black" stroke-dasharray="1,5" d="M2278.29,-427.45C2337.04,-426.3 2414.86,-426.35 2483.5,-431.57"/>
<path fill="none" stroke="black" stroke-dasharray="1,5" d="M2485.5,-431.57C2687.8,-446.98 2922.02,-371.21 3027.44,-331.95"/>
<polygon fill="none" stroke="black" points="3027.52,-331.92 3031.72,-326.06 3038.75,-327.69 3034.54,-333.55 3027.52,-331.92"/>
</g>
<!-- stage_13&#45;&gt;stage_24 -->
<g id="edge36" class="edge">
<title>stage_13&#45;&gt;stage_24</title>
<path fill="none" stroke="black" stroke-dasharray="1,5" d="M2485.5,-431.57C2561.53,-435.86 2589.76,-417.3 2655,-456.57 2678.15,-470.51 2667.26,-492.67 2691,-505.57 2844.73,-589.12 2909.06,-525.89 3084,-528.57"/>
</g>
<!-- stage_11 -->
<g id="node20" class="node">
<title>stage_11</title>
<path fill="none" stroke="black" d="M1638.5,-529.57C1638.5,-529.57 1513.5,-529.57 1513.5,-529.57 1507.5,-529.57 1501.5,-523.57 1501.5,-517.57 1501.5,-517.57 1501.5,-505.57 1501.5,-505.57 1501.5,-499.57 1507.5,-493.57 1513.5,-493.57 1513.5,-493.57 1638.5,-493.57 1638.5,-493.57 1644.5,-493.57 1650.5,-499.57 1650.5,-505.57 1650.5,-505.57 1650.5,-517.57 1650.5,-517.57 1650.5,-523.57 1644.5,-529.57 1638.5,-529.57"/>
<text text-anchor="middle" x="1576" y="-507.87" font-family="Times,serif" font-size="14.00">cratesio&#45;log&#45;0.4.28</text>
</g>
<!-- stage_11&#45;&gt;stage_12 -->
<g id="edge31" class="edge">
<title>stage_11&#45;&gt;stage_12</title>
<path fill="none" stroke="black" stroke-dasharray="1,5" d="M1650.86,-511.57C1676.83,-511.57 1707.03,-511.57 1736.99,-511.57"/>
<polygon fill="none" stroke="black" points="1737.34,-511.57 1743.34,-507.57 1749.34,-511.57 1743.34,-515.57 1737.34,-511.57"/>
</g>
<!-- stage_16&#45;&gt;stage_22 -->
<g id="edge39" class="edge">
<title>stage_16&#45;&gt;stage_22</title>
<path fill="none" stroke="black" stroke-dasharray="1,5" d="M2839.95,-458.48C2852.96,-453.52 2866.67,-447.77 2879,-441.57 2942.18,-409.8 3010.21,-363.28 3049.85,-334.79"/>
<polygon fill="none" stroke="black" points="3050.05,-334.64 3052.56,-327.89 3059.77,-327.61 3057.25,-334.37 3050.05,-334.64"/>
</g>
<!-- stage_16&#45;&gt;stage_24 -->
<g id="edge41" class="edge">
<title>stage_16&#45;&gt;stage_24</title>
<path fill="none" stroke="black" stroke-dasharray="1,5" d="M2853.47,-494.6C2913.5,-509.13 3003.92,-527.35 3084,-528.57"/>
</g>
<!-- stage_14 -->
<g id="node22" class="node">
<title>stage_14</title>
<path fill="none" stroke="black" d="M2262,-506.57C2262,-506.57 2109,-506.57 2109,-506.57 2103,-506.57 2097,-500.57 2097,-494.57 2097,-494.57 2097,-482.57 2097,-482.57 2097,-476.57 2103,-470.57 2109,-470.57 2109,-470.57 2262,-470.57 2262,-470.57 2268,-470.57 2274,-476.57 2274,-482.57 2274,-482.57 2274,-494.57 2274,-494.57 2274,-500.57 2268,-506.57 2262,-506.57"/>
<text text-anchor="middle" x="2185.5" y="-484.87" font-family="Times,serif" font-size="14.00">cratesio&#45;os_info&#45;3.12.0</text>
</g>
<!-- stage_14&#45;&gt;stage_15 -->
<g id="edge38" class="edge">
<title>stage_14&#45;&gt;stage_15</title>
<path fill="none" stroke="black" stroke-dasharray="1,5" d="M2274,-487.69C2289.29,-487.53 2305.61,-487.37 2322.15,-487.2"/>
<polygon fill="none" stroke="black" points="2322.23,-487.2 2328.18,-483.14 2334.23,-487.08 2328.27,-491.14 2322.23,-487.2"/>
</g>
<!-- stage_19&#45;&gt;stage_20 -->
<g id="edge47" class="edge">
<title>stage_19&#45;&gt;stage_20</title>
<path fill="none" stroke="black" stroke-dasharray="1,5" d="M2277.22,-218.69C2306.06,-213.64 2338.35,-207.99 2368.66,-202.68"/>
<polygon fill="none" stroke="black" points="2368.79,-202.66 2374.01,-197.68 2380.61,-200.59 2375.39,-205.56 2368.79,-202.66"/>
</g>
<!-- stage_19&#45;&gt;stage_24 -->
<g id="edge48" class="edge">
<title>stage_19&#45;&gt;stage_24</title>
<path fill="none" stroke="black" stroke-dasharray="1,5" d="M2277.16,-234.66C2409.62,-234.08 2663.74,-230.32 2879,-211.57 2970.67,-203.59 2992.32,-174.69 3084,-182.57"/>
</g>
<!-- stage_17 -->
<g id="node24" class="node">
<title>stage_17</title>
<path fill="none" stroke="black" d="M1671,-287.57C1671,-287.57 1481,-287.57 1481,-287.57 1475,-287.57 1469,-281.57 1469,-275.57 1469,-275.57 1469,-263.57 1469,-263.57 1469,-257.57 1475,-251.57 1481,-251.57 1481,-251.57 1671,-251.57 1671,-251.57 1677,-251.57 1683,-257.57 1683,-263.57 1683,-263.57 1683,-275.57 1683,-275.57 1683,-281.57 1677,-287.57 1671,-287.57"/>
<text text-anchor="middle" x="1576" y="-265.87" font-family="Times,serif" font-size="14.00">cratesio&#45;kani&#45;verifier&#45;0.66.0</text>
</g>
<!-- stage_17&#45;&gt;stage_18 -->
<g id="edge43" class="edge">
<title>stage_17&#45;&gt;stage_18</title>
<path fill="none" stroke="black" stroke-dasharray="1,5" d="M1683.25,-257.58C1693.63,-256.41 1704.33,-255.2 1715.15,-253.98"/>
<polygon fill="none" stroke="black" points="1715.47,-253.94 1720.98,-249.29 1727.39,-252.59 1721.88,-257.24 1715.47,-253.94"/>
</g>
<!-- stage_17&#45;&gt;stage_20 -->
<g id="edge44" class="edge">
<title>stage_17&#45;&gt;stage_20</title>
<path fill="none" stroke="black" stroke-dasharray="1,5" d="M1683.02,-272.81C1743,-275.28 1819.32,-279.51 1887,-286.57"/>
<path fill="none" stroke="black" stroke-dasharray="1,5" d="M1889,-286.57C2019.62,-300.2 2053.46,-295.41 2184.5,-286.57"/>
<path fill="none" stroke="black" stroke-dasharray="1,5" d="M2186.5,-286.57C2280.78,-280.22 2383.24,-234.97 2439.79,-206.29"/>
<polygon fill="none" stroke="black" points="2439.8,-206.29 2443.31,-199.98 2450.47,-200.79 2446.97,-207.1 2439.8,-206.29"/>
</g>
<!-- stage_17&#45;&gt;stage_22 -->
<g id="edge45" class="edge">
<title>stage_17&#45;&gt;stage_22</title>
<path fill="none" stroke="black" stroke-dasharray="1,5" d="M2186.5,-286.57C2318.6,-277.67 2351.1,-309.57 2483.5,-309.57"/>
<path fill="none" stroke="black" stroke-dasharray="1,5" d="M2485.5,-309.57C2625.51,-309.57 2783.95,-309.57 2902.62,-309.57"/>
<polygon fill="none" stroke="black" points="2902.7,-309.57 2908.7,-305.57 2914.7,-309.57 2908.7,-313.57 2902.7,-309.57"/>
</g>
<!-- stage_17&#45;&gt;stage_24 -->
<g id="edge46" class="edge">
<title>stage_17&#45;&gt;stage_24</title>
<path fill="none" stroke="black" stroke-dasharray="1,5" d="M1889,-286.57C2332.38,-332.82 2449.22,-329.2 2879,-447.57 2973.45,-473.59 2986.05,-527.01 3084,-528.57"/>
<path fill="none" stroke="black" stroke-dasharray="1,5" d="M3086,-528.57C3308.09,-528.79 3549.59,-391.61 3640.81,-334.28"/>
<polygon fill="none" stroke="black" points="3641.04,-334.13 3643.96,-327.54 3651.17,-327.7 3648.25,-334.3 3641.04,-334.13"/>
</g>
<!-- stage_21&#45;&gt;stage_22 -->
<g id="edge50" class="edge">
<title>stage_21&#45;&gt;stage_22</title>
<path fill="none" stroke="black" stroke-dasharray="1,5" d="M2828.38,-200.63C2881.41,-223.23 2972.27,-261.96 3030.17,-286.63"/>
<polygon fill="none" stroke="black" points="3030.24,-286.66 3037.33,-285.34 3041.28,-291.37 3034.2,-292.7 3030.24,-286.66"/>
</g>
<!-- stage_21&#45;&gt;stage_24 -->
<g id="edge51" class="edge">
<title>stage_21&#45;&gt;stage_24</title>
<path fill="none" stroke="black" stroke-dasharray="1,5" d="M2879.13,-178.48C2937.98,-176.9 3015.57,-176.69 3084,-182.57"/>
</g>
<!-- stage_23&#45;&gt;stage_24 -->
<g id="edge53" class="edge">
<title>stage_23&#45;&gt;stage_24</title>
<path fill="none" stroke="black" stroke-dasharray="1,5" d="M3474.01,-309.57C3481.66,-309.57 3489.55,-309.57 3497.58,-309.57"/>
<polygon fill="none" stroke="black" points="3497.86,-309.57 3503.86,-305.57 3509.86,-309.57 3503.86,-313.57 3497.86,-309.57"/>
</g>
<!-- stage_26 -->
<g id="node28" class="node">
<title>stage_26</title>
<path fill="#e5e5e5" stroke="black" d="M4235,-327.57C4235,-327.57 4115,-327.57 4115,-327.57 4109,-327.57 4103,-321.57 4103,-315.57 4103,-315.57 4103,-303.57 4103,-303.57 4103,-297.57 4109,-291.57 4115,-291.57 4115,-291.57 4235,-291.57 4235,-291.57 4241,-291.57 4247,-297.57 4247,-303.57 4247,-303.57 4247,-315.57 4247,-315.57 4247,-321.57 4241,-327.57 4235,-327.57"/>
<text text-anchor="middle" x="4175" y="-305.87" font-family="Times,serif" font-size="14.00">26</text>
</g>
<!-- stage_25&#45;&gt;stage_26 -->
<g id="edge55" class="edge">
<title>stage_25&#45;&gt;stage_26</title>
<path fill="none" stroke="black" stroke-dasharray="5,2" d="M4067.14,-309.57C4075.64,-309.57 4084.22,-309.57 4092.63,-309.57"/>
<polygon fill="none" stroke="black" points="4092.79,-313.07 4102.79,-309.57 4092.79,-306.07 4092.79,-313.07"/>
</g>
</g>
</svg>
