<?xml version="1.0" encoding="UTF-8" standalone="no"?>
<!DOCTYPE svg PUBLIC "-//W3C//DTD SVG 1.1//EN"
 "http://www.w3.org/Graphics/SVG/1.1/DTD/svg11.dtd">
<!-- Generated by graphviz version 2.43.0 (0)
 -->
<!-- Title: G Pages: 1 -->
<svg width="3565pt" height="385pt"
 viewBox="0.00 0.00 3565.00 385.11" xmlns="http://www.w3.org/2000/svg" xmlns:xlink="http://www.w3.org/1999/xlink">
<g id="graph0" class="graph" transform="scale(1 1) rotate(0) translate(4 381.11)">
<title>G</title>
<polygon fill="white" stroke="transparent" points="-4,4 -4,-381.11 3561,-381.11 3561,4 -4,4"/>
<!-- external_image_0 -->
<g id="node1" class="node">
<title>external_image_0</title>
<path fill="none" stroke="#333333" stroke-dasharray="5,2" d="M851,-227.58C851,-227.58 12,-227.58 12,-227.58 6,-227.58 0,-221.58 0,-215.58 0,-215.58 0,-203.58 0,-203.58 0,-197.58 6,-191.58 12,-191.58 12,-191.58 851,-191.58 851,-191.58 857,-191.58 863,-197.58 863,-203.58 863,-203.58 863,-215.58 863,-215.58 863,-221.58 857,-227.58 851,-227.58"/>
<text text-anchor="middle" x="431.5" y="-205.88" font-family="Times,serif" font-size="14.00" fill="#333333">docker.io/library/rust:1.90.0&#45;slim@sha256:7fa728f3678acf5980d5db70960cf8491aff9411976789086676bdf0c19db39e</text>
</g>
<!-- stage_0 -->
<g id="node2" class="node">
<title>stage_0</title>
<path fill="none" stroke="black" d="M1033.5,-227.58C1033.5,-227.58 913.5,-227.58 913.5,-227.58 907.5,-227.58 901.5,-221.58 901.5,-215.58 901.5,-215.58 901.5,-203.58 901.5,-203.58 901.5,-197.58 907.5,-191.58 913.5,-191.58 913.5,-191.58 1033.5,-191.58 1033.5,-191.58 1039.5,-191.58 1045.5,-197.58 1045.5,-203.58 1045.5,-203.58 1045.5,-215.58 1045.5,-215.58 1045.5,-221.58 1039.5,-227.58 1033.5,-227.58"/>
<text text-anchor="middle" x="973.5" y="-205.88" font-family="Times,serif" font-size="14.00">rust&#45;base</text>
</g>
<!-- external_image_0&#45;&gt;stage_0 -->
<g id="edge1" class="edge">
<title>external_image_0&#45;&gt;stage_0</title>
<path fill="none" stroke="black" d="M863.22,-209.58C873.04,-209.58 882.41,-209.58 891.24,-209.58"/>
<polygon fill="black" stroke="black" points="891.36,-213.08 901.36,-209.58 891.36,-206.08 891.36,-213.08"/>
</g>
<!-- stage_2 -->
<g id="node3" class="node">
<title>stage_2</title>
<path fill="none" stroke="black" d="M1927,-318.58C1927,-318.58 1636,-318.58 1636,-318.58 1630,-318.58 1624,-312.58 1624,-306.58 1624,-306.58 1624,-294.58 1624,-294.58 1624,-288.58 1630,-282.58 1636,-282.58 1636,-282.58 1927,-282.58 1927,-282.58 1933,-282.58 1939,-288.58 1939,-294.58 1939,-294.58 1939,-306.58 1939,-306.58 1939,-312.58 1933,-318.58 1927,-318.58"/>
<text text-anchor="middle" x="1781.5" y="-296.88" font-family="Times,serif" font-size="14.00">dep&#45;n&#45;anyhow&#45;1.0.100&#45;8d1dc5ae4f738a51</text>
</g>
<!-- stage_0&#45;&gt;stage_2 -->
<g id="edge2" class="edge">
<title>stage_0&#45;&gt;stage_2</title>
<path fill="none" stroke="black" d="M1223.5,-248.58C1308.35,-255.08 1316.71,-301.38 1397,-329.58 1437.78,-343.91 1448.69,-346.59 1491.5,-352.58"/>
<path fill="none" stroke="black" d="M1493.5,-352.58C1512.55,-355.25 1610.07,-336.43 1686.21,-320.7"/>
<polygon fill="black" stroke="black" points="1687.25,-324.06 1696.33,-318.6 1685.83,-317.2 1687.25,-324.06"/>
</g>
<!-- stage_5 -->
<g id="node4" class="node">
<title>stage_5</title>
<path fill="none" stroke="black" d="M1916,-237.58C1916,-237.58 1647,-237.58 1647,-237.58 1641,-237.58 1635,-231.58 1635,-225.58 1635,-225.58 1635,-213.58 1635,-213.58 1635,-207.58 1641,-201.58 1647,-201.58 1647,-201.58 1916,-201.58 1916,-201.58 1922,-201.58 1928,-207.58 1928,-213.58 1928,-213.58 1928,-225.58 1928,-225.58 1928,-231.58 1922,-237.58 1916,-237.58"/>
<text text-anchor="middle" x="1781.5" y="-215.88" font-family="Times,serif" font-size="14.00">dep&#45;n&#45;home&#45;0.5.12&#45;46a3f77b3083d543</text>
</g>
<!-- stage_0&#45;&gt;stage_5 -->
<g id="edge3" class="edge">
<title>stage_0&#45;&gt;stage_5</title>
<path fill="none" stroke="black" d="M1223.5,-248.58C1358.91,-259.12 1513.16,-249.41 1624.94,-238.47"/>
<polygon fill="black" stroke="black" points="1625.34,-241.94 1634.94,-237.47 1624.65,-234.98 1625.34,-241.94"/>
</g>
<!-- stage_8 -->
<g id="node5" class="node">
<title>stage_8</title>
<path fill="none" stroke="black" d="M1349,-91.58C1349,-91.58 1096,-91.58 1096,-91.58 1090,-91.58 1084,-85.58 1084,-79.58 1084,-79.58 1084,-67.58 1084,-67.58 1084,-61.58 1090,-55.58 1096,-55.58 1096,-55.58 1349,-55.58 1349,-55.58 1355,-55.58 1361,-61.58 1361,-67.58 1361,-67.58 1361,-79.58 1361,-79.58 1361,-85.58 1355,-91.58 1349,-91.58"/>
<text text-anchor="middle" x="1222.5" y="-69.88" font-family="Times,serif" font-size="14.00">dep&#45;n&#45;log&#45;0.4.28&#45;64be2e589e1b58c5</text>
</g>
<!-- stage_0&#45;&gt;stage_8 -->
<g id="edge4" class="edge">
<title>stage_0&#45;&gt;stage_8</title>
<path fill="none" stroke="black" d="M1007.3,-191.52C1051.68,-167.09 1130.89,-123.47 1179.55,-96.68"/>
<polygon fill="black" stroke="black" points="1181.49,-99.61 1188.56,-91.72 1178.12,-93.47 1181.49,-99.61"/>
</g>
<!-- stage_11 -->
<g id="node6" class="node">
<title>stage_11</title>
<path fill="none" stroke="black" d="M1919.5,-110.58C1919.5,-110.58 1643.5,-110.58 1643.5,-110.58 1637.5,-110.58 1631.5,-104.58 1631.5,-98.58 1631.5,-98.58 1631.5,-86.58 1631.5,-86.58 1631.5,-80.58 1637.5,-74.58 1643.5,-74.58 1643.5,-74.58 1919.5,-74.58 1919.5,-74.58 1925.5,-74.58 1931.5,-80.58 1931.5,-86.58 1931.5,-86.58 1931.5,-98.58 1931.5,-98.58 1931.5,-104.58 1925.5,-110.58 1919.5,-110.58"/>
<text text-anchor="middle" x="1781.5" y="-88.88" font-family="Times,serif" font-size="14.00">dep&#45;n&#45;os_info&#45;3.12.0&#45;2e95c4cd8dc3cea9</text>
</g>
<!-- stage_0&#45;&gt;stage_11 -->
<g id="edge5" class="edge">
<title>stage_0&#45;&gt;stage_11</title>
<path fill="none" stroke="black" d="M1045.75,-223.93C1094.9,-233.07 1161.87,-244.01 1221.5,-248.58"/>
<path fill="none" stroke="black" d="M1223.5,-248.58C1308.35,-255.08 1316.71,-195.78 1397,-167.58 1437.78,-153.26 1449.4,-154.38 1491.5,-144.58"/>
<path fill="none" stroke="black" d="M1493.5,-144.58C1546.44,-132.26 1605.45,-121.13 1656.12,-112.35"/>
<polygon fill="black" stroke="black" points="1656.88,-115.78 1666.14,-110.63 1655.69,-108.88 1656.88,-115.78"/>
</g>
<!-- stage_14 -->
<g id="node7" class="node">
<title>stage_14</title>
<path fill="none" stroke="black" d="M2553,-162.58C2553,-162.58 2237,-162.58 2237,-162.58 2231,-162.58 2225,-156.58 2225,-150.58 2225,-150.58 2225,-138.58 2225,-138.58 2225,-132.58 2231,-126.58 2237,-126.58 2237,-126.58 2553,-126.58 2553,-126.58 2559,-126.58 2565,-132.58 2565,-138.58 2565,-138.58 2565,-150.58 2565,-150.58 2565,-156.58 2559,-162.58 2553,-162.58"/>
<text text-anchor="middle" x="2395" y="-140.88" font-family="Times,serif" font-size="14.00">dep&#45;n&#45;kani&#45;verifier&#45;0.66.0&#45;dfd373a18b646a92</text>
</g>
<!-- stage_0&#45;&gt;stage_14 -->
<g id="edge6" class="edge">
<title>stage_0&#45;&gt;stage_14</title>
<path fill="none" stroke="black" d="M1493.5,-144.58C1620.66,-114.98 1950.95,-133.1 2081,-144.58"/>
</g>
<!-- stage_16 -->
<g id="node8" class="node">
<title>stage_16</title>
<path fill="none" stroke="black" d="M3147,-162.58C3147,-162.58 2832,-162.58 2832,-162.58 2826,-162.58 2820,-156.58 2820,-150.58 2820,-150.58 2820,-138.58 2820,-138.58 2820,-132.58 2826,-126.58 2832,-126.58 2832,-126.58 3147,-126.58 3147,-126.58 3153,-126.58 3159,-132.58 3159,-138.58 3159,-138.58 3159,-150.58 3159,-150.58 3159,-156.58 3153,-162.58 3147,-162.58"/>
<text text-anchor="middle" x="2989.5" y="-140.88" font-family="Times,serif" font-size="14.00">dep&#45;n&#45;kani&#45;verifier&#45;0.66.0&#45;9e144b88b270f21c</text>
</g>
<!-- stage_0&#45;&gt;stage_16 -->
<g id="edge7" class="edge">
<title>stage_0&#45;&gt;stage_16</title>
<path fill="none" stroke="black" d="M1493.5,-352.58C1889.86,-408.02 1993.78,-350.89 2394,-352.58"/>
</g>
<!-- stage_3 -->
<g id="node9" class="node">
<title>stage_3</title>
<path fill="none" stroke="black" d="M2160.5,-318.58C2160.5,-318.58 2003.5,-318.58 2003.5,-318.58 1997.5,-318.58 1991.5,-312.58 1991.5,-306.58 1991.5,-306.58 1991.5,-294.58 1991.5,-294.58 1991.5,-288.58 1997.5,-282.58 2003.5,-282.58 2003.5,-282.58 2160.5,-282.58 2160.5,-282.58 2166.5,-282.58 2172.5,-288.58 2172.5,-294.58 2172.5,-294.58 2172.5,-306.58 2172.5,-306.58 2172.5,-312.58 2166.5,-318.58 2160.5,-318.58"/>
<text text-anchor="middle" x="2082" y="-296.88" font-family="Times,serif" font-size="14.00">out&#45;8d1dc5ae4f738a51</text>
</g>
<!-- stage_2&#45;&gt;stage_3 -->
<g id="edge8" class="edge">
<title>stage_2&#45;&gt;stage_3</title>
<path fill="none" stroke="black" stroke-dasharray="5,2" d="M1939.18,-300.58C1953.43,-300.58 1967.58,-300.58 1981.12,-300.58"/>
<polygon fill="none" stroke="black" points="1981.35,-304.08 1991.35,-300.58 1981.35,-297.08 1981.35,-304.08"/>
</g>
<!-- stage_6 -->
<g id="node11" class="node">
<title>stage_6</title>
<path fill="none" stroke="black" d="M2162,-237.58C2162,-237.58 2002,-237.58 2002,-237.58 1996,-237.58 1990,-231.58 1990,-225.58 1990,-225.58 1990,-213.58 1990,-213.58 1990,-207.58 1996,-201.58 2002,-201.58 2002,-201.58 2162,-201.58 2162,-201.58 2168,-201.58 2174,-207.58 2174,-213.58 2174,-213.58 2174,-225.58 2174,-225.58 2174,-231.58 2168,-237.58 2162,-237.58"/>
<text text-anchor="middle" x="2082" y="-215.88" font-family="Times,serif" font-size="14.00">out&#45;46a3f77b3083d543</text>
</g>
<!-- stage_5&#45;&gt;stage_6 -->
<g id="edge13" class="edge">
<title>stage_5&#45;&gt;stage_6</title>
<path fill="none" stroke="black" stroke-dasharray="5,2" d="M1928.25,-219.58C1945.66,-219.58 1963.12,-219.58 1979.7,-219.58"/>
<polygon fill="none" stroke="black" points="1979.91,-223.08 1989.91,-219.58 1979.91,-216.08 1979.91,-223.08"/>
</g>
<!-- stage_9 -->
<g id="node13" class="node">
<title>stage_9</title>
<path fill="none" stroke="black" d="M1573,-52.58C1573,-52.58 1412,-52.58 1412,-52.58 1406,-52.58 1400,-46.58 1400,-40.58 1400,-40.58 1400,-28.58 1400,-28.58 1400,-22.58 1406,-16.58 1412,-16.58 1412,-16.58 1573,-16.58 1573,-16.58 1579,-16.58 1585,-22.58 1585,-28.58 1585,-28.58 1585,-40.58 1585,-40.58 1585,-46.58 1579,-52.58 1573,-52.58"/>
<text text-anchor="middle" x="1492.5" y="-30.88" font-family="Times,serif" font-size="14.00">out&#45;64be2e589e1b58c5</text>
</g>
<!-- stage_8&#45;&gt;stage_9 -->
<g id="edge18" class="edge">
<title>stage_8&#45;&gt;stage_9</title>
<path fill="none" stroke="black" stroke-dasharray="5,2" d="M1347.3,-55.57C1361.54,-53.49 1375.93,-51.4 1389.83,-49.38"/>
<polygon fill="none" stroke="black" points="1390.46,-52.82 1399.85,-47.92 1389.45,-45.9 1390.46,-52.82"/>
</g>
<!-- stage_12 -->
<g id="node15" class="node">
<title>stage_12</title>
<path fill="none" stroke="black" d="M2160,-110.58C2160,-110.58 2004,-110.58 2004,-110.58 1998,-110.58 1992,-104.58 1992,-98.58 1992,-98.58 1992,-86.58 1992,-86.58 1992,-80.58 1998,-74.58 2004,-74.58 2004,-74.58 2160,-74.58 2160,-74.58 2166,-74.58 2172,-80.58 2172,-86.58 2172,-86.58 2172,-98.58 2172,-98.58 2172,-104.58 2166,-110.58 2160,-110.58"/>
<text text-anchor="middle" x="2082" y="-88.88" font-family="Times,serif" font-size="14.00">out&#45;2e95c4cd8dc3cea9</text>
</g>
<!-- stage_11&#45;&gt;stage_12 -->
<g id="edge25" class="edge">
<title>stage_11&#45;&gt;stage_12</title>
<path fill="none" stroke="black" stroke-dasharray="5,2" d="M1931.75,-92.58C1948.61,-92.58 1965.47,-92.58 1981.46,-92.58"/>
<polygon fill="none" stroke="black" points="1981.84,-96.08 1991.84,-92.58 1981.84,-89.08 1981.84,-96.08"/>
</g>
<!-- stage_15 -->
<g id="node17" class="node">
<title>stage_15</title>
<path fill="none" stroke="black" d="M2772,-162.58C2772,-162.58 2613,-162.58 2613,-162.58 2607,-162.58 2601,-156.58 2601,-150.58 2601,-150.58 2601,-138.58 2601,-138.58 2601,-132.58 2607,-126.58 2613,-126.58 2613,-126.58 2772,-126.58 2772,-126.58 2778,-126.58 2784,-132.58 2784,-138.58 2784,-138.58 2784,-150.58 2784,-150.58 2784,-156.58 2778,-162.58 2772,-162.58"/>
<text text-anchor="middle" x="2692.5" y="-140.88" font-family="Times,serif" font-size="14.00">out&#45;dfd373a18b646a92</text>
</g>
<!-- stage_14&#45;&gt;stage_15 -->
<g id="edge30" class="edge">
<title>stage_14&#45;&gt;stage_15</title>
<path fill="none" stroke="black" stroke-dasharray="5,2" d="M2565.32,-144.58C2573.94,-144.58 2582.46,-144.58 2590.76,-144.58"/>
<polygon fill="none" stroke="black" points="2590.76,-148.08 2600.76,-144.58 2590.76,-141.08 2590.76,-148.08"/>
</g>
<!-- stage_17 -->
<g id="node19" class="node">
<title>stage_17</title>
<path fill="none" stroke="black" d="M3365,-162.58C3365,-162.58 3207,-162.58 3207,-162.58 3201,-162.58 3195,-156.58 3195,-150.58 3195,-150.58 3195,-138.58 3195,-138.58 3195,-132.58 3201,-126.58 3207,-126.58 3207,-126.58 3365,-126.58 3365,-126.58 3371,-126.58 3377,-132.58 3377,-138.58 3377,-138.58 3377,-150.58 3377,-150.58 3377,-156.58 3371,-162.58 3365,-162.58"/>
<text text-anchor="middle" x="3286" y="-140.88" font-family="Times,serif" font-size="14.00">out&#45;9e144b88b270f21c</text>
</g>
<!-- stage_16&#45;&gt;stage_17 -->
<g id="edge34" class="edge">
<title>stage_16&#45;&gt;stage_17</title>
<path fill="none" stroke="black" stroke-dasharray="5,2" d="M3159.25,-144.58C3167.93,-144.58 3176.51,-144.58 3184.86,-144.58"/>
<polygon fill="none" stroke="black" points="3184.93,-148.08 3194.93,-144.58 3184.93,-141.08 3184.93,-148.08"/>
</g>
<!-- stage_3&#45;&gt;stage_14 -->
<g id="edge10" class="edge">
<title>stage_3&#45;&gt;stage_14</title>
<path fill="none" stroke="black" stroke-dasharray="1,5" d="M2120.34,-282.41C2140.68,-272.48 2166.26,-259.93 2189,-248.58 2243.63,-221.33 2306.17,-189.51 2347.66,-168.31"/>
<polygon fill="none" stroke="black" points="2347.83,-168.22 2351.36,-161.93 2358.52,-162.76 2355,-169.06 2347.83,-168.22"/>
</g>
<!-- stage_3&#45;&gt;stage_16 -->
<g id="edge12" class="edge">
<title>stage_3&#45;&gt;stage_16</title>
<path fill="none" stroke="black" stroke-dasharray="1,5" d="M2151.62,-318.6C2214.28,-333.48 2309.7,-352.22 2394,-352.58"/>
</g>
<!-- stage_1 -->
<g id="node10" class="node">
<title>stage_1</title>
<path fill="none" stroke="black" d="M1576,-318.58C1576,-318.58 1409,-318.58 1409,-318.58 1403,-318.58 1397,-312.58 1397,-306.58 1397,-306.58 1397,-294.58 1397,-294.58 1397,-288.58 1403,-282.58 1409,-282.58 1409,-282.58 1576,-282.58 1576,-282.58 1582,-282.58 1588,-288.58 1588,-294.58 1588,-294.58 1588,-306.58 1588,-306.58 1588,-312.58 1582,-318.58 1576,-318.58"/>
<text text-anchor="middle" x="1492.5" y="-296.88" font-family="Times,serif" font-size="14.00">cratesio&#45;anyhow&#45;1.0.100</text>
</g>
<!-- stage_1&#45;&gt;stage_2 -->
<g id="edge9" class="edge">
<title>stage_1&#45;&gt;stage_2</title>
<path fill="none" stroke="black" stroke-dasharray="1,5" d="M1588.27,-300.58C1595.91,-300.58 1603.77,-300.58 1611.73,-300.58"/>
<polygon fill="none" stroke="black" points="1611.88,-300.58 1617.88,-296.58 1623.88,-300.58 1617.88,-304.58 1611.88,-300.58"/>
</g>
<!-- stage_6&#45;&gt;stage_14 -->
<g id="edge15" class="edge">
<title>stage_6&#45;&gt;stage_14</title>
<path fill="none" stroke="black" stroke-dasharray="1,5" d="M2157.89,-201.52C2202.96,-190.65 2260.51,-176.77 2307.52,-165.44"/>
<polygon fill="none" stroke="black" points="2307.56,-165.43 2312.45,-160.13 2319.22,-162.61 2314.33,-167.91 2307.56,-165.43"/>
</g>
<!-- stage_6&#45;&gt;stage_16 -->
<g id="edge17" class="edge">
<title>stage_6&#45;&gt;stage_16</title>
<path fill="none" stroke="black" stroke-dasharray="1,5" d="M2121.52,-237.61C2198.27,-273.31 2365.36,-349.79 2394,-352.58"/>
<path fill="none" stroke="black" stroke-dasharray="1,5" d="M2396,-352.58C2617.3,-374.17 2862.07,-229.33 2952.44,-169.55"/>
<polygon fill="none" stroke="black" points="2952.7,-169.37 2955.47,-162.71 2962.68,-162.7 2959.92,-169.36 2952.7,-169.37"/>
</g>
<!-- stage_4 -->
<g id="node12" class="node">
<title>stage_4</title>
<path fill="none" stroke="black" d="M1564,-214.58C1564,-214.58 1421,-214.58 1421,-214.58 1415,-214.58 1409,-208.58 1409,-202.58 1409,-202.58 1409,-190.58 1409,-190.58 1409,-184.58 1415,-178.58 1421,-178.58 1421,-178.58 1564,-178.58 1564,-178.58 1570,-178.58 1576,-184.58 1576,-190.58 1576,-190.58 1576,-202.58 1576,-202.58 1576,-208.58 1570,-214.58 1564,-214.58"/>
<text text-anchor="middle" x="1492.5" y="-192.88" font-family="Times,serif" font-size="14.00">cratesio&#45;home&#45;0.5.12</text>
</g>
<!-- stage_4&#45;&gt;stage_5 -->
<g id="edge14" class="edge">
<title>stage_4&#45;&gt;stage_5</title>
<path fill="none" stroke="black" stroke-dasharray="1,5" d="M1576.13,-203.2C1590.84,-204.38 1606.6,-205.65 1622.61,-206.93"/>
<polygon fill="none" stroke="black" points="1622.91,-206.95 1629.21,-203.45 1634.88,-207.91 1628.58,-211.42 1622.91,-206.95"/>
</g>
<!-- stage_9&#45;&gt;stage_11 -->
<g id="edge20" class="edge">
<title>stage_9&#45;&gt;stage_11</title>
<path fill="none" stroke="black" stroke-dasharray="1,5" d="M1582.74,-52.62C1613.38,-58.81 1647.89,-65.78 1679.4,-72.15"/>
<polygon fill="none" stroke="black" points="1679.56,-72.18 1686.23,-69.45 1691.32,-74.56 1684.65,-77.29 1679.56,-72.18"/>
</g>
<!-- stage_9&#45;&gt;stage_14 -->
<g id="edge22" class="edge">
<title>stage_9&#45;&gt;stage_14</title>
<path fill="none" stroke="black" stroke-dasharray="1,5" d="M1782.5,-37.58C1852.93,-40.99 1880.41,-24.36 1939,-63.58 1964.21,-80.46 1950.21,-104.09 1975,-121.58 2014.39,-149.38 2032.98,-140.34 2081,-144.58"/>
<path fill="none" stroke="black" stroke-dasharray="1,5" d="M2083,-144.58C2124.82,-148.28 2169.93,-149.73 2212.47,-149.95"/>
<polygon fill="none" stroke="black" points="2212.69,-149.95 2218.7,-145.97 2224.69,-149.99 2218.68,-153.97 2212.69,-149.95"/>
</g>
<!-- stage_9&#45;&gt;stage_16 -->
<g id="edge24" class="edge">
<title>stage_9&#45;&gt;stage_16</title>
<path fill="none" stroke="black" stroke-dasharray="1,5" d="M1585.32,-33.77C1641.68,-33.72 1715.3,-34.43 1780.5,-37.58"/>
<path fill="none" stroke="black" stroke-dasharray="1,5" d="M1782.5,-37.58C1869.13,-41.77 1888.56,-12.72 1975,-5.58 2069.79,2.24 2094.12,1.1 2189,-5.58 2280.79,-12.04 2301.98,-34.88 2394,-34.58"/>
<path fill="none" stroke="black" stroke-dasharray="1,5" d="M2396,-34.58C2588.84,-31.81 2811.18,-90.07 2920.54,-122.9"/>
<polygon fill="none" stroke="black" points="2920.87,-123 2927.78,-120.91 2932.36,-126.48 2925.46,-128.57 2920.87,-123"/>
</g>
<!-- stage_7 -->
<g id="node14" class="node">
<title>stage_7</title>
<path fill="none" stroke="black" d="M1036,-91.58C1036,-91.58 911,-91.58 911,-91.58 905,-91.58 899,-85.58 899,-79.58 899,-79.58 899,-67.58 899,-67.58 899,-61.58 905,-55.58 911,-55.58 911,-55.58 1036,-55.58 1036,-55.58 1042,-55.58 1048,-61.58 1048,-67.58 1048,-67.58 1048,-79.58 1048,-79.58 1048,-85.58 1042,-91.58 1036,-91.58"/>
<text text-anchor="middle" x="973.5" y="-69.88" font-family="Times,serif" font-size="14.00">cratesio&#45;log&#45;0.4.28</text>
</g>
<!-- stage_7&#45;&gt;stage_8 -->
<g id="edge19" class="edge">
<title>stage_7&#45;&gt;stage_8</title>
<path fill="none" stroke="black" stroke-dasharray="1,5" d="M1048.27,-73.58C1055.83,-73.58 1063.68,-73.58 1071.68,-73.58"/>
<polygon fill="none" stroke="black" points="1071.93,-73.58 1077.93,-69.58 1083.93,-73.58 1077.93,-77.58 1071.93,-73.58"/>
</g>
<!-- stage_12&#45;&gt;stage_14 -->
<g id="edge27" class="edge">
<title>stage_12&#45;&gt;stage_14</title>
<path fill="none" stroke="black" stroke-dasharray="1,5" d="M2172.12,-107.48C2203.91,-112.8 2240.26,-118.88 2274.21,-124.55"/>
<polygon fill="none" stroke="black" points="2274.27,-124.56 2280.85,-121.61 2286.1,-126.54 2279.53,-129.5 2274.27,-124.56"/>
</g>
<!-- stage_12&#45;&gt;stage_16 -->
<g id="edge29" class="edge">
<title>stage_12&#45;&gt;stage_16</title>
<path fill="none" stroke="black" stroke-dasharray="1,5" d="M2161.79,-74.53C2238.52,-57.56 2349.86,-34.72 2394,-34.58"/>
</g>
<!-- stage_10 -->
<g id="node16" class="node">
<title>stage_10</title>
<path fill="none" stroke="black" d="M1569,-110.58C1569,-110.58 1416,-110.58 1416,-110.58 1410,-110.58 1404,-104.58 1404,-98.58 1404,-98.58 1404,-86.58 1404,-86.58 1404,-80.58 1410,-74.58 1416,-74.58 1416,-74.58 1569,-74.58 1569,-74.58 1575,-74.58 1581,-80.58 1581,-86.58 1581,-86.58 1581,-98.58 1581,-98.58 1581,-104.58 1575,-110.58 1569,-110.58"/>
<text text-anchor="middle" x="1492.5" y="-88.88" font-family="Times,serif" font-size="14.00">cratesio&#45;os_info&#45;3.12.0</text>
</g>
<!-- stage_10&#45;&gt;stage_11 -->
<g id="edge26" class="edge">
<title>stage_10&#45;&gt;stage_11</title>
<path fill="none" stroke="black" stroke-dasharray="1,5" d="M1581.17,-92.58C1593.41,-92.58 1606.3,-92.58 1619.38,-92.58"/>
<polygon fill="none" stroke="black" points="1619.44,-92.58 1625.44,-88.58 1631.44,-92.58 1625.44,-96.58 1619.44,-92.58"/>
</g>
<!-- stage_15&#45;&gt;stage_16 -->
<g id="edge33" class="edge">
<title>stage_15&#45;&gt;stage_16</title>
<path fill="none" stroke="black" stroke-dasharray="1,5" d="M2784.01,-144.58C2791.66,-144.58 2799.55,-144.58 2807.58,-144.58"/>
<polygon fill="none" stroke="black" points="2807.86,-144.58 2813.86,-140.58 2819.86,-144.58 2813.86,-148.58 2807.86,-144.58"/>
</g>
<!-- stage_13 -->
<g id="node18" class="node">
<title>stage_13</title>
<path fill="none" stroke="black" d="M2177,-52.58C2177,-52.58 1987,-52.58 1987,-52.58 1981,-52.58 1975,-46.58 1975,-40.58 1975,-40.58 1975,-28.58 1975,-28.58 1975,-22.58 1981,-16.58 1987,-16.58 1987,-16.58 2177,-16.58 2177,-16.58 2183,-16.58 2189,-22.58 2189,-28.58 2189,-28.58 2189,-40.58 2189,-40.58 2189,-46.58 2183,-52.58 2177,-52.58"/>
<text text-anchor="middle" x="2082" y="-30.88" font-family="Times,serif" font-size="14.00">cratesio&#45;kani&#45;verifier&#45;0.66.0</text>
</g>
<!-- stage_13&#45;&gt;stage_14 -->
<g id="edge31" class="edge">
<title>stage_13&#45;&gt;stage_14</title>
<path fill="none" stroke="black" stroke-dasharray="1,5" d="M2153.17,-52.62C2165.19,-56.04 2177.51,-59.75 2189,-63.58 2241.43,-81.05 2299.95,-104.59 2341,-121.79"/>
<polygon fill="none" stroke="black" points="2341.03,-121.81 2348.12,-120.45 2352.09,-126.46 2345.01,-127.82 2341.03,-121.81"/>
</g>
<!-- stage_13&#45;&gt;stage_16 -->
<g id="edge32" class="edge">
<title>stage_13&#45;&gt;stage_16</title>
<path fill="none" stroke="black" stroke-dasharray="1,5" d="M2189.16,-34.75C2249.26,-34.8 2325.83,-34.8 2394,-34.58"/>
</g>
<!-- stage_18 -->
<g id="node20" class="node">
<title>stage_18</title>
<path fill="#e5e5e5" stroke="black" d="M3545,-162.58C3545,-162.58 3425,-162.58 3425,-162.58 3419,-162.58 3413,-156.58 3413,-150.58 3413,-150.58 3413,-138.58 3413,-138.58 3413,-132.58 3419,-126.58 3425,-126.58 3425,-126.58 3545,-126.58 3545,-126.58 3551,-126.58 3557,-132.58 3557,-138.58 3557,-138.58 3557,-150.58 3557,-150.58 3557,-156.58 3551,-162.58 3545,-162.58"/>
<text text-anchor="middle" x="3485" y="-140.88" font-family="Times,serif" font-size="14.00">18</text>
</g>
<!-- stage_17&#45;&gt;stage_18 -->
<g id="edge35" class="edge">
<title>stage_17&#45;&gt;stage_18</title>
<path fill="none" stroke="black" stroke-dasharray="5,2" d="M3377.14,-144.58C3385.64,-144.58 3394.22,-144.58 3402.63,-144.58"/>
<polygon fill="none" stroke="black" points="3402.79,-148.08 3412.79,-144.58 3402.79,-141.08 3402.79,-148.08"/>
</g>
</g>
</svg>
