<?xml version="1.0" encoding="UTF-8" standalone="no"?>
<!DOCTYPE svg PUBLIC "-//W3C//DTD SVG 1.1//EN"
 "http://www.w3.org/Graphics/SVG/1.1/DTD/svg11.dtd">
<!-- Generated by graphviz version 2.43.0 (0)
 -->
<!-- Title: G Pages: 1 -->
<svg width="3939pt" height="270pt"
 viewBox="0.00 0.00 3939.00 270.00" xmlns="http://www.w3.org/2000/svg" xmlns:xlink="http://www.w3.org/1999/xlink">
<g id="graph0" class="graph" transform="scale(1 1) rotate(0) translate(4 266)">
<title>G</title>
<polygon fill="white" stroke="transparent" points="-4,4 -4,-266 3935,-266 3935,4 -4,4"/>
<!-- external_image_0 -->
<g id="node1" class="node">
<title>external_image_0</title>
<path fill="none" stroke="#333333" stroke-dasharray="5,2" d="M828,-233C828,-233 12,-233 12,-233 6,-233 0,-227 0,-221 0,-221 0,-209 0,-209 0,-203 6,-197 12,-197 12,-197 828,-197 828,-197 834,-197 840,-203 840,-209 840,-209 840,-221 840,-221 840,-227 834,-233 828,-233"/>
<text text-anchor="middle" x="420" y="-211.3" font-family="Times,serif" font-size="14.00" fill="#333333">docker.io/tonistiigi/xx:1.6.1@sha256:923441d7c25f1e2eb5789f82d987693c47b8ed987c4ab3b075d6ed2b5d6779a3</text>
</g>
<!-- stage_0 -->
<g id="node2" class="node">
<title>stage_0</title>
<path fill="none" stroke="black" d="M1367.5,-233C1367.5,-233 1247.5,-233 1247.5,-233 1241.5,-233 1235.5,-227 1235.5,-221 1235.5,-221 1235.5,-209 1235.5,-209 1235.5,-203 1241.5,-197 1247.5,-197 1247.5,-197 1367.5,-197 1367.5,-197 1373.5,-197 1379.5,-203 1379.5,-209 1379.5,-209 1379.5,-221 1379.5,-221 1379.5,-227 1373.5,-233 1367.5,-233"/>
<text text-anchor="middle" x="1307.5" y="-211.3" font-family="Times,serif" font-size="14.00">xx</text>
</g>
<!-- external_image_0&#45;&gt;stage_0 -->
<g id="edge1" class="edge">
<title>external_image_0&#45;&gt;stage_0</title>
<path fill="none" stroke="black" d="M840.09,-215C986.5,-215 1136.37,-215 1225.41,-215"/>
<polygon fill="black" stroke="black" points="1225.44,-218.5 1235.44,-215 1225.44,-211.5 1225.44,-218.5"/>
</g>
<!-- stage_1 -->
<g id="node3" class="node">
<title>stage_1</title>
<path fill="none" stroke="black" d="M1935.5,-204C1935.5,-204 1815.5,-204 1815.5,-204 1809.5,-204 1803.5,-198 1803.5,-192 1803.5,-192 1803.5,-180 1803.5,-180 1803.5,-174 1809.5,-168 1815.5,-168 1815.5,-168 1935.5,-168 1935.5,-168 1941.5,-168 1947.5,-174 1947.5,-180 1947.5,-180 1947.5,-192 1947.5,-192 1947.5,-198 1941.5,-204 1935.5,-204"/>
<text text-anchor="middle" x="1875.5" y="-182.3" font-family="Times,serif" font-size="14.00">rust&#45;base</text>
</g>
<!-- stage_0&#45;&gt;stage_1 -->
<g id="edge2" class="edge">
<title>stage_0&#45;&gt;stage_1</title>
<path fill="none" stroke="black" stroke-dasharray="1,5" d="M1379.61,-211.36C1484.35,-205.99 1679.7,-195.98 1791.07,-190.27"/>
<polygon fill="none" stroke="black" points="1791.25,-190.27 1797.04,-185.96 1803.23,-189.65 1797.45,-193.95 1791.25,-190.27"/>
</g>
<!-- stage_3 -->
<g id="node5" class="node">
<title>stage_3</title>
<path fill="none" stroke="black" d="M2312,-94C2312,-94 2040,-94 2040,-94 2034,-94 2028,-88 2028,-82 2028,-82 2028,-70 2028,-70 2028,-64 2034,-58 2040,-58 2040,-58 2312,-58 2312,-58 2318,-58 2324,-64 2324,-70 2324,-70 2324,-82 2324,-82 2324,-88 2318,-94 2312,-94"/>
<text text-anchor="middle" x="2176" y="-72.3" font-family="Times,serif" font-size="14.00">dep&#45;n&#45;autocfg&#45;1.1.0&#45;9a44f8dac5d99edb</text>
</g>
<!-- stage_1&#45;&gt;stage_3 -->
<g id="edge16" class="edge">
<title>stage_1&#45;&gt;stage_3</title>
<path fill="none" stroke="black" d="M1947.54,-171.84C1957.63,-168.01 1967.46,-163.15 1976,-157 1998.8,-140.57 1988.34,-120.18 2012,-105 2015.67,-102.64 2019.49,-100.46 2023.41,-98.45"/>
<polygon fill="black" stroke="black" points="2025.19,-101.47 2032.73,-94.04 2022.2,-95.15 2025.19,-101.47"/>
</g>
<!-- stage_6 -->
<g id="node6" class="node">
<title>stage_6</title>
<path fill="none" stroke="black" d="M2300,-256C2300,-256 2052,-256 2052,-256 2046,-256 2040,-250 2040,-244 2040,-244 2040,-232 2040,-232 2040,-226 2046,-220 2052,-220 2052,-220 2300,-220 2300,-220 2306,-220 2312,-226 2312,-232 2312,-232 2312,-244 2312,-244 2312,-250 2306,-256 2300,-256"/>
<text text-anchor="middle" x="2176" y="-234.3" font-family="Times,serif" font-size="14.00">dep&#45;n&#45;cc&#45;1.0.77&#45;9228877ed9bd243c</text>
</g>
<!-- stage_1&#45;&gt;stage_6 -->
<g id="edge17" class="edge">
<title>stage_1&#45;&gt;stage_6</title>
<path fill="none" stroke="black" d="M1947.62,-198.39C1981.65,-204.32 2023.23,-211.56 2061.49,-218.23"/>
<polygon fill="black" stroke="black" points="2061.2,-221.73 2071.66,-220 2062.41,-214.83 2061.2,-221.73"/>
</g>
<!-- stage_9 -->
<g id="node7" class="node">
<title>stage_9</title>
<path fill="none" stroke="black" d="M2328,-152C2328,-152 2024,-152 2024,-152 2018,-152 2012,-146 2012,-140 2012,-140 2012,-128 2012,-128 2012,-122 2018,-116 2024,-116 2024,-116 2328,-116 2328,-116 2334,-116 2340,-122 2340,-128 2340,-128 2340,-140 2340,-140 2340,-146 2334,-152 2328,-152"/>
<text text-anchor="middle" x="2176" y="-130.3" font-family="Times,serif" font-size="14.00">dep&#45;n&#45;pkg&#45;config&#45;0.3.26&#45;58c8dc4ab4884a08</text>
</g>
<!-- stage_1&#45;&gt;stage_9 -->
<g id="edge18" class="edge">
<title>stage_1&#45;&gt;stage_9</title>
<path fill="none" stroke="black" d="M1947.62,-173.61C1981.65,-167.68 2023.23,-160.44 2061.49,-153.77"/>
<polygon fill="black" stroke="black" points="2062.41,-157.17 2071.66,-152 2061.2,-150.27 2062.41,-157.17"/>
</g>
<!-- stage_12 -->
<g id="node8" class="node">
<title>stage_12</title>
<path fill="none" stroke="black" d="M2941,-152C2941,-152 2633,-152 2633,-152 2627,-152 2621,-146 2621,-140 2621,-140 2621,-128 2621,-128 2621,-122 2627,-116 2633,-116 2633,-116 2941,-116 2941,-116 2947,-116 2953,-122 2953,-128 2953,-128 2953,-140 2953,-140 2953,-146 2947,-152 2941,-152"/>
<text text-anchor="middle" x="2787" y="-130.3" font-family="Times,serif" font-size="14.00">dep&#45;x&#45;openssl&#45;sys&#45;0.9.79&#45;3db8fa7de55c03d1</text>
</g>
<!-- stage_1&#45;&gt;stage_12 -->
<g id="edge19" class="edge">
<title>stage_1&#45;&gt;stage_12</title>
<path fill="none" stroke="black" d="M1947.55,-187.94C2060.35,-190.59 2287.31,-194.14 2479.5,-186"/>
<path fill="none" stroke="black" d="M2481.5,-186C2520.13,-184.11 2611.87,-167.85 2684.62,-154"/>
<polygon fill="black" stroke="black" points="2685.59,-157.38 2694.76,-152.07 2684.28,-150.51 2685.59,-157.38"/>
</g>
<!-- stage_14 -->
<g id="node9" class="node">
<title>stage_14</title>
<path fill="none" stroke="black" d="M3524,-152C3524,-152 3219,-152 3219,-152 3213,-152 3207,-146 3207,-140 3207,-140 3207,-128 3207,-128 3207,-122 3213,-116 3219,-116 3219,-116 3524,-116 3524,-116 3530,-116 3536,-122 3536,-128 3536,-128 3536,-140 3536,-140 3536,-146 3530,-152 3524,-152"/>
<text text-anchor="middle" x="3371.5" y="-130.3" font-family="Times,serif" font-size="14.00">run&#45;z&#45;openssl&#45;sys&#45;0.9.79&#45;7f3c97c8202564ce</text>
</g>
<!-- stage_1&#45;&gt;stage_14 -->
<g id="edge20" class="edge">
<title>stage_1&#45;&gt;stage_14</title>
<path fill="none" stroke="black" d="M2481.5,-186C2787.75,-171.02 2865.59,-190.21 3171,-163 3197.2,-160.67 3225.21,-157.2 3251.71,-153.48"/>
<polygon fill="black" stroke="black" points="3252.38,-156.92 3261.78,-152.04 3251.39,-149.99 3252.38,-156.92"/>
</g>
<!-- external_image_1 -->
<g id="node4" class="node">
<title>external_image_1</title>
<path fill="none" stroke="#333333" stroke-dasharray="5,2" d="M1727,-175C1727,-175 888,-175 888,-175 882,-175 876,-169 876,-163 876,-163 876,-151 876,-151 876,-145 882,-139 888,-139 888,-139 1727,-139 1727,-139 1733,-139 1739,-145 1739,-151 1739,-151 1739,-163 1739,-163 1739,-169 1733,-175 1727,-175"/>
<text text-anchor="middle" x="1307.5" y="-153.3" font-family="Times,serif" font-size="14.00" fill="#333333">docker.io/library/rust:1.90.0&#45;slim@sha256:7fa728f3678acf5980d5db70960cf8491aff9411976789086676bdf0c19db39e</text>
</g>
<!-- external_image_1&#45;&gt;stage_1 -->
<g id="edge15" class="edge">
<title>external_image_1&#45;&gt;stage_1</title>
<path fill="none" stroke="black" d="M1660.12,-175.02C1709.51,-177.55 1755.93,-179.92 1792.86,-181.82"/>
<polygon fill="black" stroke="black" points="1792.86,-185.32 1803.02,-182.34 1793.21,-178.33 1792.86,-185.32"/>
</g>
<!-- stage_4 -->
<g id="node10" class="node">
<title>stage_4</title>
<path fill="none" stroke="black" d="M2559,-94C2559,-94 2402,-94 2402,-94 2396,-94 2390,-88 2390,-82 2390,-82 2390,-70 2390,-70 2390,-64 2396,-58 2402,-58 2402,-58 2559,-58 2559,-58 2565,-58 2571,-64 2571,-70 2571,-70 2571,-82 2571,-82 2571,-88 2565,-94 2559,-94"/>
<text text-anchor="middle" x="2480.5" y="-72.3" font-family="Times,serif" font-size="14.00">out&#45;9a44f8dac5d99edb</text>
</g>
<!-- stage_3&#45;&gt;stage_4 -->
<g id="edge21" class="edge">
<title>stage_3&#45;&gt;stage_4</title>
<path fill="none" stroke="black" stroke-dasharray="5,2" d="M2324.26,-76C2342.98,-76 2361.77,-76 2379.5,-76"/>
<polygon fill="none" stroke="black" points="2379.81,-79.5 2389.81,-76 2379.81,-72.5 2379.81,-79.5"/>
</g>
<!-- stage_7 -->
<g id="node12" class="node">
<title>stage_7</title>
<path fill="none" stroke="black" d="M2561.5,-256C2561.5,-256 2399.5,-256 2399.5,-256 2393.5,-256 2387.5,-250 2387.5,-244 2387.5,-244 2387.5,-232 2387.5,-232 2387.5,-226 2393.5,-220 2399.5,-220 2399.5,-220 2561.5,-220 2561.5,-220 2567.5,-220 2573.5,-226 2573.5,-232 2573.5,-232 2573.5,-244 2573.5,-244 2573.5,-250 2567.5,-256 2561.5,-256"/>
<text text-anchor="middle" x="2480.5" y="-234.3" font-family="Times,serif" font-size="14.00">out&#45;9228877ed9bd243c</text>
</g>
<!-- stage_6&#45;&gt;stage_7 -->
<g id="edge24" class="edge">
<title>stage_6&#45;&gt;stage_7</title>
<path fill="none" stroke="black" stroke-dasharray="5,2" d="M2312.32,-238C2334.09,-238 2356.3,-238 2377.12,-238"/>
<polygon fill="none" stroke="black" points="2377.23,-241.5 2387.23,-238 2377.23,-234.5 2377.23,-241.5"/>
</g>
<!-- stage_10 -->
<g id="node14" class="node">
<title>stage_10</title>
<path fill="none" stroke="black" d="M2560.5,-152C2560.5,-152 2400.5,-152 2400.5,-152 2394.5,-152 2388.5,-146 2388.5,-140 2388.5,-140 2388.5,-128 2388.5,-128 2388.5,-122 2394.5,-116 2400.5,-116 2400.5,-116 2560.5,-116 2560.5,-116 2566.5,-116 2572.5,-122 2572.5,-128 2572.5,-128 2572.5,-140 2572.5,-140 2572.5,-146 2566.5,-152 2560.5,-152"/>
<text text-anchor="middle" x="2480.5" y="-130.3" font-family="Times,serif" font-size="14.00">out&#45;58c8dc4ab4884a08</text>
</g>
<!-- stage_9&#45;&gt;stage_10 -->
<g id="edge27" class="edge">
<title>stage_9&#45;&gt;stage_10</title>
<path fill="none" stroke="black" stroke-dasharray="5,2" d="M2340.2,-134C2353.07,-134 2365.81,-134 2378.07,-134"/>
<polygon fill="none" stroke="black" points="2378.24,-137.5 2388.24,-134 2378.24,-130.5 2378.24,-137.5"/>
</g>
<!-- stage_13 -->
<g id="node16" class="node">
<title>stage_13</title>
<path fill="none" stroke="black" d="M3159,-152C3159,-152 3001,-152 3001,-152 2995,-152 2989,-146 2989,-140 2989,-140 2989,-128 2989,-128 2989,-122 2995,-116 3001,-116 3001,-116 3159,-116 3159,-116 3165,-116 3171,-122 3171,-128 3171,-128 3171,-140 3171,-140 3171,-146 3165,-152 3159,-152"/>
<text text-anchor="middle" x="3080" y="-130.3" font-family="Times,serif" font-size="14.00">out&#45;3db8fa7de55c03d1</text>
</g>
<!-- stage_12&#45;&gt;stage_13 -->
<g id="edge30" class="edge">
<title>stage_12&#45;&gt;stage_13</title>
<path fill="none" stroke="black" stroke-dasharray="5,2" d="M2953.06,-134C2961.72,-134 2970.29,-134 2978.64,-134"/>
<polygon fill="none" stroke="black" points="2978.71,-137.5 2988.71,-134 2978.71,-130.5 2978.71,-137.5"/>
</g>
<!-- stage_15 -->
<g id="node18" class="node">
<title>stage_15</title>
<path fill="none" stroke="black" d="M3739,-152C3739,-152 3584,-152 3584,-152 3578,-152 3572,-146 3572,-140 3572,-140 3572,-128 3572,-128 3572,-122 3578,-116 3584,-116 3584,-116 3739,-116 3739,-116 3745,-116 3751,-122 3751,-128 3751,-128 3751,-140 3751,-140 3751,-146 3745,-152 3739,-152"/>
<text text-anchor="middle" x="3661.5" y="-130.3" font-family="Times,serif" font-size="14.00">out&#45;7f3c97c8202564ce</text>
</g>
<!-- stage_14&#45;&gt;stage_15 -->
<g id="edge34" class="edge">
<title>stage_14&#45;&gt;stage_15</title>
<path fill="none" stroke="black" stroke-dasharray="5,2" d="M3536.27,-134C3544.92,-134 3553.46,-134 3561.78,-134"/>
<polygon fill="none" stroke="black" points="3561.81,-137.5 3571.81,-134 3561.81,-130.5 3561.81,-137.5"/>
</g>
<!-- stage_4&#45;&gt;stage_12 -->
<g id="edge23" class="edge">
<title>stage_4&#45;&gt;stage_12</title>
<path fill="none" stroke="black" stroke-dasharray="1,5" d="M2571.21,-93.09C2605.18,-99.56 2644.17,-106.98 2679.53,-113.72"/>
<polygon fill="none" stroke="black" points="2679.58,-113.73 2686.22,-110.92 2691.37,-115.98 2684.73,-118.78 2679.58,-113.73"/>
</g>
<!-- stage_2 -->
<g id="node11" class="node">
<title>stage_2</title>
<path fill="none" stroke="black" d="M1949.5,-88C1949.5,-88 1801.5,-88 1801.5,-88 1795.5,-88 1789.5,-82 1789.5,-76 1789.5,-76 1789.5,-64 1789.5,-64 1789.5,-58 1795.5,-52 1801.5,-52 1801.5,-52 1949.5,-52 1949.5,-52 1955.5,-52 1961.5,-58 1961.5,-64 1961.5,-64 1961.5,-76 1961.5,-76 1961.5,-82 1955.5,-88 1949.5,-88"/>
<text text-anchor="middle" x="1875.5" y="-66.3" font-family="Times,serif" font-size="14.00">cratesio&#45;autocfg&#45;1.1.0</text>
</g>
<!-- stage_2&#45;&gt;stage_3 -->
<g id="edge22" class="edge">
<title>stage_2&#45;&gt;stage_3</title>
<path fill="none" stroke="black" stroke-dasharray="1,5" d="M1961.64,-71.71C1978.67,-72.05 1997.08,-72.42 2015.7,-72.8"/>
<polygon fill="none" stroke="black" points="2015.96,-72.8 2022.03,-68.92 2027.95,-73.04 2021.87,-76.92 2015.96,-72.8"/>
</g>
<!-- stage_7&#45;&gt;stage_12 -->
<g id="edge26" class="edge">
<title>stage_7&#45;&gt;stage_12</title>
<path fill="none" stroke="black" stroke-dasharray="1,5" d="M2534.97,-219.97C2551.06,-214.53 2568.75,-208.54 2585,-203 2630.83,-187.38 2682.5,-169.65 2721.97,-156.06"/>
<polygon fill="none" stroke="black" points="2722.2,-155.99 2726.57,-150.25 2733.54,-152.08 2729.17,-157.82 2722.2,-155.99"/>
</g>
<!-- stage_5 -->
<g id="node13" class="node">
<title>stage_5</title>
<path fill="none" stroke="black" d="M1935.5,-262C1935.5,-262 1815.5,-262 1815.5,-262 1809.5,-262 1803.5,-256 1803.5,-250 1803.5,-250 1803.5,-238 1803.5,-238 1803.5,-232 1809.5,-226 1815.5,-226 1815.5,-226 1935.5,-226 1935.5,-226 1941.5,-226 1947.5,-232 1947.5,-238 1947.5,-238 1947.5,-250 1947.5,-250 1947.5,-256 1941.5,-262 1935.5,-262"/>
<text text-anchor="middle" x="1875.5" y="-240.3" font-family="Times,serif" font-size="14.00">cratesio&#45;cc&#45;1.0.77</text>
</g>
<!-- stage_5&#45;&gt;stage_6 -->
<g id="edge25" class="edge">
<title>stage_5&#45;&gt;stage_6</title>
<path fill="none" stroke="black" stroke-dasharray="1,5" d="M1947.62,-242.57C1971.73,-242.09 1999.63,-241.53 2027.44,-240.97"/>
<polygon fill="none" stroke="black" points="2027.78,-240.96 2033.7,-236.84 2039.78,-240.72 2033.86,-244.84 2027.78,-240.96"/>
</g>
<!-- stage_10&#45;&gt;stage_12 -->
<g id="edge29" class="edge">
<title>stage_10&#45;&gt;stage_12</title>
<path fill="none" stroke="black" stroke-dasharray="1,5" d="M2572.86,-134C2584.29,-134 2596.27,-134 2608.47,-134"/>
<polygon fill="none" stroke="black" points="2608.73,-134 2614.73,-130 2620.73,-134 2614.73,-138 2608.73,-134"/>
</g>
<!-- stage_8 -->
<g id="node15" class="node">
<title>stage_8</title>
<path fill="none" stroke="black" d="M1964,-146C1964,-146 1787,-146 1787,-146 1781,-146 1775,-140 1775,-134 1775,-134 1775,-122 1775,-122 1775,-116 1781,-110 1787,-110 1787,-110 1964,-110 1964,-110 1970,-110 1976,-116 1976,-122 1976,-122 1976,-134 1976,-134 1976,-140 1970,-146 1964,-146"/>
<text text-anchor="middle" x="1875.5" y="-124.3" font-family="Times,serif" font-size="14.00">cratesio&#45;pkg&#45;config&#45;0.3.26</text>
</g>
<!-- stage_8&#45;&gt;stage_9 -->
<g id="edge28" class="edge">
<title>stage_8&#45;&gt;stage_9</title>
<path fill="none" stroke="black" stroke-dasharray="1,5" d="M1976.31,-130.01C1983.96,-130.16 1991.81,-130.32 1999.76,-130.48"/>
<polygon fill="none" stroke="black" points="1999.9,-130.48 2005.98,-126.6 2011.9,-130.72 2005.82,-134.6 1999.9,-130.48"/>
</g>
<!-- stage_13&#45;&gt;stage_14 -->
<g id="edge33" class="edge">
<title>stage_13&#45;&gt;stage_14</title>
<path fill="none" stroke="black" stroke-dasharray="1,5" d="M3171.01,-134C3178.67,-134 3186.57,-134 3194.61,-134"/>
<polygon fill="none" stroke="black" points="3194.89,-134 3200.89,-130 3206.89,-134 3200.89,-138 3194.89,-134"/>
</g>
<!-- stage_11 -->
<g id="node17" class="node">
<title>stage_11</title>
<path fill="none" stroke="black" d="M2573,-36C2573,-36 2388,-36 2388,-36 2382,-36 2376,-30 2376,-24 2376,-24 2376,-12 2376,-12 2376,-6 2382,0 2388,0 2388,0 2573,0 2573,0 2579,0 2585,-6 2585,-12 2585,-12 2585,-24 2585,-24 2585,-30 2579,-36 2573,-36"/>
<text text-anchor="middle" x="2480.5" y="-14.3" font-family="Times,serif" font-size="14.00">cratesio&#45;openssl&#45;sys&#45;0.9.79</text>
</g>
<!-- stage_11&#45;&gt;stage_12 -->
<g id="edge31" class="edge">
<title>stage_11&#45;&gt;stage_12</title>
<path fill="none" stroke="black" stroke-dasharray="1,5" d="M2554.34,-36.08C2564.76,-39.34 2575.25,-42.99 2585,-47 2601.93,-53.96 2604.49,-59.1 2621,-67 2655.03,-83.29 2694.1,-99.27 2725.68,-111.54"/>
<polygon fill="none" stroke="black" points="2725.76,-111.57 2732.79,-109.99 2736.95,-115.88 2729.92,-117.46 2725.76,-111.57"/>
</g>
<!-- stage_11&#45;&gt;stage_14 -->
<g id="edge32" class="edge">
<title>stage_11&#45;&gt;stage_14</title>
<path fill="none" stroke="black" stroke-dasharray="1,5" d="M2585.25,-30.47C2720.25,-46.85 2963.42,-76.82 3171,-105 3192.36,-107.9 3214.99,-111.08 3237.05,-114.25"/>
<polygon fill="none" stroke="black" points="3237.35,-114.29 3243.86,-111.18 3249.23,-116 3242.72,-119.1 3237.35,-114.29"/>
</g>
<!-- stage_16 -->
<g id="node19" class="node">
<title>stage_16</title>
<path fill="#e5e5e5" stroke="black" d="M3919,-152C3919,-152 3799,-152 3799,-152 3793,-152 3787,-146 3787,-140 3787,-140 3787,-128 3787,-128 3787,-122 3793,-116 3799,-116 3799,-116 3919,-116 3919,-116 3925,-116 3931,-122 3931,-128 3931,-128 3931,-140 3931,-140 3931,-146 3925,-152 3919,-152"/>
<text text-anchor="middle" x="3859" y="-130.3" font-family="Times,serif" font-size="14.00">16</text>
</g>
<!-- stage_15&#45;&gt;stage_16 -->
<g id="edge35" class="edge">
<title>stage_15&#45;&gt;stage_16</title>
<path fill="none" stroke="black" stroke-dasharray="5,2" d="M3751.1,-134C3759.65,-134 3768.29,-134 3776.76,-134"/>
<polygon fill="none" stroke="black" points="3776.99,-137.5 3786.99,-134 3776.99,-130.5 3776.99,-137.5"/>
</g>
</g>
</svg>
