<?xml version="1.0" encoding="UTF-8" standalone="no"?>
<!DOCTYPE svg PUBLIC "-//W3C//DTD SVG 1.1//EN"
 "http://www.w3.org/Graphics/SVG/1.1/DTD/svg11.dtd">
<!-- Generated by graphviz version 2.43.0 (0)
 -->
<!-- Title: G Pages: 1 -->
<svg width="5664pt" height="790pt"
 viewBox="0.00 0.00 5664.00 790.49" xmlns="http://www.w3.org/2000/svg" xmlns:xlink="http://www.w3.org/1999/xlink">
<g id="graph0" class="graph" transform="scale(1 1) rotate(0) translate(4 786.49)">
<title>G</title>
<polygon fill="white" stroke="transparent" points="-4,4 -4,-786.49 5660,-786.49 5660,4 -4,4"/>
<!-- external_image_0 -->
<g id="node1" class="node">
<title>external_image_0</title>
<path fill="none" stroke="#333333" stroke-dasharray="5,2" d="M851,-587.49C851,-587.49 12,-587.49 12,-587.49 6,-587.49 0,-581.49 0,-575.49 0,-575.49 0,-563.49 0,-563.49 0,-557.49 6,-551.49 12,-551.49 12,-551.49 851,-551.49 851,-551.49 857,-551.49 863,-557.49 863,-563.49 863,-563.49 863,-575.49 863,-575.49 863,-581.49 857,-587.49 851,-587.49"/>
<text text-anchor="middle" x="431.5" y="-565.79" font-family="Times,serif" font-size="14.00" fill="#333333">docker.io/library/rust:1.90.0&#45;slim@sha256:7fa728f3678acf5980d5db70960cf8491aff9411976789086676bdf0c19db39e</text>
</g>
<!-- stage_0 -->
<g id="node2" class="node">
<title>stage_0</title>
<path fill="none" stroke="black" d="M1047,-587.49C1047,-587.49 927,-587.49 927,-587.49 921,-587.49 915,-581.49 915,-575.49 915,-575.49 915,-563.49 915,-563.49 915,-557.49 921,-551.49 927,-551.49 927,-551.49 1047,-551.49 1047,-551.49 1053,-551.49 1059,-557.49 1059,-563.49 1059,-563.49 1059,-575.49 1059,-575.49 1059,-581.49 1053,-587.49 1047,-587.49"/>
<text text-anchor="middle" x="987" y="-565.79" font-family="Times,serif" font-size="14.00">rust&#45;base</text>
</g>
<!-- external_image_0&#45;&gt;stage_0 -->
<g id="edge1" class="edge">
<title>external_image_0&#45;&gt;stage_0</title>
<path fill="none" stroke="black" d="M863.16,-569.49C878.03,-569.49 892.02,-569.49 904.87,-569.49"/>
<polygon fill="black" stroke="black" points="904.92,-572.99 914.92,-569.49 904.92,-565.99 904.92,-572.99"/>
</g>
<!-- stage_2 -->
<g id="node3" class="node">
<title>stage_2</title>
<path fill="none" stroke="black" d="M3170,-535.49C3170,-535.49 2844,-535.49 2844,-535.49 2838,-535.49 2832,-529.49 2832,-523.49 2832,-523.49 2832,-511.49 2832,-511.49 2832,-505.49 2838,-499.49 2844,-499.49 2844,-499.49 3170,-499.49 3170,-499.49 3176,-499.49 3182,-505.49 3182,-511.49 3182,-511.49 3182,-523.49 3182,-523.49 3182,-529.49 3176,-535.49 3170,-535.49"/>
<text text-anchor="middle" x="3007" y="-513.79" font-family="Times,serif" font-size="14.00">dep&#45;n&#45;find&#45;msvc&#45;tools&#45;0.1.2&#45;d2948f7c0c8497b1</text>
</g>
<!-- stage_0&#45;&gt;stage_2 -->
<g id="edge2" class="edge">
<title>stage_0&#45;&gt;stage_2</title>
<path fill="none" stroke="black" d="M2390,-465.49C2477.39,-457.82 2486.53,-519.5 2570,-546.49 2618.35,-562.12 2631.61,-562.9 2682,-569.49"/>
<path fill="none" stroke="black" d="M2684,-569.49C2705.44,-572.29 2815.87,-553.24 2901.5,-537.42"/>
<polygon fill="black" stroke="black" points="2902.35,-540.82 2911.55,-535.56 2901.08,-533.94 2902.35,-540.82"/>
</g>
<!-- stage_5 -->
<g id="node4" class="node">
<title>stage_5</title>
<path fill="none" stroke="black" d="M1393.5,-128.49C1393.5,-128.49 1133.5,-128.49 1133.5,-128.49 1127.5,-128.49 1121.5,-122.49 1121.5,-116.49 1121.5,-116.49 1121.5,-104.49 1121.5,-104.49 1121.5,-98.49 1127.5,-92.49 1133.5,-92.49 1133.5,-92.49 1393.5,-92.49 1393.5,-92.49 1399.5,-92.49 1405.5,-98.49 1405.5,-104.49 1405.5,-104.49 1405.5,-116.49 1405.5,-116.49 1405.5,-122.49 1399.5,-128.49 1393.5,-128.49"/>
<text text-anchor="middle" x="1263.5" y="-106.79" font-family="Times,serif" font-size="14.00">dep&#45;x&#45;libc&#45;0.2.176&#45;7560e7c5c88ec4c4</text>
</g>
<!-- stage_0&#45;&gt;stage_5 -->
<g id="edge3" class="edge">
<title>stage_0&#45;&gt;stage_5</title>
<path fill="none" stroke="black" d="M998.93,-551.21C1041.41,-480.18 1195.68,-222.21 1246.3,-137.58"/>
<polygon fill="black" stroke="black" points="1249.41,-139.19 1251.54,-128.81 1243.4,-135.6 1249.41,-139.19"/>
</g>
<!-- stage_7 -->
<g id="node5" class="node">
<title>stage_7</title>
<path fill="none" stroke="black" d="M1963.5,-180.49C1963.5,-180.49 1701.5,-180.49 1701.5,-180.49 1695.5,-180.49 1689.5,-174.49 1689.5,-168.49 1689.5,-168.49 1689.5,-156.49 1689.5,-156.49 1689.5,-150.49 1695.5,-144.49 1701.5,-144.49 1701.5,-144.49 1963.5,-144.49 1963.5,-144.49 1969.5,-144.49 1975.5,-150.49 1975.5,-156.49 1975.5,-156.49 1975.5,-168.49 1975.5,-168.49 1975.5,-174.49 1969.5,-180.49 1963.5,-180.49"/>
<text text-anchor="middle" x="1832.5" y="-158.79" font-family="Times,serif" font-size="14.00">run&#45;z&#45;libc&#45;0.2.176&#45;99856d878c8e44ce</text>
</g>
<!-- stage_0&#45;&gt;stage_7 -->
<g id="edge4" class="edge">
<title>stage_0&#45;&gt;stage_7</title>
<path fill="none" stroke="black" d="M1059.25,-573.02C1114.76,-574.92 1193.68,-575.76 1262.5,-569.49"/>
<path fill="none" stroke="black" d="M1264.5,-569.49C1354.9,-561.25 1365.96,-517.43 1452,-488.49 1492.56,-474.84 1504.86,-478.88 1545.5,-465.49"/>
<path fill="none" stroke="black" d="M1547.5,-465.49C1686.84,-419.56 1784.11,-255.19 1818.14,-189.7"/>
<polygon fill="black" stroke="black" points="1821.27,-191.28 1822.7,-180.78 1815.04,-188.09 1821.27,-191.28"/>
</g>
<!-- stage_9 -->
<g id="node6" class="node">
<title>stage_9</title>
<path fill="none" stroke="black" d="M2522,-177.49C2522,-177.49 2256,-177.49 2256,-177.49 2250,-177.49 2244,-171.49 2244,-165.49 2244,-165.49 2244,-153.49 2244,-153.49 2244,-147.49 2250,-141.49 2256,-141.49 2256,-141.49 2522,-141.49 2522,-141.49 2528,-141.49 2534,-147.49 2534,-153.49 2534,-153.49 2534,-165.49 2534,-165.49 2534,-171.49 2528,-177.49 2522,-177.49"/>
<text text-anchor="middle" x="2389" y="-155.79" font-family="Times,serif" font-size="14.00">dep&#45;n&#45;libc&#45;0.2.176&#45;60426161aa87c673</text>
</g>
<!-- stage_0&#45;&gt;stage_9 -->
<g id="edge5" class="edge">
<title>stage_0&#45;&gt;stage_9</title>
<path fill="none" stroke="black" d="M1547.5,-465.49C1667.38,-425.97 1708.07,-491.87 1831.5,-465.49"/>
<path fill="none" stroke="black" d="M1833.5,-465.49C2055.51,-418.03 2280.11,-248.07 2358.7,-184.08"/>
<polygon fill="black" stroke="black" points="2361.19,-186.57 2366.7,-177.52 2356.75,-181.15 2361.19,-186.57"/>
</g>
<!-- stage_12 -->
<g id="node7" class="node">
<title>stage_12</title>
<path fill="none" stroke="black" d="M3152,-327.49C3152,-327.49 2862,-327.49 2862,-327.49 2856,-327.49 2850,-321.49 2850,-315.49 2850,-315.49 2850,-303.49 2850,-303.49 2850,-297.49 2856,-291.49 2862,-291.49 2862,-291.49 3152,-291.49 3152,-291.49 3158,-291.49 3164,-297.49 3164,-303.49 3164,-303.49 3164,-315.49 3164,-315.49 3164,-321.49 3158,-327.49 3152,-327.49"/>
<text text-anchor="middle" x="3007" y="-305.79" font-family="Times,serif" font-size="14.00">dep&#45;n&#45;jobserver&#45;0.1.34&#45;4dc141be22bbffce</text>
</g>
<!-- stage_0&#45;&gt;stage_12 -->
<g id="edge6" class="edge">
<title>stage_0&#45;&gt;stage_12</title>
<path fill="none" stroke="black" d="M2390,-465.49C2477.33,-457.17 2486.1,-410.13 2570,-384.49 2624.75,-367.75 2763.57,-345.08 2869.99,-329.05"/>
<polygon fill="black" stroke="black" points="2870.81,-332.47 2880.18,-327.52 2869.77,-325.55 2870.81,-332.47"/>
</g>
<!-- stage_15 -->
<g id="node8" class="node">
<title>stage_15</title>
<path fill="none" stroke="black" d="M3137,-439.49C3137,-439.49 2877,-439.49 2877,-439.49 2871,-439.49 2865,-433.49 2865,-427.49 2865,-427.49 2865,-415.49 2865,-415.49 2865,-409.49 2871,-403.49 2877,-403.49 2877,-403.49 3137,-403.49 3137,-403.49 3143,-403.49 3149,-409.49 3149,-415.49 3149,-415.49 3149,-427.49 3149,-427.49 3149,-433.49 3143,-439.49 3137,-439.49"/>
<text text-anchor="middle" x="3007" y="-417.79" font-family="Times,serif" font-size="14.00">dep&#45;n&#45;shlex&#45;1.3.0&#45;b166d1c75d83103c</text>
</g>
<!-- stage_0&#45;&gt;stage_15 -->
<g id="edge7" class="edge">
<title>stage_0&#45;&gt;stage_15</title>
<path fill="none" stroke="black" d="M2390,-465.49C2570.04,-449.69 2615.82,-456.59 2796,-442.49 2815.06,-440.99 2835.08,-439.24 2854.87,-437.39"/>
<polygon fill="black" stroke="black" points="2855.25,-440.87 2864.87,-436.44 2854.59,-433.9 2855.25,-440.87"/>
</g>
<!-- stage_18 -->
<g id="node9" class="node">
<title>stage_18</title>
<path fill="none" stroke="black" d="M3695,-278.49C3695,-278.49 3451,-278.49 3451,-278.49 3445,-278.49 3439,-272.49 3439,-266.49 3439,-266.49 3439,-254.49 3439,-254.49 3439,-248.49 3445,-242.49 3451,-242.49 3451,-242.49 3695,-242.49 3695,-242.49 3701,-242.49 3707,-248.49 3707,-254.49 3707,-254.49 3707,-266.49 3707,-266.49 3707,-272.49 3701,-278.49 3695,-278.49"/>
<text text-anchor="middle" x="3573" y="-256.79" font-family="Times,serif" font-size="14.00">dep&#45;n&#45;cc&#45;1.2.39&#45;336c2d9100ab92f8</text>
</g>
<!-- stage_0&#45;&gt;stage_18 -->
<g id="edge8" class="edge">
<title>stage_0&#45;&gt;stage_18</title>
<path fill="none" stroke="black" d="M1833.5,-465.49C2078.65,-440.25 2142.66,-488.75 2388,-465.49"/>
<path fill="none" stroke="black" d="M2390,-465.49C2504.23,-454.87 2464.77,-326.16 2570,-280.49 2719.87,-215.43 3189.1,-235.06 3428.47,-250.14"/>
<polygon fill="black" stroke="black" points="3428.44,-253.64 3438.64,-250.78 3428.88,-246.66 3428.44,-253.64"/>
</g>
<!-- stage_21 -->
<g id="node10" class="node">
<title>stage_21</title>
<path fill="none" stroke="black" d="M4240,-139.49C4240,-139.49 3973,-139.49 3973,-139.49 3967,-139.49 3961,-133.49 3961,-127.49 3961,-127.49 3961,-115.49 3961,-115.49 3961,-109.49 3967,-103.49 3973,-103.49 3973,-103.49 4240,-103.49 4240,-103.49 4246,-103.49 4252,-109.49 4252,-115.49 4252,-115.49 4252,-127.49 4252,-127.49 4252,-133.49 4246,-139.49 4240,-139.49"/>
<text text-anchor="middle" x="4106.5" y="-117.79" font-family="Times,serif" font-size="14.00">dep&#45;n&#45;cmake&#45;0.1.54&#45;3ff4fdb389eab124</text>
</g>
<!-- stage_0&#45;&gt;stage_21 -->
<g id="edge9" class="edge">
<title>stage_0&#45;&gt;stage_21</title>
<path fill="none" stroke="black" d="M2684,-569.49C2959.66,-605.51 3031.5,-569.49 3309.5,-569.49 3309.5,-569.49 3309.5,-569.49 3574,-569.49 3836.78,-569.49 4037.06,-245.36 4091.05,-148.5"/>
<polygon fill="black" stroke="black" points="4094.19,-150.05 4095.95,-139.6 4088.06,-146.67 4094.19,-150.05"/>
</g>
<!-- stage_24 -->
<g id="node11" class="node">
<title>stage_24</title>
<path fill="none" stroke="black" d="M1395,-773.49C1395,-773.49 1132,-773.49 1132,-773.49 1126,-773.49 1120,-767.49 1120,-761.49 1120,-761.49 1120,-749.49 1120,-749.49 1120,-743.49 1126,-737.49 1132,-737.49 1132,-737.49 1395,-737.49 1395,-737.49 1401,-737.49 1407,-743.49 1407,-749.49 1407,-749.49 1407,-761.49 1407,-761.49 1407,-767.49 1401,-773.49 1395,-773.49"/>
<text text-anchor="middle" x="1263.5" y="-751.79" font-family="Times,serif" font-size="14.00">dep&#45;n&#45;dunce&#45;1.0.5&#45;25a6bb4144c31f83</text>
</g>
<!-- stage_0&#45;&gt;stage_24 -->
<g id="edge10" class="edge">
<title>stage_0&#45;&gt;stage_24</title>
<path fill="none" stroke="black" d="M1059.03,-586.3C1064.91,-589.65 1070.37,-593.67 1075,-598.49 1114.78,-639.85 1069.06,-683.31 1111,-722.49 1114.84,-726.07 1118.97,-729.3 1123.32,-732.21"/>
<polygon fill="black" stroke="black" points="1121.6,-735.25 1131.97,-737.41 1125.21,-729.25 1121.6,-735.25"/>
</g>
<!-- stage_27 -->
<g id="node12" class="node">
<title>stage_27</title>
<path fill="none" stroke="black" d="M1404,-711.49C1404,-711.49 1123,-711.49 1123,-711.49 1117,-711.49 1111,-705.49 1111,-699.49 1111,-699.49 1111,-687.49 1111,-687.49 1111,-681.49 1117,-675.49 1123,-675.49 1123,-675.49 1404,-675.49 1404,-675.49 1410,-675.49 1416,-681.49 1416,-687.49 1416,-687.49 1416,-699.49 1416,-699.49 1416,-705.49 1410,-711.49 1404,-711.49"/>
<text text-anchor="middle" x="1263.5" y="-689.79" font-family="Times,serif" font-size="14.00">dep&#45;n&#45;fs_extra&#45;1.3.0&#45;19400729ba85cd55</text>
</g>
<!-- stage_0&#45;&gt;stage_27 -->
<g id="edge11" class="edge">
<title>stage_0&#45;&gt;stage_27</title>
<path fill="none" stroke="black" d="M1056.64,-587.56C1063.15,-590.67 1069.4,-594.28 1075,-598.49 1097.49,-615.35 1088.14,-634.13 1111,-650.49 1123.4,-659.36 1137.6,-666.41 1152.21,-672"/>
<polygon fill="black" stroke="black" points="1151.26,-675.38 1161.86,-675.48 1153.63,-668.8 1151.26,-675.38"/>
</g>
<!-- stage_30 -->
<g id="node13" class="node">
<title>stage_30</title>
<path fill="none" stroke="black" d="M1393.5,-639.49C1393.5,-639.49 1133.5,-639.49 1133.5,-639.49 1127.5,-639.49 1121.5,-633.49 1121.5,-627.49 1121.5,-627.49 1121.5,-615.49 1121.5,-615.49 1121.5,-609.49 1127.5,-603.49 1133.5,-603.49 1133.5,-603.49 1393.5,-603.49 1393.5,-603.49 1399.5,-603.49 1405.5,-609.49 1405.5,-615.49 1405.5,-615.49 1405.5,-627.49 1405.5,-627.49 1405.5,-633.49 1399.5,-639.49 1393.5,-639.49"/>
<text text-anchor="middle" x="1263.5" y="-617.79" font-family="Times,serif" font-size="14.00">dep&#45;n&#45;cfg&#45;if&#45;1.0.3&#45;d905bd04d466c2b4</text>
</g>
<!-- stage_0&#45;&gt;stage_30 -->
<g id="edge12" class="edge">
<title>stage_0&#45;&gt;stage_30</title>
<path fill="none" stroke="black" d="M1059.05,-582.94C1088.99,-588.62 1124.46,-595.34 1157.34,-601.56"/>
<polygon fill="black" stroke="black" points="1156.97,-605.06 1167.44,-603.48 1158.27,-598.18 1156.97,-605.06"/>
</g>
<!-- stage_33 -->
<g id="node14" class="node">
<title>stage_33</title>
<path fill="none" stroke="black" d="M1976,-535.49C1976,-535.49 1689,-535.49 1689,-535.49 1683,-535.49 1677,-529.49 1677,-523.49 1677,-523.49 1677,-511.49 1677,-511.49 1677,-505.49 1683,-499.49 1689,-499.49 1689,-499.49 1976,-499.49 1976,-499.49 1982,-499.49 1988,-505.49 1988,-511.49 1988,-511.49 1988,-523.49 1988,-523.49 1988,-529.49 1982,-535.49 1976,-535.49"/>
<text text-anchor="middle" x="1832.5" y="-513.79" font-family="Times,serif" font-size="14.00">dep&#45;n&#45;libloading&#45;0.8.8&#45;bcbfd880a9747f76</text>
</g>
<!-- stage_0&#45;&gt;stage_33 -->
<g id="edge13" class="edge">
<title>stage_0&#45;&gt;stage_33</title>
<path fill="none" stroke="black" d="M1547.5,-465.49C1566.09,-459.36 1667.77,-480.08 1744.2,-497.16"/>
<polygon fill="black" stroke="black" points="1743.8,-500.66 1754.33,-499.43 1745.34,-493.83 1743.8,-500.66"/>
</g>
<!-- stage_36 -->
<g id="node15" class="node">
<title>stage_36</title>
<path fill="none" stroke="black" d="M4837,-102.49C4837,-102.49 4536,-102.49 4536,-102.49 4530,-102.49 4524,-96.49 4524,-90.49 4524,-90.49 4524,-78.49 4524,-78.49 4524,-72.49 4530,-66.49 4536,-66.49 4536,-66.49 4837,-66.49 4837,-66.49 4843,-66.49 4849,-72.49 4849,-78.49 4849,-78.49 4849,-90.49 4849,-90.49 4849,-96.49 4843,-102.49 4837,-102.49"/>
<text text-anchor="middle" x="4686.5" y="-80.79" font-family="Times,serif" font-size="14.00">dep&#45;x&#45;aws&#45;lc&#45;sys&#45;0.32.2&#45;b91f62695d1e67bd</text>
</g>
<!-- stage_0&#45;&gt;stage_36 -->
<g id="edge14" class="edge">
<title>stage_0&#45;&gt;stage_36</title>
<path fill="none" stroke="black" d="M1264.5,-569.49C1516.51,-546.52 1580.13,-592.34 1831.5,-621.49"/>
<path fill="none" stroke="black" d="M1833.5,-621.49C2079.13,-648.23 2140.92,-661.49 2388,-661.49 2388,-661.49 2388,-661.49 3311.5,-661.49 3487.57,-661.49 3532.7,-659.54 3707,-684.49 3763.88,-692.63 3775.78,-718.76 3833,-713.49"/>
<path fill="none" stroke="black" d="M3835,-713.49C4083.68,-688.8 4170.91,-732.01 4387,-606.49"/>
</g>
<!-- stage_38 -->
<g id="node16" class="node">
<title>stage_38</title>
<path fill="none" stroke="black" d="M5420,-76.49C5420,-76.49 5117,-76.49 5117,-76.49 5111,-76.49 5105,-70.49 5105,-64.49 5105,-64.49 5105,-52.49 5105,-52.49 5105,-46.49 5111,-40.49 5117,-40.49 5117,-40.49 5420,-40.49 5420,-40.49 5426,-40.49 5432,-46.49 5432,-52.49 5432,-52.49 5432,-64.49 5432,-64.49 5432,-70.49 5426,-76.49 5420,-76.49"/>
<text text-anchor="middle" x="5268.5" y="-54.79" font-family="Times,serif" font-size="14.00">run&#45;z&#45;aws&#45;lc&#45;sys&#45;0.32.2&#45;2d875791ad1d3d18</text>
</g>
<!-- stage_0&#45;&gt;stage_38 -->
<g id="edge15" class="edge">
<title>stage_0&#45;&gt;stage_38</title>
<path fill="none" stroke="black" d="M989.74,-551.43C997.94,-470.65 1035.43,-143.65 1111,-81.49 1185.67,-20.06 1448.81,-58.49 1545.5,-58.49 1545.5,-58.49 1545.5,-58.49 1833.5,-58.49 2924.66,-58.49 3196.91,-15.71 4288,-3.49 4376.88,-2.49 4399.35,2.99 4488,-3.49 4576.48,-9.95 4596.86,-28.63 4685.5,-32.49"/>
<path fill="none" stroke="black" d="M4687.5,-32.49C4824.31,-35.92 4979.16,-43.03 5094.42,-48.94"/>
<polygon fill="black" stroke="black" points="5094.58,-52.45 5104.74,-49.47 5094.94,-45.46 5094.58,-52.45"/>
</g>
<!-- stage_3 -->
<g id="node17" class="node">
<title>stage_3</title>
<path fill="none" stroke="black" d="M3389.5,-497.49C3389.5,-497.49 3231.5,-497.49 3231.5,-497.49 3225.5,-497.49 3219.5,-491.49 3219.5,-485.49 3219.5,-485.49 3219.5,-473.49 3219.5,-473.49 3219.5,-467.49 3225.5,-461.49 3231.5,-461.49 3231.5,-461.49 3389.5,-461.49 3389.5,-461.49 3395.5,-461.49 3401.5,-467.49 3401.5,-473.49 3401.5,-473.49 3401.5,-485.49 3401.5,-485.49 3401.5,-491.49 3395.5,-497.49 3389.5,-497.49"/>
<text text-anchor="middle" x="3310.5" y="-475.79" font-family="Times,serif" font-size="14.00">out&#45;d2948f7c0c8497b1</text>
</g>
<!-- stage_2&#45;&gt;stage_3 -->
<g id="edge16" class="edge">
<title>stage_2&#45;&gt;stage_3</title>
<path fill="none" stroke="black" stroke-dasharray="5,2" d="M3151.24,-499.43C3170.95,-496.95 3190.83,-494.44 3209.52,-492.09"/>
<polygon fill="none" stroke="black" points="3210,-495.55 3219.48,-490.83 3209.12,-488.61 3210,-495.55"/>
</g>
<!-- stage_6 -->
<g id="node19" class="node">
<title>stage_6</title>
<path fill="none" stroke="black" d="M1625,-128.49C1625,-128.49 1468,-128.49 1468,-128.49 1462,-128.49 1456,-122.49 1456,-116.49 1456,-116.49 1456,-104.49 1456,-104.49 1456,-98.49 1462,-92.49 1468,-92.49 1468,-92.49 1625,-92.49 1625,-92.49 1631,-92.49 1637,-98.49 1637,-104.49 1637,-104.49 1637,-116.49 1637,-116.49 1637,-122.49 1631,-128.49 1625,-128.49"/>
<text text-anchor="middle" x="1546.5" y="-106.79" font-family="Times,serif" font-size="14.00">out&#45;7560e7c5c88ec4c4</text>
</g>
<!-- stage_5&#45;&gt;stage_6 -->
<g id="edge23" class="edge">
<title>stage_5&#45;&gt;stage_6</title>
<path fill="none" stroke="black" stroke-dasharray="5,2" d="M1405.82,-110.49C1419.2,-110.49 1432.56,-110.49 1445.43,-110.49"/>
<polygon fill="none" stroke="black" points="1445.63,-113.99 1455.63,-110.49 1445.63,-106.99 1445.63,-113.99"/>
</g>
<!-- stage_8 -->
<g id="node21" class="node">
<title>stage_8</title>
<path fill="none" stroke="black" d="M2196,-177.49C2196,-177.49 2036,-177.49 2036,-177.49 2030,-177.49 2024,-171.49 2024,-165.49 2024,-165.49 2024,-153.49 2024,-153.49 2024,-147.49 2030,-141.49 2036,-141.49 2036,-141.49 2196,-141.49 2196,-141.49 2202,-141.49 2208,-147.49 2208,-153.49 2208,-153.49 2208,-165.49 2208,-165.49 2208,-171.49 2202,-177.49 2196,-177.49"/>
<text text-anchor="middle" x="2116" y="-155.79" font-family="Times,serif" font-size="14.00">out&#45;99856d878c8e44ce</text>
</g>
<!-- stage_7&#45;&gt;stage_8 -->
<g id="edge32" class="edge">
<title>stage_7&#45;&gt;stage_8</title>
<path fill="none" stroke="black" stroke-dasharray="5,2" d="M1975.9,-160.97C1988.58,-160.83 2001.24,-160.7 2013.47,-160.57"/>
<polygon fill="none" stroke="black" points="2013.67,-164.07 2023.63,-160.46 2013.6,-157.07 2013.67,-164.07"/>
</g>
<!-- stage_10 -->
<g id="node22" class="node">
<title>stage_10</title>
<path fill="none" stroke="black" d="M2763.5,-177.49C2763.5,-177.49 2602.5,-177.49 2602.5,-177.49 2596.5,-177.49 2590.5,-171.49 2590.5,-165.49 2590.5,-165.49 2590.5,-153.49 2590.5,-153.49 2590.5,-147.49 2596.5,-141.49 2602.5,-141.49 2602.5,-141.49 2763.5,-141.49 2763.5,-141.49 2769.5,-141.49 2775.5,-147.49 2775.5,-153.49 2775.5,-153.49 2775.5,-165.49 2775.5,-165.49 2775.5,-171.49 2769.5,-177.49 2763.5,-177.49"/>
<text text-anchor="middle" x="2683" y="-155.79" font-family="Times,serif" font-size="14.00">out&#45;60426161aa87c673</text>
</g>
<!-- stage_9&#45;&gt;stage_10 -->
<g id="edge34" class="edge">
<title>stage_9&#45;&gt;stage_10</title>
<path fill="none" stroke="black" stroke-dasharray="5,2" d="M2534.29,-159.49C2549.82,-159.49 2565.37,-159.49 2580.24,-159.49"/>
<polygon fill="none" stroke="black" points="2580.43,-162.99 2590.43,-159.49 2580.43,-155.99 2580.43,-162.99"/>
</g>
<!-- stage_13 -->
<g id="node23" class="node">
<title>stage_13</title>
<path fill="none" stroke="black" d="M3386.5,-361.49C3386.5,-361.49 3234.5,-361.49 3234.5,-361.49 3228.5,-361.49 3222.5,-355.49 3222.5,-349.49 3222.5,-349.49 3222.5,-337.49 3222.5,-337.49 3222.5,-331.49 3228.5,-325.49 3234.5,-325.49 3234.5,-325.49 3386.5,-325.49 3386.5,-325.49 3392.5,-325.49 3398.5,-331.49 3398.5,-337.49 3398.5,-337.49 3398.5,-349.49 3398.5,-349.49 3398.5,-355.49 3392.5,-361.49 3386.5,-361.49"/>
<text text-anchor="middle" x="3310.5" y="-339.79" font-family="Times,serif" font-size="14.00">out&#45;4dc141be22bbffce</text>
</g>
<!-- stage_12&#45;&gt;stage_13 -->
<g id="edge42" class="edge">
<title>stage_12&#45;&gt;stage_13</title>
<path fill="none" stroke="black" stroke-dasharray="5,2" d="M3164.05,-327.08C3180.43,-328.93 3196.73,-330.77 3212.17,-332.51"/>
<polygon fill="none" stroke="black" points="3211.86,-336 3222.19,-333.64 3212.64,-329.04 3211.86,-336"/>
</g>
<!-- stage_16 -->
<g id="node25" class="node">
<title>stage_16</title>
<path fill="none" stroke="black" d="M3391,-439.49C3391,-439.49 3230,-439.49 3230,-439.49 3224,-439.49 3218,-433.49 3218,-427.49 3218,-427.49 3218,-415.49 3218,-415.49 3218,-409.49 3224,-403.49 3230,-403.49 3230,-403.49 3391,-403.49 3391,-403.49 3397,-403.49 3403,-409.49 3403,-415.49 3403,-415.49 3403,-427.49 3403,-427.49 3403,-433.49 3397,-439.49 3391,-439.49"/>
<text text-anchor="middle" x="3310.5" y="-417.79" font-family="Times,serif" font-size="14.00">out&#45;b166d1c75d83103c</text>
</g>
<!-- stage_15&#45;&gt;stage_16 -->
<g id="edge49" class="edge">
<title>stage_15&#45;&gt;stage_16</title>
<path fill="none" stroke="black" stroke-dasharray="5,2" d="M3149.04,-421.49C3168.79,-421.49 3188.76,-421.49 3207.59,-421.49"/>
<polygon fill="none" stroke="black" points="3207.62,-424.99 3217.62,-421.49 3207.62,-417.99 3207.62,-424.99"/>
</g>
<!-- stage_19 -->
<g id="node27" class="node">
<title>stage_19</title>
<path fill="none" stroke="black" d="M3913,-191.49C3913,-191.49 3755,-191.49 3755,-191.49 3749,-191.49 3743,-185.49 3743,-179.49 3743,-179.49 3743,-167.49 3743,-167.49 3743,-161.49 3749,-155.49 3755,-155.49 3755,-155.49 3913,-155.49 3913,-155.49 3919,-155.49 3925,-161.49 3925,-167.49 3925,-167.49 3925,-179.49 3925,-179.49 3925,-185.49 3919,-191.49 3913,-191.49"/>
<text text-anchor="middle" x="3834" y="-169.79" font-family="Times,serif" font-size="14.00">out&#45;336c2d9100ab92f8</text>
</g>
<!-- stage_18&#45;&gt;stage_19 -->
<g id="edge56" class="edge">
<title>stage_18&#45;&gt;stage_19</title>
<path fill="none" stroke="black" stroke-dasharray="5,2" d="M3625.69,-242.46C3659.1,-230.88 3703.56,-215.61 3743,-202.49 3750.64,-199.94 3758.66,-197.31 3766.63,-194.72"/>
<polygon fill="none" stroke="black" points="3767.86,-197.99 3776.3,-191.58 3765.7,-191.34 3767.86,-197.99"/>
</g>
<!-- stage_22 -->
<g id="node29" class="node">
<title>stage_22</title>
<path fill="none" stroke="black" d="M4463.5,-154.49C4463.5,-154.49 4312.5,-154.49 4312.5,-154.49 4306.5,-154.49 4300.5,-148.49 4300.5,-142.49 4300.5,-142.49 4300.5,-130.49 4300.5,-130.49 4300.5,-124.49 4306.5,-118.49 4312.5,-118.49 4312.5,-118.49 4463.5,-118.49 4463.5,-118.49 4469.5,-118.49 4475.5,-124.49 4475.5,-130.49 4475.5,-130.49 4475.5,-142.49 4475.5,-142.49 4475.5,-148.49 4469.5,-154.49 4463.5,-154.49"/>
<text text-anchor="middle" x="4388" y="-132.79" font-family="Times,serif" font-size="14.00">out&#45;3ff4fdb389eab124</text>
</g>
<!-- stage_21&#45;&gt;stage_22 -->
<g id="edge61" class="edge">
<title>stage_21&#45;&gt;stage_22</title>
<path fill="none" stroke="black" stroke-dasharray="5,2" d="M4252.16,-129.25C4264.96,-129.94 4277.71,-130.62 4289.97,-131.28"/>
<polygon fill="none" stroke="black" points="4289.97,-134.78 4300.14,-131.82 4290.34,-127.79 4289.97,-134.78"/>
</g>
<!-- stage_25 -->
<g id="node31" class="node">
<title>stage_25</title>
<path fill="none" stroke="black" d="M2468,-782.49C2468,-782.49 2310,-782.49 2310,-782.49 2304,-782.49 2298,-776.49 2298,-770.49 2298,-770.49 2298,-758.49 2298,-758.49 2298,-752.49 2304,-746.49 2310,-746.49 2310,-746.49 2468,-746.49 2468,-746.49 2474,-746.49 2480,-752.49 2480,-758.49 2480,-758.49 2480,-770.49 2480,-770.49 2480,-776.49 2474,-782.49 2468,-782.49"/>
<text text-anchor="middle" x="2389" y="-760.79" font-family="Times,serif" font-size="14.00">out&#45;25a6bb4144c31f83</text>
</g>
<!-- stage_24&#45;&gt;stage_25 -->
<g id="edge64" class="edge">
<title>stage_24&#45;&gt;stage_25</title>
<path fill="none" stroke="black" stroke-dasharray="5,2" d="M1407.08,-756.63C1637.74,-758.48 2087.08,-762.08 2287.41,-763.68"/>
<polygon fill="none" stroke="black" points="2287.6,-767.18 2297.63,-763.76 2287.66,-760.18 2287.6,-767.18"/>
</g>
<!-- stage_28 -->
<g id="node33" class="node">
<title>stage_28</title>
<path fill="none" stroke="black" d="M3654,-731.49C3654,-731.49 3492,-731.49 3492,-731.49 3486,-731.49 3480,-725.49 3480,-719.49 3480,-719.49 3480,-707.49 3480,-707.49 3480,-701.49 3486,-695.49 3492,-695.49 3492,-695.49 3654,-695.49 3654,-695.49 3660,-695.49 3666,-701.49 3666,-707.49 3666,-707.49 3666,-719.49 3666,-719.49 3666,-725.49 3660,-731.49 3654,-731.49"/>
<text text-anchor="middle" x="3573" y="-709.79" font-family="Times,serif" font-size="14.00">out&#45;19400729ba85cd55</text>
</g>
<!-- stage_27&#45;&gt;stage_28 -->
<g id="edge67" class="edge">
<title>stage_27&#45;&gt;stage_28</title>
<path fill="none" stroke="black" stroke-dasharray="5,2" d="M1416.08,-700.09C1530.26,-704.49 1690.68,-709.49 1831.5,-709.49 1831.5,-709.49 1831.5,-709.49 3008,-709.49 3169.35,-709.49 3356.65,-711.14 3469.65,-712.32"/>
<polygon fill="none" stroke="black" points="3469.64,-715.82 3479.68,-712.43 3469.72,-708.82 3469.64,-715.82"/>
</g>
<!-- stage_31 -->
<g id="node35" class="node">
<title>stage_31</title>
<path fill="none" stroke="black" d="M1628,-639.49C1628,-639.49 1465,-639.49 1465,-639.49 1459,-639.49 1453,-633.49 1453,-627.49 1453,-627.49 1453,-615.49 1453,-615.49 1453,-609.49 1459,-603.49 1465,-603.49 1465,-603.49 1628,-603.49 1628,-603.49 1634,-603.49 1640,-609.49 1640,-615.49 1640,-615.49 1640,-627.49 1640,-627.49 1640,-633.49 1634,-639.49 1628,-639.49"/>
<text text-anchor="middle" x="1546.5" y="-617.79" font-family="Times,serif" font-size="14.00">out&#45;d905bd04d466c2b4</text>
</g>
<!-- stage_30&#45;&gt;stage_31 -->
<g id="edge70" class="edge">
<title>stage_30&#45;&gt;stage_31</title>
<path fill="none" stroke="black" stroke-dasharray="5,2" d="M1405.82,-621.49C1418.32,-621.49 1430.8,-621.49 1442.88,-621.49"/>
<polygon fill="none" stroke="black" points="1442.92,-624.99 1452.92,-621.49 1442.92,-617.99 1442.92,-624.99"/>
</g>
<!-- stage_34 -->
<g id="node37" class="node">
<title>stage_34</title>
<path fill="none" stroke="black" d="M4184,-624.49C4184,-624.49 4029,-624.49 4029,-624.49 4023,-624.49 4017,-618.49 4017,-612.49 4017,-612.49 4017,-600.49 4017,-600.49 4017,-594.49 4023,-588.49 4029,-588.49 4029,-588.49 4184,-588.49 4184,-588.49 4190,-588.49 4196,-594.49 4196,-600.49 4196,-600.49 4196,-612.49 4196,-612.49 4196,-618.49 4190,-624.49 4184,-624.49"/>
<text text-anchor="middle" x="4106.5" y="-602.79" font-family="Times,serif" font-size="14.00">out&#45;bcbfd880a9747f76</text>
</g>
<!-- stage_33&#45;&gt;stage_34 -->
<g id="edge75" class="edge">
<title>stage_33&#45;&gt;stage_34</title>
<path fill="none" stroke="black" stroke-dasharray="5,2" d="M1894.83,-535.57C1996.41,-563.89 2206.41,-615.49 2388,-615.49 2388,-615.49 2388,-615.49 3574,-615.49 3724.87,-615.49 3899.79,-611.82 4006.53,-609.16"/>
<polygon fill="none" stroke="black" points="4006.73,-612.66 4016.64,-608.91 4006.55,-605.66 4006.73,-612.66"/>
</g>
<!-- stage_37 -->
<g id="node39" class="node">
<title>stage_37</title>
<path fill="none" stroke="black" d="M5057,-102.49C5057,-102.49 4897,-102.49 4897,-102.49 4891,-102.49 4885,-96.49 4885,-90.49 4885,-90.49 4885,-78.49 4885,-78.49 4885,-72.49 4891,-66.49 4897,-66.49 4897,-66.49 5057,-66.49 5057,-66.49 5063,-66.49 5069,-72.49 5069,-78.49 5069,-78.49 5069,-90.49 5069,-90.49 5069,-96.49 5063,-102.49 5057,-102.49"/>
<text text-anchor="middle" x="4977" y="-80.79" font-family="Times,serif" font-size="14.00">out&#45;b91f62695d1e67bd</text>
</g>
<!-- stage_36&#45;&gt;stage_37 -->
<g id="edge78" class="edge">
<title>stage_36&#45;&gt;stage_37</title>
<path fill="none" stroke="black" stroke-dasharray="5,2" d="M4849.04,-84.49C4857.74,-84.49 4866.35,-84.49 4874.74,-84.49"/>
<polygon fill="none" stroke="black" points="4874.87,-87.99 4884.87,-84.49 4874.87,-80.99 4874.87,-87.99"/>
</g>
<!-- stage_39 -->
<g id="node41" class="node">
<title>stage_39</title>
<path fill="none" stroke="black" d="M5644,-76.49C5644,-76.49 5480,-76.49 5480,-76.49 5474,-76.49 5468,-70.49 5468,-64.49 5468,-64.49 5468,-52.49 5468,-52.49 5468,-46.49 5474,-40.49 5480,-40.49 5480,-40.49 5644,-40.49 5644,-40.49 5650,-40.49 5656,-46.49 5656,-52.49 5656,-52.49 5656,-64.49 5656,-64.49 5656,-70.49 5650,-76.49 5644,-76.49"/>
<text text-anchor="middle" x="5562" y="-54.79" font-family="Times,serif" font-size="14.00">out&#45;2d875791ad1d3d18</text>
</g>
<!-- stage_38&#45;&gt;stage_39 -->
<g id="edge82" class="edge">
<title>stage_38&#45;&gt;stage_39</title>
<path fill="none" stroke="black" stroke-dasharray="5,2" d="M5432.3,-58.49C5440.92,-58.49 5449.46,-58.49 5457.8,-58.49"/>
<polygon fill="none" stroke="black" points="5457.86,-61.99 5467.86,-58.49 5457.86,-54.99 5457.86,-61.99"/>
</g>
<!-- stage_3&#45;&gt;stage_18 -->
<g id="edge18" class="edge">
<title>stage_3&#45;&gt;stage_18</title>
<path fill="none" stroke="black" stroke-dasharray="1,5" d="M3383.43,-461.36C3390.32,-458.27 3396.98,-454.67 3403,-450.49 3424.33,-435.68 3422.18,-424.26 3439,-404.49 3474.66,-362.57 3518.34,-316.14 3545.68,-287.64"/>
<polygon fill="none" stroke="black" points="3545.97,-287.34 3547.25,-280.24 3554.29,-278.69 3553.01,-285.78 3545.97,-287.34"/>
</g>
<!-- stage_3&#45;&gt;stage_21 -->
<g id="edge20" class="edge">
<title>stage_3&#45;&gt;stage_21</title>
<path fill="none" stroke="black" stroke-dasharray="1,5" d="M3379.26,-461.42C3431.53,-448.22 3505.85,-431.01 3572,-421.49"/>
</g>
<!-- stage_3&#45;&gt;stage_36 -->
<g id="edge22" class="edge">
<title>stage_3&#45;&gt;stage_36</title>
<path fill="none" stroke="black" stroke-dasharray="1,5" d="M3401.54,-471.03C3452.09,-468.38 3516.07,-468.55 3572,-479.49"/>
</g>
<!-- stage_1 -->
<g id="node18" class="node">
<title>stage_1</title>
<path fill="none" stroke="black" d="M2784,-535.49C2784,-535.49 2582,-535.49 2582,-535.49 2576,-535.49 2570,-529.49 2570,-523.49 2570,-523.49 2570,-511.49 2570,-511.49 2570,-505.49 2576,-499.49 2582,-499.49 2582,-499.49 2784,-499.49 2784,-499.49 2790,-499.49 2796,-505.49 2796,-511.49 2796,-511.49 2796,-523.49 2796,-523.49 2796,-529.49 2790,-535.49 2784,-535.49"/>
<text text-anchor="middle" x="2683" y="-513.79" font-family="Times,serif" font-size="14.00">cratesio&#45;find&#45;msvc&#45;tools&#45;0.1.2</text>
</g>
<!-- stage_1&#45;&gt;stage_2 -->
<g id="edge17" class="edge">
<title>stage_1&#45;&gt;stage_2</title>
<path fill="none" stroke="black" stroke-dasharray="1,5" d="M2796.17,-517.49C2803.88,-517.49 2811.76,-517.49 2819.72,-517.49"/>
<polygon fill="none" stroke="black" points="2819.86,-517.49 2825.86,-513.49 2831.86,-517.49 2825.86,-521.49 2819.86,-517.49"/>
</g>
<!-- stage_6&#45;&gt;stage_7 -->
<g id="edge27" class="edge">
<title>stage_6&#45;&gt;stage_7</title>
<path fill="none" stroke="black" stroke-dasharray="1,5" d="M1637.36,-126.94C1663.83,-131.79 1693.11,-137.15 1720.73,-142.2"/>
<polygon fill="none" stroke="black" points="1721.06,-142.27 1727.69,-139.41 1732.87,-144.43 1726.25,-147.28 1721.06,-142.27"/>
</g>
<!-- stage_6&#45;&gt;stage_12 -->
<g id="edge28" class="edge">
<title>stage_6&#45;&gt;stage_12</title>
<path fill="none" stroke="black" stroke-dasharray="1,5" d="M1833.5,-110.49C1902.39,-119.1 1929.53,-96.05 1988,-133.49 2012.6,-149.24 1999.17,-173.09 2024,-188.49 2317.69,-370.54 2453.28,-236.41 2796,-280.49 2818.69,-283.4 2842.75,-286.62 2866.16,-289.81"/>
<polygon fill="none" stroke="black" points="2866.45,-289.84 2872.94,-286.69 2878.34,-291.47 2871.85,-294.62 2866.45,-289.84"/>
</g>
<!-- stage_6&#45;&gt;stage_18 -->
<g id="edge29" class="edge">
<title>stage_6&#45;&gt;stage_18</title>
<path fill="none" stroke="black" stroke-dasharray="1,5" d="M2684,-107.49C2828.76,-108.16 2861.33,-151.36 3006,-156.49"/>
<path fill="none" stroke="black" stroke-dasharray="1,5" d="M3008,-156.49C3183.74,-162.72 3232.73,-135.54 3403,-179.49 3449.84,-191.57 3499.29,-216.95 3532.5,-236.09"/>
<polygon fill="none" stroke="black" points="3532.77,-236.25 3539.97,-235.83 3543.12,-242.32 3535.92,-242.73 3532.77,-236.25"/>
</g>
<!-- stage_6&#45;&gt;stage_21 -->
<g id="edge30" class="edge">
<title>stage_6&#45;&gt;stage_21</title>
<path fill="none" stroke="black" stroke-dasharray="1,5" d="M3835,-75.49C3896.7,-78.22 3965.28,-89.98 4017.96,-100.93"/>
<polygon fill="none" stroke="black" points="4018.22,-100.99 4024.92,-98.31 4029.96,-103.47 4023.27,-106.14 4018.22,-100.99"/>
</g>
<!-- stage_6&#45;&gt;stage_36 -->
<g id="edge31" class="edge">
<title>stage_6&#45;&gt;stage_36</title>
<path fill="none" stroke="black" stroke-dasharray="1,5" d="M1637.26,-105.95C1693.25,-104.24 1766.74,-104.04 1831.5,-110.49"/>
<path fill="none" stroke="black" stroke-dasharray="1,5" d="M1833.5,-110.49C2208.76,-147.84 2304.89,-105.74 2682,-107.49"/>
<path fill="none" stroke="black" stroke-dasharray="1,5" d="M2684,-107.49C3194.84,-102.03 3322.64,-52.87 3833,-75.49"/>
<path fill="none" stroke="black" stroke-dasharray="1,5" d="M3835,-75.49C3955.13,-80.81 3985.55,-78.04 4105.5,-69.49"/>
<path fill="none" stroke="black" stroke-dasharray="1,5" d="M4107.5,-69.49C4243.13,-59.81 4397.05,-64.58 4511.94,-71.21"/>
<polygon fill="none" stroke="black" points="4512.01,-71.21 4518.23,-67.57 4523.99,-71.92 4517.76,-75.56 4512.01,-71.21"/>
</g>
<!-- stage_4 -->
<g id="node20" class="node">
<title>stage_4</title>
<path fill="none" stroke="black" d="M1056,-79.49C1056,-79.49 918,-79.49 918,-79.49 912,-79.49 906,-73.49 906,-67.49 906,-67.49 906,-55.49 906,-55.49 906,-49.49 912,-43.49 918,-43.49 918,-43.49 1056,-43.49 1056,-43.49 1062,-43.49 1068,-49.49 1068,-55.49 1068,-55.49 1068,-67.49 1068,-67.49 1068,-73.49 1062,-79.49 1056,-79.49"/>
<text text-anchor="middle" x="987" y="-57.79" font-family="Times,serif" font-size="14.00">cratesio&#45;libc&#45;0.2.176</text>
</g>
<!-- stage_4&#45;&gt;stage_5 -->
<g id="edge24" class="edge">
<title>stage_4&#45;&gt;stage_5</title>
<path fill="none" stroke="black" stroke-dasharray="1,5" d="M1068.13,-75.79C1093.5,-80.32 1122.03,-85.41 1149.26,-90.27"/>
<polygon fill="none" stroke="black" points="1149.44,-90.3 1156.05,-87.42 1161.25,-92.41 1154.64,-95.3 1149.44,-90.3"/>
</g>
<!-- stage_4&#45;&gt;stage_7 -->
<g id="edge25" class="edge">
<title>stage_4&#45;&gt;stage_7</title>
<path fill="none" stroke="black" stroke-dasharray="1,5" d="M1264.5,-12.49C1338.42,-15.58 1360.44,-32.62 1416,-81.49 1438.78,-101.52 1425.94,-123.94 1452,-139.49 1531.39,-186.85 1637.51,-189.27 1717.34,-181.75"/>
<polygon fill="none" stroke="black" points="1717.48,-181.74 1723.05,-177.15 1729.42,-180.52 1723.86,-185.11 1717.48,-181.74"/>
</g>
<!-- stage_4&#45;&gt;stage_9 -->
<g id="edge26" class="edge">
<title>stage_4&#45;&gt;stage_9</title>
<path fill="none" stroke="black" stroke-dasharray="1,5" d="M1046.39,-43.48C1101.62,-28.26 1187.04,-9.39 1262.5,-12.49"/>
<path fill="none" stroke="black" stroke-dasharray="1,5" d="M1264.5,-12.49C1587.79,-25.75 1668.37,-43.17 1988,-93.49 2082.73,-108.4 2189.94,-126.13 2269.5,-139.46"/>
<polygon fill="none" stroke="black" points="2269.7,-139.5 2276.28,-136.54 2281.53,-141.48 2274.95,-144.43 2269.7,-139.5"/>
</g>
<!-- stage_8&#45;&gt;stage_9 -->
<g id="edge33" class="edge">
<title>stage_8&#45;&gt;stage_9</title>
<path fill="none" stroke="black" stroke-dasharray="1,5" d="M2208.37,-159.49C2216.02,-159.49 2223.89,-159.49 2231.85,-159.49"/>
<polygon fill="none" stroke="black" points="2231.99,-159.49 2237.99,-155.49 2243.99,-159.49 2237.99,-163.49 2231.99,-159.49"/>
</g>
<!-- stage_10&#45;&gt;stage_12 -->
<g id="edge35" class="edge">
<title>stage_10&#45;&gt;stage_12</title>
<path fill="none" stroke="black" stroke-dasharray="1,5" d="M2749.34,-177.51C2764.85,-182.45 2781.19,-188.19 2796,-194.49 2857.98,-220.83 2925.62,-259.89 2966.93,-285.02"/>
<polygon fill="none" stroke="black" points="2967.12,-285.14 2974.33,-284.86 2977.36,-291.41 2970.15,-291.68 2967.12,-285.14"/>
</g>
<!-- stage_10&#45;&gt;stage_18 -->
<g id="edge37" class="edge">
<title>stage_10&#45;&gt;stage_18</title>
<path fill="none" stroke="black" stroke-dasharray="1,5" d="M2775.63,-156.45C2840.08,-154.85 2928.34,-153.73 3006,-156.49"/>
</g>
<!-- stage_10&#45;&gt;stage_21 -->
<g id="edge39" class="edge">
<title>stage_10&#45;&gt;stage_21</title>
<path fill="none" stroke="black" stroke-dasharray="1,5" d="M3835,-121.49C3871.83,-119.87 3911.51,-119.25 3948.83,-119.16"/>
<polygon fill="none" stroke="black" points="3948.85,-119.16 3954.85,-115.16 3960.85,-119.15 3954.86,-123.16 3948.85,-119.16"/>
</g>
<!-- stage_10&#45;&gt;stage_36 -->
<g id="edge41" class="edge">
<title>stage_10&#45;&gt;stage_36</title>
<path fill="none" stroke="black" stroke-dasharray="1,5" d="M2775.8,-145.39C2794.36,-143.02 2813.77,-140.88 2832,-139.49 3275.67,-105.63 3388.46,-140.94 3833,-121.49"/>
<path fill="none" stroke="black" stroke-dasharray="1,5" d="M3835,-121.49C3892.37,-118.2 3904.59,-103.45 3961,-92.49 4024.84,-80.07 4040.63,-74.11 4105.5,-69.49"/>
</g>
<!-- stage_13&#45;&gt;stage_18 -->
<g id="edge44" class="edge">
<title>stage_13&#45;&gt;stage_18</title>
<path fill="none" stroke="black" stroke-dasharray="1,5" d="M3368.02,-325.48C3407.83,-312.79 3461.33,-295.75 3503.55,-282.3"/>
<polygon fill="none" stroke="black" points="3503.7,-282.25 3508.21,-276.61 3515.14,-278.6 3510.63,-284.24 3503.7,-282.25"/>
</g>
<!-- stage_13&#45;&gt;stage_21 -->
<g id="edge46" class="edge">
<title>stage_13&#45;&gt;stage_21</title>
<path fill="none" stroke="black" stroke-dasharray="1,5" d="M3348.42,-361.66C3397.99,-384.37 3489.39,-420.44 3572,-421.49"/>
<path fill="none" stroke="black" stroke-dasharray="1,5" d="M3574,-421.49C3795.5,-424.3 4009.68,-222.45 4080.78,-148.33"/>
<polygon fill="none" stroke="black" points="4080.86,-148.26 4082.08,-141.15 4089.11,-139.55 4087.89,-146.65 4080.86,-148.26"/>
</g>
<!-- stage_13&#45;&gt;stage_36 -->
<g id="edge48" class="edge">
<title>stage_13&#45;&gt;stage_36</title>
<path fill="none" stroke="black" stroke-dasharray="1,5" d="M3353.87,-361.58C3370.18,-369.68 3388.38,-380.19 3403,-392.49 3422.87,-409.19 3417.62,-423.77 3439,-438.49 3489.95,-473.56 3511.04,-469 3572,-479.49"/>
<path fill="none" stroke="black" stroke-dasharray="1,5" d="M3574,-479.49C3874.05,-531.12 3952.32,-523.7 4252,-577.49 4312.4,-588.33 4333.63,-636.78 4387,-606.49"/>
<path fill="none" stroke="black" stroke-dasharray="1,5" d="M4389,-606.49C4580.73,-495.11 4658.56,-208.35 4679.39,-114.62"/>
<polygon fill="none" stroke="black" points="4679.42,-114.44 4676.78,-107.74 4681.95,-102.71 4684.6,-109.42 4679.42,-114.44"/>
</g>
<!-- stage_11 -->
<g id="node24" class="node">
<title>stage_11</title>
<path fill="none" stroke="black" d="M2768.5,-327.49C2768.5,-327.49 2597.5,-327.49 2597.5,-327.49 2591.5,-327.49 2585.5,-321.49 2585.5,-315.49 2585.5,-315.49 2585.5,-303.49 2585.5,-303.49 2585.5,-297.49 2591.5,-291.49 2597.5,-291.49 2597.5,-291.49 2768.5,-291.49 2768.5,-291.49 2774.5,-291.49 2780.5,-297.49 2780.5,-303.49 2780.5,-303.49 2780.5,-315.49 2780.5,-315.49 2780.5,-321.49 2774.5,-327.49 2768.5,-327.49"/>
<text text-anchor="middle" x="2683" y="-305.79" font-family="Times,serif" font-size="14.00">cratesio&#45;jobserver&#45;0.1.34</text>
</g>
<!-- stage_11&#45;&gt;stage_12 -->
<g id="edge43" class="edge">
<title>stage_11&#45;&gt;stage_12</title>
<path fill="none" stroke="black" stroke-dasharray="1,5" d="M2780.61,-309.49C2798.71,-309.49 2818.12,-309.49 2837.66,-309.49"/>
<polygon fill="none" stroke="black" points="2837.84,-309.49 2843.84,-305.49 2849.84,-309.49 2843.84,-313.49 2837.84,-309.49"/>
</g>
<!-- stage_16&#45;&gt;stage_18 -->
<g id="edge51" class="edge">
<title>stage_16&#45;&gt;stage_18</title>
<path fill="none" stroke="black" stroke-dasharray="1,5" d="M3347.12,-403.4C3364.23,-394.46 3384.9,-383.3 3403,-372.49 3450.04,-344.39 3502.35,-309.05 3536.14,-285.67"/>
<polygon fill="none" stroke="black" points="3536.57,-285.37 3539.22,-278.66 3546.43,-278.52 3543.78,-285.23 3536.57,-285.37"/>
</g>
<!-- stage_16&#45;&gt;stage_21 -->
<g id="edge53" class="edge">
<title>stage_16&#45;&gt;stage_21</title>
<path fill="none" stroke="black" stroke-dasharray="1,5" d="M3403.28,-427.85C3453.39,-429.73 3516.38,-429.49 3572,-421.49"/>
</g>
<!-- stage_16&#45;&gt;stage_36 -->
<g id="edge55" class="edge">
<title>stage_16&#45;&gt;stage_36</title>
<path fill="none" stroke="black" stroke-dasharray="1,5" d="M3387.65,-439.54C3439.48,-451.55 3509.7,-467.31 3572,-479.49"/>
</g>
<!-- stage_14 -->
<g id="node26" class="node">
<title>stage_14</title>
<path fill="none" stroke="black" d="M2748.5,-431.49C2748.5,-431.49 2617.5,-431.49 2617.5,-431.49 2611.5,-431.49 2605.5,-425.49 2605.5,-419.49 2605.5,-419.49 2605.5,-407.49 2605.5,-407.49 2605.5,-401.49 2611.5,-395.49 2617.5,-395.49 2617.5,-395.49 2748.5,-395.49 2748.5,-395.49 2754.5,-395.49 2760.5,-401.49 2760.5,-407.49 2760.5,-407.49 2760.5,-419.49 2760.5,-419.49 2760.5,-425.49 2754.5,-431.49 2748.5,-431.49"/>
<text text-anchor="middle" x="2683" y="-409.79" font-family="Times,serif" font-size="14.00">cratesio&#45;shlex&#45;1.3.0</text>
</g>
<!-- stage_14&#45;&gt;stage_15 -->
<g id="edge50" class="edge">
<title>stage_14&#45;&gt;stage_15</title>
<path fill="none" stroke="black" stroke-dasharray="1,5" d="M2760.72,-415.39C2788.43,-416.08 2820.78,-416.88 2852.72,-417.68"/>
<polygon fill="none" stroke="black" points="2852.94,-417.68 2859.04,-413.83 2864.93,-417.98 2858.84,-421.83 2852.94,-417.68"/>
</g>
<!-- stage_19&#45;&gt;stage_21 -->
<g id="edge58" class="edge">
<title>stage_19&#45;&gt;stage_21</title>
<path fill="none" stroke="black" stroke-dasharray="1,5" d="M3925.07,-156.17C3948.98,-151.58 3975.01,-146.57 3999.67,-141.83"/>
<polygon fill="none" stroke="black" points="3999.87,-141.79 4005.01,-136.73 4011.65,-139.53 4006.52,-144.59 3999.87,-141.79"/>
</g>
<!-- stage_19&#45;&gt;stage_36 -->
<g id="edge60" class="edge">
<title>stage_19&#45;&gt;stage_36</title>
<path fill="none" stroke="black" stroke-dasharray="1,5" d="M3894.99,-155.37C3905.52,-150.77 3915.98,-145.18 3925,-138.49 3945.84,-123.01 3938.63,-105.66 3961,-92.49 4017.03,-59.48 4040.63,-74.11 4105.5,-69.49"/>
</g>
<!-- stage_17 -->
<g id="node28" class="node">
<title>stage_17</title>
<path fill="none" stroke="black" d="M3370.5,-226.49C3370.5,-226.49 3250.5,-226.49 3250.5,-226.49 3244.5,-226.49 3238.5,-220.49 3238.5,-214.49 3238.5,-214.49 3238.5,-202.49 3238.5,-202.49 3238.5,-196.49 3244.5,-190.49 3250.5,-190.49 3250.5,-190.49 3370.5,-190.49 3370.5,-190.49 3376.5,-190.49 3382.5,-196.49 3382.5,-202.49 3382.5,-202.49 3382.5,-214.49 3382.5,-214.49 3382.5,-220.49 3376.5,-226.49 3370.5,-226.49"/>
<text text-anchor="middle" x="3310.5" y="-204.79" font-family="Times,serif" font-size="14.00">cratesio&#45;cc&#45;1.2.39</text>
</g>
<!-- stage_17&#45;&gt;stage_18 -->
<g id="edge57" class="edge">
<title>stage_17&#45;&gt;stage_18</title>
<path fill="none" stroke="black" stroke-dasharray="1,5" d="M3382.68,-222.7C3409.56,-228.06 3440.69,-234.28 3469.86,-240.1"/>
<polygon fill="none" stroke="black" points="3470.01,-240.13 3476.68,-237.38 3481.78,-242.48 3475.11,-245.22 3470.01,-240.13"/>
</g>
<!-- stage_22&#45;&gt;stage_36 -->
<g id="edge63" class="edge">
<title>stage_22&#45;&gt;stage_36</title>
<path fill="none" stroke="black" stroke-dasharray="1,5" d="M4475.56,-121.31C4505.34,-116.08 4539.17,-110.15 4570.83,-104.6"/>
<polygon fill="none" stroke="black" points="4571.03,-104.56 4576.25,-99.58 4582.85,-102.49 4577.63,-107.46 4571.03,-104.56"/>
</g>
<!-- stage_20 -->
<g id="node30" class="node">
<title>stage_20</title>
<path fill="none" stroke="black" d="M3908.5,-249.49C3908.5,-249.49 3759.5,-249.49 3759.5,-249.49 3753.5,-249.49 3747.5,-243.49 3747.5,-237.49 3747.5,-237.49 3747.5,-225.49 3747.5,-225.49 3747.5,-219.49 3753.5,-213.49 3759.5,-213.49 3759.5,-213.49 3908.5,-213.49 3908.5,-213.49 3914.5,-213.49 3920.5,-219.49 3920.5,-225.49 3920.5,-225.49 3920.5,-237.49 3920.5,-237.49 3920.5,-243.49 3914.5,-249.49 3908.5,-249.49"/>
<text text-anchor="middle" x="3834" y="-227.79" font-family="Times,serif" font-size="14.00">cratesio&#45;cmake&#45;0.1.54</text>
</g>
<!-- stage_20&#45;&gt;stage_21 -->
<g id="edge62" class="edge">
<title>stage_20&#45;&gt;stage_21</title>
<path fill="none" stroke="black" stroke-dasharray="1,5" d="M3894.39,-213.37C3904.66,-209.95 3915.19,-206.25 3925,-202.49 3970.57,-184.98 4021.17,-161.95 4057.17,-144.92"/>
<polygon fill="none" stroke="black" points="4057.49,-144.77 4061.19,-138.58 4068.33,-139.62 4064.63,-145.81 4057.49,-144.77"/>
</g>
<!-- stage_25&#45;&gt;stage_36 -->
<g id="edge66" class="edge">
<title>stage_25&#45;&gt;stage_36</title>
<path fill="none" stroke="black" stroke-dasharray="1,5" d="M2480.03,-764.72C2600.02,-765.02 2818.98,-765.49 3006,-765.49 3006,-765.49 3006,-765.49 3311.5,-765.49 3487.57,-765.49 3532.7,-767.43 3707,-742.49 3763.88,-734.34 3775.82,-719.2 3833,-713.49"/>
</g>
<!-- stage_23 -->
<g id="node32" class="node">
<title>stage_23</title>
<path fill="none" stroke="black" d="M1055.5,-773.49C1055.5,-773.49 918.5,-773.49 918.5,-773.49 912.5,-773.49 906.5,-767.49 906.5,-761.49 906.5,-761.49 906.5,-749.49 906.5,-749.49 906.5,-743.49 912.5,-737.49 918.5,-737.49 918.5,-737.49 1055.5,-737.49 1055.5,-737.49 1061.5,-737.49 1067.5,-743.49 1067.5,-749.49 1067.5,-749.49 1067.5,-761.49 1067.5,-761.49 1067.5,-767.49 1061.5,-773.49 1055.5,-773.49"/>
<text text-anchor="middle" x="987" y="-751.79" font-family="Times,serif" font-size="14.00">cratesio&#45;dunce&#45;1.0.5</text>
</g>
<!-- stage_23&#45;&gt;stage_24 -->
<g id="edge65" class="edge">
<title>stage_23&#45;&gt;stage_24</title>
<path fill="none" stroke="black" stroke-dasharray="1,5" d="M1067.77,-755.49C1080.5,-755.49 1094.04,-755.49 1107.81,-755.49"/>
<polygon fill="none" stroke="black" points="1107.97,-755.49 1113.97,-751.49 1119.97,-755.49 1113.97,-759.49 1107.97,-755.49"/>
</g>
<!-- stage_28&#45;&gt;stage_36 -->
<g id="edge69" class="edge">
<title>stage_28&#45;&gt;stage_36</title>
<path fill="none" stroke="black" stroke-dasharray="1,5" d="M3666.22,-717.93C3715.77,-719.2 3777.85,-719 3833,-713.49"/>
</g>
<!-- stage_26 -->
<g id="node34" class="node">
<title>stage_26</title>
<path fill="none" stroke="black" d="M1063,-711.49C1063,-711.49 911,-711.49 911,-711.49 905,-711.49 899,-705.49 899,-699.49 899,-699.49 899,-687.49 899,-687.49 899,-681.49 905,-675.49 911,-675.49 911,-675.49 1063,-675.49 1063,-675.49 1069,-675.49 1075,-681.49 1075,-687.49 1075,-687.49 1075,-699.49 1075,-699.49 1075,-705.49 1069,-711.49 1063,-711.49"/>
<text text-anchor="middle" x="987" y="-689.79" font-family="Times,serif" font-size="14.00">cratesio&#45;fs_extra&#45;1.3.0</text>
</g>
<!-- stage_26&#45;&gt;stage_27 -->
<g id="edge68" class="edge">
<title>stage_26&#45;&gt;stage_27</title>
<path fill="none" stroke="black" stroke-dasharray="1,5" d="M1075.23,-693.49C1082.84,-693.49 1090.69,-693.49 1098.66,-693.49"/>
<polygon fill="none" stroke="black" points="1098.84,-693.49 1104.84,-689.49 1110.84,-693.49 1104.84,-697.49 1098.84,-693.49"/>
</g>
<!-- stage_31&#45;&gt;stage_33 -->
<g id="edge72" class="edge">
<title>stage_31&#45;&gt;stage_33</title>
<path fill="none" stroke="black" stroke-dasharray="1,5" d="M1596.97,-603.37C1645.28,-585.68 1718.91,-558.72 1770.75,-539.73"/>
<polygon fill="none" stroke="black" points="1770.85,-539.69 1775.11,-533.88 1782.12,-535.57 1777.86,-541.39 1770.85,-539.69"/>
</g>
<!-- stage_31&#45;&gt;stage_36 -->
<g id="edge74" class="edge">
<title>stage_31&#45;&gt;stage_36</title>
<path fill="none" stroke="black" stroke-dasharray="1,5" d="M1640.22,-616.11C1695.87,-614.22 1767.95,-614.12 1831.5,-621.49"/>
</g>
<!-- stage_29 -->
<g id="node36" class="node">
<title>stage_29</title>
<path fill="none" stroke="black" d="M1052,-645.49C1052,-645.49 922,-645.49 922,-645.49 916,-645.49 910,-639.49 910,-633.49 910,-633.49 910,-621.49 910,-621.49 910,-615.49 916,-609.49 922,-609.49 922,-609.49 1052,-609.49 1052,-609.49 1058,-609.49 1064,-615.49 1064,-621.49 1064,-621.49 1064,-633.49 1064,-633.49 1064,-639.49 1058,-645.49 1052,-645.49"/>
<text text-anchor="middle" x="987" y="-623.79" font-family="Times,serif" font-size="14.00">cratesio&#45;cfg&#45;if&#45;1.0.3</text>
</g>
<!-- stage_29&#45;&gt;stage_30 -->
<g id="edge71" class="edge">
<title>stage_29&#45;&gt;stage_30</title>
<path fill="none" stroke="black" stroke-dasharray="1,5" d="M1064.1,-625.82C1078.39,-625.51 1093.79,-625.17 1109.46,-624.83"/>
<polygon fill="none" stroke="black" points="1109.49,-624.83 1115.4,-620.7 1121.49,-624.57 1115.58,-628.7 1109.49,-624.83"/>
</g>
<!-- stage_34&#45;&gt;stage_36 -->
<g id="edge77" class="edge">
<title>stage_34&#45;&gt;stage_36</title>
<path fill="none" stroke="black" stroke-dasharray="1,5" d="M4176.65,-624.51C4236.35,-636.06 4322.85,-642.89 4387,-606.49"/>
</g>
<!-- stage_32 -->
<g id="node38" class="node">
<title>stage_32</title>
<path fill="none" stroke="black" d="M1629,-535.49C1629,-535.49 1464,-535.49 1464,-535.49 1458,-535.49 1452,-529.49 1452,-523.49 1452,-523.49 1452,-511.49 1452,-511.49 1452,-505.49 1458,-499.49 1464,-499.49 1464,-499.49 1629,-499.49 1629,-499.49 1635,-499.49 1641,-505.49 1641,-511.49 1641,-511.49 1641,-523.49 1641,-523.49 1641,-529.49 1635,-535.49 1629,-535.49"/>
<text text-anchor="middle" x="1546.5" y="-513.79" font-family="Times,serif" font-size="14.00">cratesio&#45;libloading&#45;0.8.8</text>
</g>
<!-- stage_32&#45;&gt;stage_33 -->
<g id="edge76" class="edge">
<title>stage_32&#45;&gt;stage_33</title>
<path fill="none" stroke="black" stroke-dasharray="1,5" d="M1641.28,-517.49C1648.9,-517.49 1656.72,-517.49 1664.66,-517.49"/>
<polygon fill="none" stroke="black" points="1664.77,-517.49 1670.77,-513.49 1676.77,-517.49 1670.77,-521.49 1664.77,-517.49"/>
</g>
<!-- stage_37&#45;&gt;stage_38 -->
<g id="edge81" class="edge">
<title>stage_37&#45;&gt;stage_38</title>
<path fill="none" stroke="black" stroke-dasharray="1,5" d="M5069.2,-76.3C5076.94,-75.6 5084.92,-74.88 5093.03,-74.16"/>
<polygon fill="none" stroke="black" points="5093.03,-74.16 5098.65,-69.63 5104.98,-73.08 5099.37,-77.6 5093.03,-74.16"/>
</g>
<!-- stage_35 -->
<g id="node40" class="node">
<title>stage_35</title>
<path fill="none" stroke="black" d="M4476,-50.49C4476,-50.49 4300,-50.49 4300,-50.49 4294,-50.49 4288,-44.49 4288,-38.49 4288,-38.49 4288,-26.49 4288,-26.49 4288,-20.49 4294,-14.49 4300,-14.49 4300,-14.49 4476,-14.49 4476,-14.49 4482,-14.49 4488,-20.49 4488,-26.49 4488,-26.49 4488,-38.49 4488,-38.49 4488,-44.49 4482,-50.49 4476,-50.49"/>
<text text-anchor="middle" x="4388" y="-28.79" font-family="Times,serif" font-size="14.00">cratesio&#45;aws&#45;lc&#45;sys&#45;0.32.2</text>
</g>
<!-- stage_35&#45;&gt;stage_36 -->
<g id="edge79" class="edge">
<title>stage_35&#45;&gt;stage_36</title>
<path fill="none" stroke="black" stroke-dasharray="1,5" d="M4488.14,-49.87C4514.61,-54.52 4543.44,-59.57 4570.67,-64.35"/>
<polygon fill="none" stroke="black" points="4570.83,-64.37 4577.43,-61.47 4582.65,-66.45 4576.05,-69.35 4570.83,-64.37"/>
</g>
<!-- stage_35&#45;&gt;stage_38 -->
<g id="edge80" class="edge">
<title>stage_35&#45;&gt;stage_38</title>
<path fill="none" stroke="black" stroke-dasharray="1,5" d="M4488.22,-30.34C4545.84,-29.62 4619.8,-29.63 4685.5,-32.49"/>
</g>
<!-- stage_40 -->
<g id="node42" class="node">
<title>stage_40</title>
<path fill="#e5e5e5" stroke="black" d="M491.5,-645.49C491.5,-645.49 371.5,-645.49 371.5,-645.49 365.5,-645.49 359.5,-639.49 359.5,-633.49 359.5,-633.49 359.5,-621.49 359.5,-621.49 359.5,-615.49 365.5,-609.49 371.5,-609.49 371.5,-609.49 491.5,-609.49 491.5,-609.49 497.5,-609.49 503.5,-615.49 503.5,-621.49 503.5,-621.49 503.5,-633.49 503.5,-633.49 503.5,-639.49 497.5,-645.49 491.5,-645.49"/>
<text text-anchor="middle" x="431.5" y="-623.79" font-family="Times,serif" font-size="14.00">40</text>
</g>
</g>
</svg>
