<?xml version="1.0" encoding="UTF-8" standalone="no"?>
<!DOCTYPE svg PUBLIC "-//W3C//DTD SVG 1.1//EN"
 "http://www.w3.org/Graphics/SVG/1.1/DTD/svg11.dtd">
<!-- Generated by graphviz version 2.43.0 (0)
 -->
<!-- Title: G Pages: 1 -->
<svg width="6876pt" height="1015pt"
 viewBox="0.00 0.00 6876.00 1014.51" xmlns="http://www.w3.org/2000/svg" xmlns:xlink="http://www.w3.org/1999/xlink">
<g id="graph0" class="graph" transform="scale(1 1) rotate(0) translate(4 1010.51)">
<title>G</title>
<polygon fill="white" stroke="transparent" points="-4,4 -4,-1010.51 6872,-1010.51 6872,4 -4,4"/>
<!-- external_image_0 -->
<g id="node1" class="node">
<title>external_image_0</title>
<path fill="none" stroke="#333333" stroke-dasharray="5,2" d="M851,-832.98C851,-832.98 12,-832.98 12,-832.98 6,-832.98 0,-826.98 0,-820.98 0,-820.98 0,-808.98 0,-808.98 0,-802.98 6,-796.98 12,-796.98 12,-796.98 851,-796.98 851,-796.98 857,-796.98 863,-802.98 863,-808.98 863,-808.98 863,-820.98 863,-820.98 863,-826.98 857,-832.98 851,-832.98"/>
<text text-anchor="middle" x="431.5" y="-811.28" font-family="Times,serif" font-size="14.00" fill="#333333">docker.io/library/rust:1.90.0&#45;slim@sha256:7fa728f3678acf5980d5db70960cf8491aff9411976789086676bdf0c19db39e</text>
</g>
<!-- stage_0 -->
<g id="node2" class="node">
<title>stage_0</title>
<path fill="none" stroke="black" d="M1054.5,-832.98C1054.5,-832.98 934.5,-832.98 934.5,-832.98 928.5,-832.98 922.5,-826.98 922.5,-820.98 922.5,-820.98 922.5,-808.98 922.5,-808.98 922.5,-802.98 928.5,-796.98 934.5,-796.98 934.5,-796.98 1054.5,-796.98 1054.5,-796.98 1060.5,-796.98 1066.5,-802.98 1066.5,-808.98 1066.5,-808.98 1066.5,-820.98 1066.5,-820.98 1066.5,-826.98 1060.5,-832.98 1054.5,-832.98"/>
<text text-anchor="middle" x="994.5" y="-811.28" font-family="Times,serif" font-size="14.00">rust&#45;base</text>
</g>
<!-- external_image_0&#45;&gt;stage_0 -->
<g id="edge1" class="edge">
<title>external_image_0&#45;&gt;stage_0</title>
<path fill="none" stroke="black" d="M863.03,-814.98C880.65,-814.98 897.14,-814.98 912.08,-814.98"/>
<polygon fill="black" stroke="black" points="912.17,-818.48 922.17,-814.98 912.17,-811.48 912.17,-818.48"/>
</g>
<!-- stage_2 -->
<g id="node3" class="node">
<title>stage_2</title>
<path fill="none" stroke="black" d="M3195,-544.98C3195,-544.98 2869,-544.98 2869,-544.98 2863,-544.98 2857,-538.98 2857,-532.98 2857,-532.98 2857,-520.98 2857,-520.98 2857,-514.98 2863,-508.98 2869,-508.98 2869,-508.98 3195,-508.98 3195,-508.98 3201,-508.98 3207,-514.98 3207,-520.98 3207,-520.98 3207,-532.98 3207,-532.98 3207,-538.98 3201,-544.98 3195,-544.98"/>
<text text-anchor="middle" x="3032" y="-523.28" font-family="Times,serif" font-size="14.00">dep&#45;n&#45;find&#45;msvc&#45;tools&#45;0.1.2&#45;d2948f7c0c8497b1</text>
</g>
<!-- stage_0&#45;&gt;stage_2 -->
<g id="edge2" class="edge">
<title>stage_0&#45;&gt;stage_2</title>
<path fill="none" stroke="black" d="M2709,-526.98C2753.33,-521.3 2801.38,-519.16 2846.5,-518.92"/>
<polygon fill="black" stroke="black" points="2846.7,-522.42 2856.69,-518.89 2846.68,-515.42 2846.7,-522.42"/>
</g>
<!-- stage_5 -->
<g id="node4" class="node">
<title>stage_5</title>
<path fill="none" stroke="black" d="M1414.5,-956.98C1414.5,-956.98 1154.5,-956.98 1154.5,-956.98 1148.5,-956.98 1142.5,-950.98 1142.5,-944.98 1142.5,-944.98 1142.5,-932.98 1142.5,-932.98 1142.5,-926.98 1148.5,-920.98 1154.5,-920.98 1154.5,-920.98 1414.5,-920.98 1414.5,-920.98 1420.5,-920.98 1426.5,-926.98 1426.5,-932.98 1426.5,-932.98 1426.5,-944.98 1426.5,-944.98 1426.5,-950.98 1420.5,-956.98 1414.5,-956.98"/>
<text text-anchor="middle" x="1284.5" y="-935.28" font-family="Times,serif" font-size="14.00">dep&#45;x&#45;libc&#45;0.2.176&#45;7560e7c5c88ec4c4</text>
</g>
<!-- stage_0&#45;&gt;stage_5 -->
<g id="edge3" class="edge">
<title>stage_0&#45;&gt;stage_5</title>
<path fill="none" stroke="black" d="M1037.38,-833.01C1088.99,-855.24 1176.68,-892.99 1232.26,-916.92"/>
<polygon fill="black" stroke="black" points="1231,-920.19 1241.57,-920.93 1233.77,-913.76 1231,-920.19"/>
</g>
<!-- stage_7 -->
<g id="node5" class="node">
<title>stage_7</title>
<path fill="none" stroke="black" d="M1987.5,-884.98C1987.5,-884.98 1725.5,-884.98 1725.5,-884.98 1719.5,-884.98 1713.5,-878.98 1713.5,-872.98 1713.5,-872.98 1713.5,-860.98 1713.5,-860.98 1713.5,-854.98 1719.5,-848.98 1725.5,-848.98 1725.5,-848.98 1987.5,-848.98 1987.5,-848.98 1993.5,-848.98 1999.5,-854.98 1999.5,-860.98 1999.5,-860.98 1999.5,-872.98 1999.5,-872.98 1999.5,-878.98 1993.5,-884.98 1987.5,-884.98"/>
<text text-anchor="middle" x="1856.5" y="-863.28" font-family="Times,serif" font-size="14.00">run&#45;z&#45;libc&#45;0.2.176&#45;99856d878c8e44ce</text>
</g>
<!-- stage_0&#45;&gt;stage_7 -->
<g id="edge4" class="edge">
<title>stage_0&#45;&gt;stage_7</title>
<path fill="none" stroke="black" d="M1572.5,-814.98C1581.49,-811.76 1680.77,-830.95 1759.23,-846.92"/>
<polygon fill="black" stroke="black" points="1758.68,-850.38 1769.18,-848.95 1760.08,-843.53 1758.68,-850.38"/>
</g>
<!-- stage_9 -->
<g id="node6" class="node">
<title>stage_9</title>
<path fill="none" stroke="black" d="M2547,-907.98C2547,-907.98 2281,-907.98 2281,-907.98 2275,-907.98 2269,-901.98 2269,-895.98 2269,-895.98 2269,-883.98 2269,-883.98 2269,-877.98 2275,-871.98 2281,-871.98 2281,-871.98 2547,-871.98 2547,-871.98 2553,-871.98 2559,-877.98 2559,-883.98 2559,-883.98 2559,-895.98 2559,-895.98 2559,-901.98 2553,-907.98 2547,-907.98"/>
<text text-anchor="middle" x="2414" y="-886.28" font-family="Times,serif" font-size="14.00">dep&#45;n&#45;libc&#45;0.2.176&#45;60426161aa87c673</text>
</g>
<!-- stage_0&#45;&gt;stage_9 -->
<g id="edge5" class="edge">
<title>stage_0&#45;&gt;stage_9</title>
<path fill="none" stroke="black" d="M1857.5,-814.98C2030.11,-801.12 2231.16,-842.77 2337.71,-869.45"/>
<polygon fill="black" stroke="black" points="2336.85,-872.85 2347.4,-871.91 2338.57,-866.06 2336.85,-872.85"/>
</g>
<!-- stage_12 -->
<g id="node7" class="node">
<title>stage_12</title>
<path fill="none" stroke="black" d="M3177,-970.98C3177,-970.98 2887,-970.98 2887,-970.98 2881,-970.98 2875,-964.98 2875,-958.98 2875,-958.98 2875,-946.98 2875,-946.98 2875,-940.98 2881,-934.98 2887,-934.98 2887,-934.98 3177,-934.98 3177,-934.98 3183,-934.98 3189,-940.98 3189,-946.98 3189,-946.98 3189,-958.98 3189,-958.98 3189,-964.98 3183,-970.98 3177,-970.98"/>
<text text-anchor="middle" x="3032" y="-949.28" font-family="Times,serif" font-size="14.00">dep&#45;n&#45;jobserver&#45;0.1.34&#45;4dc141be22bbffce</text>
</g>
<!-- stage_0&#45;&gt;stage_12 -->
<g id="edge6" class="edge">
<title>stage_0&#45;&gt;stage_12</title>
<path fill="none" stroke="black" d="M2142,-722.98C2221.02,-699.81 2776.87,-899.02 2857,-917.98 2879.07,-923.21 2902.84,-928.32 2925.49,-932.96"/>
<polygon fill="black" stroke="black" points="2924.98,-936.42 2935.47,-934.98 2926.37,-929.56 2924.98,-936.42"/>
</g>
<!-- stage_15 -->
<g id="node8" class="node">
<title>stage_15</title>
<path fill="none" stroke="black" d="M3162,-440.98C3162,-440.98 2902,-440.98 2902,-440.98 2896,-440.98 2890,-434.98 2890,-428.98 2890,-428.98 2890,-416.98 2890,-416.98 2890,-410.98 2896,-404.98 2902,-404.98 2902,-404.98 3162,-404.98 3162,-404.98 3168,-404.98 3174,-410.98 3174,-416.98 3174,-416.98 3174,-428.98 3174,-428.98 3174,-434.98 3168,-440.98 3162,-440.98"/>
<text text-anchor="middle" x="3032" y="-419.28" font-family="Times,serif" font-size="14.00">dep&#45;n&#45;shlex&#45;1.3.0&#45;b166d1c75d83103c</text>
</g>
<!-- stage_0&#45;&gt;stage_15 -->
<g id="edge7" class="edge">
<title>stage_0&#45;&gt;stage_15</title>
<path fill="none" stroke="black" d="M2709,-422.98C2763.31,-407.13 2825,-403.82 2879.75,-405.6"/>
<polygon fill="black" stroke="black" points="2879.76,-409.1 2889.89,-405.99 2880.03,-402.11 2879.76,-409.1"/>
</g>
<!-- stage_18 -->
<g id="node9" class="node">
<title>stage_18</title>
<path fill="none" stroke="black" d="M3728,-820.98C3728,-820.98 3484,-820.98 3484,-820.98 3478,-820.98 3472,-814.98 3472,-808.98 3472,-808.98 3472,-796.98 3472,-796.98 3472,-790.98 3478,-784.98 3484,-784.98 3484,-784.98 3728,-784.98 3728,-784.98 3734,-784.98 3740,-790.98 3740,-796.98 3740,-796.98 3740,-808.98 3740,-808.98 3740,-814.98 3734,-820.98 3728,-820.98"/>
<text text-anchor="middle" x="3606" y="-799.28" font-family="Times,serif" font-size="14.00">dep&#45;n&#45;cc&#45;1.2.39&#45;336c2d9100ab92f8</text>
</g>
<!-- stage_0&#45;&gt;stage_18 -->
<g id="edge8" class="edge">
<title>stage_0&#45;&gt;stage_18</title>
<path fill="none" stroke="black" d="M2415,-578.98C2491.65,-552.71 2514.94,-595.48 2595,-607.98 2964.95,-665.76 3066.24,-637.39 3428,-733.98 3472.71,-745.92 3521.58,-765.5 3556.62,-780.76"/>
<polygon fill="black" stroke="black" points="3555.56,-784.12 3566.12,-784.94 3558.38,-777.71 3555.56,-784.12"/>
</g>
<!-- stage_21 -->
<g id="node10" class="node">
<title>stage_21</title>
<path fill="none" stroke="black" d="M4298,-805.98C4298,-805.98 4031,-805.98 4031,-805.98 4025,-805.98 4019,-799.98 4019,-793.98 4019,-793.98 4019,-781.98 4019,-781.98 4019,-775.98 4025,-769.98 4031,-769.98 4031,-769.98 4298,-769.98 4298,-769.98 4304,-769.98 4310,-775.98 4310,-781.98 4310,-781.98 4310,-793.98 4310,-793.98 4310,-799.98 4304,-805.98 4298,-805.98"/>
<text text-anchor="middle" x="4164.5" y="-784.28" font-family="Times,serif" font-size="14.00">dep&#45;n&#45;cmake&#45;0.1.54&#45;3ff4fdb389eab124</text>
</g>
<!-- stage_0&#45;&gt;stage_21 -->
<g id="edge9" class="edge">
<title>stage_0&#45;&gt;stage_21</title>
<path fill="none" stroke="black" d="M2415,-578.98C2539.48,-535.63 2576.25,-543.75 2707,-526.98"/>
<path fill="none" stroke="black" d="M2709,-526.98C2725.62,-524.85 2840.32,-499.6 2857,-497.98 3011.83,-482.96 3052.26,-482.05 3207,-497.98 3517.24,-529.93 3587.36,-590.57 3877.5,-704.98"/>
</g>
<!-- stage_24 -->
<g id="node11" class="node">
<title>stage_24</title>
<path fill="none" stroke="black" d="M4296,-413.98C4296,-413.98 4033,-413.98 4033,-413.98 4027,-413.98 4021,-407.98 4021,-401.98 4021,-401.98 4021,-389.98 4021,-389.98 4021,-383.98 4027,-377.98 4033,-377.98 4033,-377.98 4296,-377.98 4296,-377.98 4302,-377.98 4308,-383.98 4308,-389.98 4308,-389.98 4308,-401.98 4308,-401.98 4308,-407.98 4302,-413.98 4296,-413.98"/>
<text text-anchor="middle" x="4164.5" y="-392.28" font-family="Times,serif" font-size="14.00">dep&#45;n&#45;dunce&#45;1.0.5&#45;25a6bb4144c31f83</text>
</g>
<!-- stage_0&#45;&gt;stage_24 -->
<g id="edge10" class="edge">
<title>stage_0&#45;&gt;stage_24</title>
<path fill="none" stroke="black" d="M3607,-370.98C3743.71,-370.98 3899.12,-378.61 4010.9,-385.43"/>
<polygon fill="black" stroke="black" points="4010.7,-388.93 4020.9,-386.05 4011.13,-381.94 4010.7,-388.93"/>
</g>
<!-- stage_27 -->
<g id="node12" class="node">
<title>stage_27</title>
<path fill="none" stroke="black" d="M4305,-336.98C4305,-336.98 4024,-336.98 4024,-336.98 4018,-336.98 4012,-330.98 4012,-324.98 4012,-324.98 4012,-312.98 4012,-312.98 4012,-306.98 4018,-300.98 4024,-300.98 4024,-300.98 4305,-300.98 4305,-300.98 4311,-300.98 4317,-306.98 4317,-312.98 4317,-312.98 4317,-324.98 4317,-324.98 4317,-330.98 4311,-336.98 4305,-336.98"/>
<text text-anchor="middle" x="4164.5" y="-315.28" font-family="Times,serif" font-size="14.00">dep&#45;n&#45;fs_extra&#45;1.3.0&#45;19400729ba85cd55</text>
</g>
<!-- stage_0&#45;&gt;stage_27 -->
<g id="edge11" class="edge">
<title>stage_0&#45;&gt;stage_27</title>
<path fill="none" stroke="black" d="M3879.5,-266.98C3898.34,-263.51 3995.97,-282.73 4071.56,-298.78"/>
<polygon fill="black" stroke="black" points="4071.09,-302.26 4081.6,-300.92 4072.55,-295.41 4071.09,-302.26"/>
</g>
<!-- stage_30 -->
<g id="node13" class="node">
<title>stage_30</title>
<path fill="none" stroke="black" d="M3736,-174.98C3736,-174.98 3476,-174.98 3476,-174.98 3470,-174.98 3464,-168.98 3464,-162.98 3464,-162.98 3464,-150.98 3464,-150.98 3464,-144.98 3470,-138.98 3476,-138.98 3476,-138.98 3736,-138.98 3736,-138.98 3742,-138.98 3748,-144.98 3748,-150.98 3748,-150.98 3748,-162.98 3748,-162.98 3748,-168.98 3742,-174.98 3736,-174.98"/>
<text text-anchor="middle" x="3606" y="-153.28" font-family="Times,serif" font-size="14.00">dep&#45;n&#45;cfg&#45;if&#45;1.0.3&#45;d905bd04d466c2b4</text>
</g>
<!-- stage_0&#45;&gt;stage_30 -->
<g id="edge12" class="edge">
<title>stage_0&#45;&gt;stage_30</title>
<path fill="none" stroke="black" d="M3336.5,-156.98C3377.27,-141.87 3423.97,-137.77 3466.87,-138.67"/>
<polygon fill="black" stroke="black" points="3467.01,-142.17 3477.11,-138.97 3467.22,-135.17 3467.01,-142.17"/>
</g>
<!-- stage_33 -->
<g id="node14" class="node">
<title>stage_33</title>
<path fill="none" stroke="black" d="M4308,-232.98C4308,-232.98 4021,-232.98 4021,-232.98 4015,-232.98 4009,-226.98 4009,-220.98 4009,-220.98 4009,-208.98 4009,-208.98 4009,-202.98 4015,-196.98 4021,-196.98 4021,-196.98 4308,-196.98 4308,-196.98 4314,-196.98 4320,-202.98 4320,-208.98 4320,-208.98 4320,-220.98 4320,-220.98 4320,-226.98 4314,-232.98 4308,-232.98"/>
<text text-anchor="middle" x="4164.5" y="-211.28" font-family="Times,serif" font-size="14.00">dep&#45;n&#45;libloading&#45;0.8.8&#45;bcbfd880a9747f76</text>
</g>
<!-- stage_0&#45;&gt;stage_33 -->
<g id="edge13" class="edge">
<title>stage_0&#45;&gt;stage_33</title>
<path fill="none" stroke="black" d="M3033,-370.98C3279.38,-308.32 3350.78,-369.74 3605,-370.98"/>
<path fill="none" stroke="black" d="M3607,-370.98C3693.44,-374.44 3702.3,-318.44 3784,-289.98 3824.41,-275.91 3835.41,-274.74 3877.5,-266.98"/>
<path fill="none" stroke="black" d="M3879.5,-266.98C3937.27,-256.33 4001.67,-244.54 4054.52,-234.88"/>
<polygon fill="black" stroke="black" points="4055.38,-238.28 4064.59,-233.03 4054.12,-231.39 4055.38,-238.28"/>
</g>
<!-- stage_36 -->
<g id="node15" class="node">
<title>stage_36</title>
<path fill="none" stroke="black" d="M4905,-575.98C4905,-575.98 4604,-575.98 4604,-575.98 4598,-575.98 4592,-569.98 4592,-563.98 4592,-563.98 4592,-551.98 4592,-551.98 4592,-545.98 4598,-539.98 4604,-539.98 4604,-539.98 4905,-539.98 4905,-539.98 4911,-539.98 4917,-545.98 4917,-551.98 4917,-551.98 4917,-563.98 4917,-563.98 4917,-569.98 4911,-575.98 4905,-575.98"/>
<text text-anchor="middle" x="4754.5" y="-554.28" font-family="Times,serif" font-size="14.00">dep&#45;x&#45;aws&#45;lc&#45;sys&#45;0.32.2&#45;b91f62695d1e67bd</text>
</g>
<!-- stage_0&#45;&gt;stage_36 -->
<g id="edge14" class="edge">
<title>stage_0&#45;&gt;stage_36</title>
<path fill="none" stroke="black" d="M4165.5,-551.98C4293.62,-563.82 4328.91,-526.37 4455,-551.98"/>
</g>
<!-- stage_38 -->
<g id="node16" class="node">
<title>stage_38</title>
<path fill="none" stroke="black" d="M5488,-526.98C5488,-526.98 5185,-526.98 5185,-526.98 5179,-526.98 5173,-520.98 5173,-514.98 5173,-514.98 5173,-502.98 5173,-502.98 5173,-496.98 5179,-490.98 5185,-490.98 5185,-490.98 5488,-490.98 5488,-490.98 5494,-490.98 5500,-496.98 5500,-502.98 5500,-502.98 5500,-514.98 5500,-514.98 5500,-520.98 5494,-526.98 5488,-526.98"/>
<text text-anchor="middle" x="5336.5" y="-505.28" font-family="Times,serif" font-size="14.00">run&#45;z&#45;aws&#45;lc&#45;sys&#45;0.32.2&#45;2d875791ad1d3d18</text>
</g>
<!-- stage_0&#45;&gt;stage_38 -->
<g id="edge15" class="edge">
<title>stage_0&#45;&gt;stage_38</title>
<path fill="none" stroke="black" d="M3607,-370.98C3672.21,-373.59 3692.72,-377.29 3748,-411.98 3768.26,-424.7 3763.58,-439.53 3784,-451.98 3793.31,-457.66 4152.64,-550.98 4163.5,-551.98"/>
<path fill="none" stroke="black" d="M4165.5,-551.98C4250.16,-559.67 4271.14,-539.89 4356,-534.98 4638.31,-518.66 4967,-512.57 5162.8,-510.31"/>
<polygon fill="black" stroke="black" points="5162.93,-513.81 5172.89,-510.2 5162.85,-506.81 5162.93,-513.81"/>
</g>
<!-- stage_40 -->
<g id="node17" class="node">
<title>stage_40</title>
<path fill="none" stroke="black" d="M6074,-480.98C6074,-480.98 5772,-480.98 5772,-480.98 5766,-480.98 5760,-474.98 5760,-468.98 5760,-468.98 5760,-456.98 5760,-456.98 5760,-450.98 5766,-444.98 5772,-444.98 5772,-444.98 6074,-444.98 6074,-444.98 6080,-444.98 6086,-450.98 6086,-456.98 6086,-456.98 6086,-468.98 6086,-468.98 6086,-474.98 6080,-480.98 6074,-480.98"/>
<text text-anchor="middle" x="5923" y="-459.28" font-family="Times,serif" font-size="14.00">dep&#45;n&#45;aws&#45;lc&#45;sys&#45;0.32.2&#45;135dbb753da3a4f4</text>
</g>
<!-- stage_0&#45;&gt;stage_40 -->
<g id="edge16" class="edge">
<title>stage_0&#45;&gt;stage_40</title>
<path fill="none" stroke="black" d="M3879.5,-266.98C3953.46,-253.35 4488.96,-255.9 4556,-289.98 4579.14,-301.75 4569.04,-323.87 4592,-335.98 4770.05,-429.91 4842.7,-364.98 5044,-364.98 5044,-364.98 5044,-364.98 5337.5,-364.98 5430.88,-364.98 5685.7,-414.25 5826.07,-442.92"/>
<polygon fill="black" stroke="black" points="5825.48,-446.38 5835.98,-444.95 5826.88,-439.52 5825.48,-446.38"/>
</g>
<!-- stage_43 -->
<g id="node18" class="node">
<title>stage_43</title>
<path fill="none" stroke="black" d="M6057.5,-254.98C6057.5,-254.98 5788.5,-254.98 5788.5,-254.98 5782.5,-254.98 5776.5,-248.98 5776.5,-242.98 5776.5,-242.98 5776.5,-230.98 5776.5,-230.98 5776.5,-224.98 5782.5,-218.98 5788.5,-218.98 5788.5,-218.98 6057.5,-218.98 6057.5,-218.98 6063.5,-218.98 6069.5,-224.98 6069.5,-230.98 6069.5,-230.98 6069.5,-242.98 6069.5,-242.98 6069.5,-248.98 6063.5,-254.98 6057.5,-254.98"/>
<text text-anchor="middle" x="5923" y="-233.28" font-family="Times,serif" font-size="14.00">dep&#45;n&#45;zeroize&#45;1.8.2&#45;fd233fb45e407496</text>
</g>
<!-- stage_0&#45;&gt;stage_43 -->
<g id="edge17" class="edge">
<title>stage_0&#45;&gt;stage_43</title>
<path fill="none" stroke="black" d="M4165.5,-109.98C4250.4,-114.07 4271.27,-120.11 4356,-126.98 4532.56,-141.3 4576.36,-155.98 4753.5,-155.98 4753.5,-155.98 4753.5,-155.98 5337.5,-155.98 5514.26,-155.98 5718.27,-192.78 5832.5,-216.77"/>
<polygon fill="black" stroke="black" points="5832.09,-220.26 5842.59,-218.91 5833.54,-213.41 5832.09,-220.26"/>
</g>
<!-- stage_46 -->
<g id="node19" class="node">
<title>stage_46</title>
<path fill="none" stroke="black" d="M1431,-128.98C1431,-128.98 1138,-128.98 1138,-128.98 1132,-128.98 1126,-122.98 1126,-116.98 1126,-116.98 1126,-104.98 1126,-104.98 1126,-98.98 1132,-92.98 1138,-92.98 1138,-92.98 1431,-92.98 1431,-92.98 1437,-92.98 1443,-98.98 1443,-104.98 1443,-104.98 1443,-116.98 1443,-116.98 1443,-122.98 1437,-128.98 1431,-128.98"/>
<text text-anchor="middle" x="1284.5" y="-107.28" font-family="Times,serif" font-size="14.00">dep&#45;x&#45;aws&#45;lc&#45;rs&#45;1.14.1&#45;6215be1cd523c855</text>
</g>
<!-- stage_0&#45;&gt;stage_46 -->
<g id="edge18" class="edge">
<title>stage_0&#45;&gt;stage_46</title>
<path fill="none" stroke="black" d="M1002.91,-796.87C1042.05,-701.2 1224.75,-254.6 1272.21,-138.58"/>
<polygon fill="black" stroke="black" points="1275.46,-139.88 1276.01,-129.3 1268.98,-137.23 1275.46,-139.88"/>
</g>
<!-- stage_48 -->
<g id="node20" class="node">
<title>stage_48</title>
<path fill="none" stroke="black" d="M2001,-76.98C2001,-76.98 1712,-76.98 1712,-76.98 1706,-76.98 1700,-70.98 1700,-64.98 1700,-64.98 1700,-52.98 1700,-52.98 1700,-46.98 1706,-40.98 1712,-40.98 1712,-40.98 2001,-40.98 2001,-40.98 2007,-40.98 2013,-46.98 2013,-52.98 2013,-52.98 2013,-64.98 2013,-64.98 2013,-70.98 2007,-76.98 2001,-76.98"/>
<text text-anchor="middle" x="1856.5" y="-55.28" font-family="Times,serif" font-size="14.00">run&#45;z&#45;aws&#45;lc&#45;rs&#45;1.14.1&#45;7ef21a73dd92a44b</text>
</g>
<!-- stage_0&#45;&gt;stage_48 -->
<g id="edge19" class="edge">
<title>stage_0&#45;&gt;stage_48</title>
<path fill="none" stroke="black" d="M1066.7,-829.95C1178.01,-850.09 1398.31,-876.75 1570.5,-814.98"/>
<path fill="none" stroke="black" d="M1572.5,-814.98C1717.78,-753.87 1826.24,-216.54 1850.43,-86.99"/>
<polygon fill="black" stroke="black" points="1853.89,-87.52 1852.26,-77.05 1847,-86.25 1853.89,-87.52"/>
</g>
<!-- stage_50 -->
<g id="node21" class="node">
<title>stage_50</title>
<path fill="none" stroke="black" d="M6641,-428.98C6641,-428.98 6353,-428.98 6353,-428.98 6347,-428.98 6341,-422.98 6341,-416.98 6341,-416.98 6341,-404.98 6341,-404.98 6341,-398.98 6347,-392.98 6353,-392.98 6353,-392.98 6641,-392.98 6641,-392.98 6647,-392.98 6653,-398.98 6653,-404.98 6653,-404.98 6653,-416.98 6653,-416.98 6653,-422.98 6647,-428.98 6641,-428.98"/>
<text text-anchor="middle" x="6497" y="-407.28" font-family="Times,serif" font-size="14.00">dep&#45;n&#45;aws&#45;lc&#45;rs&#45;1.14.1&#45;90227bfec647f88b</text>
</g>
<!-- stage_0&#45;&gt;stage_50 -->
<g id="edge20" class="edge">
<title>stage_0&#45;&gt;stage_50</title>
<path fill="none" stroke="black" d="M1572.5,-814.98C1688.44,-766.21 1729.99,-823.22 1855.5,-814.98"/>
<path fill="none" stroke="black" d="M1857.5,-814.98C1947.33,-809.09 1963.13,-776.03 2049,-748.98 2089.12,-736.35 2099.1,-732.79 2140,-722.98"/>
<path fill="none" stroke="black" d="M2142,-722.98C2274.63,-691.17 2284.2,-623.85 2413,-578.98"/>
<path fill="none" stroke="black" d="M2415,-578.98C2508.93,-546.27 2504.15,-486.49 2595,-445.98 2641.41,-425.29 2658.22,-437.22 2707,-422.98"/>
<path fill="none" stroke="black" d="M2709,-422.98C2773.34,-404.21 2790.85,-404.83 2857,-393.98 2933.98,-381.37 2955.67,-391.25 3031,-370.98"/>
<path fill="none" stroke="black" d="M3033,-370.98C3154.83,-338.21 3131.81,-239.6 3243,-179.98 3279.96,-160.17 3295.18,-171.56 3334.5,-156.98"/>
<path fill="none" stroke="black" d="M3336.5,-156.98C3614.87,-53.8 4111.38,-108.32 4163.5,-109.98"/>
<path fill="none" stroke="black" d="M4165.5,-109.98C4294.02,-116.11 4326.34,-111.23 4455,-109.98"/>
</g>
<!-- stage_3 -->
<g id="node22" class="node">
<title>stage_3</title>
<path fill="none" stroke="black" d="M3414.5,-590.98C3414.5,-590.98 3256.5,-590.98 3256.5,-590.98 3250.5,-590.98 3244.5,-584.98 3244.5,-578.98 3244.5,-578.98 3244.5,-566.98 3244.5,-566.98 3244.5,-560.98 3250.5,-554.98 3256.5,-554.98 3256.5,-554.98 3414.5,-554.98 3414.5,-554.98 3420.5,-554.98 3426.5,-560.98 3426.5,-566.98 3426.5,-566.98 3426.5,-578.98 3426.5,-578.98 3426.5,-584.98 3420.5,-590.98 3414.5,-590.98"/>
<text text-anchor="middle" x="3335.5" y="-569.28" font-family="Times,serif" font-size="14.00">out&#45;d2948f7c0c8497b1</text>
</g>
<!-- stage_2&#45;&gt;stage_3 -->
<g id="edge21" class="edge">
<title>stage_2&#45;&gt;stage_3</title>
<path fill="none" stroke="black" stroke-dasharray="5,2" d="M3151.3,-545.03C3178.65,-549.21 3207.5,-553.61 3234.01,-557.65"/>
<polygon fill="none" stroke="black" points="3233.64,-561.14 3244.05,-559.18 3234.69,-554.22 3233.64,-561.14"/>
</g>
<!-- stage_6 -->
<g id="node24" class="node">
<title>stage_6</title>
<path fill="none" stroke="black" d="M1650,-956.98C1650,-956.98 1493,-956.98 1493,-956.98 1487,-956.98 1481,-950.98 1481,-944.98 1481,-944.98 1481,-932.98 1481,-932.98 1481,-926.98 1487,-920.98 1493,-920.98 1493,-920.98 1650,-920.98 1650,-920.98 1656,-920.98 1662,-926.98 1662,-932.98 1662,-932.98 1662,-944.98 1662,-944.98 1662,-950.98 1656,-956.98 1650,-956.98"/>
<text text-anchor="middle" x="1571.5" y="-935.28" font-family="Times,serif" font-size="14.00">out&#45;7560e7c5c88ec4c4</text>
</g>
<!-- stage_5&#45;&gt;stage_6 -->
<g id="edge30" class="edge">
<title>stage_5&#45;&gt;stage_6</title>
<path fill="none" stroke="black" stroke-dasharray="5,2" d="M1426.75,-938.98C1441.5,-938.98 1456.28,-938.98 1470.43,-938.98"/>
<polygon fill="none" stroke="black" points="1470.62,-942.48 1480.62,-938.98 1470.62,-935.48 1470.62,-942.48"/>
</g>
<!-- stage_8 -->
<g id="node26" class="node">
<title>stage_8</title>
<path fill="none" stroke="black" d="M2221,-930.98C2221,-930.98 2061,-930.98 2061,-930.98 2055,-930.98 2049,-924.98 2049,-918.98 2049,-918.98 2049,-906.98 2049,-906.98 2049,-900.98 2055,-894.98 2061,-894.98 2061,-894.98 2221,-894.98 2221,-894.98 2227,-894.98 2233,-900.98 2233,-906.98 2233,-906.98 2233,-918.98 2233,-918.98 2233,-924.98 2227,-930.98 2221,-930.98"/>
<text text-anchor="middle" x="2141" y="-909.28" font-family="Times,serif" font-size="14.00">out&#45;99856d878c8e44ce</text>
</g>
<!-- stage_7&#45;&gt;stage_8 -->
<g id="edge40" class="edge">
<title>stage_7&#45;&gt;stage_8</title>
<path fill="none" stroke="black" stroke-dasharray="5,2" d="M1968.34,-885.03C1991.5,-888.8 2015.81,-892.76 2038.6,-896.47"/>
<polygon fill="none" stroke="black" points="2038.18,-899.95 2048.62,-898.1 2039.31,-893.04 2038.18,-899.95"/>
</g>
<!-- stage_10 -->
<g id="node27" class="node">
<title>stage_10</title>
<path fill="none" stroke="black" d="M2788.5,-820.98C2788.5,-820.98 2627.5,-820.98 2627.5,-820.98 2621.5,-820.98 2615.5,-814.98 2615.5,-808.98 2615.5,-808.98 2615.5,-796.98 2615.5,-796.98 2615.5,-790.98 2621.5,-784.98 2627.5,-784.98 2627.5,-784.98 2788.5,-784.98 2788.5,-784.98 2794.5,-784.98 2800.5,-790.98 2800.5,-796.98 2800.5,-796.98 2800.5,-808.98 2800.5,-808.98 2800.5,-814.98 2794.5,-820.98 2788.5,-820.98"/>
<text text-anchor="middle" x="2708" y="-799.28" font-family="Times,serif" font-size="14.00">out&#45;60426161aa87c673</text>
</g>
<!-- stage_9&#45;&gt;stage_10 -->
<g id="edge42" class="edge">
<title>stage_9&#45;&gt;stage_10</title>
<path fill="none" stroke="black" stroke-dasharray="5,2" d="M2475.5,-871.96C2522.48,-857.96 2587.7,-838.53 2636.95,-823.86"/>
<polygon fill="none" stroke="black" points="2637.99,-827.2 2646.57,-820.99 2635.99,-820.49 2637.99,-827.2"/>
</g>
<!-- stage_13 -->
<g id="node28" class="node">
<title>stage_13</title>
<path fill="none" stroke="black" d="M3411.5,-970.98C3411.5,-970.98 3259.5,-970.98 3259.5,-970.98 3253.5,-970.98 3247.5,-964.98 3247.5,-958.98 3247.5,-958.98 3247.5,-946.98 3247.5,-946.98 3247.5,-940.98 3253.5,-934.98 3259.5,-934.98 3259.5,-934.98 3411.5,-934.98 3411.5,-934.98 3417.5,-934.98 3423.5,-940.98 3423.5,-946.98 3423.5,-946.98 3423.5,-958.98 3423.5,-958.98 3423.5,-964.98 3417.5,-970.98 3411.5,-970.98"/>
<text text-anchor="middle" x="3335.5" y="-949.28" font-family="Times,serif" font-size="14.00">out&#45;4dc141be22bbffce</text>
</g>
<!-- stage_12&#45;&gt;stage_13 -->
<g id="edge52" class="edge">
<title>stage_12&#45;&gt;stage_13</title>
<path fill="none" stroke="black" stroke-dasharray="5,2" d="M3189.05,-952.98C3205.43,-952.98 3221.73,-952.98 3237.17,-952.98"/>
<polygon fill="none" stroke="black" points="3237.19,-956.48 3247.19,-952.98 3237.19,-949.48 3237.19,-956.48"/>
</g>
<!-- stage_16 -->
<g id="node30" class="node">
<title>stage_16</title>
<path fill="none" stroke="black" d="M3416,-440.98C3416,-440.98 3255,-440.98 3255,-440.98 3249,-440.98 3243,-434.98 3243,-428.98 3243,-428.98 3243,-416.98 3243,-416.98 3243,-410.98 3249,-404.98 3255,-404.98 3255,-404.98 3416,-404.98 3416,-404.98 3422,-404.98 3428,-410.98 3428,-416.98 3428,-416.98 3428,-428.98 3428,-428.98 3428,-434.98 3422,-440.98 3416,-440.98"/>
<text text-anchor="middle" x="3335.5" y="-419.28" font-family="Times,serif" font-size="14.00">out&#45;b166d1c75d83103c</text>
</g>
<!-- stage_15&#45;&gt;stage_16 -->
<g id="edge61" class="edge">
<title>stage_15&#45;&gt;stage_16</title>
<path fill="none" stroke="black" stroke-dasharray="5,2" d="M3174.04,-422.98C3193.79,-422.98 3213.76,-422.98 3232.59,-422.98"/>
<polygon fill="none" stroke="black" points="3232.62,-426.48 3242.62,-422.98 3232.62,-419.48 3232.62,-426.48"/>
</g>
<!-- stage_19 -->
<g id="node32" class="node">
<title>stage_19</title>
<path fill="none" stroke="black" d="M3957.5,-878.98C3957.5,-878.98 3799.5,-878.98 3799.5,-878.98 3793.5,-878.98 3787.5,-872.98 3787.5,-866.98 3787.5,-866.98 3787.5,-854.98 3787.5,-854.98 3787.5,-848.98 3793.5,-842.98 3799.5,-842.98 3799.5,-842.98 3957.5,-842.98 3957.5,-842.98 3963.5,-842.98 3969.5,-848.98 3969.5,-854.98 3969.5,-854.98 3969.5,-866.98 3969.5,-866.98 3969.5,-872.98 3963.5,-878.98 3957.5,-878.98"/>
<text text-anchor="middle" x="3878.5" y="-857.28" font-family="Times,serif" font-size="14.00">out&#45;336c2d9100ab92f8</text>
</g>
<!-- stage_18&#45;&gt;stage_19 -->
<g id="edge70" class="edge">
<title>stage_18&#45;&gt;stage_19</title>
<path fill="none" stroke="black" stroke-dasharray="5,2" d="M3691.11,-821.02C3720.37,-827.29 3753.37,-834.37 3783.39,-840.81"/>
<polygon fill="none" stroke="black" points="3782.94,-844.29 3793.45,-842.96 3784.4,-837.44 3782.94,-844.29"/>
</g>
<!-- stage_22 -->
<g id="node34" class="node">
<title>stage_22</title>
<path fill="none" stroke="black" d="M4531.5,-805.98C4531.5,-805.98 4380.5,-805.98 4380.5,-805.98 4374.5,-805.98 4368.5,-799.98 4368.5,-793.98 4368.5,-793.98 4368.5,-781.98 4368.5,-781.98 4368.5,-775.98 4374.5,-769.98 4380.5,-769.98 4380.5,-769.98 4531.5,-769.98 4531.5,-769.98 4537.5,-769.98 4543.5,-775.98 4543.5,-781.98 4543.5,-781.98 4543.5,-793.98 4543.5,-793.98 4543.5,-799.98 4537.5,-805.98 4531.5,-805.98"/>
<text text-anchor="middle" x="4456" y="-784.28" font-family="Times,serif" font-size="14.00">out&#45;3ff4fdb389eab124</text>
</g>
<!-- stage_21&#45;&gt;stage_22 -->
<g id="edge77" class="edge">
<title>stage_21&#45;&gt;stage_22</title>
<path fill="none" stroke="black" stroke-dasharray="5,2" d="M4310.25,-787.98C4326.48,-787.98 4342.72,-787.98 4358.14,-787.98"/>
<polygon fill="none" stroke="black" points="4358.14,-791.48 4368.14,-787.98 4358.14,-784.48 4358.14,-791.48"/>
</g>
<!-- stage_25 -->
<g id="node36" class="node">
<title>stage_25</title>
<path fill="none" stroke="black" d="M4535,-413.98C4535,-413.98 4377,-413.98 4377,-413.98 4371,-413.98 4365,-407.98 4365,-401.98 4365,-401.98 4365,-389.98 4365,-389.98 4365,-383.98 4371,-377.98 4377,-377.98 4377,-377.98 4535,-377.98 4535,-377.98 4541,-377.98 4547,-383.98 4547,-389.98 4547,-389.98 4547,-401.98 4547,-401.98 4547,-407.98 4541,-413.98 4535,-413.98"/>
<text text-anchor="middle" x="4456" y="-392.28" font-family="Times,serif" font-size="14.00">out&#45;25a6bb4144c31f83</text>
</g>
<!-- stage_24&#45;&gt;stage_25 -->
<g id="edge82" class="edge">
<title>stage_24&#45;&gt;stage_25</title>
<path fill="none" stroke="black" stroke-dasharray="5,2" d="M4308.13,-395.98C4323.78,-395.98 4339.47,-395.98 4354.46,-395.98"/>
<polygon fill="none" stroke="black" points="4354.72,-399.48 4364.72,-395.98 4354.72,-392.48 4354.72,-399.48"/>
</g>
<!-- stage_28 -->
<g id="node38" class="node">
<title>stage_28</title>
<path fill="none" stroke="black" d="M4537,-336.98C4537,-336.98 4375,-336.98 4375,-336.98 4369,-336.98 4363,-330.98 4363,-324.98 4363,-324.98 4363,-312.98 4363,-312.98 4363,-306.98 4369,-300.98 4375,-300.98 4375,-300.98 4537,-300.98 4537,-300.98 4543,-300.98 4549,-306.98 4549,-312.98 4549,-312.98 4549,-324.98 4549,-324.98 4549,-330.98 4543,-336.98 4537,-336.98"/>
<text text-anchor="middle" x="4456" y="-315.28" font-family="Times,serif" font-size="14.00">out&#45;19400729ba85cd55</text>
</g>
<!-- stage_27&#45;&gt;stage_28 -->
<g id="edge87" class="edge">
<title>stage_27&#45;&gt;stage_28</title>
<path fill="none" stroke="black" stroke-dasharray="5,2" d="M4317.03,-318.98C4329.1,-318.98 4341.09,-318.98 4352.7,-318.98"/>
<polygon fill="none" stroke="black" points="4352.78,-322.48 4362.78,-318.98 4352.78,-315.48 4352.78,-322.48"/>
</g>
<!-- stage_31 -->
<g id="node40" class="node">
<title>stage_31</title>
<path fill="none" stroke="black" d="M3960,-174.98C3960,-174.98 3797,-174.98 3797,-174.98 3791,-174.98 3785,-168.98 3785,-162.98 3785,-162.98 3785,-150.98 3785,-150.98 3785,-144.98 3791,-138.98 3797,-138.98 3797,-138.98 3960,-138.98 3960,-138.98 3966,-138.98 3972,-144.98 3972,-150.98 3972,-150.98 3972,-162.98 3972,-162.98 3972,-168.98 3966,-174.98 3960,-174.98"/>
<text text-anchor="middle" x="3878.5" y="-153.28" font-family="Times,serif" font-size="14.00">out&#45;d905bd04d466c2b4</text>
</g>
<!-- stage_30&#45;&gt;stage_31 -->
<g id="edge92" class="edge">
<title>stage_30&#45;&gt;stage_31</title>
<path fill="none" stroke="black" stroke-dasharray="5,2" d="M3748.19,-156.98C3757.12,-156.98 3766.02,-156.98 3774.72,-156.98"/>
<polygon fill="none" stroke="black" points="3774.85,-160.48 3784.85,-156.98 3774.85,-153.48 3774.85,-160.48"/>
</g>
<!-- stage_34 -->
<g id="node42" class="node">
<title>stage_34</title>
<path fill="none" stroke="black" d="M4533.5,-232.98C4533.5,-232.98 4378.5,-232.98 4378.5,-232.98 4372.5,-232.98 4366.5,-226.98 4366.5,-220.98 4366.5,-220.98 4366.5,-208.98 4366.5,-208.98 4366.5,-202.98 4372.5,-196.98 4378.5,-196.98 4378.5,-196.98 4533.5,-196.98 4533.5,-196.98 4539.5,-196.98 4545.5,-202.98 4545.5,-208.98 4545.5,-208.98 4545.5,-220.98 4545.5,-220.98 4545.5,-226.98 4539.5,-232.98 4533.5,-232.98"/>
<text text-anchor="middle" x="4456" y="-211.28" font-family="Times,serif" font-size="14.00">out&#45;bcbfd880a9747f76</text>
</g>
<!-- stage_33&#45;&gt;stage_34 -->
<g id="edge99" class="edge">
<title>stage_33&#45;&gt;stage_34</title>
<path fill="none" stroke="black" stroke-dasharray="5,2" d="M4320.42,-214.98C4332.59,-214.98 4344.65,-214.98 4356.28,-214.98"/>
<polygon fill="none" stroke="black" points="4356.38,-218.48 4366.38,-214.98 4356.38,-211.48 4356.38,-218.48"/>
</g>
<!-- stage_37 -->
<g id="node44" class="node">
<title>stage_37</title>
<path fill="none" stroke="black" d="M5125,-575.98C5125,-575.98 4965,-575.98 4965,-575.98 4959,-575.98 4953,-569.98 4953,-563.98 4953,-563.98 4953,-551.98 4953,-551.98 4953,-545.98 4959,-539.98 4965,-539.98 4965,-539.98 5125,-539.98 5125,-539.98 5131,-539.98 5137,-545.98 5137,-551.98 5137,-551.98 5137,-563.98 5137,-563.98 5137,-569.98 5131,-575.98 5125,-575.98"/>
<text text-anchor="middle" x="5045" y="-554.28" font-family="Times,serif" font-size="14.00">out&#45;b91f62695d1e67bd</text>
</g>
<!-- stage_36&#45;&gt;stage_37 -->
<g id="edge104" class="edge">
<title>stage_36&#45;&gt;stage_37</title>
<path fill="none" stroke="black" stroke-dasharray="5,2" d="M4917.04,-557.98C4925.74,-557.98 4934.35,-557.98 4942.74,-557.98"/>
<polygon fill="none" stroke="black" points="4942.87,-561.48 4952.87,-557.98 4942.87,-554.48 4942.87,-561.48"/>
</g>
<!-- stage_39 -->
<g id="node46" class="node">
<title>stage_39</title>
<path fill="none" stroke="black" d="M5712,-526.98C5712,-526.98 5548,-526.98 5548,-526.98 5542,-526.98 5536,-520.98 5536,-514.98 5536,-514.98 5536,-502.98 5536,-502.98 5536,-496.98 5542,-490.98 5548,-490.98 5548,-490.98 5712,-490.98 5712,-490.98 5718,-490.98 5724,-496.98 5724,-502.98 5724,-502.98 5724,-514.98 5724,-514.98 5724,-520.98 5718,-526.98 5712,-526.98"/>
<text text-anchor="middle" x="5630" y="-505.28" font-family="Times,serif" font-size="14.00">out&#45;2d875791ad1d3d18</text>
</g>
<!-- stage_38&#45;&gt;stage_39 -->
<g id="edge110" class="edge">
<title>stage_38&#45;&gt;stage_39</title>
<path fill="none" stroke="black" stroke-dasharray="5,2" d="M5500.3,-508.98C5508.92,-508.98 5517.46,-508.98 5525.8,-508.98"/>
<polygon fill="none" stroke="black" points="5525.86,-512.48 5535.86,-508.98 5525.86,-505.48 5525.86,-512.48"/>
</g>
<!-- stage_41 -->
<g id="node47" class="node">
<title>stage_41</title>
<path fill="none" stroke="black" d="M6293,-480.98C6293,-480.98 6134,-480.98 6134,-480.98 6128,-480.98 6122,-474.98 6122,-468.98 6122,-468.98 6122,-456.98 6122,-456.98 6122,-450.98 6128,-444.98 6134,-444.98 6134,-444.98 6293,-444.98 6293,-444.98 6299,-444.98 6305,-450.98 6305,-456.98 6305,-456.98 6305,-468.98 6305,-468.98 6305,-474.98 6299,-480.98 6293,-480.98"/>
<text text-anchor="middle" x="6213.5" y="-459.28" font-family="Times,serif" font-size="14.00">out&#45;135dbb753da3a4f4</text>
</g>
<!-- stage_40&#45;&gt;stage_41 -->
<g id="edge560" class="edge">
<title>stage_40&#45;&gt;stage_41</title>
<path fill="none" stroke="black" stroke-dasharray="5,2" d="M6086.38,-462.98C6094.85,-462.98 6103.23,-462.98 6111.41,-462.98"/>
<polygon fill="none" stroke="black" points="6111.65,-466.48 6121.65,-462.98 6111.65,-459.48 6111.65,-466.48"/>
</g>
<!-- stage_44 -->
<g id="node48" class="node">
<title>stage_44</title>
<path fill="none" stroke="black" d="M6291.5,-329.98C6291.5,-329.98 6135.5,-329.98 6135.5,-329.98 6129.5,-329.98 6123.5,-323.98 6123.5,-317.98 6123.5,-317.98 6123.5,-305.98 6123.5,-305.98 6123.5,-299.98 6129.5,-293.98 6135.5,-293.98 6135.5,-293.98 6291.5,-293.98 6291.5,-293.98 6297.5,-293.98 6303.5,-299.98 6303.5,-305.98 6303.5,-305.98 6303.5,-317.98 6303.5,-317.98 6303.5,-323.98 6297.5,-329.98 6291.5,-329.98"/>
<text text-anchor="middle" x="6213.5" y="-308.28" font-family="Times,serif" font-size="14.00">out&#45;fd233fb45e407496</text>
</g>
<!-- stage_43&#45;&gt;stage_44 -->
<g id="edge563" class="edge">
<title>stage_43&#45;&gt;stage_44</title>
<path fill="none" stroke="black" stroke-dasharray="5,2" d="M5993.47,-255.04C6035.63,-266 6089.58,-280.03 6133.38,-291.42"/>
<polygon fill="none" stroke="black" points="6132.57,-294.82 6143.13,-293.95 6134.34,-288.05 6132.57,-294.82"/>
</g>
<!-- stage_47 -->
<g id="node50" class="node">
<title>stage_47</title>
<path fill="none" stroke="black" d="M1652,-128.98C1652,-128.98 1491,-128.98 1491,-128.98 1485,-128.98 1479,-122.98 1479,-116.98 1479,-116.98 1479,-104.98 1479,-104.98 1479,-98.98 1485,-92.98 1491,-92.98 1491,-92.98 1652,-92.98 1652,-92.98 1658,-92.98 1664,-98.98 1664,-104.98 1664,-104.98 1664,-116.98 1664,-116.98 1664,-122.98 1658,-128.98 1652,-128.98"/>
<text text-anchor="middle" x="1571.5" y="-107.28" font-family="Times,serif" font-size="14.00">out&#45;6215be1cd523c855</text>
</g>
<!-- stage_46&#45;&gt;stage_47 -->
<g id="edge567" class="edge">
<title>stage_46&#45;&gt;stage_47</title>
<path fill="none" stroke="black" stroke-dasharray="5,2" d="M1443,-110.98C1451.7,-110.98 1460.32,-110.98 1468.73,-110.98"/>
<polygon fill="none" stroke="black" points="1468.88,-114.48 1478.88,-110.98 1468.88,-107.48 1468.88,-114.48"/>
</g>
<!-- stage_49 -->
<g id="node52" class="node">
<title>stage_49</title>
<path fill="none" stroke="black" d="M2493,-76.98C2493,-76.98 2335,-76.98 2335,-76.98 2329,-76.98 2323,-70.98 2323,-64.98 2323,-64.98 2323,-52.98 2323,-52.98 2323,-46.98 2329,-40.98 2335,-40.98 2335,-40.98 2493,-40.98 2493,-40.98 2499,-40.98 2505,-46.98 2505,-52.98 2505,-52.98 2505,-64.98 2505,-64.98 2505,-70.98 2499,-76.98 2493,-76.98"/>
<text text-anchor="middle" x="2414" y="-55.28" font-family="Times,serif" font-size="14.00">out&#45;7ef21a73dd92a44b</text>
</g>
<!-- stage_48&#45;&gt;stage_49 -->
<g id="edge572" class="edge">
<title>stage_48&#45;&gt;stage_49</title>
<path fill="none" stroke="black" stroke-dasharray="5,2" d="M2013.35,-58.98C2109.16,-58.98 2229.12,-58.98 2312.49,-58.98"/>
<polygon fill="none" stroke="black" points="2312.73,-62.48 2322.73,-58.98 2312.73,-55.48 2312.73,-62.48"/>
</g>
<!-- stage_51 -->
<g id="node53" class="node">
<title>stage_51</title>
<path fill="none" stroke="black" d="M6856,-428.98C6856,-428.98 6701,-428.98 6701,-428.98 6695,-428.98 6689,-422.98 6689,-416.98 6689,-416.98 6689,-404.98 6689,-404.98 6689,-398.98 6695,-392.98 6701,-392.98 6701,-392.98 6856,-392.98 6856,-392.98 6862,-392.98 6868,-398.98 6868,-404.98 6868,-404.98 6868,-416.98 6868,-416.98 6868,-422.98 6862,-428.98 6856,-428.98"/>
<text text-anchor="middle" x="6778.5" y="-407.28" font-family="Times,serif" font-size="14.00">out&#45;90227bfec647f88b</text>
</g>
<!-- stage_50&#45;&gt;stage_51 -->
<g id="edge574" class="edge">
<title>stage_50&#45;&gt;stage_51</title>
<path fill="none" stroke="black" stroke-dasharray="5,2" d="M6653.28,-410.98C6661.94,-410.98 6670.53,-410.98 6678.9,-410.98"/>
<polygon fill="none" stroke="black" points="6678.99,-414.48 6688.99,-410.98 6678.99,-407.48 6678.99,-414.48"/>
</g>
<!-- stage_3&#45;&gt;stage_18 -->
<g id="edge23" class="edge">
<title>stage_3&#45;&gt;stage_18</title>
<path fill="none" stroke="black" stroke-dasharray="1,5" d="M3396.38,-591.21C3408.06,-596.98 3419.36,-604.43 3428,-613.98 3461.95,-651.5 3431.97,-682.82 3464,-721.98 3484.81,-747.43 3515.87,-766.49 3543.54,-779.7"/>
<polygon fill="none" stroke="black" points="3543.84,-779.84 3550.96,-778.7 3554.75,-784.84 3547.63,-785.98 3543.84,-779.84"/>
</g>
<!-- stage_3&#45;&gt;stage_21 -->
<g id="edge25" class="edge">
<title>stage_3&#45;&gt;stage_21</title>
<path fill="none" stroke="black" stroke-dasharray="1,5" d="M3378.17,-591.09C3393.87,-598.06 3411.84,-606.22 3428,-613.98 3507.72,-652.31 3517.18,-694.43 3605,-704.98"/>
<path fill="none" stroke="black" stroke-dasharray="1,5" d="M3607,-704.98C3726.36,-719.34 3765.66,-660.88 3877.5,-704.98"/>
</g>
<!-- stage_3&#45;&gt;stage_36 -->
<g id="edge27" class="edge">
<title>stage_3&#45;&gt;stage_36</title>
<path fill="none" stroke="black" stroke-dasharray="1,5" d="M3351.24,-554.57C3373.02,-528.7 3416.39,-482.07 3464,-457.98 3521.09,-429.1 3541.07,-426.56 3605,-428.98"/>
</g>
<!-- stage_3&#45;&gt;stage_50 -->
<g id="edge28" class="edge">
<title>stage_3&#45;&gt;stage_50</title>
<path fill="none" stroke="black" stroke-dasharray="1,5" d="M3426.69,-586.79C3737.45,-634.32 4745.09,-788.34 4753.5,-787.98"/>
</g>
<!-- stage_1 -->
<g id="node23" class="node">
<title>stage_1</title>
<path fill="none" stroke="black" d="M2809,-596.98C2809,-596.98 2607,-596.98 2607,-596.98 2601,-596.98 2595,-590.98 2595,-584.98 2595,-584.98 2595,-572.98 2595,-572.98 2595,-566.98 2601,-560.98 2607,-560.98 2607,-560.98 2809,-560.98 2809,-560.98 2815,-560.98 2821,-566.98 2821,-572.98 2821,-572.98 2821,-584.98 2821,-584.98 2821,-590.98 2815,-596.98 2809,-596.98"/>
<text text-anchor="middle" x="2708" y="-575.28" font-family="Times,serif" font-size="14.00">cratesio&#45;find&#45;msvc&#45;tools&#45;0.1.2</text>
</g>
<!-- stage_1&#45;&gt;stage_2 -->
<g id="edge22" class="edge">
<title>stage_1&#45;&gt;stage_2</title>
<path fill="none" stroke="black" stroke-dasharray="1,5" d="M2820.72,-560.94C2848.69,-556.43 2878.86,-551.55 2907.37,-546.95"/>
<polygon fill="none" stroke="black" points="2907.63,-546.91 2912.92,-542 2919.48,-544.99 2914.2,-549.9 2907.63,-546.91"/>
</g>
<!-- stage_6&#45;&gt;stage_7 -->
<g id="edge34" class="edge">
<title>stage_6&#45;&gt;stage_7</title>
<path fill="none" stroke="black" stroke-dasharray="1,5" d="M1631.97,-920.91C1653.34,-914.63 1677.68,-907.73 1700,-901.98 1719.06,-897.08 1739.54,-892.2 1759.17,-887.7"/>
<polygon fill="none" stroke="black" points="1759.24,-887.69 1764.2,-882.46 1770.94,-885.03 1765.97,-890.26 1759.24,-887.69"/>
</g>
<!-- stage_6&#45;&gt;stage_12 -->
<g id="edge35" class="edge">
<title>stage_6&#45;&gt;stage_12</title>
<path fill="none" stroke="black" stroke-dasharray="1,5" d="M2415,-1004.98C2544.6,-998.22 2577.33,-1010.18 2707,-1004.98"/>
<path fill="none" stroke="black" stroke-dasharray="1,5" d="M2709,-1004.98C2749.68,-1003.35 2846.27,-987.15 2923.11,-973.25"/>
<polygon fill="none" stroke="black" points="2923.46,-973.19 2928.65,-968.18 2935.27,-971.05 2930.08,-976.05 2923.46,-973.19"/>
</g>
<!-- stage_6&#45;&gt;stage_18 -->
<g id="edge36" class="edge">
<title>stage_6&#45;&gt;stage_18</title>
<path fill="none" stroke="black" stroke-dasharray="1,5" d="M1857.5,-918.98C1919.44,-910.96 2350.63,-1008.24 2413,-1004.98"/>
<path fill="none" stroke="black" stroke-dasharray="1,5" d="M2415,-1004.98C2502.64,-1001.04 2510.37,-947.08 2595,-923.98 2954.33,-825.92 3058.98,-882.56 3428,-831.98 3447.73,-829.28 3468.65,-826.12 3488.93,-822.89"/>
<polygon fill="none" stroke="black" points="3488.93,-822.89 3494.22,-817.99 3500.78,-820.99 3495.49,-825.89 3488.93,-822.89"/>
</g>
<!-- stage_6&#45;&gt;stage_21 -->
<g id="edge37" class="edge">
<title>stage_6&#45;&gt;stage_21</title>
<path fill="none" stroke="black" stroke-dasharray="1,5" d="M1857.5,-918.98C1926.76,-909.85 1945.05,-912.2 2013,-895.98 2029.4,-892.07 2032.7,-888.32 2049,-883.98 2721.67,-704.84 2913.86,-621.89 3605,-704.98"/>
</g>
<!-- stage_6&#45;&gt;stage_36 -->
<g id="edge38" class="edge">
<title>stage_6&#45;&gt;stage_36</title>
<path fill="none" stroke="black" stroke-dasharray="1,5" d="M1662,-935.46C1717.82,-932.57 1791.05,-927.52 1855.5,-918.98"/>
<path fill="none" stroke="black" stroke-dasharray="1,5" d="M1857.5,-918.98C1926.76,-909.81 1955.57,-935.77 2013,-895.98 2040.14,-877.18 2024.15,-852.73 2049,-830.98 2128.01,-761.85 2168.27,-774.58 2269,-744.98 2677.02,-625.12 2796.06,-665.43 3207,-555.98 3223.3,-551.64 3226.4,-546.99 3243,-543.98 3520.68,-493.74 3599.56,-472.24 3877.5,-520.98"/>
</g>
<!-- stage_6&#45;&gt;stage_50 -->
<g id="edge39" class="edge">
<title>stage_6&#45;&gt;stage_50</title>
<path fill="none" stroke="black" stroke-dasharray="1,5" d="M2709,-1004.98C2986.78,-993.86 3056.5,-1004.98 3334.5,-1004.98 3334.5,-1004.98 3334.5,-1004.98 3607,-1004.98 3985.28,-1004.98 4087.27,-1020.71 4455,-931.98"/>
</g>
<!-- stage_4 -->
<g id="node25" class="node">
<title>stage_4</title>
<path fill="none" stroke="black" d="M1063.5,-982.98C1063.5,-982.98 925.5,-982.98 925.5,-982.98 919.5,-982.98 913.5,-976.98 913.5,-970.98 913.5,-970.98 913.5,-958.98 913.5,-958.98 913.5,-952.98 919.5,-946.98 925.5,-946.98 925.5,-946.98 1063.5,-946.98 1063.5,-946.98 1069.5,-946.98 1075.5,-952.98 1075.5,-958.98 1075.5,-958.98 1075.5,-970.98 1075.5,-970.98 1075.5,-976.98 1069.5,-982.98 1063.5,-982.98"/>
<text text-anchor="middle" x="994.5" y="-961.28" font-family="Times,serif" font-size="14.00">cratesio&#45;libc&#45;0.2.176</text>
</g>
<!-- stage_4&#45;&gt;stage_5 -->
<g id="edge31" class="edge">
<title>stage_4&#45;&gt;stage_5</title>
<path fill="none" stroke="black" stroke-dasharray="1,5" d="M1075.72,-957.74C1092.87,-956.19 1111.53,-954.51 1130.4,-952.81"/>
<polygon fill="none" stroke="black" points="1130.54,-952.79 1136.15,-948.27 1142.49,-951.71 1136.87,-956.24 1130.54,-952.79"/>
</g>
<!-- stage_4&#45;&gt;stage_7 -->
<g id="edge32" class="edge">
<title>stage_4&#45;&gt;stage_7</title>
<path fill="none" stroke="black" stroke-dasharray="1,5" d="M1075.75,-978.06C1133.45,-986.04 1213.16,-994.15 1283.5,-990.98"/>
<path fill="none" stroke="black" stroke-dasharray="1,5" d="M1285.5,-990.98C1356.17,-987.81 1383.83,-1006.76 1443,-967.98 1468.38,-951.35 1453.37,-926.22 1479,-909.98 1544.15,-868.73 1628.58,-856.24 1700.97,-854.82"/>
<polygon fill="none" stroke="black" points="1701.4,-854.81 1707.36,-850.75 1713.4,-854.68 1707.45,-858.75 1701.4,-854.81"/>
</g>
<!-- stage_4&#45;&gt;stage_9 -->
<g id="edge33" class="edge">
<title>stage_4&#45;&gt;stage_9</title>
<path fill="none" stroke="black" stroke-dasharray="1,5" d="M1285.5,-990.98C1706.68,-970.63 1817.15,-1011.85 2233,-941.98 2272.74,-935.31 2316.18,-922.91 2350.42,-911.9"/>
<polygon fill="none" stroke="black" points="2350.72,-911.8 2355.18,-906.14 2362.13,-908.07 2357.67,-913.74 2350.72,-911.8"/>
</g>
<!-- stage_8&#45;&gt;stage_9 -->
<g id="edge41" class="edge">
<title>stage_8&#45;&gt;stage_9</title>
<path fill="none" stroke="black" stroke-dasharray="1,5" d="M2233.37,-905.23C2241.02,-904.58 2248.89,-903.91 2256.85,-903.24"/>
<polygon fill="none" stroke="black" points="2257.03,-903.22 2262.67,-898.73 2268.99,-902.21 2263.35,-906.7 2257.03,-903.22"/>
</g>
<!-- stage_10&#45;&gt;stage_12 -->
<g id="edge43" class="edge">
<title>stage_10&#45;&gt;stage_12</title>
<path fill="none" stroke="black" stroke-dasharray="1,5" d="M2735.98,-821.02C2759.14,-836.85 2793.09,-860.88 2821,-883.98 2837.95,-898.02 2837.46,-907.87 2857,-917.98 2866.95,-923.14 2877.59,-927.53 2888.51,-931.28"/>
<polygon fill="none" stroke="black" points="2888.56,-931.29 2895.49,-929.31 2899.98,-934.95 2893.05,-936.93 2888.56,-931.29"/>
</g>
<!-- stage_10&#45;&gt;stage_18 -->
<g id="edge45" class="edge">
<title>stage_10&#45;&gt;stage_18</title>
<path fill="none" stroke="black" stroke-dasharray="1,5" d="M3336.5,-750.98C3371.35,-750.13 3454.58,-767.37 3519.21,-782.22"/>
<polygon fill="none" stroke="black" points="3519.36,-782.25 3526.1,-779.71 3531.05,-784.96 3524.3,-787.5 3519.36,-782.25"/>
</g>
<!-- stage_10&#45;&gt;stage_21 -->
<g id="edge47" class="edge">
<title>stage_10&#45;&gt;stage_21</title>
<path fill="none" stroke="black" stroke-dasharray="1,5" d="M3336.5,-750.98C3519.62,-746.47 3568.08,-739.61 3748,-773.98 3764.57,-777.15 3767.8,-781.3 3784,-785.98 3825.11,-797.87 3834.75,-810.87 3877.5,-808.98"/>
<path fill="none" stroke="black" stroke-dasharray="1,5" d="M3879.5,-808.98C3920.73,-806.83 3965.28,-803.84 4006.6,-800.8"/>
<polygon fill="none" stroke="black" points="4006.77,-800.79 4012.45,-796.36 4018.73,-799.9 4013.05,-804.33 4006.77,-800.79"/>
</g>
<!-- stage_10&#45;&gt;stage_36 -->
<g id="edge49" class="edge">
<title>stage_10&#45;&gt;stage_36</title>
<path fill="none" stroke="black" stroke-dasharray="1,5" d="M2800.76,-791.66C2922.5,-777.49 3144.25,-754.62 3334.5,-750.98"/>
<path fill="none" stroke="black" stroke-dasharray="1,5" d="M3336.5,-750.98C3399.63,-747.8 3403.5,-706.27 3464,-687.98 3764.05,-597.32 3850.14,-605.59 4163.5,-597.98"/>
</g>
<!-- stage_10&#45;&gt;stage_50 -->
<g id="edge50" class="edge">
<title>stage_10&#45;&gt;stage_50</title>
<path fill="none" stroke="black" stroke-dasharray="1,5" d="M2800.6,-811.46C2986.06,-828.38 3419.38,-866.73 3784,-889.98 4022,-905.16 4082.4,-894.52 4320,-914.98 4380.25,-920.17 4396.05,-945.46 4455,-931.98"/>
<path fill="none" stroke="black" stroke-dasharray="1,5" d="M4457,-931.98C4599.41,-897.63 4607.15,-794.53 4753.5,-787.98"/>
</g>
<!-- stage_13&#45;&gt;stage_18 -->
<g id="edge54" class="edge">
<title>stage_13&#45;&gt;stage_18</title>
<path fill="none" stroke="black" stroke-dasharray="1,5" d="M3357.38,-934.84C3376.04,-918.54 3404.05,-893.89 3428,-871.98 3444.24,-857.13 3444.69,-848.54 3464,-837.98 3473.17,-832.98 3483.06,-828.67 3493.2,-824.98"/>
<polygon fill="none" stroke="black" points="3493.37,-824.92 3497.76,-819.2 3504.73,-821.06 3500.34,-826.77 3493.37,-824.92"/>
</g>
<!-- stage_13&#45;&gt;stage_21 -->
<g id="edge56" class="edge">
<title>stage_13&#45;&gt;stage_21</title>
<path fill="none" stroke="black" stroke-dasharray="1,5" d="M3397.83,-934.93C3529.07,-896.55 3829.16,-810.22 3877.5,-808.98"/>
</g>
<!-- stage_13&#45;&gt;stage_36 -->
<g id="edge58" class="edge">
<title>stage_13&#45;&gt;stage_36</title>
<path fill="none" stroke="black" stroke-dasharray="1,5" d="M3423.61,-954.26C3574.59,-955.69 3894.5,-955.29 4163.5,-931.98"/>
<path fill="none" stroke="black" stroke-dasharray="1,5" d="M4165.5,-931.98C4346.02,-919.81 4406.97,-919.57 4556,-816.98 4558.96,-814.94 4682.15,-652.31 4732.44,-585.83"/>
<polygon fill="none" stroke="black" points="4732.62,-585.6 4733.05,-578.4 4739.86,-576.03 4739.43,-583.23 4732.62,-585.6"/>
</g>
<!-- stage_13&#45;&gt;stage_50 -->
<g id="edge59" class="edge">
<title>stage_13&#45;&gt;stage_50</title>
<path fill="none" stroke="black" stroke-dasharray="1,5" d="M4165.5,-931.98C4293.69,-920.93 4329.57,-960.66 4455,-931.98"/>
</g>
<!-- stage_11 -->
<g id="node29" class="node">
<title>stage_11</title>
<path fill="none" stroke="black" d="M2793.5,-970.98C2793.5,-970.98 2622.5,-970.98 2622.5,-970.98 2616.5,-970.98 2610.5,-964.98 2610.5,-958.98 2610.5,-958.98 2610.5,-946.98 2610.5,-946.98 2610.5,-940.98 2616.5,-934.98 2622.5,-934.98 2622.5,-934.98 2793.5,-934.98 2793.5,-934.98 2799.5,-934.98 2805.5,-940.98 2805.5,-946.98 2805.5,-946.98 2805.5,-958.98 2805.5,-958.98 2805.5,-964.98 2799.5,-970.98 2793.5,-970.98"/>
<text text-anchor="middle" x="2708" y="-949.28" font-family="Times,serif" font-size="14.00">cratesio&#45;jobserver&#45;0.1.34</text>
</g>
<!-- stage_11&#45;&gt;stage_12 -->
<g id="edge53" class="edge">
<title>stage_11&#45;&gt;stage_12</title>
<path fill="none" stroke="black" stroke-dasharray="1,5" d="M2805.61,-952.98C2823.71,-952.98 2843.12,-952.98 2862.66,-952.98"/>
<polygon fill="none" stroke="black" points="2862.84,-952.98 2868.84,-948.98 2874.84,-952.98 2868.84,-956.98 2862.84,-952.98"/>
</g>
<!-- stage_16&#45;&gt;stage_18 -->
<g id="edge63" class="edge">
<title>stage_16&#45;&gt;stage_18</title>
<path fill="none" stroke="black" stroke-dasharray="1,5" d="M3354.68,-441.35C3375.69,-463.67 3409.71,-503.41 3428,-543.98 3461.17,-617.57 3416.81,-656.5 3464,-721.98 3482.79,-748.05 3512.74,-766.95 3540.22,-779.9"/>
<polygon fill="none" stroke="black" points="3540.45,-780.01 3547.56,-778.82 3551.4,-784.92 3544.28,-786.11 3540.45,-780.01"/>
</g>
<!-- stage_16&#45;&gt;stage_21 -->
<g id="edge65" class="edge">
<title>stage_16&#45;&gt;stage_21</title>
<path fill="none" stroke="black" stroke-dasharray="1,5" d="M3607,-474.98C3666.84,-497.63 3698.07,-463.98 3748,-503.98 3778.43,-528.36 3763.94,-550.55 3784,-583.98 3818.96,-642.26 3814.28,-680.05 3877.5,-704.98"/>
<path fill="none" stroke="black" stroke-dasharray="1,5" d="M3879.5,-704.98C3919.31,-720.68 3931.79,-716.44 3973,-727.98 4014.73,-739.67 4061.11,-754.25 4097.67,-766.11"/>
<polygon fill="none" stroke="black" points="4097.76,-766.14 4104.7,-764.19 4109.17,-769.86 4102.23,-771.8 4097.76,-766.14"/>
</g>
<!-- stage_16&#45;&gt;stage_36 -->
<g id="edge67" class="edge">
<title>stage_16&#45;&gt;stage_36</title>
<path fill="none" stroke="black" stroke-dasharray="1,5" d="M3428.17,-424.33C3480.07,-425.26 3546.18,-426.75 3605,-428.98"/>
<path fill="none" stroke="black" stroke-dasharray="1,5" d="M3607,-428.98C3670.93,-431.41 3691.25,-428.45 3748,-457.98 3767.52,-468.14 3765,-480.88 3784,-491.98 3821.57,-513.93 3834.65,-513.47 3877.5,-520.98"/>
<path fill="none" stroke="black" stroke-dasharray="1,5" d="M3879.5,-520.98C3922.35,-528.5 3932.81,-533.31 3973,-549.98 3989.71,-556.92 3991.92,-563.03 4009,-568.98 4074.97,-591.99 4093.65,-599.68 4163.5,-597.98"/>
<path fill="none" stroke="black" stroke-dasharray="1,5" d="M4165.5,-597.98C4198.06,-597.19 4423.08,-545.5 4455,-551.98"/>
</g>
<!-- stage_16&#45;&gt;stage_50 -->
<g id="edge68" class="edge">
<title>stage_16&#45;&gt;stage_50</title>
<path fill="none" stroke="black" stroke-dasharray="1,5" d="M3428.16,-439.97C3502.57,-453.88 3596.52,-471.78 3605,-474.98"/>
<path fill="none" stroke="black" stroke-dasharray="1,5" d="M3607,-474.98C3666.84,-497.63 3691.25,-474.45 3748,-503.98 3767.52,-514.14 3765.16,-526.61 3784,-537.98 3874.48,-592.62 3906.83,-587.93 4009,-614.98 4248.22,-678.32 4316.98,-654.89 4556,-718.98 4645.81,-743.07 4660.52,-787.36 4753.5,-787.98"/>
<path fill="none" stroke="black" stroke-dasharray="1,5" d="M4755.5,-787.98C5013.26,-785.05 5082.94,-736.39 5335.5,-787.98"/>
</g>
<!-- stage_14 -->
<g id="node31" class="node">
<title>stage_14</title>
<path fill="none" stroke="black" d="M2773.5,-492.98C2773.5,-492.98 2642.5,-492.98 2642.5,-492.98 2636.5,-492.98 2630.5,-486.98 2630.5,-480.98 2630.5,-480.98 2630.5,-468.98 2630.5,-468.98 2630.5,-462.98 2636.5,-456.98 2642.5,-456.98 2642.5,-456.98 2773.5,-456.98 2773.5,-456.98 2779.5,-456.98 2785.5,-462.98 2785.5,-468.98 2785.5,-468.98 2785.5,-480.98 2785.5,-480.98 2785.5,-486.98 2779.5,-492.98 2773.5,-492.98"/>
<text text-anchor="middle" x="2708" y="-471.28" font-family="Times,serif" font-size="14.00">cratesio&#45;shlex&#45;1.3.0</text>
</g>
<!-- stage_14&#45;&gt;stage_15 -->
<g id="edge62" class="edge">
<title>stage_14&#45;&gt;stage_15</title>
<path fill="none" stroke="black" stroke-dasharray="1,5" d="M2785.72,-462.6C2822.12,-456.72 2866.52,-449.55 2907.5,-442.93"/>
<polygon fill="none" stroke="black" points="2907.67,-442.9 2912.96,-437.99 2919.52,-440.99 2914.24,-445.89 2907.67,-442.9"/>
</g>
<!-- stage_19&#45;&gt;stage_21 -->
<g id="edge72" class="edge">
<title>stage_19&#45;&gt;stage_21</title>
<path fill="none" stroke="black" stroke-dasharray="1,5" d="M3938.27,-842.89C3960.36,-836.32 3985.75,-829.02 4009,-822.98 4027.85,-818.09 4048.09,-813.22 4067.51,-808.75"/>
<polygon fill="none" stroke="black" points="4067.78,-808.69 4072.74,-803.45 4079.48,-806.01 4074.52,-811.25 4067.78,-808.69"/>
</g>
<!-- stage_19&#45;&gt;stage_36 -->
<g id="edge74" class="edge">
<title>stage_19&#45;&gt;stage_36</title>
<path fill="none" stroke="black" stroke-dasharray="1,5" d="M3969.52,-858.41C4025.61,-855.8 4099.1,-850.55 4163.5,-839.98"/>
<path fill="none" stroke="black" stroke-dasharray="1,5" d="M4165.5,-839.98C4234.01,-828.75 4261.99,-855.12 4320,-816.98 4345.35,-800.32 4333.63,-779.48 4356,-758.98 4453.71,-669.45 4598.73,-609.72 4683.94,-580.01"/>
<polygon fill="none" stroke="black" points="4683.95,-580 4688.32,-574.27 4695.3,-576.1 4690.92,-581.83 4683.95,-580"/>
</g>
<!-- stage_19&#45;&gt;stage_50 -->
<g id="edge75" class="edge">
<title>stage_19&#45;&gt;stage_50</title>
<path fill="none" stroke="black" stroke-dasharray="1,5" d="M4165.5,-839.98C4337.22,-812.82 4383.05,-834.74 4556,-816.98 4644.26,-807.92 4664.78,-787.98 4753.5,-787.98"/>
</g>
<!-- stage_17 -->
<g id="node33" class="node">
<title>stage_17</title>
<path fill="none" stroke="black" d="M3395.5,-820.98C3395.5,-820.98 3275.5,-820.98 3275.5,-820.98 3269.5,-820.98 3263.5,-814.98 3263.5,-808.98 3263.5,-808.98 3263.5,-796.98 3263.5,-796.98 3263.5,-790.98 3269.5,-784.98 3275.5,-784.98 3275.5,-784.98 3395.5,-784.98 3395.5,-784.98 3401.5,-784.98 3407.5,-790.98 3407.5,-796.98 3407.5,-796.98 3407.5,-808.98 3407.5,-808.98 3407.5,-814.98 3401.5,-820.98 3395.5,-820.98"/>
<text text-anchor="middle" x="3335.5" y="-799.28" font-family="Times,serif" font-size="14.00">cratesio&#45;cc&#45;1.2.39</text>
</g>
<!-- stage_17&#45;&gt;stage_18 -->
<g id="edge71" class="edge">
<title>stage_17&#45;&gt;stage_18</title>
<path fill="none" stroke="black" stroke-dasharray="1,5" d="M3407.75,-802.98C3423.92,-802.98 3441.67,-802.98 3459.69,-802.98"/>
<polygon fill="none" stroke="black" points="3459.87,-802.98 3465.87,-798.98 3471.87,-802.98 3465.87,-806.98 3459.87,-802.98"/>
</g>
<!-- stage_22&#45;&gt;stage_36 -->
<g id="edge79" class="edge">
<title>stage_22&#45;&gt;stage_36</title>
<path fill="none" stroke="black" stroke-dasharray="1,5" d="M4480.27,-769.94C4532.53,-729.39 4659.41,-630.97 4720.09,-583.9"/>
<polygon fill="none" stroke="black" points="4720.45,-583.62 4722.74,-576.78 4729.93,-576.27 4727.64,-583.1 4720.45,-583.62"/>
</g>
<!-- stage_22&#45;&gt;stage_50 -->
<g id="edge80" class="edge">
<title>stage_22&#45;&gt;stage_50</title>
<path fill="none" stroke="black" stroke-dasharray="1,5" d="M4543.6,-787.98C4602.73,-787.98 4682.85,-787.98 4753.5,-787.98"/>
</g>
<!-- stage_20 -->
<g id="node35" class="node">
<title>stage_20</title>
<path fill="none" stroke="black" d="M3953,-774.98C3953,-774.98 3804,-774.98 3804,-774.98 3798,-774.98 3792,-768.98 3792,-762.98 3792,-762.98 3792,-750.98 3792,-750.98 3792,-744.98 3798,-738.98 3804,-738.98 3804,-738.98 3953,-738.98 3953,-738.98 3959,-738.98 3965,-744.98 3965,-750.98 3965,-750.98 3965,-762.98 3965,-762.98 3965,-768.98 3959,-774.98 3953,-774.98"/>
<text text-anchor="middle" x="3878.5" y="-753.28" font-family="Times,serif" font-size="14.00">cratesio&#45;cmake&#45;0.1.54</text>
</g>
<!-- stage_20&#45;&gt;stage_21 -->
<g id="edge78" class="edge">
<title>stage_20&#45;&gt;stage_21</title>
<path fill="none" stroke="black" stroke-dasharray="1,5" d="M3965.09,-766.33C3978.43,-767.78 3992.55,-769.32 4006.88,-770.89"/>
<polygon fill="none" stroke="black" points="4007.02,-770.9 4013.42,-767.58 4018.95,-772.21 4012.55,-775.53 4007.02,-770.9"/>
</g>
<!-- stage_25&#45;&gt;stage_36 -->
<g id="edge84" class="edge">
<title>stage_25&#45;&gt;stage_36</title>
<path fill="none" stroke="black" stroke-dasharray="1,5" d="M4528.55,-414.07C4537.95,-417.28 4547.33,-420.91 4556,-424.98 4618.77,-454.44 4684.07,-502.39 4721.64,-531.96"/>
<polygon fill="none" stroke="black" points="4722.08,-532.31 4729.27,-532.91 4731.47,-539.78 4724.29,-539.18 4722.08,-532.31"/>
</g>
<!-- stage_25&#45;&gt;stage_50 -->
<g id="edge85" class="edge">
<title>stage_25&#45;&gt;stage_50</title>
<path fill="none" stroke="black" stroke-dasharray="1,5" d="M4547.23,-399.72C4662.46,-404.16 4868.02,-410.98 5044,-410.98 5044,-410.98 5044,-410.98 5337.5,-410.98 5597.28,-410.98 5663.01,-390.78 5922,-410.98"/>
</g>
<!-- stage_23 -->
<g id="node37" class="node">
<title>stage_23</title>
<path fill="none" stroke="black" d="M3947,-440.98C3947,-440.98 3810,-440.98 3810,-440.98 3804,-440.98 3798,-434.98 3798,-428.98 3798,-428.98 3798,-416.98 3798,-416.98 3798,-410.98 3804,-404.98 3810,-404.98 3810,-404.98 3947,-404.98 3947,-404.98 3953,-404.98 3959,-410.98 3959,-416.98 3959,-416.98 3959,-428.98 3959,-428.98 3959,-434.98 3953,-440.98 3947,-440.98"/>
<text text-anchor="middle" x="3878.5" y="-419.28" font-family="Times,serif" font-size="14.00">cratesio&#45;dunce&#45;1.0.5</text>
</g>
<!-- stage_23&#45;&gt;stage_24 -->
<g id="edge83" class="edge">
<title>stage_23&#45;&gt;stage_24</title>
<path fill="none" stroke="black" stroke-dasharray="1,5" d="M3959.37,-415.39C3974.81,-413.92 3991.48,-412.34 4008.4,-410.73"/>
<polygon fill="none" stroke="black" points="4008.8,-410.69 4014.4,-406.14 4020.75,-409.56 4015.15,-414.11 4008.8,-410.69"/>
</g>
<!-- stage_28&#45;&gt;stage_36 -->
<g id="edge89" class="edge">
<title>stage_28&#45;&gt;stage_36</title>
<path fill="none" stroke="black" stroke-dasharray="1,5" d="M4502.04,-337.16C4519.58,-345.16 4539.41,-355.38 4556,-366.98 4626.61,-416.34 4695.89,-491.12 4730.57,-530.89"/>
<polygon fill="none" stroke="black" points="4730.58,-530.9 4737.53,-532.82 4738.43,-539.98 4731.48,-538.05 4730.58,-530.9"/>
</g>
<!-- stage_28&#45;&gt;stage_50 -->
<g id="edge90" class="edge">
<title>stage_28&#45;&gt;stage_50</title>
<path fill="none" stroke="black" stroke-dasharray="1,5" d="M4549.33,-314.9C4607.93,-313.32 4685.29,-313.09 4753.5,-318.98"/>
</g>
<!-- stage_26 -->
<g id="node39" class="node">
<title>stage_26</title>
<path fill="none" stroke="black" d="M3954.5,-336.98C3954.5,-336.98 3802.5,-336.98 3802.5,-336.98 3796.5,-336.98 3790.5,-330.98 3790.5,-324.98 3790.5,-324.98 3790.5,-312.98 3790.5,-312.98 3790.5,-306.98 3796.5,-300.98 3802.5,-300.98 3802.5,-300.98 3954.5,-300.98 3954.5,-300.98 3960.5,-300.98 3966.5,-306.98 3966.5,-312.98 3966.5,-312.98 3966.5,-324.98 3966.5,-324.98 3966.5,-330.98 3960.5,-336.98 3954.5,-336.98"/>
<text text-anchor="middle" x="3878.5" y="-315.28" font-family="Times,serif" font-size="14.00">cratesio&#45;fs_extra&#45;1.3.0</text>
</g>
<!-- stage_26&#45;&gt;stage_27 -->
<g id="edge88" class="edge">
<title>stage_26&#45;&gt;stage_27</title>
<path fill="none" stroke="black" stroke-dasharray="1,5" d="M3966.64,-318.98C3977.24,-318.98 3988.32,-318.98 3999.58,-318.98"/>
<polygon fill="none" stroke="black" points="3999.87,-318.98 4005.87,-314.98 4011.87,-318.98 4005.87,-322.98 3999.87,-318.98"/>
</g>
<!-- stage_31&#45;&gt;stage_33 -->
<g id="edge94" class="edge">
<title>stage_31&#45;&gt;stage_33</title>
<path fill="none" stroke="black" stroke-dasharray="1,5" d="M3967.8,-175.02C3998.12,-181.21 4032.27,-188.18 4063.46,-194.55"/>
<polygon fill="none" stroke="black" points="4063.49,-194.56 4070.17,-191.84 4075.25,-196.96 4068.57,-199.68 4063.49,-194.56"/>
</g>
<!-- stage_31&#45;&gt;stage_36 -->
<g id="edge96" class="edge">
<title>stage_31&#45;&gt;stage_36</title>
<path fill="none" stroke="black" stroke-dasharray="1,5" d="M4165.5,-155.98C4232.94,-174.55 4272.33,-134.79 4320,-185.98 4410.62,-283.29 4287.48,-369.03 4356,-482.98 4383.64,-528.95 4402.44,-541.31 4455,-551.98"/>
<path fill="none" stroke="black" stroke-dasharray="1,5" d="M4457,-551.98C4496.29,-559.97 4539.12,-563.65 4579.69,-564.9"/>
<polygon fill="none" stroke="black" points="4579.92,-564.91 4586.02,-561.06 4591.92,-565.21 4585.82,-569.06 4579.92,-564.91"/>
</g>
<!-- stage_31&#45;&gt;stage_50 -->
<g id="edge97" class="edge">
<title>stage_31&#45;&gt;stage_50</title>
<path fill="none" stroke="black" stroke-dasharray="1,5" d="M3972.29,-144.21C4028.6,-139.5 4101.34,-138.88 4163.5,-155.98"/>
<path fill="none" stroke="black" stroke-dasharray="1,5" d="M4165.5,-155.98C4291.11,-190.56 4324.72,-109.76 4455,-109.98"/>
</g>
<!-- stage_29 -->
<g id="node41" class="node">
<title>stage_29</title>
<path fill="none" stroke="black" d="M3400.5,-226.98C3400.5,-226.98 3270.5,-226.98 3270.5,-226.98 3264.5,-226.98 3258.5,-220.98 3258.5,-214.98 3258.5,-214.98 3258.5,-202.98 3258.5,-202.98 3258.5,-196.98 3264.5,-190.98 3270.5,-190.98 3270.5,-190.98 3400.5,-190.98 3400.5,-190.98 3406.5,-190.98 3412.5,-196.98 3412.5,-202.98 3412.5,-202.98 3412.5,-214.98 3412.5,-214.98 3412.5,-220.98 3406.5,-226.98 3400.5,-226.98"/>
<text text-anchor="middle" x="3335.5" y="-205.28" font-family="Times,serif" font-size="14.00">cratesio&#45;cfg&#45;if&#45;1.0.3</text>
</g>
<!-- stage_29&#45;&gt;stage_30 -->
<g id="edge93" class="edge">
<title>stage_29&#45;&gt;stage_30</title>
<path fill="none" stroke="black" stroke-dasharray="1,5" d="M3412.72,-194.22C3439.84,-188.97 3470.87,-182.96 3499.97,-177.33"/>
<polygon fill="none" stroke="black" points="3500.09,-177.3 3505.22,-172.23 3511.87,-175.02 3506.74,-180.09 3500.09,-177.3"/>
</g>
<!-- stage_34&#45;&gt;stage_36 -->
<g id="edge101" class="edge">
<title>stage_34&#45;&gt;stage_36</title>
<path fill="none" stroke="black" stroke-dasharray="1,5" d="M4485.18,-233.09C4505.99,-247.21 4534.34,-268.04 4556,-289.98 4566.31,-300.43 4684.61,-463.04 4733.03,-529.75"/>
<polygon fill="none" stroke="black" points="4733.13,-529.89 4739.89,-532.39 4740.17,-539.6 4733.41,-537.09 4733.13,-529.89"/>
</g>
<!-- stage_34&#45;&gt;stage_50 -->
<g id="edge102" class="edge">
<title>stage_34&#45;&gt;stage_50</title>
<path fill="none" stroke="black" stroke-dasharray="1,5" d="M4508.31,-233.07C4592.75,-262.82 4751.9,-318.85 4753.5,-318.98"/>
<path fill="none" stroke="black" stroke-dasharray="1,5" d="M4755.5,-318.98C5184.54,-356.08 5299.5,-275.56 5724,-347.98 5815.03,-363.52 5829.98,-403.27 5922,-410.98"/>
<path fill="none" stroke="black" stroke-dasharray="1,5" d="M5924,-410.98C6059.86,-420.33 6214.29,-419.66 6328.42,-417.03"/>
<polygon fill="none" stroke="black" points="6328.73,-417.02 6334.64,-412.88 6340.73,-416.73 6334.83,-420.88 6328.73,-417.02"/>
</g>
<!-- stage_32 -->
<g id="node43" class="node">
<title>stage_32</title>
<path fill="none" stroke="black" d="M3961,-232.98C3961,-232.98 3796,-232.98 3796,-232.98 3790,-232.98 3784,-226.98 3784,-220.98 3784,-220.98 3784,-208.98 3784,-208.98 3784,-202.98 3790,-196.98 3796,-196.98 3796,-196.98 3961,-196.98 3961,-196.98 3967,-196.98 3973,-202.98 3973,-208.98 3973,-208.98 3973,-220.98 3973,-220.98 3973,-226.98 3967,-232.98 3961,-232.98"/>
<text text-anchor="middle" x="3878.5" y="-211.28" font-family="Times,serif" font-size="14.00">cratesio&#45;libloading&#45;0.8.8</text>
</g>
<!-- stage_32&#45;&gt;stage_33 -->
<g id="edge100" class="edge">
<title>stage_32&#45;&gt;stage_33</title>
<path fill="none" stroke="black" stroke-dasharray="1,5" d="M3973.28,-214.98C3980.9,-214.98 3988.72,-214.98 3996.66,-214.98"/>
<polygon fill="none" stroke="black" points="3996.77,-214.98 4002.77,-210.98 4008.77,-214.98 4002.77,-218.98 3996.77,-214.98"/>
</g>
<!-- stage_37&#45;&gt;stage_38 -->
<g id="edge108" class="edge">
<title>stage_37&#45;&gt;stage_38</title>
<path fill="none" stroke="black" stroke-dasharray="1,5" d="M5137.2,-542.55C5162.5,-538.27 5190.33,-533.55 5216.95,-529.05"/>
<polygon fill="none" stroke="black" points="5217.24,-529 5222.49,-524.05 5229.08,-527 5223.83,-531.94 5217.24,-529"/>
</g>
<!-- stage_37&#45;&gt;stage_50 -->
<g id="edge109" class="edge">
<title>stage_37&#45;&gt;stage_50</title>
<path fill="none" stroke="black" stroke-dasharray="1,5" d="M5058.62,-576.22C5094.67,-626.14 5204.02,-762.99 5335.5,-787.98"/>
<path fill="none" stroke="black" stroke-dasharray="1,5" d="M5337.5,-787.98C5592.71,-836.51 5663.12,-766.44 5922,-787.98"/>
</g>
<!-- stage_35 -->
<g id="node45" class="node">
<title>stage_35</title>
<path fill="none" stroke="black" d="M4544,-471.98C4544,-471.98 4368,-471.98 4368,-471.98 4362,-471.98 4356,-465.98 4356,-459.98 4356,-459.98 4356,-447.98 4356,-447.98 4356,-441.98 4362,-435.98 4368,-435.98 4368,-435.98 4544,-435.98 4544,-435.98 4550,-435.98 4556,-441.98 4556,-447.98 4556,-447.98 4556,-459.98 4556,-459.98 4556,-465.98 4550,-471.98 4544,-471.98"/>
<text text-anchor="middle" x="4456" y="-450.28" font-family="Times,serif" font-size="14.00">cratesio&#45;aws&#45;lc&#45;sys&#45;0.32.2</text>
</g>
<!-- stage_35&#45;&gt;stage_36 -->
<g id="edge105" class="edge">
<title>stage_35&#45;&gt;stage_36</title>
<path fill="none" stroke="black" stroke-dasharray="1,5" d="M4508.65,-472.1C4559.19,-489.83 4636.28,-516.87 4690.42,-535.86"/>
<polygon fill="none" stroke="black" points="4690.63,-535.93 4697.61,-534.14 4701.95,-539.9 4694.96,-541.69 4690.63,-535.93"/>
</g>
<!-- stage_35&#45;&gt;stage_38 -->
<g id="edge106" class="edge">
<title>stage_35&#45;&gt;stage_38</title>
<path fill="none" stroke="black" stroke-dasharray="1,5" d="M5046,-459.98C5081.56,-461.38 5164.44,-475.83 5232.45,-488.68"/>
<polygon fill="none" stroke="black" points="5232.74,-488.73 5239.38,-485.92 5244.53,-490.97 5237.88,-493.78 5232.74,-488.73"/>
</g>
<!-- stage_35&#45;&gt;stage_40 -->
<g id="edge107" class="edge">
<title>stage_35&#45;&gt;stage_40</title>
<path fill="none" stroke="black" stroke-dasharray="1,5" d="M4556.23,-453.24C4672.99,-452.77 4872.66,-453.24 5044,-459.98"/>
<path fill="none" stroke="black" stroke-dasharray="1,5" d="M5046,-459.98C5289.14,-472.08 5570.72,-470.22 5747.6,-467.13"/>
<polygon fill="none" stroke="black" points="5747.62,-467.13 5753.55,-463.02 5759.62,-466.92 5753.69,-471.02 5747.62,-467.13"/>
</g>
<!-- stage_39&#45;&gt;stage_40 -->
<g id="edge111" class="edge">
<title>stage_39&#45;&gt;stage_40</title>
<path fill="none" stroke="black" stroke-dasharray="1,5" d="M5724.27,-494.24C5747.1,-490.63 5771.9,-486.71 5795.98,-482.9"/>
<polygon fill="none" stroke="black" points="5796.26,-482.86 5801.56,-477.97 5808.11,-480.99 5802.81,-485.88 5796.26,-482.86"/>
</g>
<!-- stage_39&#45;&gt;stage_50 -->
<g id="edge112" class="edge">
<title>stage_39&#45;&gt;stage_50</title>
<path fill="none" stroke="black" stroke-dasharray="1,5" d="M5640.56,-527.17C5671.7,-583.8 5776.59,-755.13 5922,-787.98"/>
<path fill="none" stroke="black" stroke-dasharray="1,5" d="M5924,-787.98C6175.31,-844.76 6410.89,-535.49 6477.41,-439.02"/>
<polygon fill="none" stroke="black" points="6477.41,-439.02 6477.48,-431.81 6484.17,-429.1 6484.09,-436.31 6477.41,-439.02"/>
</g>
<!-- stage_41&#45;&gt;stage_50 -->
<g id="edge561" class="edge">
<title>stage_41&#45;&gt;stage_50</title>
<path fill="none" stroke="black" stroke-dasharray="1,5" d="M6305.12,-446.24C6331.02,-441.46 6359.53,-436.19 6386.43,-431.22"/>
<polygon fill="none" stroke="black" points="6386.46,-431.22 6391.63,-426.2 6398.26,-429.04 6393.08,-434.06 6386.46,-431.22"/>
</g>
<!-- stage_44&#45;&gt;stage_50 -->
<g id="edge565" class="edge">
<title>stage_44&#45;&gt;stage_50</title>
<path fill="none" stroke="black" stroke-dasharray="1,5" d="M6265.8,-330.03C6312.88,-346.58 6382.76,-371.16 6433.17,-388.89"/>
<polygon fill="none" stroke="black" points="6433.25,-388.92 6440.24,-387.13 6444.57,-392.9 6437.59,-394.68 6433.25,-388.92"/>
</g>
<!-- stage_42 -->
<g id="node49" class="node">
<title>stage_42</title>
<path fill="none" stroke="black" d="M5703,-254.98C5703,-254.98 5557,-254.98 5557,-254.98 5551,-254.98 5545,-248.98 5545,-242.98 5545,-242.98 5545,-230.98 5545,-230.98 5545,-224.98 5551,-218.98 5557,-218.98 5557,-218.98 5703,-218.98 5703,-218.98 5709,-218.98 5715,-224.98 5715,-230.98 5715,-230.98 5715,-242.98 5715,-242.98 5715,-248.98 5709,-254.98 5703,-254.98"/>
<text text-anchor="middle" x="5630" y="-233.28" font-family="Times,serif" font-size="14.00">cratesio&#45;zeroize&#45;1.8.2</text>
</g>
<!-- stage_42&#45;&gt;stage_43 -->
<g id="edge564" class="edge">
<title>stage_42&#45;&gt;stage_43</title>
<path fill="none" stroke="black" stroke-dasharray="1,5" d="M5715.17,-236.98C5730.64,-236.98 5747.23,-236.98 5764.05,-236.98"/>
<polygon fill="none" stroke="black" points="5764.33,-236.98 5770.33,-232.98 5776.33,-236.98 5770.33,-240.98 5764.33,-236.98"/>
</g>
<!-- stage_47&#45;&gt;stage_48 -->
<g id="edge571" class="edge">
<title>stage_47&#45;&gt;stage_48</title>
<path fill="none" stroke="black" stroke-dasharray="1,5" d="M1664.38,-94.1C1690.13,-89.37 1718.4,-84.18 1745.11,-79.27"/>
<polygon fill="none" stroke="black" points="1745.45,-79.21 1750.63,-74.19 1757.25,-77.04 1752.07,-82.06 1745.45,-79.21"/>
</g>
<!-- stage_45 -->
<g id="node51" class="node">
<title>stage_45</title>
<path fill="none" stroke="black" d="M1078,-102.98C1078,-102.98 911,-102.98 911,-102.98 905,-102.98 899,-96.98 899,-90.98 899,-90.98 899,-78.98 899,-78.98 899,-72.98 905,-66.98 911,-66.98 911,-66.98 1078,-66.98 1078,-66.98 1084,-66.98 1090,-72.98 1090,-78.98 1090,-78.98 1090,-90.98 1090,-90.98 1090,-96.98 1084,-102.98 1078,-102.98"/>
<text text-anchor="middle" x="994.5" y="-81.28" font-family="Times,serif" font-size="14.00">cratesio&#45;aws&#45;lc&#45;rs&#45;1.14.1</text>
</g>
<!-- stage_45&#45;&gt;stage_46 -->
<g id="edge568" class="edge">
<title>stage_45&#45;&gt;stage_46</title>
<path fill="none" stroke="black" stroke-dasharray="1,5" d="M1090.2,-93.53C1097.88,-94.23 1105.76,-94.94 1113.76,-95.66"/>
<polygon fill="none" stroke="black" points="1114.02,-95.68 1120.35,-92.24 1125.97,-96.76 1119.63,-100.21 1114.02,-95.68"/>
</g>
<!-- stage_45&#45;&gt;stage_48 -->
<g id="edge569" class="edge">
<title>stage_45&#45;&gt;stage_48</title>
<path fill="none" stroke="black" stroke-dasharray="1,5" d="M1572.5,-58.98C1609.7,-57.29 1649.68,-56.6 1687.54,-56.47"/>
<polygon fill="none" stroke="black" points="1687.75,-56.47 1693.74,-52.45 1699.75,-56.44 1693.75,-60.45 1687.75,-56.47"/>
</g>
<!-- stage_45&#45;&gt;stage_50 -->
<g id="edge570" class="edge">
<title>stage_45&#45;&gt;stage_50</title>
<path fill="none" stroke="black" stroke-dasharray="1,5" d="M1090.13,-80.72C1204.08,-75.59 1401.3,-66.69 1570.5,-58.98"/>
<path fill="none" stroke="black" stroke-dasharray="1,5" d="M1572.5,-58.98C1630.47,-54.93 1642.25,-36.47 1700,-29.98 2079.39,12.62 2179.01,6.89 2559,-29.98 2625.72,-36.46 2640.04,-56.03 2707,-58.98"/>
<path fill="none" stroke="black" stroke-dasharray="1,5" d="M2709,-58.98C2986.83,-68.66 3056.5,-58.98 3334.5,-58.98 3334.5,-58.98 3334.5,-58.98 3607,-58.98 3924.25,-58.98 4003.94,-65.59 4320,-92.98 4380.25,-98.21 4394.53,-109.88 4455,-109.98"/>
<path fill="none" stroke="black" stroke-dasharray="1,5" d="M4457,-109.98C4717.88,-107.45 4783.11,-109.98 5044,-109.98 5044,-109.98 5044,-109.98 5924,-109.98 6158.54,-109.98 6391.37,-310.61 6468.96,-384.28"/>
<polygon fill="none" stroke="black" points="6468.98,-384.3 6476.08,-385.57 6477.64,-392.61 6470.54,-391.34 6468.98,-384.3"/>
</g>
<!-- stage_49&#45;&gt;stage_50 -->
<g id="edge573" class="edge">
<title>stage_49&#45;&gt;stage_50</title>
<path fill="none" stroke="black" stroke-dasharray="1,5" d="M2505.15,-56.93C2562.89,-56.13 2639.39,-56 2707,-58.98"/>
</g>
<!-- stage_52 -->
<g id="node54" class="node">
<title>stage_52</title>
<path fill="#e5e5e5" stroke="black" d="M491.5,-890.98C491.5,-890.98 371.5,-890.98 371.5,-890.98 365.5,-890.98 359.5,-884.98 359.5,-878.98 359.5,-878.98 359.5,-866.98 359.5,-866.98 359.5,-860.98 365.5,-854.98 371.5,-854.98 371.5,-854.98 491.5,-854.98 491.5,-854.98 497.5,-854.98 503.5,-860.98 503.5,-866.98 503.5,-866.98 503.5,-878.98 503.5,-878.98 503.5,-884.98 497.5,-890.98 491.5,-890.98"/>
<text text-anchor="middle" x="431.5" y="-869.28" font-family="Times,serif" font-size="14.00">52</text>
</g>
</g>
</svg>
