<?xml version="1.0" encoding="UTF-8" standalone="no"?>
<!DOCTYPE svg PUBLIC "-//W3C//DTD SVG 1.1//EN"
 "http://www.w3.org/Graphics/SVG/1.1/DTD/svg11.dtd">
<!-- Generated by graphviz version 2.43.0 (0)
 -->
<!-- Title: G Pages: 1 -->
<svg width="5952pt" height="549pt"
 viewBox="0.00 0.00 5952.00 549.20" xmlns="http://www.w3.org/2000/svg" xmlns:xlink="http://www.w3.org/1999/xlink">
<g id="graph0" class="graph" transform="scale(1 1) rotate(0) translate(4 545.2)">
<title>G</title>
<polygon fill="white" stroke="transparent" points="-4,4 -4,-545.2 5948,-545.2 5948,4 -4,4"/>
<!-- external_image_0 -->
<g id="node1" class="node">
<title>external_image_0</title>
<path fill="none" stroke="#333333" stroke-dasharray="5,2" d="M828,-380C828,-380 12,-380 12,-380 6,-380 0,-374 0,-368 0,-368 0,-356 0,-356 0,-350 6,-344 12,-344 12,-344 828,-344 828,-344 834,-344 840,-350 840,-356 840,-356 840,-368 840,-368 840,-374 834,-380 828,-380"/>
<text text-anchor="middle" x="420" y="-358.3" font-family="Times,serif" font-size="14.00" fill="#333333">docker.io/tonistiigi/xx:1.6.1@sha256:923441d7c25f1e2eb5789f82d987693c47b8ed987c4ab3b075d6ed2b5d6779a3</text>
</g>
<!-- stage_0 -->
<g id="node2" class="node">
<title>stage_0</title>
<path fill="none" stroke="black" d="M1367.5,-380C1367.5,-380 1247.5,-380 1247.5,-380 1241.5,-380 1235.5,-374 1235.5,-368 1235.5,-368 1235.5,-356 1235.5,-356 1235.5,-350 1241.5,-344 1247.5,-344 1247.5,-344 1367.5,-344 1367.5,-344 1373.5,-344 1379.5,-350 1379.5,-356 1379.5,-356 1379.5,-368 1379.5,-368 1379.5,-374 1373.5,-380 1367.5,-380"/>
<text text-anchor="middle" x="1307.5" y="-358.3" font-family="Times,serif" font-size="14.00">xx</text>
</g>
<!-- external_image_0&#45;&gt;stage_0 -->
<g id="edge1" class="edge">
<title>external_image_0&#45;&gt;stage_0</title>
<path fill="none" stroke="black" d="M840.09,-362C986.5,-362 1136.37,-362 1225.41,-362"/>
<polygon fill="black" stroke="black" points="1225.44,-365.5 1235.44,-362 1225.44,-358.5 1225.44,-365.5"/>
</g>
<!-- stage_1 -->
<g id="node3" class="node">
<title>stage_1</title>
<path fill="none" stroke="black" d="M1935.5,-351C1935.5,-351 1815.5,-351 1815.5,-351 1809.5,-351 1803.5,-345 1803.5,-339 1803.5,-339 1803.5,-327 1803.5,-327 1803.5,-321 1809.5,-315 1815.5,-315 1815.5,-315 1935.5,-315 1935.5,-315 1941.5,-315 1947.5,-321 1947.5,-327 1947.5,-327 1947.5,-339 1947.5,-339 1947.5,-345 1941.5,-351 1935.5,-351"/>
<text text-anchor="middle" x="1875.5" y="-329.3" font-family="Times,serif" font-size="14.00">rust&#45;base</text>
</g>
<!-- stage_0&#45;&gt;stage_1 -->
<g id="edge2" class="edge">
<title>stage_0&#45;&gt;stage_1</title>
<path fill="none" stroke="black" stroke-dasharray="1,5" d="M1379.61,-358.36C1484.35,-352.99 1679.7,-342.98 1791.07,-337.27"/>
<polygon fill="none" stroke="black" points="1791.25,-337.27 1797.04,-332.96 1803.23,-336.65 1797.45,-340.95 1791.25,-337.27"/>
</g>
<!-- stage_3 -->
<g id="node5" class="node">
<title>stage_3</title>
<path fill="none" stroke="black" d="M2304.5,-403C2304.5,-403 2044.5,-403 2044.5,-403 2038.5,-403 2032.5,-397 2032.5,-391 2032.5,-391 2032.5,-379 2032.5,-379 2032.5,-373 2038.5,-367 2044.5,-367 2044.5,-367 2304.5,-367 2304.5,-367 2310.5,-367 2316.5,-373 2316.5,-379 2316.5,-379 2316.5,-391 2316.5,-391 2316.5,-397 2310.5,-403 2304.5,-403"/>
<text text-anchor="middle" x="2174.5" y="-381.3" font-family="Times,serif" font-size="14.00">dep&#45;x&#45;libc&#45;0.2.177&#45;f44500b11cabc82b</text>
</g>
<!-- stage_1&#45;&gt;stage_3 -->
<g id="edge16" class="edge">
<title>stage_1&#45;&gt;stage_3</title>
<path fill="none" stroke="black" d="M1947.64,-345.46C1981.43,-351.37 2022.64,-358.59 2060.55,-365.23"/>
<polygon fill="black" stroke="black" points="2060.18,-368.71 2070.63,-366.99 2061.39,-361.82 2060.18,-368.71"/>
</g>
<!-- stage_5 -->
<g id="node6" class="node">
<title>stage_5</title>
<path fill="none" stroke="black" d="M2861,-452C2861,-452 2602,-452 2602,-452 2596,-452 2590,-446 2590,-440 2590,-440 2590,-428 2590,-428 2590,-422 2596,-416 2602,-416 2602,-416 2861,-416 2861,-416 2867,-416 2873,-422 2873,-428 2873,-428 2873,-440 2873,-440 2873,-446 2867,-452 2861,-452"/>
<text text-anchor="middle" x="2731.5" y="-430.3" font-family="Times,serif" font-size="14.00">run&#45;z&#45;libc&#45;0.2.177&#45;9e78d29fd25cc260</text>
</g>
<!-- stage_1&#45;&gt;stage_5 -->
<g id="edge17" class="edge">
<title>stage_1&#45;&gt;stage_5</title>
<path fill="none" stroke="black" d="M1900.53,-351.26C1926.56,-370.07 1970.01,-398.74 2012,-414 2202.56,-483.27 2259.97,-495.8 2462.5,-486"/>
<path fill="none" stroke="black" d="M2464.5,-486C2499.17,-486.41 2582.07,-469.12 2646.18,-454.37"/>
<polygon fill="black" stroke="black" points="2647.35,-457.69 2656.3,-452.02 2645.77,-450.87 2647.35,-457.69"/>
</g>
<!-- stage_7 -->
<g id="node7" class="node">
<title>stage_7</title>
<path fill="none" stroke="black" d="M3403,-498C3403,-498 3143,-498 3143,-498 3137,-498 3131,-492 3131,-486 3131,-486 3131,-474 3131,-474 3131,-468 3137,-462 3143,-462 3143,-462 3403,-462 3403,-462 3409,-462 3415,-468 3415,-474 3415,-474 3415,-486 3415,-486 3415,-492 3409,-498 3403,-498"/>
<text text-anchor="middle" x="3273" y="-476.3" font-family="Times,serif" font-size="14.00">dep&#45;n&#45;libc&#45;0.2.177&#45;7c07a5de53f9ca73</text>
</g>
<!-- stage_1&#45;&gt;stage_7 -->
<g id="edge18" class="edge">
<title>stage_1&#45;&gt;stage_7</title>
<path fill="none" stroke="black" d="M2175.5,-333C2264.03,-332.54 2284.88,-350.4 2373,-359 2533.01,-374.61 2950.29,-334.95 3095,-405 3116.53,-415.42 3110.49,-432.69 3131,-445 3139.77,-450.26 3149.29,-454.74 3159.12,-458.54"/>
<polygon fill="black" stroke="black" points="3158.02,-461.86 3168.62,-461.98 3160.41,-455.28 3158.02,-461.86"/>
</g>
<!-- stage_10 -->
<g id="node8" class="node">
<title>stage_10</title>
<path fill="none" stroke="black" d="M3988,-394C3988,-394 3694,-394 3694,-394 3688,-394 3682,-388 3682,-382 3682,-382 3682,-370 3682,-370 3682,-364 3688,-358 3694,-358 3694,-358 3988,-358 3988,-358 3994,-358 4000,-364 4000,-370 4000,-370 4000,-382 4000,-382 4000,-388 3994,-394 3988,-394"/>
<text text-anchor="middle" x="3841" y="-372.3" font-family="Times,serif" font-size="14.00">dep&#45;n&#45;jobserver&#45;0.1.32&#45;c38201ea5aaf036b</text>
</g>
<!-- stage_1&#45;&gt;stage_10 -->
<g id="edge19" class="edge">
<title>stage_1&#45;&gt;stage_10</title>
<path fill="none" stroke="black" d="M3549.5,-278C3643.09,-277.68 3745.16,-324.03 3799.91,-353.09"/>
<polygon fill="black" stroke="black" points="3798.46,-356.29 3808.92,-357.95 3801.78,-350.12 3798.46,-356.29"/>
</g>
<!-- stage_13 -->
<g id="node9" class="node">
<title>stage_13</title>
<path fill="none" stroke="black" d="M3969.5,-192C3969.5,-192 3712.5,-192 3712.5,-192 3706.5,-192 3700.5,-186 3700.5,-180 3700.5,-180 3700.5,-168 3700.5,-168 3700.5,-162 3706.5,-156 3712.5,-156 3712.5,-156 3969.5,-156 3969.5,-156 3975.5,-156 3981.5,-162 3981.5,-168 3981.5,-168 3981.5,-180 3981.5,-180 3981.5,-186 3975.5,-192 3969.5,-192"/>
<text text-anchor="middle" x="3841" y="-170.3" font-family="Times,serif" font-size="14.00">dep&#45;n&#45;shlex&#45;1.3.0&#45;233a33be1b0ad40f</text>
</g>
<!-- stage_1&#45;&gt;stage_13 -->
<g id="edge20" class="edge">
<title>stage_1&#45;&gt;stage_13</title>
<path fill="none" stroke="black" d="M1947.62,-333.93C2007.8,-334.5 2096.31,-334.8 2173.5,-333"/>
<path fill="none" stroke="black" d="M2175.5,-333C2264.4,-330.92 2284.64,-310.98 2373,-301 2531.21,-283.14 2571.28,-278 2730.5,-278 2730.5,-278 2730.5,-278 3003,-278 3245,-278 3305.5,-278.83 3547.5,-278"/>
<path fill="none" stroke="black" d="M3549.5,-278C3644.7,-277.67 3747.72,-227.68 3801.83,-197.14"/>
<polygon fill="black" stroke="black" points="3803.78,-200.05 3810.72,-192.04 3800.3,-193.98 3803.78,-200.05"/>
</g>
<!-- stage_16 -->
<g id="node10" class="node">
<title>stage_16</title>
<path fill="none" stroke="black" d="M4508,-290C4508,-290 4266,-290 4266,-290 4260,-290 4254,-284 4254,-278 4254,-278 4254,-266 4254,-266 4254,-260 4260,-254 4266,-254 4266,-254 4508,-254 4508,-254 4514,-254 4520,-260 4520,-266 4520,-266 4520,-278 4520,-278 4520,-284 4514,-290 4508,-290"/>
<text text-anchor="middle" x="4387" y="-268.3" font-family="Times,serif" font-size="14.00">dep&#45;n&#45;cc&#45;1.2.16&#45;17f5223430ef1398</text>
</g>
<!-- stage_1&#45;&gt;stage_16 -->
<g id="edge21" class="edge">
<title>stage_1&#45;&gt;stage_16</title>
<path fill="none" stroke="black" d="M3842,-278C3977.92,-265.74 4133.71,-265.41 4243.64,-267.45"/>
<polygon fill="black" stroke="black" points="4243.73,-270.95 4253.8,-267.64 4243.86,-263.95 4243.73,-270.95"/>
</g>
<!-- stage_19 -->
<g id="node11" class="node">
<title>stage_19</title>
<path fill="none" stroke="black" d="M2325,-255C2325,-255 2024,-255 2024,-255 2018,-255 2012,-249 2012,-243 2012,-243 2012,-231 2012,-231 2012,-225 2018,-219 2024,-219 2024,-219 2325,-219 2325,-219 2331,-219 2337,-225 2337,-231 2337,-231 2337,-243 2337,-243 2337,-249 2331,-255 2325,-255"/>
<text text-anchor="middle" x="2174.5" y="-233.3" font-family="Times,serif" font-size="14.00">dep&#45;n&#45;pkg&#45;config&#45;0.3.28&#45;1ab6ce00f36e8644</text>
</g>
<!-- stage_1&#45;&gt;stage_19 -->
<g id="edge22" class="edge">
<title>stage_1&#45;&gt;stage_19</title>
<path fill="none" stroke="black" d="M1932.36,-314.94C1982.27,-298.81 2055.42,-275.17 2108.06,-258.15"/>
<polygon fill="black" stroke="black" points="2109.2,-261.46 2117.64,-255.06 2107.04,-254.8 2109.2,-261.46"/>
</g>
<!-- stage_22 -->
<g id="node12" class="node">
<title>stage_22</title>
<path fill="none" stroke="black" d="M2312,-148C2312,-148 2037,-148 2037,-148 2031,-148 2025,-142 2025,-136 2025,-136 2025,-124 2025,-124 2025,-118 2031,-112 2037,-112 2037,-112 2312,-112 2312,-112 2318,-112 2324,-118 2324,-124 2324,-124 2324,-136 2324,-136 2324,-142 2318,-148 2312,-148"/>
<text text-anchor="middle" x="2174.5" y="-126.3" font-family="Times,serif" font-size="14.00">dep&#45;n&#45;vcpkg&#45;0.2.15&#45;a3292a77a4476164</text>
</g>
<!-- stage_1&#45;&gt;stage_22 -->
<g id="edge23" class="edge">
<title>stage_1&#45;&gt;stage_22</title>
<path fill="none" stroke="black" d="M1910.96,-314.73C1931.46,-302.73 1957.07,-285.65 1976,-266 1997.05,-244.15 1989.44,-228.29 2012,-208 2039.48,-183.28 2076.21,-164.71 2107.69,-151.91"/>
<polygon fill="black" stroke="black" points="2109.26,-155.05 2117.28,-148.12 2106.69,-148.54 2109.26,-155.05"/>
</g>
<!-- stage_25 -->
<g id="node13" class="node">
<title>stage_25</title>
<path fill="none" stroke="black" d="M5141,-229C5141,-229 4822,-229 4822,-229 4816,-229 4810,-223 4810,-217 4810,-217 4810,-205 4810,-205 4810,-199 4816,-193 4822,-193 4822,-193 5141,-193 5141,-193 5147,-193 5153,-199 5153,-205 5153,-205 5153,-217 5153,-217 5153,-223 5147,-229 5141,-229"/>
<text text-anchor="middle" x="4981.5" y="-207.3" font-family="Times,serif" font-size="14.00">dep&#45;x&#45;openssl&#45;sys&#45;0.9.107&#45;7a431b22b13a863f</text>
</g>
<!-- stage_1&#45;&gt;stage_25 -->
<g id="edge24" class="edge">
<title>stage_1&#45;&gt;stage_25</title>
<path fill="none" stroke="black" d="M3549.5,-278C3678.61,-277.56 3711.52,-290.79 3840,-278"/>
<path fill="none" stroke="black" d="M3842,-278C3934.98,-268.75 3945.04,-218.35 4036,-197 4187.77,-161.37 4231.47,-153.47 4386,-174"/>
</g>
<!-- stage_27 -->
<g id="node14" class="node">
<title>stage_27</title>
<path fill="none" stroke="black" d="M5725,-229C5725,-229 5420,-229 5420,-229 5414,-229 5408,-223 5408,-217 5408,-217 5408,-205 5408,-205 5408,-199 5414,-193 5420,-193 5420,-193 5725,-193 5725,-193 5731,-193 5737,-199 5737,-205 5737,-205 5737,-217 5737,-217 5737,-223 5731,-229 5725,-229"/>
<text text-anchor="middle" x="5572.5" y="-207.3" font-family="Times,serif" font-size="14.00">run&#45;z&#45;openssl&#45;sys&#45;0.9.107&#45;93f4ff9db16fa4e7</text>
</g>
<!-- stage_1&#45;&gt;stage_27 -->
<g id="edge25" class="edge">
<title>stage_1&#45;&gt;stage_27</title>
<path fill="none" stroke="black" d="M2464.5,-486C2823.95,-490.28 2912.53,-532 3272,-532 3272,-532 3272,-532 4982.5,-532 5229.07,-532 5470.68,-312.42 5546.87,-236.48"/>
<polygon fill="black" stroke="black" points="5549.56,-238.74 5554.13,-229.18 5544.6,-233.8 5549.56,-238.74"/>
</g>
<!-- external_image_1 -->
<g id="node4" class="node">
<title>external_image_1</title>
<path fill="none" stroke="#333333" stroke-dasharray="5,2" d="M1727,-322C1727,-322 888,-322 888,-322 882,-322 876,-316 876,-310 876,-310 876,-298 876,-298 876,-292 882,-286 888,-286 888,-286 1727,-286 1727,-286 1733,-286 1739,-292 1739,-298 1739,-298 1739,-310 1739,-310 1739,-316 1733,-322 1727,-322"/>
<text text-anchor="middle" x="1307.5" y="-300.3" font-family="Times,serif" font-size="14.00" fill="#333333">docker.io/library/rust:1.90.0&#45;slim@sha256:7fa728f3678acf5980d5db70960cf8491aff9411976789086676bdf0c19db39e</text>
</g>
<!-- external_image_1&#45;&gt;stage_1 -->
<g id="edge15" class="edge">
<title>external_image_1&#45;&gt;stage_1</title>
<path fill="none" stroke="black" d="M1660.12,-322.02C1709.51,-324.55 1755.93,-326.92 1792.86,-328.82"/>
<polygon fill="black" stroke="black" points="1792.86,-332.32 1803.02,-329.34 1793.21,-325.33 1792.86,-332.32"/>
</g>
<!-- stage_4 -->
<g id="node15" class="node">
<title>stage_4</title>
<path fill="none" stroke="black" d="M2542,-348C2542,-348 2385,-348 2385,-348 2379,-348 2373,-342 2373,-336 2373,-336 2373,-324 2373,-324 2373,-318 2379,-312 2385,-312 2385,-312 2542,-312 2542,-312 2548,-312 2554,-318 2554,-324 2554,-324 2554,-336 2554,-336 2554,-342 2548,-348 2542,-348"/>
<text text-anchor="middle" x="2463.5" y="-326.3" font-family="Times,serif" font-size="14.00">out&#45;f44500b11cabc82b</text>
</g>
<!-- stage_3&#45;&gt;stage_4 -->
<g id="edge26" class="edge">
<title>stage_3&#45;&gt;stage_4</title>
<path fill="none" stroke="black" stroke-dasharray="5,2" d="M2269.47,-366.99C2299.29,-361.28 2332.36,-354.94 2362.58,-349.15"/>
<polygon fill="none" stroke="black" points="2363.54,-352.53 2372.71,-347.21 2362.23,-345.65 2363.54,-352.53"/>
</g>
<!-- stage_6 -->
<g id="node17" class="node">
<title>stage_6</title>
<path fill="none" stroke="black" d="M3080.5,-452C3080.5,-452 2923.5,-452 2923.5,-452 2917.5,-452 2911.5,-446 2911.5,-440 2911.5,-440 2911.5,-428 2911.5,-428 2911.5,-422 2917.5,-416 2923.5,-416 2923.5,-416 3080.5,-416 3080.5,-416 3086.5,-416 3092.5,-422 3092.5,-428 3092.5,-428 3092.5,-440 3092.5,-440 3092.5,-446 3086.5,-452 3080.5,-452"/>
<text text-anchor="middle" x="3002" y="-430.3" font-family="Times,serif" font-size="14.00">out&#45;9e78d29fd25cc260</text>
</g>
<!-- stage_5&#45;&gt;stage_6 -->
<g id="edge34" class="edge">
<title>stage_5&#45;&gt;stage_6</title>
<path fill="none" stroke="black" stroke-dasharray="5,2" d="M2873.04,-434C2882.44,-434 2891.81,-434 2900.94,-434"/>
<polygon fill="none" stroke="black" points="2901.15,-437.5 2911.15,-434 2901.15,-430.5 2901.15,-437.5"/>
</g>
<!-- stage_8 -->
<g id="node18" class="node">
<title>stage_8</title>
<path fill="none" stroke="black" d="M3626,-498C3626,-498 3471,-498 3471,-498 3465,-498 3459,-492 3459,-486 3459,-486 3459,-474 3459,-474 3459,-468 3465,-462 3471,-462 3471,-462 3626,-462 3626,-462 3632,-462 3638,-468 3638,-474 3638,-474 3638,-486 3638,-486 3638,-492 3632,-498 3626,-498"/>
<text text-anchor="middle" x="3548.5" y="-476.3" font-family="Times,serif" font-size="14.00">out&#45;7c07a5de53f9ca73</text>
</g>
<!-- stage_7&#45;&gt;stage_8 -->
<g id="edge36" class="edge">
<title>stage_7&#45;&gt;stage_8</title>
<path fill="none" stroke="black" stroke-dasharray="5,2" d="M3415.16,-480C3426.44,-480 3437.68,-480 3448.58,-480"/>
<polygon fill="none" stroke="black" points="3448.91,-483.5 3458.91,-480 3448.91,-476.5 3448.91,-483.5"/>
</g>
<!-- stage_11 -->
<g id="node19" class="node">
<title>stage_11</title>
<path fill="none" stroke="black" d="M4205,-440C4205,-440 4049,-440 4049,-440 4043,-440 4037,-434 4037,-428 4037,-428 4037,-416 4037,-416 4037,-410 4043,-404 4049,-404 4049,-404 4205,-404 4205,-404 4211,-404 4217,-410 4217,-416 4217,-416 4217,-428 4217,-428 4217,-434 4211,-440 4205,-440"/>
<text text-anchor="middle" x="4127" y="-418.3" font-family="Times,serif" font-size="14.00">out&#45;c38201ea5aaf036b</text>
</g>
<!-- stage_10&#45;&gt;stage_11 -->
<g id="edge42" class="edge">
<title>stage_10&#45;&gt;stage_11</title>
<path fill="none" stroke="black" stroke-dasharray="5,2" d="M3953.43,-394.05C3977.63,-397.97 4003.08,-402.09 4026.77,-405.93"/>
<polygon fill="none" stroke="black" points="4026.38,-409.41 4036.81,-407.55 4027.5,-402.5 4026.38,-409.41"/>
</g>
<!-- stage_14 -->
<g id="node21" class="node">
<title>stage_14</title>
<path fill="none" stroke="black" d="M4206,-140C4206,-140 4048,-140 4048,-140 4042,-140 4036,-134 4036,-128 4036,-128 4036,-116 4036,-116 4036,-110 4042,-104 4048,-104 4048,-104 4206,-104 4206,-104 4212,-104 4218,-110 4218,-116 4218,-116 4218,-128 4218,-128 4218,-134 4212,-140 4206,-140"/>
<text text-anchor="middle" x="4127" y="-118.3" font-family="Times,serif" font-size="14.00">out&#45;233a33be1b0ad40f</text>
</g>
<!-- stage_13&#45;&gt;stage_14 -->
<g id="edge47" class="edge">
<title>stage_13&#45;&gt;stage_14</title>
<path fill="none" stroke="black" stroke-dasharray="5,2" d="M3940.53,-155.96C3968.07,-150.92 3998.02,-145.43 4025.66,-140.37"/>
<polygon fill="none" stroke="black" points="4026.53,-143.77 4035.73,-138.53 4025.27,-136.89 4026.53,-143.77"/>
</g>
<!-- stage_17 -->
<g id="node23" class="node">
<title>stage_17</title>
<path fill="none" stroke="black" d="M4743,-278C4743,-278 4587,-278 4587,-278 4581,-278 4575,-272 4575,-266 4575,-266 4575,-254 4575,-254 4575,-248 4581,-242 4587,-242 4587,-242 4743,-242 4743,-242 4749,-242 4755,-248 4755,-254 4755,-254 4755,-266 4755,-266 4755,-272 4749,-278 4743,-278"/>
<text text-anchor="middle" x="4665" y="-256.3" font-family="Times,serif" font-size="14.00">out&#45;17f5223430ef1398</text>
</g>
<!-- stage_16&#45;&gt;stage_17 -->
<g id="edge52" class="edge">
<title>stage_16&#45;&gt;stage_17</title>
<path fill="none" stroke="black" stroke-dasharray="5,2" d="M4520.34,-266.25C4535.15,-265.6 4550.04,-264.95 4564.34,-264.33"/>
<polygon fill="none" stroke="black" points="4564.79,-267.82 4574.63,-263.89 4564.49,-260.82 4564.79,-267.82"/>
</g>
<!-- stage_20 -->
<g id="node25" class="node">
<title>stage_20</title>
<path fill="none" stroke="black" d="M2810,-213C2810,-213 2653,-213 2653,-213 2647,-213 2641,-207 2641,-201 2641,-201 2641,-189 2641,-189 2641,-183 2647,-177 2653,-177 2653,-177 2810,-177 2810,-177 2816,-177 2822,-183 2822,-189 2822,-189 2822,-201 2822,-201 2822,-207 2816,-213 2810,-213"/>
<text text-anchor="middle" x="2731.5" y="-191.3" font-family="Times,serif" font-size="14.00">out&#45;1ab6ce00f36e8644</text>
</g>
<!-- stage_19&#45;&gt;stage_20 -->
<g id="edge55" class="edge">
<title>stage_19&#45;&gt;stage_20</title>
<path fill="none" stroke="black" stroke-dasharray="5,2" d="M2337.15,-224.77C2431.97,-217.59 2548.79,-208.75 2630.39,-202.58"/>
<polygon fill="none" stroke="black" points="2630.95,-206.04 2640.66,-201.8 2630.42,-199.06 2630.95,-206.04"/>
</g>
<!-- stage_23 -->
<g id="node27" class="node">
<title>stage_23</title>
<path fill="none" stroke="black" d="M3083,-36C3083,-36 2921,-36 2921,-36 2915,-36 2909,-30 2909,-24 2909,-24 2909,-12 2909,-12 2909,-6 2915,0 2921,0 2921,0 3083,0 3083,0 3089,0 3095,-6 3095,-12 3095,-12 3095,-24 3095,-24 3095,-30 3089,-36 3083,-36"/>
<text text-anchor="middle" x="3002" y="-14.3" font-family="Times,serif" font-size="14.00">out&#45;a3292a77a4476164</text>
</g>
<!-- stage_22&#45;&gt;stage_23 -->
<g id="edge58" class="edge">
<title>stage_22&#45;&gt;stage_23</title>
<path fill="none" stroke="black" stroke-dasharray="5,2" d="M2308.59,-111.94C2473.2,-89.61 2749.85,-52.07 2898.75,-31.87"/>
<polygon fill="none" stroke="black" points="2899.37,-35.32 2908.81,-30.51 2898.43,-28.38 2899.37,-35.32"/>
</g>
<!-- stage_26 -->
<g id="node29" class="node">
<title>stage_26</title>
<path fill="none" stroke="black" d="M5360,-229C5360,-229 5201,-229 5201,-229 5195,-229 5189,-223 5189,-217 5189,-217 5189,-205 5189,-205 5189,-199 5195,-193 5201,-193 5201,-193 5360,-193 5360,-193 5366,-193 5372,-199 5372,-205 5372,-205 5372,-217 5372,-217 5372,-223 5366,-229 5360,-229"/>
<text text-anchor="middle" x="5280.5" y="-207.3" font-family="Times,serif" font-size="14.00">out&#45;7a431b22b13a863f</text>
</g>
<!-- stage_25&#45;&gt;stage_26 -->
<g id="edge61" class="edge">
<title>stage_25&#45;&gt;stage_26</title>
<path fill="none" stroke="black" stroke-dasharray="5,2" d="M5153.11,-211C5161.85,-211 5170.47,-211 5178.87,-211"/>
<polygon fill="none" stroke="black" points="5178.99,-214.5 5188.99,-211 5178.99,-207.5 5178.99,-214.5"/>
</g>
<!-- stage_28 -->
<g id="node31" class="node">
<title>stage_28</title>
<path fill="none" stroke="black" d="M5932,-229C5932,-229 5785,-229 5785,-229 5779,-229 5773,-223 5773,-217 5773,-217 5773,-205 5773,-205 5773,-199 5779,-193 5785,-193 5785,-193 5932,-193 5932,-193 5938,-193 5944,-199 5944,-205 5944,-205 5944,-217 5944,-217 5944,-223 5938,-229 5932,-229"/>
<text text-anchor="middle" x="5858.5" y="-207.3" font-family="Times,serif" font-size="14.00">out&#45;93f4ff9db16fa4e7</text>
</g>
<!-- stage_27&#45;&gt;stage_28 -->
<g id="edge65" class="edge">
<title>stage_27&#45;&gt;stage_28</title>
<path fill="none" stroke="black" stroke-dasharray="5,2" d="M5737.06,-211C5745.82,-211 5754.48,-211 5762.88,-211"/>
<polygon fill="none" stroke="black" points="5763,-214.5 5773,-211 5763,-207.5 5763,-214.5"/>
</g>
<!-- stage_4&#45;&gt;stage_5 -->
<g id="edge30" class="edge">
<title>stage_4&#45;&gt;stage_5</title>
<path fill="none" stroke="black" stroke-dasharray="1,5" d="M2510.83,-348.12C2555.89,-365.73 2624.46,-392.54 2672.99,-411.51"/>
<polygon fill="none" stroke="black" points="2673.08,-411.55 2680.12,-410.01 2684.25,-415.92 2677.21,-417.46 2673.08,-411.55"/>
</g>
<!-- stage_4&#45;&gt;stage_10 -->
<g id="edge31" class="edge">
<title>stage_4&#45;&gt;stage_10</title>
<path fill="none" stroke="black" stroke-dasharray="1,5" d="M3274,-428C3434.27,-439.3 3619.62,-415.19 3733.32,-396.14"/>
<polygon fill="none" stroke="black" points="3733.63,-396.09 3738.88,-391.14 3745.46,-394.08 3740.22,-399.03 3733.63,-396.09"/>
</g>
<!-- stage_4&#45;&gt;stage_16 -->
<g id="edge32" class="edge">
<title>stage_4&#45;&gt;stage_16</title>
<path fill="none" stroke="black" stroke-dasharray="1,5" d="M2554.08,-326.02C2677.31,-322.47 2905.42,-322.82 3095,-362 3177.22,-378.99 3188.21,-422.76 3272,-428"/>
<path fill="none" stroke="black" stroke-dasharray="1,5" d="M3274,-428C3360.43,-431.67 3366.8,-366.86 3451,-347 3743.16,-278.09 3826.2,-338.95 4126,-324"/>
<path fill="none" stroke="black" stroke-dasharray="1,5" d="M4128,-324C4191.32,-321.4 4261.76,-306.35 4313.02,-293.11"/>
<polygon fill="none" stroke="black" points="4313.03,-293.11 4317.81,-287.71 4324.63,-290.05 4319.85,-295.45 4313.03,-293.11"/>
</g>
<!-- stage_4&#45;&gt;stage_25 -->
<g id="edge33" class="edge">
<title>stage_4&#45;&gt;stage_25</title>
<path fill="none" stroke="black" stroke-dasharray="1,5" d="M4128,-324C4242.57,-319.29 4272.6,-340.98 4386,-324"/>
<path fill="none" stroke="black" stroke-dasharray="1,5" d="M4388,-324C4558.36,-298.49 4606.11,-327.57 4774,-289 4829.48,-276.26 4890.1,-252.04 4931.21,-233.96"/>
<polygon fill="none" stroke="black" points="4931.31,-233.92 4935.16,-227.82 4942.27,-229.03 4938.42,-235.13 4931.31,-233.92"/>
</g>
<!-- stage_2 -->
<g id="node16" class="node">
<title>stage_2</title>
<path fill="none" stroke="black" d="M1944.5,-479C1944.5,-479 1806.5,-479 1806.5,-479 1800.5,-479 1794.5,-473 1794.5,-467 1794.5,-467 1794.5,-455 1794.5,-455 1794.5,-449 1800.5,-443 1806.5,-443 1806.5,-443 1944.5,-443 1944.5,-443 1950.5,-443 1956.5,-449 1956.5,-455 1956.5,-455 1956.5,-467 1956.5,-467 1956.5,-473 1950.5,-479 1944.5,-479"/>
<text text-anchor="middle" x="1875.5" y="-457.3" font-family="Times,serif" font-size="14.00">cratesio&#45;libc&#45;0.2.177</text>
</g>
<!-- stage_2&#45;&gt;stage_3 -->
<g id="edge27" class="edge">
<title>stage_2&#45;&gt;stage_3</title>
<path fill="none" stroke="black" stroke-dasharray="1,5" d="M1946.88,-442.99C1990.19,-431.91 2045.88,-417.66 2091.22,-406.06"/>
<polygon fill="none" stroke="black" points="2091.48,-405.99 2096.3,-400.63 2103.11,-403.01 2098.29,-408.38 2091.48,-405.99"/>
</g>
<!-- stage_2&#45;&gt;stage_5 -->
<g id="edge28" class="edge">
<title>stage_2&#45;&gt;stage_5</title>
<path fill="none" stroke="black" stroke-dasharray="1,5" d="M1925.04,-479.1C1950.56,-487.83 1982.57,-497.57 2012,-503 2209.31,-539.4 2262.68,-550.12 2462.5,-532"/>
<path fill="none" stroke="black" stroke-dasharray="1,5" d="M2464.5,-532C2547.96,-526.03 2637.9,-484.76 2688.89,-457.72"/>
<polygon fill="none" stroke="black" points="2688.9,-457.71 2692.29,-451.34 2699.47,-452.01 2696.08,-458.38 2688.9,-457.71"/>
</g>
<!-- stage_2&#45;&gt;stage_7 -->
<g id="edge29" class="edge">
<title>stage_2&#45;&gt;stage_7</title>
<path fill="none" stroke="black" stroke-dasharray="1,5" d="M2464.5,-532C2692.28,-515.71 2956.38,-499.14 3118.83,-489.22"/>
<polygon fill="none" stroke="black" points="3118.85,-489.21 3124.6,-484.86 3130.83,-488.48 3125.08,-492.84 3118.85,-489.21"/>
</g>
<!-- stage_6&#45;&gt;stage_7 -->
<g id="edge35" class="edge">
<title>stage_6&#45;&gt;stage_7</title>
<path fill="none" stroke="black" stroke-dasharray="1,5" d="M3092.57,-449.32C3112.47,-452.72 3133.85,-456.38 3154.67,-459.94"/>
<polygon fill="none" stroke="black" points="3154.67,-459.94 3161.26,-457.01 3166.5,-461.96 3159.91,-464.89 3154.67,-459.94"/>
</g>
<!-- stage_8&#45;&gt;stage_10 -->
<g id="edge37" class="edge">
<title>stage_8&#45;&gt;stage_10</title>
<path fill="none" stroke="black" stroke-dasharray="1,5" d="M3600.1,-461.88C3649.52,-444.19 3724.83,-417.23 3777.86,-398.25"/>
<polygon fill="none" stroke="black" points="3778.19,-398.13 3782.49,-392.34 3789.49,-394.08 3785.19,-399.87 3778.19,-398.13"/>
</g>
<!-- stage_8&#45;&gt;stage_16 -->
<g id="edge39" class="edge">
<title>stage_8&#45;&gt;stage_16</title>
<path fill="none" stroke="black" stroke-dasharray="1,5" d="M3638.08,-481.81C3695.73,-482.1 3772.49,-480.79 3840,-474"/>
<path fill="none" stroke="black" stroke-dasharray="1,5" d="M3842,-474C3934.97,-464.66 3947.82,-423.89 4036,-393 4115.4,-365.19 4144.89,-382.62 4218,-341 4237.13,-330.11 4234.77,-317.71 4254,-307 4262.86,-302.07 4272.44,-297.81 4282.26,-294.13"/>
<polygon fill="none" stroke="black" points="4282.53,-294.03 4286.88,-288.28 4293.86,-290.08 4289.52,-295.83 4282.53,-294.03"/>
</g>
<!-- stage_8&#45;&gt;stage_25 -->
<g id="edge41" class="edge">
<title>stage_8&#45;&gt;stage_25</title>
<path fill="none" stroke="black" stroke-dasharray="1,5" d="M3842,-474C4008.54,-456.83 4060.97,-509.07 4218,-451 4305.79,-418.54 4293.51,-338.35 4386,-324"/>
</g>
<!-- stage_11&#45;&gt;stage_16 -->
<g id="edge44" class="edge">
<title>stage_11&#45;&gt;stage_16</title>
<path fill="none" stroke="black" stroke-dasharray="1,5" d="M4193.12,-403.82C4202.18,-399.34 4210.83,-393.81 4218,-387 4246.28,-360.16 4224.27,-332.22 4254,-307 4259.08,-302.69 4264.65,-298.9 4270.52,-295.57"/>
<polygon fill="none" stroke="black" points="4270.68,-295.49 4274.22,-289.21 4281.38,-290.07 4277.84,-296.35 4270.68,-295.49"/>
</g>
<!-- stage_11&#45;&gt;stage_25 -->
<g id="edge46" class="edge">
<title>stage_11&#45;&gt;stage_25</title>
<path fill="none" stroke="black" stroke-dasharray="1,5" d="M4172.58,-403.91C4240.47,-376.53 4364.22,-327.38 4386,-324"/>
</g>
<!-- stage_9 -->
<g id="node20" class="node">
<title>stage_9</title>
<path fill="none" stroke="black" d="M3634,-394C3634,-394 3463,-394 3463,-394 3457,-394 3451,-388 3451,-382 3451,-382 3451,-370 3451,-370 3451,-364 3457,-358 3463,-358 3463,-358 3634,-358 3634,-358 3640,-358 3646,-364 3646,-370 3646,-370 3646,-382 3646,-382 3646,-388 3640,-394 3634,-394"/>
<text text-anchor="middle" x="3548.5" y="-372.3" font-family="Times,serif" font-size="14.00">cratesio&#45;jobserver&#45;0.1.32</text>
</g>
<!-- stage_9&#45;&gt;stage_10 -->
<g id="edge43" class="edge">
<title>stage_9&#45;&gt;stage_10</title>
<path fill="none" stroke="black" stroke-dasharray="1,5" d="M3646.23,-376C3653.9,-376 3661.78,-376 3669.76,-376"/>
<polygon fill="none" stroke="black" points="3669.94,-376 3675.94,-372 3681.94,-376 3675.94,-380 3669.94,-376"/>
</g>
<!-- stage_14&#45;&gt;stage_16 -->
<g id="edge49" class="edge">
<title>stage_14&#45;&gt;stage_16</title>
<path fill="none" stroke="black" stroke-dasharray="1,5" d="M4159.12,-140.09C4205.42,-167.01 4292.51,-217.65 4344.28,-247.75"/>
<polygon fill="none" stroke="black" points="4344.39,-247.81 4351.59,-247.37 4354.77,-253.84 4347.57,-254.28 4344.39,-247.81"/>
</g>
<!-- stage_14&#45;&gt;stage_25 -->
<g id="edge51" class="edge">
<title>stage_14&#45;&gt;stage_25</title>
<path fill="none" stroke="black" stroke-dasharray="1,5" d="M4197.78,-140.01C4249.37,-152.36 4321.55,-167.62 4386,-174"/>
</g>
<!-- stage_12 -->
<g id="node22" class="node">
<title>stage_12</title>
<path fill="none" stroke="black" d="M3614,-192C3614,-192 3483,-192 3483,-192 3477,-192 3471,-186 3471,-180 3471,-180 3471,-168 3471,-168 3471,-162 3477,-156 3483,-156 3483,-156 3614,-156 3614,-156 3620,-156 3626,-162 3626,-168 3626,-168 3626,-180 3626,-180 3626,-186 3620,-192 3614,-192"/>
<text text-anchor="middle" x="3548.5" y="-170.3" font-family="Times,serif" font-size="14.00">cratesio&#45;shlex&#45;1.3.0</text>
</g>
<!-- stage_12&#45;&gt;stage_13 -->
<g id="edge48" class="edge">
<title>stage_12&#45;&gt;stage_13</title>
<path fill="none" stroke="black" stroke-dasharray="1,5" d="M3626.21,-174C3645.41,-174 3666.68,-174 3688.15,-174"/>
<polygon fill="none" stroke="black" points="3688.43,-174 3694.43,-170 3700.43,-174 3694.43,-178 3688.43,-174"/>
</g>
<!-- stage_17&#45;&gt;stage_25 -->
<g id="edge54" class="edge">
<title>stage_17&#45;&gt;stage_25</title>
<path fill="none" stroke="black" stroke-dasharray="1,5" d="M4755.28,-246.09C4785.61,-241.36 4820.11,-235.99 4852.84,-230.89"/>
<polygon fill="none" stroke="black" points="4852.95,-230.87 4858.26,-226 4864.8,-229.03 4859.49,-233.9 4852.95,-230.87"/>
</g>
<!-- stage_15 -->
<g id="node24" class="node">
<title>stage_15</title>
<path fill="none" stroke="black" d="M4187,-244C4187,-244 4067,-244 4067,-244 4061,-244 4055,-238 4055,-232 4055,-232 4055,-220 4055,-220 4055,-214 4061,-208 4067,-208 4067,-208 4187,-208 4187,-208 4193,-208 4199,-214 4199,-220 4199,-220 4199,-232 4199,-232 4199,-238 4193,-244 4187,-244"/>
<text text-anchor="middle" x="4127" y="-222.3" font-family="Times,serif" font-size="14.00">cratesio&#45;cc&#45;1.2.16</text>
</g>
<!-- stage_15&#45;&gt;stage_16 -->
<g id="edge53" class="edge">
<title>stage_15&#45;&gt;stage_16</title>
<path fill="none" stroke="black" stroke-dasharray="1,5" d="M4199.18,-238.69C4221.87,-242.74 4247.57,-247.32 4272.48,-251.76"/>
<polygon fill="none" stroke="black" points="4272.82,-251.82 4279.43,-248.94 4284.63,-253.93 4278.02,-256.81 4272.82,-251.82"/>
</g>
<!-- stage_20&#45;&gt;stage_25 -->
<g id="edge57" class="edge">
<title>stage_20&#45;&gt;stage_25</title>
<path fill="none" stroke="black" stroke-dasharray="1,5" d="M2775.11,-176.86C2865.29,-140.32 3082.77,-61.98 3272,-70"/>
</g>
<!-- stage_18 -->
<g id="node26" class="node">
<title>stage_18</title>
<path fill="none" stroke="black" d="M1964,-255C1964,-255 1787,-255 1787,-255 1781,-255 1775,-249 1775,-243 1775,-243 1775,-231 1775,-231 1775,-225 1781,-219 1787,-219 1787,-219 1964,-219 1964,-219 1970,-219 1976,-225 1976,-231 1976,-231 1976,-243 1976,-243 1976,-249 1970,-255 1964,-255"/>
<text text-anchor="middle" x="1875.5" y="-233.3" font-family="Times,serif" font-size="14.00">cratesio&#45;pkg&#45;config&#45;0.3.28</text>
</g>
<!-- stage_18&#45;&gt;stage_19 -->
<g id="edge56" class="edge">
<title>stage_18&#45;&gt;stage_19</title>
<path fill="none" stroke="black" stroke-dasharray="1,5" d="M1976.22,-237C1983.89,-237 1991.75,-237 1999.71,-237"/>
<polygon fill="none" stroke="black" points="1999.86,-237 2005.86,-233 2011.86,-237 2005.86,-241 1999.86,-237"/>
</g>
<!-- stage_23&#45;&gt;stage_25 -->
<g id="edge60" class="edge">
<title>stage_23&#45;&gt;stage_25</title>
<path fill="none" stroke="black" stroke-dasharray="1,5" d="M3068.14,-36.02C3122.23,-49.67 3201.45,-66.62 3272,-70"/>
<path fill="none" stroke="black" stroke-dasharray="1,5" d="M3274,-70C3693.2,-90.06 3810.03,5.46 4218,-93 4298.58,-112.45 4303.51,-165.83 4386,-174"/>
<path fill="none" stroke="black" stroke-dasharray="1,5" d="M4388,-174C4525,-186.97 4680.28,-196.47 4797.49,-202.6"/>
<polygon fill="none" stroke="black" points="4797.81,-202.62 4804.01,-198.93 4809.79,-203.24 4803.59,-206.92 4797.81,-202.62"/>
</g>
<!-- stage_21 -->
<g id="node28" class="node">
<title>stage_21</title>
<path fill="none" stroke="black" d="M1948.5,-148C1948.5,-148 1802.5,-148 1802.5,-148 1796.5,-148 1790.5,-142 1790.5,-136 1790.5,-136 1790.5,-124 1790.5,-124 1790.5,-118 1796.5,-112 1802.5,-112 1802.5,-112 1948.5,-112 1948.5,-112 1954.5,-112 1960.5,-118 1960.5,-124 1960.5,-124 1960.5,-136 1960.5,-136 1960.5,-142 1954.5,-148 1948.5,-148"/>
<text text-anchor="middle" x="1875.5" y="-126.3" font-family="Times,serif" font-size="14.00">cratesio&#45;vcpkg&#45;0.2.15</text>
</g>
<!-- stage_21&#45;&gt;stage_22 -->
<g id="edge59" class="edge">
<title>stage_21&#45;&gt;stage_22</title>
<path fill="none" stroke="black" stroke-dasharray="1,5" d="M1960.81,-130C1977.2,-130 1994.87,-130 2012.78,-130"/>
<polygon fill="none" stroke="black" points="2012.88,-130 2018.88,-126 2024.88,-130 2018.88,-134 2012.88,-130"/>
</g>
<!-- stage_26&#45;&gt;stage_27 -->
<g id="edge64" class="edge">
<title>stage_26&#45;&gt;stage_27</title>
<path fill="none" stroke="black" stroke-dasharray="1,5" d="M5372.06,-211C5379.83,-211 5387.83,-211 5395.97,-211"/>
<polygon fill="none" stroke="black" points="5395.97,-211 5401.97,-207 5407.97,-211 5401.97,-215 5395.97,-211"/>
</g>
<!-- stage_24 -->
<g id="node30" class="node">
<title>stage_24</title>
<path fill="none" stroke="black" d="M4762,-140C4762,-140 4568,-140 4568,-140 4562,-140 4556,-134 4556,-128 4556,-128 4556,-116 4556,-116 4556,-110 4562,-104 4568,-104 4568,-104 4762,-104 4762,-104 4768,-104 4774,-110 4774,-116 4774,-116 4774,-128 4774,-128 4774,-134 4768,-140 4762,-140"/>
<text text-anchor="middle" x="4665" y="-118.3" font-family="Times,serif" font-size="14.00">cratesio&#45;openssl&#45;sys&#45;0.9.107</text>
</g>
<!-- stage_24&#45;&gt;stage_25 -->
<g id="edge62" class="edge">
<title>stage_24&#45;&gt;stage_25</title>
<path fill="none" stroke="black" stroke-dasharray="1,5" d="M4729.64,-140.01C4780.29,-154.34 4851.3,-174.44 4904.85,-189.59"/>
<polygon fill="none" stroke="black" points="4905.14,-189.67 4912,-187.46 4916.68,-192.94 4909.82,-195.16 4905.14,-189.67"/>
</g>
<!-- stage_24&#45;&gt;stage_27 -->
<g id="edge63" class="edge">
<title>stage_24&#45;&gt;stage_27</title>
<path fill="none" stroke="black" stroke-dasharray="1,5" d="M4774.15,-129.18C4912.85,-138.85 5160.74,-157.69 5372,-182 5395.2,-184.67 5419.86,-187.92 5443.64,-191.26"/>
<polygon fill="none" stroke="black" points="5443.73,-191.27 5450.23,-188.16 5455.61,-192.96 5449.11,-196.08 5443.73,-191.27"/>
</g>
<!-- stage_29 -->
<g id="node32" class="node">
<title>stage_29</title>
<path fill="#e5e5e5" stroke="black" d="M480,-438C480,-438 360,-438 360,-438 354,-438 348,-432 348,-426 348,-426 348,-414 348,-414 348,-408 354,-402 360,-402 360,-402 480,-402 480,-402 486,-402 492,-408 492,-414 492,-414 492,-426 492,-426 492,-432 486,-438 480,-438"/>
<text text-anchor="middle" x="420" y="-416.3" font-family="Times,serif" font-size="14.00">29</text>
</g>
</g>
</svg>
