<?xml version="1.0" encoding="UTF-8" standalone="no"?>
<!DOCTYPE svg PUBLIC "-//W3C//DTD SVG 1.1//EN"
 "http://www.w3.org/Graphics/SVG/1.1/DTD/svg11.dtd">
<!-- Generated by graphviz version 2.43.0 (0)
 -->
<!-- Title: G Pages: 1 -->
<svg width="5218pt" height="967pt"
 viewBox="0.00 0.00 5218.00 967.37" xmlns="http://www.w3.org/2000/svg" xmlns:xlink="http://www.w3.org/1999/xlink">
<g id="graph0" class="graph" transform="scale(1 1) rotate(0) translate(4 963.37)">
<title>G</title>
<polygon fill="white" stroke="transparent" points="-4,4 -4,-963.37 5214,-963.37 5214,4 -4,4"/>
<!-- external_image_0 -->
<g id="node1" class="node">
<title>external_image_0</title>
<path fill="none" stroke="#333333" stroke-dasharray="5,2" d="M851,-678.29C851,-678.29 12,-678.29 12,-678.29 6,-678.29 0,-672.29 0,-666.29 0,-666.29 0,-654.29 0,-654.29 0,-648.29 6,-642.29 12,-642.29 12,-642.29 851,-642.29 851,-642.29 857,-642.29 863,-648.29 863,-654.29 863,-654.29 863,-666.29 863,-666.29 863,-672.29 857,-678.29 851,-678.29"/>
<text text-anchor="middle" x="431.5" y="-656.59" font-family="Times,serif" font-size="14.00" fill="#333333">docker.io/library/rust:1.90.0&#45;slim@sha256:7fa728f3678acf5980d5db70960cf8491aff9411976789086676bdf0c19db39e</text>
</g>
<!-- stage_0 -->
<g id="node2" class="node">
<title>stage_0</title>
<path fill="none" stroke="black" d="M1059,-678.29C1059,-678.29 939,-678.29 939,-678.29 933,-678.29 927,-672.29 927,-666.29 927,-666.29 927,-654.29 927,-654.29 927,-648.29 933,-642.29 939,-642.29 939,-642.29 1059,-642.29 1059,-642.29 1065,-642.29 1071,-648.29 1071,-654.29 1071,-654.29 1071,-666.29 1071,-666.29 1071,-672.29 1065,-678.29 1059,-678.29"/>
<text text-anchor="middle" x="999" y="-656.59" font-family="Times,serif" font-size="14.00">rust&#45;base</text>
</g>
<!-- external_image_0&#45;&gt;stage_0 -->
<g id="edge1" class="edge">
<title>external_image_0&#45;&gt;stage_0</title>
<path fill="none" stroke="black" d="M863.27,-660.29C882.46,-660.29 900.38,-660.29 916.49,-660.29"/>
<polygon fill="black" stroke="black" points="916.81,-663.79 926.81,-660.29 916.81,-656.79 916.81,-663.79"/>
</g>
<!-- stage_2 -->
<g id="node3" class="node">
<title>stage_2</title>
<path fill="none" stroke="black" d="M2029,-390.29C2029,-390.29 1766,-390.29 1766,-390.29 1760,-390.29 1754,-384.29 1754,-378.29 1754,-378.29 1754,-366.29 1754,-366.29 1754,-360.29 1760,-354.29 1766,-354.29 1766,-354.29 2029,-354.29 2029,-354.29 2035,-354.29 2041,-360.29 2041,-366.29 2041,-366.29 2041,-378.29 2041,-378.29 2041,-384.29 2035,-390.29 2029,-390.29"/>
<text text-anchor="middle" x="1897.5" y="-368.59" font-family="Times,serif" font-size="14.00">dep&#45;x&#45;libc&#45;0.2.119&#45;369a4ec4428366cd</text>
</g>
<!-- stage_0&#45;&gt;stage_2 -->
<g id="edge2" class="edge">
<title>stage_0&#45;&gt;stage_2</title>
<path fill="none" stroke="black" d="M1599.5,-424.29C1644.84,-406.38 1696.49,-394.62 1743.87,-386.9"/>
<polygon fill="black" stroke="black" points="1744.58,-390.33 1753.91,-385.32 1743.49,-383.42 1744.58,-390.33"/>
</g>
<!-- stage_4 -->
<g id="node4" class="node">
<title>stage_4</title>
<path fill="none" stroke="black" d="M2646,-252.29C2646,-252.29 2386,-252.29 2386,-252.29 2380,-252.29 2374,-246.29 2374,-240.29 2374,-240.29 2374,-228.29 2374,-228.29 2374,-222.29 2380,-216.29 2386,-216.29 2386,-216.29 2646,-216.29 2646,-216.29 2652,-216.29 2658,-222.29 2658,-228.29 2658,-228.29 2658,-240.29 2658,-240.29 2658,-246.29 2652,-252.29 2646,-252.29"/>
<text text-anchor="middle" x="2516" y="-230.59" font-family="Times,serif" font-size="14.00">run&#45;z&#45;libc&#45;0.2.119&#45;fc025781bd6591a1</text>
</g>
<!-- stage_0&#45;&gt;stage_4 -->
<g id="edge3" class="edge">
<title>stage_0&#45;&gt;stage_4</title>
<path fill="none" stroke="black" d="M1898.5,-228.29C2034.71,-228.29 2065.34,-277.81 2201.5,-274.29"/>
<path fill="none" stroke="black" d="M2203.5,-274.29C2270.87,-272.55 2345.8,-263.17 2405.28,-253.93"/>
<polygon fill="black" stroke="black" points="2406.11,-257.34 2415.45,-252.32 2405.02,-250.42 2406.11,-257.34"/>
</g>
<!-- stage_6 -->
<g id="node5" class="node">
<title>stage_6</title>
<path fill="none" stroke="black" d="M3240,-206.29C3240,-206.29 2978,-206.29 2978,-206.29 2972,-206.29 2966,-200.29 2966,-194.29 2966,-194.29 2966,-182.29 2966,-182.29 2966,-176.29 2972,-170.29 2978,-170.29 2978,-170.29 3240,-170.29 3240,-170.29 3246,-170.29 3252,-176.29 3252,-182.29 3252,-182.29 3252,-194.29 3252,-194.29 3252,-200.29 3246,-206.29 3240,-206.29"/>
<text text-anchor="middle" x="3109" y="-184.59" font-family="Times,serif" font-size="14.00">dep&#45;n&#45;libc&#45;0.2.119&#45;e73c4f40c024b251</text>
</g>
<!-- stage_0&#45;&gt;stage_6 -->
<g id="edge4" class="edge">
<title>stage_0&#45;&gt;stage_6</title>
<path fill="none" stroke="black" d="M2203.5,-182.29C2340.34,-161.28 2376.62,-186.59 2515,-182.29"/>
<path fill="none" stroke="black" d="M2517,-182.29C2665.98,-177.66 2836.19,-180.22 2955.55,-183.3"/>
<polygon fill="black" stroke="black" points="2955.77,-186.8 2965.86,-183.57 2955.96,-179.8 2955.77,-186.8"/>
</g>
<!-- stage_9 -->
<g id="node6" class="node">
<title>stage_9</title>
<path fill="none" stroke="black" d="M1434,-730.29C1434,-730.29 1162,-730.29 1162,-730.29 1156,-730.29 1150,-724.29 1150,-718.29 1150,-718.29 1150,-706.29 1150,-706.29 1150,-700.29 1156,-694.29 1162,-694.29 1162,-694.29 1434,-694.29 1434,-694.29 1440,-694.29 1446,-700.29 1446,-706.29 1446,-706.29 1446,-718.29 1446,-718.29 1446,-724.29 1440,-730.29 1434,-730.29"/>
<text text-anchor="middle" x="1298" y="-708.59" font-family="Times,serif" font-size="14.00">dep&#45;n&#45;autocfg&#45;1.1.0&#45;9a44f8dac5d99edb</text>
</g>
<!-- stage_0&#45;&gt;stage_9 -->
<g id="edge5" class="edge">
<title>stage_0&#45;&gt;stage_9</title>
<path fill="none" stroke="black" d="M1071.14,-672.75C1104.93,-678.66 1146.14,-685.88 1184.05,-692.52"/>
<polygon fill="black" stroke="black" points="1183.68,-696 1194.13,-694.28 1184.89,-689.11 1183.68,-696"/>
</g>
<!-- stage_12 -->
<g id="node7" class="node">
<title>stage_12</title>
<path fill="none" stroke="black" d="M2045.5,-494.29C2045.5,-494.29 1749.5,-494.29 1749.5,-494.29 1743.5,-494.29 1737.5,-488.29 1737.5,-482.29 1737.5,-482.29 1737.5,-470.29 1737.5,-470.29 1737.5,-464.29 1743.5,-458.29 1749.5,-458.29 1749.5,-458.29 2045.5,-458.29 2045.5,-458.29 2051.5,-458.29 2057.5,-464.29 2057.5,-470.29 2057.5,-470.29 2057.5,-482.29 2057.5,-482.29 2057.5,-488.29 2051.5,-494.29 2045.5,-494.29"/>
<text text-anchor="middle" x="1897.5" y="-472.59" font-family="Times,serif" font-size="14.00">dep&#45;x&#45;num&#45;traits&#45;0.2.14&#45;c2f282c644df7c3a</text>
</g>
<!-- stage_0&#45;&gt;stage_12 -->
<g id="edge6" class="edge">
<title>stage_0&#45;&gt;stage_12</title>
<path fill="none" stroke="black" d="M1599.5,-424.29C1608.86,-420.59 1714.1,-440.09 1796.68,-456.26"/>
<polygon fill="black" stroke="black" points="1796.15,-459.72 1806.64,-458.21 1797.5,-452.85 1796.15,-459.72"/>
</g>
<!-- stage_14 -->
<g id="node8" class="node">
<title>stage_14</title>
<path fill="none" stroke="black" d="M2665.5,-540.29C2665.5,-540.29 2366.5,-540.29 2366.5,-540.29 2360.5,-540.29 2354.5,-534.29 2354.5,-528.29 2354.5,-528.29 2354.5,-516.29 2354.5,-516.29 2354.5,-510.29 2360.5,-504.29 2366.5,-504.29 2366.5,-504.29 2665.5,-504.29 2665.5,-504.29 2671.5,-504.29 2677.5,-510.29 2677.5,-516.29 2677.5,-516.29 2677.5,-528.29 2677.5,-528.29 2677.5,-534.29 2671.5,-540.29 2665.5,-540.29"/>
<text text-anchor="middle" x="2516" y="-518.59" font-family="Times,serif" font-size="14.00">run&#45;z&#45;num&#45;traits&#45;0.2.14&#45;571dcfe60d5ab19e</text>
</g>
<!-- stage_0&#45;&gt;stage_14 -->
<g id="edge7" class="edge">
<title>stage_0&#45;&gt;stage_14</title>
<path fill="none" stroke="black" d="M1299,-660.29C1428.49,-631.42 1465.08,-652.2 1597.5,-660.29"/>
<path fill="none" stroke="black" d="M1599.5,-660.29C1665.97,-664.35 1830.05,-624.72 1896.5,-620.29"/>
<path fill="none" stroke="black" d="M1898.5,-620.29C2085.98,-607.81 2302.29,-567.28 2422.38,-542.42"/>
<polygon fill="black" stroke="black" points="2423.2,-545.83 2432.28,-540.37 2421.78,-538.98 2423.2,-545.83"/>
</g>
<!-- stage_16 -->
<g id="node9" class="node">
<title>stage_16</title>
<path fill="none" stroke="black" d="M3262.5,-672.29C3262.5,-672.29 2955.5,-672.29 2955.5,-672.29 2949.5,-672.29 2943.5,-666.29 2943.5,-660.29 2943.5,-660.29 2943.5,-648.29 2943.5,-648.29 2943.5,-642.29 2949.5,-636.29 2955.5,-636.29 2955.5,-636.29 3262.5,-636.29 3262.5,-636.29 3268.5,-636.29 3274.5,-642.29 3274.5,-648.29 3274.5,-648.29 3274.5,-660.29 3274.5,-660.29 3274.5,-666.29 3268.5,-672.29 3262.5,-672.29"/>
<text text-anchor="middle" x="3109" y="-650.59" font-family="Times,serif" font-size="14.00">dep&#45;n&#45;num&#45;traits&#45;0.2.14&#45;20a2202c682e1949</text>
</g>
<!-- stage_0&#45;&gt;stage_16 -->
<g id="edge8" class="edge">
<title>stage_0&#45;&gt;stage_16</title>
<path fill="none" stroke="black" d="M1898.5,-620.29C2304.38,-595.93 2406.19,-644.67 2812.5,-660.29"/>
</g>
<!-- stage_19 -->
<g id="node10" class="node">
<title>stage_19</title>
<path fill="none" stroke="black" d="M2674,-880.29C2674,-880.29 2358,-880.29 2358,-880.29 2352,-880.29 2346,-874.29 2346,-868.29 2346,-868.29 2346,-856.29 2346,-856.29 2346,-850.29 2352,-844.29 2358,-844.29 2358,-844.29 2674,-844.29 2674,-844.29 2680,-844.29 2686,-850.29 2686,-856.29 2686,-856.29 2686,-868.29 2686,-868.29 2686,-874.29 2680,-880.29 2674,-880.29"/>
<text text-anchor="middle" x="2516" y="-858.59" font-family="Times,serif" font-size="14.00">dep&#45;x&#45;num&#45;integer&#45;0.1.44&#45;71dd4213bfc99861</text>
</g>
<!-- stage_0&#45;&gt;stage_19 -->
<g id="edge9" class="edge">
<title>stage_0&#45;&gt;stage_19</title>
<path fill="none" stroke="black" d="M1299,-660.29C1369.98,-644.47 1400.1,-643.55 1461,-683.29 1486.41,-699.87 1473.56,-722.03 1497,-741.29 1584.7,-813.34 1625.93,-803.59 1736,-831.29 1892.11,-870.58 1934.38,-868.6 2095,-879.29 2173.76,-884.53 2260.94,-882.31 2335.37,-878"/>
<polygon fill="black" stroke="black" points="2336.01,-881.46 2345.78,-877.37 2335.59,-874.48 2336.01,-881.46"/>
</g>
<!-- stage_21 -->
<g id="node11" class="node">
<title>stage_21</title>
<path fill="none" stroke="black" d="M3265,-776.29C3265,-776.29 2953,-776.29 2953,-776.29 2947,-776.29 2941,-770.29 2941,-764.29 2941,-764.29 2941,-752.29 2941,-752.29 2941,-746.29 2947,-740.29 2953,-740.29 2953,-740.29 3265,-740.29 3265,-740.29 3271,-740.29 3277,-746.29 3277,-752.29 3277,-752.29 3277,-764.29 3277,-764.29 3277,-770.29 3271,-776.29 3265,-776.29"/>
<text text-anchor="middle" x="3109" y="-754.59" font-family="Times,serif" font-size="14.00">run&#45;z&#45;num&#45;integer&#45;0.1.44&#45;da2e9b6ccb5a1ce7</text>
</g>
<!-- stage_0&#45;&gt;stage_21 -->
<g id="edge10" class="edge">
<title>stage_0&#45;&gt;stage_21</title>
<path fill="none" stroke="black" d="M1599.5,-660.29C1645.24,-663.08 1661.32,-658.72 1700,-683.29 1721.91,-697.21 1713.03,-717.2 1736,-729.29 1827.72,-777.56 2097.86,-758.29 2201.5,-758.29 2201.5,-758.29 2201.5,-758.29 2517,-758.29 2655.95,-758.29 2813.29,-758.29 2930.66,-758.29"/>
<polygon fill="black" stroke="black" points="2930.82,-761.79 2940.82,-758.29 2930.82,-754.79 2930.82,-761.79"/>
</g>
<!-- stage_23 -->
<g id="node12" class="node">
<title>stage_23</title>
<path fill="none" stroke="black" d="M3866,-724.29C3866,-724.29 3546,-724.29 3546,-724.29 3540,-724.29 3534,-718.29 3534,-712.29 3534,-712.29 3534,-700.29 3534,-700.29 3534,-694.29 3540,-688.29 3546,-688.29 3546,-688.29 3866,-688.29 3866,-688.29 3872,-688.29 3878,-694.29 3878,-700.29 3878,-700.29 3878,-712.29 3878,-712.29 3878,-718.29 3872,-724.29 3866,-724.29"/>
<text text-anchor="middle" x="3706" y="-702.59" font-family="Times,serif" font-size="14.00">dep&#45;n&#45;num&#45;integer&#45;0.1.44&#45;c34bc96600b376d1</text>
</g>
<!-- stage_0&#45;&gt;stage_23 -->
<g id="edge11" class="edge">
<title>stage_0&#45;&gt;stage_23</title>
<path fill="none" stroke="black" d="M1599.5,-660.29C1733.31,-667.5 1762.62,-706.48 1896.5,-712.29"/>
<path fill="none" stroke="black" d="M1898.5,-712.29C2304.34,-729.9 2414.23,-632.3 2812.5,-712.29"/>
</g>
<!-- stage_26 -->
<g id="node13" class="node">
<title>stage_26</title>
<path fill="none" stroke="black" d="M3835,-362.29C3835,-362.29 3577,-362.29 3577,-362.29 3571,-362.29 3565,-356.29 3565,-350.29 3565,-350.29 3565,-338.29 3565,-338.29 3565,-332.29 3571,-326.29 3577,-326.29 3577,-326.29 3835,-326.29 3835,-326.29 3841,-326.29 3847,-332.29 3847,-338.29 3847,-338.29 3847,-350.29 3847,-350.29 3847,-356.29 3841,-362.29 3835,-362.29"/>
<text text-anchor="middle" x="3706" y="-340.59" font-family="Times,serif" font-size="14.00">dep&#45;n&#45;time&#45;0.1.43&#45;840f4eb0e43df24b</text>
</g>
<!-- stage_0&#45;&gt;stage_26 -->
<g id="edge12" class="edge">
<title>stage_0&#45;&gt;stage_26</title>
<path fill="none" stroke="black" d="M1299,-660.29C1417.29,-634.64 1397.46,-542.16 1497,-473.29 1537.87,-445.02 1551.28,-442.55 1597.5,-424.29"/>
<path fill="none" stroke="black" d="M1599.5,-424.29C1665.11,-398.37 1667.97,-361.96 1736,-343.29 1986.55,-274.55 2645.61,-346.52 2905,-361.29 2995.39,-366.44 3017.48,-379.94 3108,-378.29"/>
<path fill="none" stroke="black" d="M3110,-378.29C3153.17,-376.7 3393.23,-362.72 3554.92,-353.18"/>
<polygon fill="black" stroke="black" points="3555.2,-356.67 3564.97,-352.59 3554.78,-349.69 3555.2,-356.67"/>
</g>
<!-- stage_29 -->
<g id="node14" class="node">
<title>stage_29</title>
<path fill="none" stroke="black" d="M4426,-362.29C4426,-362.29 4147,-362.29 4147,-362.29 4141,-362.29 4135,-356.29 4135,-350.29 4135,-350.29 4135,-338.29 4135,-338.29 4135,-332.29 4141,-326.29 4147,-326.29 4147,-326.29 4426,-326.29 4426,-326.29 4432,-326.29 4438,-332.29 4438,-338.29 4438,-338.29 4438,-350.29 4438,-350.29 4438,-356.29 4432,-362.29 4426,-362.29"/>
<text text-anchor="middle" x="4286.5" y="-340.59" font-family="Times,serif" font-size="14.00">dep&#45;n&#45;chrono&#45;0.4.19&#45;1a37307f469b6636</text>
</g>
<!-- stage_0&#45;&gt;stage_29 -->
<g id="edge13" class="edge">
<title>stage_0&#45;&gt;stage_29</title>
<path fill="none" stroke="black" d="M1599.5,-424.29C1711.96,-380.29 2566.98,-432.85 2686,-453.29 2744.25,-463.29 2753.67,-488.66 2812.5,-494.29"/>
<path fill="none" stroke="black" d="M2814.5,-494.29C2946.5,-505.88 3883.5,-608.02 4005.5,-556.29"/>
<path fill="none" stroke="black" d="M4007.5,-556.29C4046,-539.67 4062.59,-554.1 4099,-533.29 4172.8,-491.12 4237.04,-411.65 4267.21,-370.49"/>
<polygon fill="black" stroke="black" points="4270.09,-372.47 4273.12,-362.31 4264.42,-368.36 4270.09,-372.47"/>
</g>
<!-- stage_32 -->
<g id="node15" class="node">
<title>stage_32</title>
<path fill="none" stroke="black" d="M1449,-194.29C1449,-194.29 1147,-194.29 1147,-194.29 1141,-194.29 1135,-188.29 1135,-182.29 1135,-182.29 1135,-170.29 1135,-170.29 1135,-164.29 1141,-158.29 1147,-158.29 1147,-158.29 1449,-158.29 1449,-158.29 1455,-158.29 1461,-164.29 1461,-170.29 1461,-170.29 1461,-182.29 1461,-182.29 1461,-188.29 1455,-194.29 1449,-194.29"/>
<text text-anchor="middle" x="1298" y="-172.59" font-family="Times,serif" font-size="14.00">dep&#45;x&#45;rustversion&#45;1.0.6&#45;d92462e168478f14</text>
</g>
<!-- stage_0&#45;&gt;stage_32 -->
<g id="edge14" class="edge">
<title>stage_0&#45;&gt;stage_32</title>
<path fill="none" stroke="black" d="M1011.1,-642.2C1056.31,-568.53 1226.71,-290.84 1280.57,-203.06"/>
<polygon fill="black" stroke="black" points="1283.6,-204.83 1285.84,-194.47 1277.63,-201.16 1283.6,-204.83"/>
</g>
<!-- stage_34 -->
<g id="node16" class="node">
<title>stage_34</title>
<path fill="none" stroke="black" d="M2047,-171.29C2047,-171.29 1748,-171.29 1748,-171.29 1742,-171.29 1736,-165.29 1736,-159.29 1736,-159.29 1736,-147.29 1736,-147.29 1736,-141.29 1742,-135.29 1748,-135.29 1748,-135.29 2047,-135.29 2047,-135.29 2053,-135.29 2059,-141.29 2059,-147.29 2059,-147.29 2059,-159.29 2059,-159.29 2059,-165.29 2053,-171.29 2047,-171.29"/>
<text text-anchor="middle" x="1897.5" y="-149.59" font-family="Times,serif" font-size="14.00">run&#45;z&#45;rustversion&#45;1.0.6&#45;6b607863cf2563b1</text>
</g>
<!-- stage_0&#45;&gt;stage_34 -->
<g id="edge15" class="edge">
<title>stage_0&#45;&gt;stage_34</title>
<path fill="none" stroke="black" d="M1071.16,-668.89C1131.92,-674.21 1221.26,-677.18 1297,-660.29"/>
<path fill="none" stroke="black" d="M1299,-660.29C1478.37,-620.3 1373.87,-433.71 1497,-297.29 1533.3,-257.07 1551.14,-256.33 1597.5,-228.29"/>
<path fill="none" stroke="black" d="M1599.5,-228.29C1638.71,-204.58 1655.51,-216.26 1700,-205.29 1739.93,-195.44 1784.23,-183.78 1820.64,-174"/>
<polygon fill="black" stroke="black" points="1821.95,-177.28 1830.69,-171.3 1820.13,-170.52 1821.95,-177.28"/>
</g>
<!-- stage_36 -->
<g id="node17" class="node">
<title>stage_36</title>
<path fill="none" stroke="black" d="M2667.5,-102.29C2667.5,-102.29 2364.5,-102.29 2364.5,-102.29 2358.5,-102.29 2352.5,-96.29 2352.5,-90.29 2352.5,-90.29 2352.5,-78.29 2352.5,-78.29 2352.5,-72.29 2358.5,-66.29 2364.5,-66.29 2364.5,-66.29 2667.5,-66.29 2667.5,-66.29 2673.5,-66.29 2679.5,-72.29 2679.5,-78.29 2679.5,-78.29 2679.5,-90.29 2679.5,-90.29 2679.5,-96.29 2673.5,-102.29 2667.5,-102.29"/>
<text text-anchor="middle" x="2516" y="-80.59" font-family="Times,serif" font-size="14.00">dep&#45;n&#45;rustversion&#45;1.0.6&#45;4b93a23fd100b539</text>
</g>
<!-- stage_0&#45;&gt;stage_36 -->
<g id="edge16" class="edge">
<title>stage_0&#45;&gt;stage_36</title>
<path fill="none" stroke="black" d="M1599.5,-228.29C1655.98,-194.14 1830.5,-228.29 1896.5,-228.29"/>
<path fill="none" stroke="black" d="M1898.5,-228.29C1986.85,-228.29 2007.65,-211.52 2095,-198.29 2142.32,-191.12 2154.19,-189.56 2201.5,-182.29"/>
<path fill="none" stroke="black" d="M2203.5,-182.29C2251.36,-174.94 2263.48,-172.75 2310,-159.29 2362.41,-144.12 2420.7,-122.3 2461.68,-106.1"/>
<polygon fill="black" stroke="black" points="2463.2,-109.26 2471.2,-102.32 2460.61,-102.76 2463.2,-109.26"/>
</g>
<!-- stage_39 -->
<g id="node18" class="node">
<title>stage_39</title>
<path fill="none" stroke="black" d="M4977,-336.29C4977,-336.29 4706,-336.29 4706,-336.29 4700,-336.29 4694,-330.29 4694,-324.29 4694,-324.29 4694,-312.29 4694,-312.29 4694,-306.29 4700,-300.29 4706,-300.29 4706,-300.29 4977,-300.29 4977,-300.29 4983,-300.29 4989,-306.29 4989,-312.29 4989,-312.29 4989,-324.29 4989,-324.29 4989,-330.29 4983,-336.29 4977,-336.29"/>
<text text-anchor="middle" x="4841.5" y="-314.59" font-family="Times,serif" font-size="14.00">dep&#45;x&#45;vergen&#45;6.0.2&#45;a855d9c2931ba129</text>
</g>
<!-- stage_0&#45;&gt;stage_39 -->
<g id="edge17" class="edge">
<title>stage_0&#45;&gt;stage_39</title>
<path fill="none" stroke="black" d="M1071.2,-674.69C1081.06,-678.48 1090.65,-683.26 1099,-689.29 1121.79,-705.74 1113.47,-723.22 1135,-741.29 1308.32,-886.81 1371.19,-954.29 1597.5,-954.29 1597.5,-954.29 1597.5,-954.29 1898.5,-954.29 2172.5,-954.29 2241.83,-932.97 2515,-954.29"/>
</g>
<!-- stage_3 -->
<g id="node19" class="node">
<title>stage_3</title>
<path fill="none" stroke="black" d="M2282.5,-390.29C2282.5,-390.29 2122.5,-390.29 2122.5,-390.29 2116.5,-390.29 2110.5,-384.29 2110.5,-378.29 2110.5,-378.29 2110.5,-366.29 2110.5,-366.29 2110.5,-360.29 2116.5,-354.29 2122.5,-354.29 2122.5,-354.29 2282.5,-354.29 2282.5,-354.29 2288.5,-354.29 2294.5,-360.29 2294.5,-366.29 2294.5,-366.29 2294.5,-378.29 2294.5,-378.29 2294.5,-384.29 2288.5,-390.29 2282.5,-390.29"/>
<text text-anchor="middle" x="2202.5" y="-368.59" font-family="Times,serif" font-size="14.00">out&#45;369a4ec4428366cd</text>
</g>
<!-- stage_2&#45;&gt;stage_3 -->
<g id="edge18" class="edge">
<title>stage_2&#45;&gt;stage_3</title>
<path fill="none" stroke="black" stroke-dasharray="5,2" d="M2041.13,-372.29C2061.03,-372.29 2081.15,-372.29 2100.08,-372.29"/>
<polygon fill="none" stroke="black" points="2100.17,-375.79 2110.17,-372.29 2100.17,-368.79 2100.17,-375.79"/>
</g>
<!-- stage_5 -->
<g id="node21" class="node">
<title>stage_5</title>
<path fill="none" stroke="black" d="M2892.5,-252.29C2892.5,-252.29 2734.5,-252.29 2734.5,-252.29 2728.5,-252.29 2722.5,-246.29 2722.5,-240.29 2722.5,-240.29 2722.5,-228.29 2722.5,-228.29 2722.5,-222.29 2728.5,-216.29 2734.5,-216.29 2734.5,-216.29 2892.5,-216.29 2892.5,-216.29 2898.5,-216.29 2904.5,-222.29 2904.5,-228.29 2904.5,-228.29 2904.5,-240.29 2904.5,-240.29 2904.5,-246.29 2898.5,-252.29 2892.5,-252.29"/>
<text text-anchor="middle" x="2813.5" y="-230.59" font-family="Times,serif" font-size="14.00">out&#45;fc025781bd6591a1</text>
</g>
<!-- stage_4&#45;&gt;stage_5 -->
<g id="edge26" class="edge">
<title>stage_4&#45;&gt;stage_5</title>
<path fill="none" stroke="black" stroke-dasharray="5,2" d="M2658.26,-234.29C2676.49,-234.29 2694.86,-234.29 2712.24,-234.29"/>
<polygon fill="none" stroke="black" points="2712.36,-237.79 2722.36,-234.29 2712.36,-230.79 2712.36,-237.79"/>
</g>
<!-- stage_7 -->
<g id="node22" class="node">
<title>stage_7</title>
<path fill="none" stroke="black" d="M3484,-310.29C3484,-310.29 3327,-310.29 3327,-310.29 3321,-310.29 3315,-304.29 3315,-298.29 3315,-298.29 3315,-286.29 3315,-286.29 3315,-280.29 3321,-274.29 3327,-274.29 3327,-274.29 3484,-274.29 3484,-274.29 3490,-274.29 3496,-280.29 3496,-286.29 3496,-286.29 3496,-298.29 3496,-298.29 3496,-304.29 3490,-310.29 3484,-310.29"/>
<text text-anchor="middle" x="3405.5" y="-288.59" font-family="Times,serif" font-size="14.00">out&#45;e73c4f40c024b251</text>
</g>
<!-- stage_6&#45;&gt;stage_7 -->
<g id="edge28" class="edge">
<title>stage_6&#45;&gt;stage_7</title>
<path fill="none" stroke="black" stroke-dasharray="5,2" d="M3161.3,-206.41C3212.13,-224.36 3290,-251.85 3343.86,-270.88"/>
<polygon fill="none" stroke="black" points="3342.7,-274.18 3353.3,-274.21 3345.03,-267.58 3342.7,-274.18"/>
</g>
<!-- stage_10 -->
<g id="node23" class="node">
<title>stage_10</title>
<path fill="none" stroke="black" d="M1677,-730.29C1677,-730.29 1520,-730.29 1520,-730.29 1514,-730.29 1508,-724.29 1508,-718.29 1508,-718.29 1508,-706.29 1508,-706.29 1508,-700.29 1514,-694.29 1520,-694.29 1520,-694.29 1677,-694.29 1677,-694.29 1683,-694.29 1689,-700.29 1689,-706.29 1689,-706.29 1689,-718.29 1689,-718.29 1689,-724.29 1683,-730.29 1677,-730.29"/>
<text text-anchor="middle" x="1598.5" y="-708.59" font-family="Times,serif" font-size="14.00">out&#45;9a44f8dac5d99edb</text>
</g>
<!-- stage_9&#45;&gt;stage_10 -->
<g id="edge34" class="edge">
<title>stage_9&#45;&gt;stage_10</title>
<path fill="none" stroke="black" stroke-dasharray="5,2" d="M1446.06,-712.29C1463.49,-712.29 1480.96,-712.29 1497.51,-712.29"/>
<polygon fill="none" stroke="black" points="1497.7,-715.79 1507.7,-712.29 1497.7,-708.79 1497.7,-715.79"/>
</g>
<!-- stage_13 -->
<g id="node25" class="node">
<title>stage_13</title>
<path fill="none" stroke="black" d="M2278.5,-494.29C2278.5,-494.29 2126.5,-494.29 2126.5,-494.29 2120.5,-494.29 2114.5,-488.29 2114.5,-482.29 2114.5,-482.29 2114.5,-470.29 2114.5,-470.29 2114.5,-464.29 2120.5,-458.29 2126.5,-458.29 2126.5,-458.29 2278.5,-458.29 2278.5,-458.29 2284.5,-458.29 2290.5,-464.29 2290.5,-470.29 2290.5,-470.29 2290.5,-482.29 2290.5,-482.29 2290.5,-488.29 2284.5,-494.29 2278.5,-494.29"/>
<text text-anchor="middle" x="2202.5" y="-472.59" font-family="Times,serif" font-size="14.00">out&#45;c2f282c644df7c3a</text>
</g>
<!-- stage_12&#45;&gt;stage_13 -->
<g id="edge43" class="edge">
<title>stage_12&#45;&gt;stage_13</title>
<path fill="none" stroke="black" stroke-dasharray="5,2" d="M2057.54,-476.29C2073.45,-476.29 2089.24,-476.29 2104.22,-476.29"/>
<polygon fill="none" stroke="black" points="2104.45,-479.79 2114.45,-476.29 2104.45,-472.79 2104.45,-479.79"/>
</g>
<!-- stage_15 -->
<g id="node27" class="node">
<title>stage_15</title>
<path fill="none" stroke="black" d="M2892,-620.29C2892,-620.29 2735,-620.29 2735,-620.29 2729,-620.29 2723,-614.29 2723,-608.29 2723,-608.29 2723,-596.29 2723,-596.29 2723,-590.29 2729,-584.29 2735,-584.29 2735,-584.29 2892,-584.29 2892,-584.29 2898,-584.29 2904,-590.29 2904,-596.29 2904,-596.29 2904,-608.29 2904,-608.29 2904,-614.29 2898,-620.29 2892,-620.29"/>
<text text-anchor="middle" x="2813.5" y="-598.59" font-family="Times,serif" font-size="14.00">out&#45;571dcfe60d5ab19e</text>
</g>
<!-- stage_14&#45;&gt;stage_15 -->
<g id="edge51" class="edge">
<title>stage_14&#45;&gt;stage_15</title>
<path fill="none" stroke="black" stroke-dasharray="5,2" d="M2615.85,-540.38C2639.01,-545.28 2663.49,-550.99 2686,-557.29 2709.56,-563.89 2735.07,-572.64 2756.97,-580.67"/>
<polygon fill="none" stroke="black" points="2755.84,-583.99 2766.43,-584.18 2758.27,-577.42 2755.84,-583.99"/>
</g>
<!-- stage_17 -->
<g id="node28" class="node">
<title>stage_17</title>
<path fill="none" stroke="black" d="M3486,-672.29C3486,-672.29 3325,-672.29 3325,-672.29 3319,-672.29 3313,-666.29 3313,-660.29 3313,-660.29 3313,-648.29 3313,-648.29 3313,-642.29 3319,-636.29 3325,-636.29 3325,-636.29 3486,-636.29 3486,-636.29 3492,-636.29 3498,-642.29 3498,-648.29 3498,-648.29 3498,-660.29 3498,-660.29 3498,-666.29 3492,-672.29 3486,-672.29"/>
<text text-anchor="middle" x="3405.5" y="-650.59" font-family="Times,serif" font-size="14.00">out&#45;20a2202c682e1949</text>
</g>
<!-- stage_16&#45;&gt;stage_17 -->
<g id="edge62" class="edge">
<title>stage_16&#45;&gt;stage_17</title>
<path fill="none" stroke="black" stroke-dasharray="5,2" d="M3274.9,-654.29C3284.35,-654.29 3293.71,-654.29 3302.81,-654.29"/>
<polygon fill="none" stroke="black" points="3302.96,-657.79 3312.96,-654.29 3302.96,-650.79 3302.96,-657.79"/>
</g>
<!-- stage_20 -->
<g id="node29" class="node">
<title>stage_20</title>
<path fill="none" stroke="black" d="M2893,-880.29C2893,-880.29 2734,-880.29 2734,-880.29 2728,-880.29 2722,-874.29 2722,-868.29 2722,-868.29 2722,-856.29 2722,-856.29 2722,-850.29 2728,-844.29 2734,-844.29 2734,-844.29 2893,-844.29 2893,-844.29 2899,-844.29 2905,-850.29 2905,-856.29 2905,-856.29 2905,-868.29 2905,-868.29 2905,-874.29 2899,-880.29 2893,-880.29"/>
<text text-anchor="middle" x="2813.5" y="-858.59" font-family="Times,serif" font-size="14.00">out&#45;71dd4213bfc99861</text>
</g>
<!-- stage_19&#45;&gt;stage_20 -->
<g id="edge68" class="edge">
<title>stage_19&#45;&gt;stage_20</title>
<path fill="none" stroke="black" stroke-dasharray="5,2" d="M2686.32,-862.29C2694.94,-862.29 2703.46,-862.29 2711.76,-862.29"/>
<polygon fill="none" stroke="black" points="2711.76,-865.79 2721.76,-862.29 2711.76,-858.79 2711.76,-865.79"/>
</g>
<!-- stage_22 -->
<g id="node31" class="node">
<title>stage_22</title>
<path fill="none" stroke="black" d="M3484,-776.29C3484,-776.29 3327,-776.29 3327,-776.29 3321,-776.29 3315,-770.29 3315,-764.29 3315,-764.29 3315,-752.29 3315,-752.29 3315,-746.29 3321,-740.29 3327,-740.29 3327,-740.29 3484,-740.29 3484,-740.29 3490,-740.29 3496,-746.29 3496,-752.29 3496,-752.29 3496,-764.29 3496,-764.29 3496,-770.29 3490,-776.29 3484,-776.29"/>
<text text-anchor="middle" x="3405.5" y="-754.59" font-family="Times,serif" font-size="14.00">out&#45;da2e9b6ccb5a1ce7</text>
</g>
<!-- stage_21&#45;&gt;stage_22 -->
<g id="edge75" class="edge">
<title>stage_21&#45;&gt;stage_22</title>
<path fill="none" stroke="black" stroke-dasharray="5,2" d="M3277.04,-758.29C3286.47,-758.29 3295.8,-758.29 3304.85,-758.29"/>
<polygon fill="none" stroke="black" points="3304.95,-761.79 3314.95,-758.29 3304.95,-754.79 3304.95,-761.79"/>
</g>
<!-- stage_24 -->
<g id="node32" class="node">
<title>stage_24</title>
<path fill="none" stroke="black" d="M4087,-672.29C4087,-672.29 3926,-672.29 3926,-672.29 3920,-672.29 3914,-666.29 3914,-660.29 3914,-660.29 3914,-648.29 3914,-648.29 3914,-642.29 3920,-636.29 3926,-636.29 3926,-636.29 4087,-636.29 4087,-636.29 4093,-636.29 4099,-642.29 4099,-648.29 4099,-648.29 4099,-660.29 4099,-660.29 4099,-666.29 4093,-672.29 4087,-672.29"/>
<text text-anchor="middle" x="4006.5" y="-650.59" font-family="Times,serif" font-size="14.00">out&#45;c34bc96600b376d1</text>
</g>
<!-- stage_23&#45;&gt;stage_24 -->
<g id="edge77" class="edge">
<title>stage_23&#45;&gt;stage_24</title>
<path fill="none" stroke="black" stroke-dasharray="5,2" d="M3810.56,-688.25C3840.67,-683 3873.52,-677.28 3903.53,-672.05"/>
<polygon fill="none" stroke="black" points="3904.33,-675.47 3913.59,-670.3 3903.13,-668.57 3904.33,-675.47"/>
</g>
<!-- stage_27 -->
<g id="node33" class="node">
<title>stage_27</title>
<path fill="none" stroke="black" d="M4084,-362.29C4084,-362.29 3929,-362.29 3929,-362.29 3923,-362.29 3917,-356.29 3917,-350.29 3917,-350.29 3917,-338.29 3917,-338.29 3917,-332.29 3923,-326.29 3929,-326.29 3929,-326.29 4084,-326.29 4084,-326.29 4090,-326.29 4096,-332.29 4096,-338.29 4096,-338.29 4096,-350.29 4096,-350.29 4096,-356.29 4090,-362.29 4084,-362.29"/>
<text text-anchor="middle" x="4006.5" y="-340.59" font-family="Times,serif" font-size="14.00">out&#45;840f4eb0e43df24b</text>
</g>
<!-- stage_26&#45;&gt;stage_27 -->
<g id="edge81" class="edge">
<title>stage_26&#45;&gt;stage_27</title>
<path fill="none" stroke="black" stroke-dasharray="5,2" d="M3847.07,-344.29C3867.23,-344.29 3887.61,-344.29 3906.74,-344.29"/>
<polygon fill="none" stroke="black" points="3906.93,-347.79 3916.93,-344.29 3906.93,-340.79 3906.93,-347.79"/>
</g>
<!-- stage_30 -->
<g id="node35" class="node">
<title>stage_30</title>
<path fill="none" stroke="black" d="M4646,-362.29C4646,-362.29 4486,-362.29 4486,-362.29 4480,-362.29 4474,-356.29 4474,-350.29 4474,-350.29 4474,-338.29 4474,-338.29 4474,-332.29 4480,-326.29 4486,-326.29 4486,-326.29 4646,-326.29 4646,-326.29 4652,-326.29 4658,-332.29 4658,-338.29 4658,-338.29 4658,-350.29 4658,-350.29 4658,-356.29 4652,-362.29 4646,-362.29"/>
<text text-anchor="middle" x="4566" y="-340.59" font-family="Times,serif" font-size="14.00">out&#45;1a37307f469b6636</text>
</g>
<!-- stage_29&#45;&gt;stage_30 -->
<g id="edge86" class="edge">
<title>stage_29&#45;&gt;stage_30</title>
<path fill="none" stroke="black" stroke-dasharray="5,2" d="M4438.03,-344.29C4446.72,-344.29 4455.36,-344.29 4463.79,-344.29"/>
<polygon fill="none" stroke="black" points="4463.97,-347.79 4473.97,-344.29 4463.97,-340.79 4463.97,-347.79"/>
</g>
<!-- stage_33 -->
<g id="node37" class="node">
<title>stage_33</title>
<path fill="none" stroke="black" d="M1678.5,-194.29C1678.5,-194.29 1518.5,-194.29 1518.5,-194.29 1512.5,-194.29 1506.5,-188.29 1506.5,-182.29 1506.5,-182.29 1506.5,-170.29 1506.5,-170.29 1506.5,-164.29 1512.5,-158.29 1518.5,-158.29 1518.5,-158.29 1678.5,-158.29 1678.5,-158.29 1684.5,-158.29 1690.5,-164.29 1690.5,-170.29 1690.5,-170.29 1690.5,-182.29 1690.5,-182.29 1690.5,-188.29 1684.5,-194.29 1678.5,-194.29"/>
<text text-anchor="middle" x="1598.5" y="-172.59" font-family="Times,serif" font-size="14.00">out&#45;d92462e168478f14</text>
</g>
<!-- stage_32&#45;&gt;stage_33 -->
<g id="edge89" class="edge">
<title>stage_32&#45;&gt;stage_33</title>
<path fill="none" stroke="black" stroke-dasharray="5,2" d="M1461.35,-176.29C1473.18,-176.29 1484.9,-176.29 1496.21,-176.29"/>
<polygon fill="none" stroke="black" points="1496.47,-179.79 1506.47,-176.29 1496.47,-172.79 1496.47,-179.79"/>
</g>
<!-- stage_35 -->
<g id="node39" class="node">
<title>stage_35</title>
<path fill="none" stroke="black" d="M2282,-148.29C2282,-148.29 2123,-148.29 2123,-148.29 2117,-148.29 2111,-142.29 2111,-136.29 2111,-136.29 2111,-124.29 2111,-124.29 2111,-118.29 2117,-112.29 2123,-112.29 2123,-112.29 2282,-112.29 2282,-112.29 2288,-112.29 2294,-118.29 2294,-124.29 2294,-124.29 2294,-136.29 2294,-136.29 2294,-142.29 2288,-148.29 2282,-148.29"/>
<text text-anchor="middle" x="2202.5" y="-126.59" font-family="Times,serif" font-size="14.00">out&#45;6b607863cf2563b1</text>
</g>
<!-- stage_34&#45;&gt;stage_35 -->
<g id="edge95" class="edge">
<title>stage_34&#45;&gt;stage_35</title>
<path fill="none" stroke="black" stroke-dasharray="5,2" d="M2059.32,-141.08C2073.42,-140.01 2087.43,-138.95 2100.83,-137.93"/>
<polygon fill="none" stroke="black" points="2101.24,-141.41 2110.95,-137.16 2100.71,-134.43 2101.24,-141.41"/>
</g>
<!-- stage_37 -->
<g id="node40" class="node">
<title>stage_37</title>
<path fill="none" stroke="black" d="M4366.5,-258.29C4366.5,-258.29 4206.5,-258.29 4206.5,-258.29 4200.5,-258.29 4194.5,-252.29 4194.5,-246.29 4194.5,-246.29 4194.5,-234.29 4194.5,-234.29 4194.5,-228.29 4200.5,-222.29 4206.5,-222.29 4206.5,-222.29 4366.5,-222.29 4366.5,-222.29 4372.5,-222.29 4378.5,-228.29 4378.5,-234.29 4378.5,-234.29 4378.5,-246.29 4378.5,-246.29 4378.5,-252.29 4372.5,-258.29 4366.5,-258.29"/>
<text text-anchor="middle" x="4286.5" y="-236.59" font-family="Times,serif" font-size="14.00">out&#45;4b93a23fd100b539</text>
</g>
<!-- stage_36&#45;&gt;stage_37 -->
<g id="edge98" class="edge">
<title>stage_36&#45;&gt;stage_37</title>
<path fill="none" stroke="black" stroke-dasharray="5,2" d="M2679.73,-86.83C2798.44,-88.47 2963.19,-90.29 3108,-90.29 3108,-90.29 3108,-90.29 3707,-90.29 3908.33,-90.29 4136.81,-176.47 4235.62,-218.18"/>
<polygon fill="none" stroke="black" points="4234.48,-221.5 4245.05,-222.2 4237.22,-215.06 4234.48,-221.5"/>
</g>
<!-- stage_40 -->
<g id="node41" class="node">
<title>stage_40</title>
<path fill="none" stroke="black" d="M5198,-336.29C5198,-336.29 5037,-336.29 5037,-336.29 5031,-336.29 5025,-330.29 5025,-324.29 5025,-324.29 5025,-312.29 5025,-312.29 5025,-306.29 5031,-300.29 5037,-300.29 5037,-300.29 5198,-300.29 5198,-300.29 5204,-300.29 5210,-306.29 5210,-312.29 5210,-312.29 5210,-324.29 5210,-324.29 5210,-330.29 5204,-336.29 5198,-336.29"/>
<text text-anchor="middle" x="5117.5" y="-314.59" font-family="Times,serif" font-size="14.00">out&#45;a855d9c2931ba129</text>
</g>
<!-- stage_39&#45;&gt;stage_40 -->
<g id="edge100" class="edge">
<title>stage_39&#45;&gt;stage_40</title>
<path fill="none" stroke="black" stroke-dasharray="5,2" d="M4989.13,-318.29C4997.72,-318.29 5006.26,-318.29 5014.62,-318.29"/>
<polygon fill="none" stroke="black" points="5014.71,-321.79 5024.71,-318.29 5014.71,-314.79 5014.71,-321.79"/>
</g>
<!-- stage_3&#45;&gt;stage_4 -->
<g id="edge22" class="edge">
<title>stage_3&#45;&gt;stage_4</title>
<path fill="none" stroke="black" stroke-dasharray="1,5" d="M2227.32,-354.23C2264.42,-326.24 2333.08,-274.98 2346,-269.29 2358.09,-263.96 2371.02,-259.43 2384.16,-255.58"/>
<polygon fill="none" stroke="black" points="2384.17,-255.58 2388.88,-250.12 2395.74,-252.37 2391.02,-257.83 2384.17,-255.58"/>
</g>
<!-- stage_3&#45;&gt;stage_26 -->
<g id="edge23" class="edge">
<title>stage_3&#45;&gt;stage_26</title>
<path fill="none" stroke="black" stroke-dasharray="1,5" d="M2294.56,-368.26C2413.85,-364.12 2629.39,-360.49 2812.5,-378.29"/>
<path fill="none" stroke="black" stroke-dasharray="1,5" d="M2814.5,-378.29C2944.05,-393.53 2977.58,-380.67 3108,-378.29"/>
</g>
<!-- stage_3&#45;&gt;stage_29 -->
<g id="edge24" class="edge">
<title>stage_3&#45;&gt;stage_29</title>
<path fill="none" stroke="black" stroke-dasharray="1,5" d="M2814.5,-378.29C2870.84,-384.92 2884.6,-389.23 2941,-395.29 3355.52,-439.83 3461.81,-463.69 3878,-439.29 3976.73,-433.5 4002.84,-436.39 4099,-413.29 4145.8,-402.05 4196.94,-382.59 4233.81,-367.19"/>
<polygon fill="none" stroke="black" points="4234.2,-367.03 4238.17,-361.01 4245.25,-362.35 4241.28,-368.38 4234.2,-367.03"/>
</g>
<!-- stage_3&#45;&gt;stage_39 -->
<g id="edge25" class="edge">
<title>stage_3&#45;&gt;stage_39</title>
<path fill="none" stroke="black" stroke-dasharray="1,5" d="M2294.89,-357.49C2536.48,-319.11 3188.28,-220.75 3404.5,-240.29"/>
</g>
<!-- stage_1 -->
<g id="node20" class="node">
<title>stage_1</title>
<path fill="none" stroke="black" d="M1667.5,-344.29C1667.5,-344.29 1529.5,-344.29 1529.5,-344.29 1523.5,-344.29 1517.5,-338.29 1517.5,-332.29 1517.5,-332.29 1517.5,-320.29 1517.5,-320.29 1517.5,-314.29 1523.5,-308.29 1529.5,-308.29 1529.5,-308.29 1667.5,-308.29 1667.5,-308.29 1673.5,-308.29 1679.5,-314.29 1679.5,-320.29 1679.5,-320.29 1679.5,-332.29 1679.5,-332.29 1679.5,-338.29 1673.5,-344.29 1667.5,-344.29"/>
<text text-anchor="middle" x="1598.5" y="-322.59" font-family="Times,serif" font-size="14.00">cratesio&#45;libc&#45;0.2.119</text>
</g>
<!-- stage_1&#45;&gt;stage_2 -->
<g id="edge19" class="edge">
<title>stage_1&#45;&gt;stage_2</title>
<path fill="none" stroke="black" stroke-dasharray="1,5" d="M1679.87,-338.74C1707.1,-342.96 1738.22,-347.78 1768.22,-352.42"/>
<polygon fill="none" stroke="black" points="1768.24,-352.42 1774.78,-349.39 1780.1,-354.26 1773.55,-357.3 1768.24,-352.42"/>
</g>
<!-- stage_1&#45;&gt;stage_4 -->
<g id="edge20" class="edge">
<title>stage_1&#45;&gt;stage_4</title>
<path fill="none" stroke="black" stroke-dasharray="1,5" d="M1898.5,-274.29C2032.14,-257.67 2066.88,-277.77 2201.5,-274.29"/>
</g>
<!-- stage_1&#45;&gt;stage_6 -->
<g id="edge21" class="edge">
<title>stage_1&#45;&gt;stage_6</title>
<path fill="none" stroke="black" stroke-dasharray="1,5" d="M1679.54,-310.06C1739.13,-298.51 1822.61,-283.48 1896.5,-274.29"/>
<path fill="none" stroke="black" stroke-dasharray="1,5" d="M1898.5,-274.29C2173.42,-240.1 2238.15,-192.43 2515,-182.29"/>
</g>
<!-- stage_5&#45;&gt;stage_6 -->
<g id="edge27" class="edge">
<title>stage_5&#45;&gt;stage_6</title>
<path fill="none" stroke="black" stroke-dasharray="1,5" d="M2904.55,-220.18C2928.63,-216.4 2955.11,-212.25 2980.78,-208.23"/>
<polygon fill="none" stroke="black" points="2981.05,-208.19 2986.35,-203.31 2992.9,-206.33 2987.59,-211.21 2981.05,-208.19"/>
</g>
<!-- stage_7&#45;&gt;stage_26 -->
<g id="edge29" class="edge">
<title>stage_7&#45;&gt;stage_26</title>
<path fill="none" stroke="black" stroke-dasharray="1,5" d="M3496.06,-307.89C3525.4,-313 3558.41,-318.75 3589.39,-324.15"/>
<polygon fill="none" stroke="black" points="3589.79,-324.22 3596.38,-321.31 3601.61,-326.28 3595.01,-329.19 3589.79,-324.22"/>
</g>
<!-- stage_7&#45;&gt;stage_29 -->
<g id="edge31" class="edge">
<title>stage_7&#45;&gt;stage_29</title>
<path fill="none" stroke="black" stroke-dasharray="1,5" d="M4007.5,-292.29C4042.48,-293.91 4124.77,-309.87 4190.8,-323.68"/>
<polygon fill="none" stroke="black" points="4191.18,-323.76 4197.87,-321.08 4202.92,-326.23 4196.23,-328.91 4191.18,-323.76"/>
</g>
<!-- stage_7&#45;&gt;stage_39 -->
<g id="edge33" class="edge">
<title>stage_7&#45;&gt;stage_39</title>
<path fill="none" stroke="black" stroke-dasharray="1,5" d="M3496.12,-289.71C3613.29,-286.92 3824.88,-283.92 4005.5,-292.29"/>
<path fill="none" stroke="black" stroke-dasharray="1,5" d="M4007.5,-292.29C4130.87,-299.04 4162.09,-298.28 4285.5,-292.29"/>
</g>
<!-- stage_10&#45;&gt;stage_12 -->
<g id="edge36" class="edge">
<title>stage_10&#45;&gt;stage_12</title>
<path fill="none" stroke="black" stroke-dasharray="1,5" d="M1673.26,-694.29C1682.94,-689.8 1692.2,-684.23 1700,-677.29 1727.34,-652.99 1713.09,-631.8 1736,-603.29 1770,-561 1820.54,-523.97 1855.8,-500.98"/>
<polygon fill="none" stroke="black" points="1856.11,-500.78 1859,-494.17 1866.21,-494.3 1863.32,-500.91 1856.11,-500.78"/>
</g>
<!-- stage_10&#45;&gt;stage_19 -->
<g id="edge37" class="edge">
<title>stage_10&#45;&gt;stage_19</title>
<path fill="none" stroke="black" stroke-dasharray="1,5" d="M1661.45,-730.3C1674.52,-735.08 1687.99,-740.76 1700,-747.29 1717.81,-756.97 1717.52,-766.97 1736,-775.29 1927.93,-861.67 1991.59,-846.97 2201.5,-862.29"/>
<path fill="none" stroke="black" stroke-dasharray="1,5" d="M2203.5,-862.29C2245.41,-868.66 2290.85,-871.13 2333.74,-871.49"/>
<polygon fill="none" stroke="black" points="2333.77,-871.49 2339.78,-867.52 2345.77,-871.54 2339.75,-875.52 2333.77,-871.49"/>
</g>
<!-- stage_10&#45;&gt;stage_23 -->
<g id="edge38" class="edge">
<title>stage_10&#45;&gt;stage_23</title>
<path fill="none" stroke="black" stroke-dasharray="1,5" d="M1689.22,-710.27C1748.17,-709.44 1826.96,-709.27 1896.5,-712.29"/>
</g>
<!-- stage_10&#45;&gt;stage_29 -->
<g id="edge40" class="edge">
<title>stage_10&#45;&gt;stage_29</title>
<path fill="none" stroke="black" stroke-dasharray="1,5" d="M1689.29,-700.43C1932.27,-668.15 2590.79,-579.21 2686,-551.29 2745.17,-533.94 2751,-489.83 2812.5,-494.29"/>
</g>
<!-- stage_10&#45;&gt;stage_39 -->
<g id="edge42" class="edge">
<title>stage_10&#45;&gt;stage_39</title>
<path fill="none" stroke="black" stroke-dasharray="1,5" d="M2203.5,-862.29C2346.22,-883.99 2370.75,-948.62 2515,-954.29"/>
<path fill="none" stroke="black" stroke-dasharray="1,5" d="M2517,-954.29C3124.05,-978.15 3276.22,-910.58 3878,-827.29 4060.41,-802.04 4102.33,-771.27 4285.5,-752.29"/>
</g>
<!-- stage_8 -->
<g id="node24" class="node">
<title>stage_8</title>
<path fill="none" stroke="black" d="M1073,-736.29C1073,-736.29 925,-736.29 925,-736.29 919,-736.29 913,-730.29 913,-724.29 913,-724.29 913,-712.29 913,-712.29 913,-706.29 919,-700.29 925,-700.29 925,-700.29 1073,-700.29 1073,-700.29 1079,-700.29 1085,-706.29 1085,-712.29 1085,-712.29 1085,-724.29 1085,-724.29 1085,-730.29 1079,-736.29 1073,-736.29"/>
<text text-anchor="middle" x="999" y="-714.59" font-family="Times,serif" font-size="14.00">cratesio&#45;autocfg&#45;1.1.0</text>
</g>
<!-- stage_8&#45;&gt;stage_9 -->
<g id="edge35" class="edge">
<title>stage_8&#45;&gt;stage_9</title>
<path fill="none" stroke="black" stroke-dasharray="1,5" d="M1085.11,-716.57C1101.69,-716.24 1119.57,-715.87 1137.67,-715.51"/>
<polygon fill="none" stroke="black" points="1137.9,-715.5 1143.82,-711.38 1149.9,-715.26 1143.98,-719.38 1137.9,-715.5"/>
</g>
<!-- stage_13&#45;&gt;stage_14 -->
<g id="edge47" class="edge">
<title>stage_13&#45;&gt;stage_14</title>
<path fill="none" stroke="black" stroke-dasharray="1,5" d="M2290.68,-489.17C2318.65,-493.3 2350.3,-497.97 2380.82,-502.48"/>
<polygon fill="none" stroke="black" points="2381.04,-502.51 2387.56,-499.43 2392.91,-504.26 2386.39,-507.34 2381.04,-502.51"/>
</g>
<!-- stage_13&#45;&gt;stage_23 -->
<g id="edge48" class="edge">
<title>stage_13&#45;&gt;stage_23</title>
<path fill="none" stroke="black" stroke-dasharray="1,5" d="M2517,-470.29C2592.22,-479.66 2630.87,-441.26 2686,-493.29 2746.6,-550.48 2668.48,-613.42 2722,-677.29 2749.7,-710.34 2770.09,-704.44 2812.5,-712.29"/>
<path fill="none" stroke="black" stroke-dasharray="1,5" d="M2814.5,-712.29C3072.36,-760.01 3143.25,-683.56 3404.5,-706.29"/>
</g>
<!-- stage_13&#45;&gt;stage_29 -->
<g id="edge49" class="edge">
<title>stage_13&#45;&gt;stage_29</title>
<path fill="none" stroke="black" stroke-dasharray="1,5" d="M2517,-470.29C2647.76,-486.57 2681.08,-484.75 2812.5,-494.29"/>
</g>
<!-- stage_13&#45;&gt;stage_39 -->
<g id="edge50" class="edge">
<title>stage_13&#45;&gt;stage_39</title>
<path fill="none" stroke="black" stroke-dasharray="1,5" d="M2290.79,-467.97C2353.43,-463.62 2439.72,-460.92 2515,-470.29"/>
<path fill="none" stroke="black" stroke-dasharray="1,5" d="M2517,-470.29C2604.38,-481.17 4023.97,-419.38 4099,-373.29 4124.85,-357.41 4109.68,-332.01 4135,-315.29 4191.47,-278.01 4217.91,-295.57 4285.5,-292.29"/>
</g>
<!-- stage_11 -->
<g id="node26" class="node">
<title>stage_11</title>
<path fill="none" stroke="black" d="M1688,-520.29C1688,-520.29 1509,-520.29 1509,-520.29 1503,-520.29 1497,-514.29 1497,-508.29 1497,-508.29 1497,-496.29 1497,-496.29 1497,-490.29 1503,-484.29 1509,-484.29 1509,-484.29 1688,-484.29 1688,-484.29 1694,-484.29 1700,-490.29 1700,-496.29 1700,-496.29 1700,-508.29 1700,-508.29 1700,-514.29 1694,-520.29 1688,-520.29"/>
<text text-anchor="middle" x="1598.5" y="-498.59" font-family="Times,serif" font-size="14.00">cratesio&#45;num&#45;traits&#45;0.2.14</text>
</g>
<!-- stage_11&#45;&gt;stage_12 -->
<g id="edge44" class="edge">
<title>stage_11&#45;&gt;stage_12</title>
<path fill="none" stroke="black" stroke-dasharray="1,5" d="M1700.05,-493.49C1708.29,-492.77 1716.74,-492.03 1725.3,-491.28"/>
<polygon fill="none" stroke="black" points="1725.5,-491.26 1731.13,-486.75 1737.46,-490.21 1731.83,-494.72 1725.5,-491.26"/>
</g>
<!-- stage_11&#45;&gt;stage_14 -->
<g id="edge45" class="edge">
<title>stage_11&#45;&gt;stage_14</title>
<path fill="none" stroke="black" stroke-dasharray="1,5" d="M1700.13,-507.33C1819.65,-513.16 2025.06,-522.67 2201.5,-528.29"/>
<path fill="none" stroke="black" stroke-dasharray="1,5" d="M2203.5,-528.29C2248.5,-530.68 2297.19,-530.89 2342.42,-530.07"/>
<polygon fill="none" stroke="black" points="2342.46,-530.07 2348.37,-525.95 2354.45,-529.82 2348.54,-533.94 2342.46,-530.07"/>
</g>
<!-- stage_11&#45;&gt;stage_16 -->
<g id="edge46" class="edge">
<title>stage_11&#45;&gt;stage_16</title>
<path fill="none" stroke="black" stroke-dasharray="1,5" d="M2203.5,-528.29C2341.78,-535.65 2674.25,-652.45 2812.5,-660.29"/>
<path fill="none" stroke="black" stroke-dasharray="1,5" d="M2814.5,-660.29C2852.18,-661.74 2892.6,-661.85 2931.03,-661.27"/>
<polygon fill="none" stroke="black" points="2931.43,-661.27 2937.36,-657.17 2943.43,-661.06 2937.49,-665.16 2931.43,-661.27"/>
</g>
<!-- stage_15&#45;&gt;stage_16 -->
<g id="edge52" class="edge">
<title>stage_15&#45;&gt;stage_16</title>
<path fill="none" stroke="black" stroke-dasharray="1,5" d="M2904.15,-618.17C2932.53,-623.2 2964.28,-628.83 2994.11,-634.11"/>
<polygon fill="none" stroke="black" points="2994.51,-634.18 3001.11,-631.29 3006.32,-636.28 2999.72,-639.17 2994.51,-634.18"/>
</g>
<!-- stage_15&#45;&gt;stage_23 -->
<g id="edge53" class="edge">
<title>stage_15&#45;&gt;stage_23</title>
<path fill="none" stroke="black" stroke-dasharray="1,5" d="M3110,-602.29C3184.64,-608.79 3214.17,-584.48 3277,-625.29 3302.44,-641.82 3288.5,-665.4 3313,-683.29 3346.86,-708.02 3362.73,-702.66 3404.5,-706.29"/>
<path fill="none" stroke="black" stroke-dasharray="1,5" d="M3406.5,-706.29C3443.65,-709.52 3483.5,-710.94 3521.6,-711.3"/>
<polygon fill="none" stroke="black" points="3521.91,-711.31 3527.93,-707.35 3533.9,-711.39 3527.88,-715.35 3521.91,-711.31"/>
</g>
<!-- stage_15&#45;&gt;stage_29 -->
<g id="edge56" class="edge">
<title>stage_15&#45;&gt;stage_29</title>
<path fill="none" stroke="black" stroke-dasharray="1,5" d="M2904.27,-598.27C2962.46,-596.65 3039.85,-596.36 3108,-602.29"/>
<path fill="none" stroke="black" stroke-dasharray="1,5" d="M3110,-602.29C3373.45,-625.22 3440.75,-612.39 3705,-602.29"/>
<path fill="none" stroke="black" stroke-dasharray="1,5" d="M3707,-602.29C3774.01,-598.5 3943.71,-582.49 4005.5,-556.29"/>
</g>
<!-- stage_15&#45;&gt;stage_39 -->
<g id="edge59" class="edge">
<title>stage_15&#45;&gt;stage_39</title>
<path fill="none" stroke="black" stroke-dasharray="1,5" d="M3707,-602.29C3881.24,-592.44 3933.79,-569.03 4099,-625.29 4193.93,-657.62 4185.61,-743.41 4285.5,-752.29"/>
<path fill="none" stroke="black" stroke-dasharray="1,5" d="M4287.5,-752.29C4551.49,-775.4 4765.49,-447.09 4824.38,-346.86"/>
<polygon fill="none" stroke="black" points="4824.48,-346.71 4824.03,-339.51 4830.5,-336.33 4830.95,-343.52 4824.48,-346.71"/>
</g>
<!-- stage_17&#45;&gt;stage_23 -->
<g id="edge63" class="edge">
<title>stage_17&#45;&gt;stage_23</title>
<path fill="none" stroke="black" stroke-dasharray="1,5" d="M3498.09,-670.25C3526.99,-675.28 3559.29,-680.91 3589.62,-686.19"/>
<polygon fill="none" stroke="black" points="3589.77,-686.22 3596.36,-683.31 3601.59,-688.28 3594.99,-691.19 3589.77,-686.22"/>
</g>
<!-- stage_17&#45;&gt;stage_29 -->
<g id="edge65" class="edge">
<title>stage_17&#45;&gt;stage_29</title>
<path fill="none" stroke="black" stroke-dasharray="1,5" d="M3498.32,-656.1C3557.37,-656.82 3635.74,-656.94 3705,-654.29"/>
<path fill="none" stroke="black" stroke-dasharray="1,5" d="M3707,-654.29C3784.52,-651.33 3804.62,-644.46 3878,-619.29 3937.79,-598.78 3947.31,-580.97 4005.5,-556.29"/>
</g>
<!-- stage_17&#45;&gt;stage_39 -->
<g id="edge67" class="edge">
<title>stage_17&#45;&gt;stage_39</title>
<path fill="none" stroke="black" stroke-dasharray="1,5" d="M3707,-654.29C3783.63,-651.36 3802.27,-665.24 3878,-677.29 4059.86,-706.24 4102.05,-736.17 4285.5,-752.29"/>
</g>
<!-- stage_20&#45;&gt;stage_21 -->
<g id="edge72" class="edge">
<title>stage_20&#45;&gt;stage_21</title>
<path fill="none" stroke="black" stroke-dasharray="1,5" d="M2865.62,-844.18C2915.66,-826.45 2991.96,-799.41 3045.56,-780.42"/>
<polygon fill="none" stroke="black" points="3045.66,-780.38 3049.98,-774.61 3056.97,-776.37 3052.65,-782.15 3045.66,-780.38"/>
</g>
<!-- stage_20&#45;&gt;stage_29 -->
<g id="edge73" class="edge">
<title>stage_20&#45;&gt;stage_29</title>
<path fill="none" stroke="black" stroke-dasharray="1,5" d="M2905.23,-861.09C3148.01,-856.75 3807.52,-837.24 4005.5,-752.29"/>
<path fill="none" stroke="black" stroke-dasharray="1,5" d="M4007.5,-752.29C4171.07,-681.17 4252.41,-456.09 4277.12,-374.34"/>
<polygon fill="none" stroke="black" points="4277.16,-374.22 4275.01,-367.33 4280.54,-362.7 4282.69,-369.59 4277.16,-374.22"/>
</g>
<!-- stage_20&#45;&gt;stage_39 -->
<g id="edge74" class="edge">
<title>stage_20&#45;&gt;stage_39</title>
<path fill="none" stroke="black" stroke-dasharray="1,5" d="M4007.5,-752.29C4120.81,-703.02 4162.6,-765.02 4285.5,-752.29"/>
</g>
<!-- stage_18 -->
<g id="node30" class="node">
<title>stage_18</title>
<path fill="none" stroke="black" d="M2298,-828.29C2298,-828.29 2107,-828.29 2107,-828.29 2101,-828.29 2095,-822.29 2095,-816.29 2095,-816.29 2095,-804.29 2095,-804.29 2095,-798.29 2101,-792.29 2107,-792.29 2107,-792.29 2298,-792.29 2298,-792.29 2304,-792.29 2310,-798.29 2310,-804.29 2310,-804.29 2310,-816.29 2310,-816.29 2310,-822.29 2304,-828.29 2298,-828.29"/>
<text text-anchor="middle" x="2202.5" y="-806.59" font-family="Times,serif" font-size="14.00">cratesio&#45;num&#45;integer&#45;0.1.44</text>
</g>
<!-- stage_18&#45;&gt;stage_19 -->
<g id="edge69" class="edge">
<title>stage_18&#45;&gt;stage_19</title>
<path fill="none" stroke="black" stroke-dasharray="1,5" d="M2310.26,-828.11C2337.62,-832.68 2367.22,-837.62 2395.18,-842.29"/>
<polygon fill="none" stroke="black" points="2395.22,-842.29 2401.79,-839.34 2407.05,-844.27 2400.48,-847.23 2395.22,-842.29"/>
</g>
<!-- stage_18&#45;&gt;stage_21 -->
<g id="edge70" class="edge">
<title>stage_18&#45;&gt;stage_21</title>
<path fill="none" stroke="black" stroke-dasharray="1,5" d="M2310.27,-813.12C2431.92,-815.69 2636.63,-818.01 2812.5,-810.29"/>
<path fill="none" stroke="black" stroke-dasharray="1,5" d="M2814.5,-810.29C2851.39,-808.42 2938.39,-792.47 3008.15,-778.72"/>
<polygon fill="none" stroke="black" points="3008.3,-778.69 3013.41,-773.6 3020.07,-776.36 3014.96,-781.45 3008.3,-778.69"/>
</g>
<!-- stage_18&#45;&gt;stage_23 -->
<g id="edge71" class="edge">
<title>stage_18&#45;&gt;stage_23</title>
<path fill="none" stroke="black" stroke-dasharray="1,5" d="M2814.5,-810.29C3118.06,-794.92 3200.31,-848.66 3498,-787.29 3555.52,-775.43 3617.81,-749.05 3658.87,-729.6"/>
<polygon fill="none" stroke="black" points="3659.05,-729.51 3662.72,-723.31 3669.86,-724.31 3666.19,-730.52 3659.05,-729.51"/>
</g>
<!-- stage_22&#45;&gt;stage_23 -->
<g id="edge76" class="edge">
<title>stage_22&#45;&gt;stage_23</title>
<path fill="none" stroke="black" stroke-dasharray="1,5" d="M3496.06,-742.69C3525.4,-737.58 3558.41,-731.83 3589.39,-726.43"/>
<polygon fill="none" stroke="black" points="3589.79,-726.36 3595.01,-721.39 3601.61,-724.3 3596.38,-729.27 3589.79,-726.36"/>
</g>
<!-- stage_24&#45;&gt;stage_29 -->
<g id="edge78" class="edge">
<title>stage_24&#45;&gt;stage_29</title>
<path fill="none" stroke="black" stroke-dasharray="1,5" d="M4029.86,-636.25C4048.97,-620.43 4076.82,-596.4 4099,-573.29 4164.41,-505.14 4232.26,-416.48 4265.17,-372.12"/>
<polygon fill="none" stroke="black" points="4265.26,-372 4265.61,-364.8 4272.39,-362.34 4272.04,-369.55 4265.26,-372"/>
</g>
<!-- stage_24&#45;&gt;stage_39 -->
<g id="edge80" class="edge">
<title>stage_24&#45;&gt;stage_39</title>
<path fill="none" stroke="black" stroke-dasharray="1,5" d="M4054.64,-672.36C4127.61,-700.1 4261.95,-750.22 4285.5,-752.29"/>
</g>
<!-- stage_27&#45;&gt;stage_29 -->
<g id="edge83" class="edge">
<title>stage_27&#45;&gt;stage_29</title>
<path fill="none" stroke="black" stroke-dasharray="1,5" d="M4096.23,-344.29C4104.75,-344.29 4113.56,-344.29 4122.51,-344.29"/>
<polygon fill="none" stroke="black" points="4122.78,-344.29 4128.78,-340.29 4134.78,-344.29 4128.78,-348.29 4122.78,-344.29"/>
</g>
<!-- stage_27&#45;&gt;stage_39 -->
<g id="edge85" class="edge">
<title>stage_27&#45;&gt;stage_39</title>
<path fill="none" stroke="black" stroke-dasharray="1,5" d="M4075.15,-326.28C4131.07,-312.7 4212.79,-295.82 4285.5,-292.29"/>
</g>
<!-- stage_25 -->
<g id="node34" class="node">
<title>stage_25</title>
<path fill="none" stroke="black" d="M3473.5,-414.29C3473.5,-414.29 3337.5,-414.29 3337.5,-414.29 3331.5,-414.29 3325.5,-408.29 3325.5,-402.29 3325.5,-402.29 3325.5,-390.29 3325.5,-390.29 3325.5,-384.29 3331.5,-378.29 3337.5,-378.29 3337.5,-378.29 3473.5,-378.29 3473.5,-378.29 3479.5,-378.29 3485.5,-384.29 3485.5,-390.29 3485.5,-390.29 3485.5,-402.29 3485.5,-402.29 3485.5,-408.29 3479.5,-414.29 3473.5,-414.29"/>
<text text-anchor="middle" x="3405.5" y="-392.59" font-family="Times,serif" font-size="14.00">cratesio&#45;time&#45;0.1.43</text>
</g>
<!-- stage_25&#45;&gt;stage_26 -->
<g id="edge82" class="edge">
<title>stage_25&#45;&gt;stage_26</title>
<path fill="none" stroke="black" stroke-dasharray="1,5" d="M3485.71,-382.49C3517.46,-376.96 3554.68,-370.48 3589.35,-364.44"/>
<polygon fill="none" stroke="black" points="3589.67,-364.38 3594.89,-359.41 3601.49,-362.32 3596.27,-367.29 3589.67,-364.38"/>
</g>
<!-- stage_30&#45;&gt;stage_39 -->
<g id="edge88" class="edge">
<title>stage_30&#45;&gt;stage_39</title>
<path fill="none" stroke="black" stroke-dasharray="1,5" d="M4658.07,-335.63C4665.71,-334.91 4673.56,-334.16 4681.51,-333.4"/>
<polygon fill="none" stroke="black" points="4681.7,-333.39 4687.3,-328.84 4693.65,-332.25 4688.05,-336.8 4681.7,-333.39"/>
</g>
<!-- stage_28 -->
<g id="node36" class="node">
<title>stage_28</title>
<path fill="none" stroke="black" d="M4082.5,-522.29C4082.5,-522.29 3930.5,-522.29 3930.5,-522.29 3924.5,-522.29 3918.5,-516.29 3918.5,-510.29 3918.5,-510.29 3918.5,-498.29 3918.5,-498.29 3918.5,-492.29 3924.5,-486.29 3930.5,-486.29 3930.5,-486.29 4082.5,-486.29 4082.5,-486.29 4088.5,-486.29 4094.5,-492.29 4094.5,-498.29 4094.5,-498.29 4094.5,-510.29 4094.5,-510.29 4094.5,-516.29 4088.5,-522.29 4082.5,-522.29"/>
<text text-anchor="middle" x="4006.5" y="-500.59" font-family="Times,serif" font-size="14.00">cratesio&#45;chrono&#45;0.4.19</text>
</g>
<!-- stage_28&#45;&gt;stage_29 -->
<g id="edge87" class="edge">
<title>stage_28&#45;&gt;stage_29</title>
<path fill="none" stroke="black" stroke-dasharray="1,5" d="M4060.65,-486.28C4073.45,-481.31 4086.92,-475.55 4099,-469.29 4155.55,-440 4215.87,-397.19 4252.13,-370.04"/>
<polygon fill="none" stroke="black" points="4252.56,-369.72 4254.94,-362.91 4262.13,-362.49 4259.76,-369.29 4252.56,-369.72"/>
</g>
<!-- stage_33&#45;&gt;stage_34 -->
<g id="edge93" class="edge">
<title>stage_33&#45;&gt;stage_34</title>
<path fill="none" stroke="black" stroke-dasharray="1,5" d="M1690.63,-169.23C1701.21,-168.41 1712.25,-167.56 1723.48,-166.69"/>
<polygon fill="none" stroke="black" points="1723.77,-166.67 1729.44,-162.22 1735.74,-165.74 1730.06,-170.19 1723.77,-166.67"/>
</g>
<!-- stage_33&#45;&gt;stage_39 -->
<g id="edge94" class="edge">
<title>stage_33&#45;&gt;stage_39</title>
<path fill="none" stroke="black" stroke-dasharray="1,5" d="M1654.66,-158.26C1669.5,-153.09 1685.46,-147.23 1700,-141.29 1716.38,-134.59 1718.98,-129.13 1736,-124.29 1998.45,-49.7 2073.59,-70.65 2346,-55.29 3124.26,-11.41 3339.63,65.69 4099,-110.29 4252.15,-145.78 4313.08,-115.84 4438,-211.29 4462.11,-229.71 4449.51,-251.38 4474,-269.29 4507.67,-293.92 4523.96,-284.83 4565,-292.29"/>
<path fill="none" stroke="black" stroke-dasharray="1,5" d="M4567,-292.29C4604.01,-297.99 4644.04,-302.64 4681.76,-306.34"/>
<polygon fill="none" stroke="black" points="4681.97,-306.36 4688.32,-302.96 4693.91,-307.51 4687.56,-310.92 4681.97,-306.36"/>
</g>
<!-- stage_31 -->
<g id="node38" class="node">
<title>stage_31</title>
<path fill="none" stroke="black" d="M1087,-168.29C1087,-168.29 911,-168.29 911,-168.29 905,-168.29 899,-162.29 899,-156.29 899,-156.29 899,-144.29 899,-144.29 899,-138.29 905,-132.29 911,-132.29 911,-132.29 1087,-132.29 1087,-132.29 1093,-132.29 1099,-138.29 1099,-144.29 1099,-144.29 1099,-156.29 1099,-156.29 1099,-162.29 1093,-168.29 1087,-168.29"/>
<text text-anchor="middle" x="999" y="-146.59" font-family="Times,serif" font-size="14.00">cratesio&#45;rustversion&#45;1.0.6</text>
</g>
<!-- stage_31&#45;&gt;stage_32 -->
<g id="edge90" class="edge">
<title>stage_31&#45;&gt;stage_32</title>
<path fill="none" stroke="black" stroke-dasharray="1,5" d="M1099.31,-158.98C1106.98,-159.66 1114.85,-160.34 1122.82,-161.04"/>
<polygon fill="none" stroke="black" points="1123.03,-161.06 1129.35,-157.6 1134.98,-162.11 1128.65,-165.57 1123.03,-161.06"/>
</g>
<!-- stage_31&#45;&gt;stage_34 -->
<g id="edge91" class="edge">
<title>stage_31&#45;&gt;stage_34</title>
<path fill="none" stroke="black" stroke-dasharray="1,5" d="M1599.5,-124.29C1656.06,-122.4 1718.43,-127.4 1771.36,-133.76"/>
<polygon fill="none" stroke="black" points="1771.64,-133.8 1778.08,-130.56 1783.54,-135.27 1777.1,-138.5 1771.64,-133.8"/>
</g>
<!-- stage_31&#45;&gt;stage_36 -->
<g id="edge92" class="edge">
<title>stage_31&#45;&gt;stage_36</title>
<path fill="none" stroke="black" stroke-dasharray="1,5" d="M1099.09,-145.37C1217.6,-139.62 1421.99,-130.15 1597.5,-124.29"/>
<path fill="none" stroke="black" stroke-dasharray="1,5" d="M1599.5,-124.29C1857.23,-110.53 2155.96,-98.14 2340.23,-90.92"/>
<polygon fill="none" stroke="black" points="2340.48,-90.91 2346.32,-86.68 2352.47,-90.44 2346.63,-94.67 2340.48,-90.91"/>
</g>
<!-- stage_35&#45;&gt;stage_36 -->
<g id="edge96" class="edge">
<title>stage_35&#45;&gt;stage_36</title>
<path fill="none" stroke="black" stroke-dasharray="1,5" d="M2294.02,-116.92C2321.17,-112.91 2351.56,-108.43 2380.9,-104.09"/>
<polygon fill="none" stroke="black" points="2381.08,-104.07 2386.43,-99.23 2392.95,-102.31 2387.6,-107.15 2381.08,-104.07"/>
</g>
<!-- stage_35&#45;&gt;stage_39 -->
<g id="edge97" class="edge">
<title>stage_35&#45;&gt;stage_39</title>
<path fill="none" stroke="black" stroke-dasharray="1,5" d="M2294.22,-126.58C2518.62,-118.38 3094.68,-103.59 3277,-159.29 3341.21,-178.9 3337.58,-234.91 3404.5,-240.29"/>
<path fill="none" stroke="black" stroke-dasharray="1,5" d="M3406.5,-240.29C3713.76,-263.99 3791.6,-253.52 4099,-275.29 4182.02,-281.17 4202.35,-296 4285.5,-292.29"/>
<path fill="none" stroke="black" stroke-dasharray="1,5" d="M4287.5,-292.29C4410.65,-285.49 4443.65,-270.24 4565,-292.29"/>
</g>
<!-- stage_37&#45;&gt;stage_39 -->
<g id="edge99" class="edge">
<title>stage_37&#45;&gt;stage_39</title>
<path fill="none" stroke="black" stroke-dasharray="1,5" d="M4378.69,-257.64C4432.81,-267.87 4502.79,-280.98 4565,-292.29"/>
</g>
<!-- stage_38 -->
<g id="node42" class="node">
<title>stage_38</title>
<path fill="none" stroke="black" d="M4638,-258.29C4638,-258.29 4494,-258.29 4494,-258.29 4488,-258.29 4482,-252.29 4482,-246.29 4482,-246.29 4482,-234.29 4482,-234.29 4482,-228.29 4488,-222.29 4494,-222.29 4494,-222.29 4638,-222.29 4638,-222.29 4644,-222.29 4650,-228.29 4650,-234.29 4650,-234.29 4650,-246.29 4650,-246.29 4650,-252.29 4644,-258.29 4638,-258.29"/>
<text text-anchor="middle" x="4566" y="-236.59" font-family="Times,serif" font-size="14.00">cratesio&#45;vergen&#45;6.0.2</text>
</g>
<!-- stage_38&#45;&gt;stage_39 -->
<g id="edge101" class="edge">
<title>stage_38&#45;&gt;stage_39</title>
<path fill="none" stroke="black" stroke-dasharray="1,5" d="M4630.43,-258.38C4670.68,-269.86 4722.95,-284.77 4765.28,-296.84"/>
<polygon fill="none" stroke="black" points="4765.4,-296.87 4772.26,-294.67 4776.94,-300.16 4770.07,-302.36 4765.4,-296.87"/>
</g>
<!-- stage_41 -->
<g id="node43" class="node">
<title>stage_41</title>
<path fill="#e5e5e5" stroke="black" d="M491.5,-736.29C491.5,-736.29 371.5,-736.29 371.5,-736.29 365.5,-736.29 359.5,-730.29 359.5,-724.29 359.5,-724.29 359.5,-712.29 359.5,-712.29 359.5,-706.29 365.5,-700.29 371.5,-700.29 371.5,-700.29 491.5,-700.29 491.5,-700.29 497.5,-700.29 503.5,-706.29 503.5,-712.29 503.5,-712.29 503.5,-724.29 503.5,-724.29 503.5,-730.29 497.5,-736.29 491.5,-736.29"/>
<text text-anchor="middle" x="431.5" y="-714.59" font-family="Times,serif" font-size="14.00">41</text>
</g>
</g>
</svg>
