<?xml version="1.0" encoding="UTF-8" standalone="no"?>
<!DOCTYPE svg PUBLIC "-//W3C//DTD SVG 1.1//EN"
 "http://www.w3.org/Graphics/SVG/1.1/DTD/svg11.dtd">
<!-- Generated by graphviz version 2.43.0 (0)
 -->
<!-- Title: G Pages: 1 -->
<svg width="6788pt" height="976pt"
 viewBox="0.00 0.00 6788.00 975.53" xmlns="http://www.w3.org/2000/svg" xmlns:xlink="http://www.w3.org/1999/xlink">
<g id="graph0" class="graph" transform="scale(1 1) rotate(0) translate(4 971.53)">
<title>G</title>
<polygon fill="white" stroke="transparent" points="-4,4 -4,-971.53 6784,-971.53 6784,4 -4,4"/>
<!-- external_image_0 -->
<g id="node1" class="node">
<title>external_image_0</title>
<path fill="none" stroke="#333333" stroke-dasharray="5,2" d="M851,-743.43C851,-743.43 12,-743.43 12,-743.43 6,-743.43 0,-737.43 0,-731.43 0,-731.43 0,-719.43 0,-719.43 0,-713.43 6,-707.43 12,-707.43 12,-707.43 851,-707.43 851,-707.43 857,-707.43 863,-713.43 863,-719.43 863,-719.43 863,-731.43 863,-731.43 863,-737.43 857,-743.43 851,-743.43"/>
<text text-anchor="middle" x="431.5" y="-721.73" font-family="Times,serif" font-size="14.00" fill="#333333">docker.io/library/rust:1.90.0&#45;slim@sha256:7fa728f3678acf5980d5db70960cf8491aff9411976789086676bdf0c19db39e</text>
</g>
<!-- stage_0 -->
<g id="node2" class="node">
<title>stage_0</title>
<path fill="none" stroke="black" d="M1054.5,-743.43C1054.5,-743.43 934.5,-743.43 934.5,-743.43 928.5,-743.43 922.5,-737.43 922.5,-731.43 922.5,-731.43 922.5,-719.43 922.5,-719.43 922.5,-713.43 928.5,-707.43 934.5,-707.43 934.5,-707.43 1054.5,-707.43 1054.5,-707.43 1060.5,-707.43 1066.5,-713.43 1066.5,-719.43 1066.5,-719.43 1066.5,-731.43 1066.5,-731.43 1066.5,-737.43 1060.5,-743.43 1054.5,-743.43"/>
<text text-anchor="middle" x="994.5" y="-721.73" font-family="Times,serif" font-size="14.00">rust&#45;base</text>
</g>
<!-- external_image_0&#45;&gt;stage_0 -->
<g id="edge1" class="edge">
<title>external_image_0&#45;&gt;stage_0</title>
<path fill="none" stroke="black" d="M863.03,-725.43C880.65,-725.43 897.14,-725.43 912.08,-725.43"/>
<polygon fill="black" stroke="black" points="912.17,-728.93 922.17,-725.43 912.17,-721.93 912.17,-728.93"/>
</g>
<!-- stage_2 -->
<g id="node3" class="node">
<title>stage_2</title>
<path fill="none" stroke="black" d="M1413.5,-841.43C1413.5,-841.43 1151.5,-841.43 1151.5,-841.43 1145.5,-841.43 1139.5,-835.43 1139.5,-829.43 1139.5,-829.43 1139.5,-817.43 1139.5,-817.43 1139.5,-811.43 1145.5,-805.43 1151.5,-805.43 1151.5,-805.43 1413.5,-805.43 1413.5,-805.43 1419.5,-805.43 1425.5,-811.43 1425.5,-817.43 1425.5,-817.43 1425.5,-829.43 1425.5,-829.43 1425.5,-835.43 1419.5,-841.43 1413.5,-841.43"/>
<text text-anchor="middle" x="1282.5" y="-819.73" font-family="Times,serif" font-size="14.00">dep&#45;x&#45;libc&#45;0.2.172&#45;55bd35d1ef212c79</text>
</g>
<!-- stage_0&#45;&gt;stage_2 -->
<g id="edge2" class="edge">
<title>stage_0&#45;&gt;stage_2</title>
<path fill="none" stroke="black" d="M1048.29,-743.52C1096.51,-760.04 1167.86,-784.49 1218.92,-801.99"/>
<polygon fill="black" stroke="black" points="1217.94,-805.35 1228.53,-805.28 1220.21,-798.73 1217.94,-805.35"/>
</g>
<!-- stage_4 -->
<g id="node4" class="node">
<title>stage_4</title>
<path fill="none" stroke="black" d="M1978.5,-795.43C1978.5,-795.43 1718.5,-795.43 1718.5,-795.43 1712.5,-795.43 1706.5,-789.43 1706.5,-783.43 1706.5,-783.43 1706.5,-771.43 1706.5,-771.43 1706.5,-765.43 1712.5,-759.43 1718.5,-759.43 1718.5,-759.43 1978.5,-759.43 1978.5,-759.43 1984.5,-759.43 1990.5,-765.43 1990.5,-771.43 1990.5,-771.43 1990.5,-783.43 1990.5,-783.43 1990.5,-789.43 1984.5,-795.43 1978.5,-795.43"/>
<text text-anchor="middle" x="1848.5" y="-773.73" font-family="Times,serif" font-size="14.00">run&#45;z&#45;libc&#45;0.2.172&#45;4dfd14a0b71a19ea</text>
</g>
<!-- stage_0&#45;&gt;stage_4 -->
<g id="edge3" class="edge">
<title>stage_0&#45;&gt;stage_4</title>
<path fill="none" stroke="black" d="M1567,-725.43C1575.98,-722.53 1673.77,-741.53 1751.4,-757.37"/>
<polygon fill="black" stroke="black" points="1750.74,-760.81 1761.24,-759.39 1752.14,-753.95 1750.74,-760.81"/>
</g>
<!-- stage_6 -->
<g id="node5" class="node">
<title>stage_6</title>
<path fill="none" stroke="black" d="M2535,-829.43C2535,-829.43 2270,-829.43 2270,-829.43 2264,-829.43 2258,-823.43 2258,-817.43 2258,-817.43 2258,-805.43 2258,-805.43 2258,-799.43 2264,-793.43 2270,-793.43 2270,-793.43 2535,-793.43 2535,-793.43 2541,-793.43 2547,-799.43 2547,-805.43 2547,-805.43 2547,-817.43 2547,-817.43 2547,-823.43 2541,-829.43 2535,-829.43"/>
<text text-anchor="middle" x="2402.5" y="-807.73" font-family="Times,serif" font-size="14.00">dep&#45;n&#45;libc&#45;0.2.172&#45;d68e352a3cdc3b08</text>
</g>
<!-- stage_0&#45;&gt;stage_6 -->
<g id="edge4" class="edge">
<title>stage_0&#45;&gt;stage_6</title>
<path fill="none" stroke="black" d="M2132,-725.43C2213.42,-730.96 2302.68,-765.54 2355.3,-789.13"/>
<polygon fill="black" stroke="black" points="2354.14,-792.45 2364.69,-793.4 2357.04,-786.08 2354.14,-792.45"/>
</g>
<!-- stage_9 -->
<g id="node6" class="node">
<title>stage_9</title>
<path fill="none" stroke="black" d="M3128,-783.43C3128,-783.43 2826,-783.43 2826,-783.43 2820,-783.43 2814,-777.43 2814,-771.43 2814,-771.43 2814,-759.43 2814,-759.43 2814,-753.43 2820,-747.43 2826,-747.43 2826,-747.43 3128,-747.43 3128,-747.43 3134,-747.43 3140,-753.43 3140,-759.43 3140,-759.43 3140,-771.43 3140,-771.43 3140,-777.43 3134,-783.43 3128,-783.43"/>
<text text-anchor="middle" x="2977" y="-761.73" font-family="Times,serif" font-size="14.00">dep&#45;n&#45;jobserver&#45;0.1.32&#45;5253d2060227d8a0</text>
</g>
<!-- stage_0&#45;&gt;stage_9 -->
<g id="edge5" class="edge">
<title>stage_0&#45;&gt;stage_9</title>
<path fill="none" stroke="black" d="M1849.5,-725.43C1973.68,-714.42 2005.62,-717 2130,-725.43"/>
<path fill="none" stroke="black" d="M2132,-725.43C2418.49,-744.86 2491.79,-713.13 2778,-736.43 2804.71,-738.61 2833.31,-742.11 2860.22,-745.93"/>
<polygon fill="black" stroke="black" points="2860.05,-749.44 2870.45,-747.41 2861.05,-742.51 2860.05,-749.44"/>
</g>
<!-- stage_12 -->
<g id="node7" class="node">
<title>stage_12</title>
<path fill="none" stroke="black" d="M3105.5,-535.43C3105.5,-535.43 2848.5,-535.43 2848.5,-535.43 2842.5,-535.43 2836.5,-529.43 2836.5,-523.43 2836.5,-523.43 2836.5,-511.43 2836.5,-511.43 2836.5,-505.43 2842.5,-499.43 2848.5,-499.43 2848.5,-499.43 3105.5,-499.43 3105.5,-499.43 3111.5,-499.43 3117.5,-505.43 3117.5,-511.43 3117.5,-511.43 3117.5,-523.43 3117.5,-523.43 3117.5,-529.43 3111.5,-535.43 3105.5,-535.43"/>
<text text-anchor="middle" x="2977" y="-513.73" font-family="Times,serif" font-size="14.00">dep&#45;n&#45;shlex&#45;1.3.0&#45;e58644cb7f510602</text>
</g>
<!-- stage_0&#45;&gt;stage_12 -->
<g id="edge6" class="edge">
<title>stage_0&#45;&gt;stage_12</title>
<path fill="none" stroke="black" d="M2681.5,-517.43C2727.84,-506.94 2779.35,-504.06 2826.16,-504.66"/>
<polygon fill="black" stroke="black" points="2826.32,-508.16 2836.38,-504.84 2826.45,-501.16 2826.32,-508.16"/>
</g>
<!-- stage_15 -->
<g id="node8" class="node">
<title>stage_15</title>
<path fill="none" stroke="black" d="M3660,-685.43C3660,-685.43 3412,-685.43 3412,-685.43 3406,-685.43 3400,-679.43 3400,-673.43 3400,-673.43 3400,-661.43 3400,-661.43 3400,-655.43 3406,-649.43 3412,-649.43 3412,-649.43 3660,-649.43 3660,-649.43 3666,-649.43 3672,-655.43 3672,-661.43 3672,-661.43 3672,-673.43 3672,-673.43 3672,-679.43 3666,-685.43 3660,-685.43"/>
<text text-anchor="middle" x="3536" y="-663.73" font-family="Times,serif" font-size="14.00">dep&#45;n&#45;cc&#45;1.2.16&#45;947438b818448e5e</text>
</g>
<!-- stage_0&#45;&gt;stage_15 -->
<g id="edge7" class="edge">
<title>stage_0&#45;&gt;stage_15</title>
<path fill="none" stroke="black" d="M3271,-667.43C3309.39,-667.07 3350.92,-666.94 3389.43,-666.94"/>
<polygon fill="black" stroke="black" points="3389.68,-670.44 3399.68,-666.94 3389.68,-663.44 3389.68,-670.44"/>
</g>
<!-- stage_18 -->
<g id="node9" class="node">
<title>stage_18</title>
<path fill="none" stroke="black" d="M4218,-789.43C4218,-789.43 3943,-789.43 3943,-789.43 3937,-789.43 3931,-783.43 3931,-777.43 3931,-777.43 3931,-765.43 3931,-765.43 3931,-759.43 3937,-753.43 3943,-753.43 3943,-753.43 4218,-753.43 4218,-753.43 4224,-753.43 4230,-759.43 4230,-765.43 4230,-765.43 4230,-777.43 4230,-777.43 4230,-783.43 4224,-789.43 4218,-789.43"/>
<text text-anchor="middle" x="4080.5" y="-767.73" font-family="Times,serif" font-size="14.00">dep&#45;n&#45;cmake&#45;0.1.54&#45;3741a1f4e7374899</text>
</g>
<!-- stage_0&#45;&gt;stage_18 -->
<g id="edge8" class="edge">
<title>stage_0&#45;&gt;stage_18</title>
<path fill="none" stroke="black" d="M2403.5,-621.43C2786.86,-583.75 2883.81,-671.11 3269,-667.43"/>
<path fill="none" stroke="black" d="M3271,-667.43C3390.57,-665.68 3418.56,-588.19 3535,-615.43"/>
</g>
<!-- stage_21 -->
<g id="node10" class="node">
<title>stage_21</title>
<path fill="none" stroke="black" d="M4213.5,-385.43C4213.5,-385.43 3947.5,-385.43 3947.5,-385.43 3941.5,-385.43 3935.5,-379.43 3935.5,-373.43 3935.5,-373.43 3935.5,-361.43 3935.5,-361.43 3935.5,-355.43 3941.5,-349.43 3947.5,-349.43 3947.5,-349.43 4213.5,-349.43 4213.5,-349.43 4219.5,-349.43 4225.5,-355.43 4225.5,-361.43 4225.5,-361.43 4225.5,-373.43 4225.5,-373.43 4225.5,-379.43 4219.5,-385.43 4213.5,-385.43"/>
<text text-anchor="middle" x="4080.5" y="-363.73" font-family="Times,serif" font-size="14.00">dep&#45;n&#45;dunce&#45;1.0.5&#45;4ebb5633c029d02a</text>
</g>
<!-- stage_0&#45;&gt;stage_21 -->
<g id="edge9" class="edge">
<title>stage_0&#45;&gt;stage_21</title>
<path fill="none" stroke="black" d="M3537,-373.43C3666.43,-350.68 3815.91,-350.94 3925.15,-355.9"/>
<polygon fill="black" stroke="black" points="3925.11,-359.4 3935.26,-356.37 3925.44,-352.41 3925.11,-359.4"/>
</g>
<!-- stage_24 -->
<g id="node11" class="node">
<title>stage_24</title>
<path fill="none" stroke="black" d="M4218,-535.43C4218,-535.43 3943,-535.43 3943,-535.43 3937,-535.43 3931,-529.43 3931,-523.43 3931,-523.43 3931,-511.43 3931,-511.43 3931,-505.43 3937,-499.43 3943,-499.43 3943,-499.43 4218,-499.43 4218,-499.43 4224,-499.43 4230,-505.43 4230,-511.43 4230,-511.43 4230,-523.43 4230,-523.43 4230,-529.43 4224,-535.43 4218,-535.43"/>
<text text-anchor="middle" x="4080.5" y="-513.73" font-family="Times,serif" font-size="14.00">dep&#45;n&#45;fs_extra&#45;1.3.0&#45;e6abd85383eef4c9</text>
</g>
<!-- stage_0&#45;&gt;stage_24 -->
<g id="edge10" class="edge">
<title>stage_0&#45;&gt;stage_24</title>
<path fill="none" stroke="black" d="M3271,-465.43C3392.73,-454.98 3721.59,-482.67 3920.38,-501.54"/>
<polygon fill="black" stroke="black" points="3920.35,-505.05 3930.63,-502.51 3921.01,-498.08 3920.35,-505.05"/>
</g>
<!-- stage_27 -->
<g id="node12" class="node">
<title>stage_27</title>
<path fill="none" stroke="black" d="M4812,-489.43C4812,-489.43 4514,-489.43 4514,-489.43 4508,-489.43 4502,-483.43 4502,-477.43 4502,-477.43 4502,-465.43 4502,-465.43 4502,-459.43 4508,-453.43 4514,-453.43 4514,-453.43 4812,-453.43 4812,-453.43 4818,-453.43 4824,-459.43 4824,-465.43 4824,-465.43 4824,-477.43 4824,-477.43 4824,-483.43 4818,-489.43 4812,-489.43"/>
<text text-anchor="middle" x="4663" y="-467.73" font-family="Times,serif" font-size="14.00">dep&#45;x&#45;aws&#45;lc&#45;sys&#45;0.27.1&#45;590398941c1af7ae</text>
</g>
<!-- stage_0&#45;&gt;stage_27 -->
<g id="edge11" class="edge">
<title>stage_0&#45;&gt;stage_27</title>
<path fill="none" stroke="black" d="M3537,-373.43C3616.91,-358.4 4184.99,-430.4 4266,-437.43 4339.88,-443.85 4421.51,-450.87 4491.37,-456.86"/>
<polygon fill="black" stroke="black" points="4491.33,-460.36 4501.59,-457.73 4491.93,-453.39 4491.33,-460.36"/>
</g>
<!-- stage_29 -->
<g id="node13" class="node">
<title>stage_29</title>
<path fill="none" stroke="black" d="M5388,-332.43C5388,-332.43 5089,-332.43 5089,-332.43 5083,-332.43 5077,-326.43 5077,-320.43 5077,-320.43 5077,-308.43 5077,-308.43 5077,-302.43 5083,-296.43 5089,-296.43 5089,-296.43 5388,-296.43 5388,-296.43 5394,-296.43 5400,-302.43 5400,-308.43 5400,-308.43 5400,-320.43 5400,-320.43 5400,-326.43 5394,-332.43 5388,-332.43"/>
<text text-anchor="middle" x="5238.5" y="-310.73" font-family="Times,serif" font-size="14.00">run&#45;z&#45;aws&#45;lc&#45;sys&#45;0.27.1&#45;e68d7f20dd3d392b</text>
</g>
<!-- stage_0&#45;&gt;stage_29 -->
<g id="edge12" class="edge">
<title>stage_0&#45;&gt;stage_29</title>
<path fill="none" stroke="black" d="M4081.5,-315.43C4431.34,-312.5 4840.75,-313.1 5066.39,-313.78"/>
<polygon fill="black" stroke="black" points="5066.66,-317.28 5076.67,-313.81 5066.68,-310.28 5066.66,-317.28"/>
</g>
<!-- stage_31 -->
<g id="node14" class="node">
<title>stage_31</title>
<path fill="none" stroke="black" d="M5974,-234.43C5974,-234.43 5668,-234.43 5668,-234.43 5662,-234.43 5656,-228.43 5656,-222.43 5656,-222.43 5656,-210.43 5656,-210.43 5656,-204.43 5662,-198.43 5668,-198.43 5668,-198.43 5974,-198.43 5974,-198.43 5980,-198.43 5986,-204.43 5986,-210.43 5986,-210.43 5986,-222.43 5986,-222.43 5986,-228.43 5980,-234.43 5974,-234.43"/>
<text text-anchor="middle" x="5821" y="-212.73" font-family="Times,serif" font-size="14.00">dep&#45;n&#45;aws&#45;lc&#45;sys&#45;0.27.1&#45;d7d98da815527774</text>
</g>
<!-- stage_0&#45;&gt;stage_31 -->
<g id="edge13" class="edge">
<title>stage_0&#45;&gt;stage_31</title>
<path fill="none" stroke="black" d="M5529,-216.43C5566.64,-214.77 5607.05,-214.07 5645.42,-213.92"/>
<polygon fill="black" stroke="black" points="5645.67,-217.42 5655.66,-213.89 5645.65,-210.42 5645.67,-217.42"/>
</g>
<!-- stage_34 -->
<g id="node15" class="node">
<title>stage_34</title>
<path fill="none" stroke="black" d="M5957,-130.43C5957,-130.43 5685,-130.43 5685,-130.43 5679,-130.43 5673,-124.43 5673,-118.43 5673,-118.43 5673,-106.43 5673,-106.43 5673,-100.43 5679,-94.43 5685,-94.43 5685,-94.43 5957,-94.43 5957,-94.43 5963,-94.43 5969,-100.43 5969,-106.43 5969,-106.43 5969,-118.43 5969,-118.43 5969,-124.43 5963,-130.43 5957,-130.43"/>
<text text-anchor="middle" x="5821" y="-108.73" font-family="Times,serif" font-size="14.00">dep&#45;n&#45;zeroize&#45;1.8.1&#45;fd6e94371433d6e2</text>
</g>
<!-- stage_0&#45;&gt;stage_34 -->
<g id="edge14" class="edge">
<title>stage_0&#45;&gt;stage_34</title>
<path fill="none" stroke="black" d="M1567,-725.43C1684.7,-684.33 1723.32,-736.44 1847.5,-725.43"/>
<path fill="none" stroke="black" d="M1849.5,-725.43C1936.58,-717.71 1954.34,-693.92 2040,-676.43 2199.23,-643.93 2239.81,-637.75 2401.5,-621.43"/>
<path fill="none" stroke="black" d="M2403.5,-621.43C2489.82,-606.94 2500.17,-568.71 2583,-540.43 2624.73,-526.19 2636.5,-527.17 2679.5,-517.43"/>
<path fill="none" stroke="black" d="M2681.5,-517.43C2740.29,-504.12 2754.25,-496.43 2814,-488.43 3014.69,-461.58 3067.15,-481.46 3269,-465.43"/>
<path fill="none" stroke="black" d="M3271,-465.43C3301.89,-462.18 3504.78,-380.63 3535,-373.43"/>
<path fill="none" stroke="black" d="M3537,-373.43C3618.81,-353.94 3625.95,-310.88 3708,-292.43 3869.4,-256.14 3914.08,-316.96 4079.5,-315.43"/>
<path fill="none" stroke="black" d="M4081.5,-315.43C4170.98,-311.77 4178.53,-253.64 4266,-234.43 4687.81,-141.83 4807.16,-252.52 5237.5,-216.43"/>
<path fill="none" stroke="black" d="M5239.5,-216.43C5333.54,-207.56 5343.93,-156.55 5436,-135.43 5509.37,-118.61 5592.57,-112.14 5662.72,-110.17"/>
<polygon fill="black" stroke="black" points="5663.06,-113.66 5672.97,-109.91 5662.88,-106.67 5663.06,-113.66"/>
</g>
<!-- stage_37 -->
<g id="node16" class="node">
<title>stage_37</title>
<path fill="none" stroke="black" d="M1427,-130.43C1427,-130.43 1138,-130.43 1138,-130.43 1132,-130.43 1126,-124.43 1126,-118.43 1126,-118.43 1126,-106.43 1126,-106.43 1126,-100.43 1132,-94.43 1138,-94.43 1138,-94.43 1427,-94.43 1427,-94.43 1433,-94.43 1439,-100.43 1439,-106.43 1439,-106.43 1439,-118.43 1439,-118.43 1439,-124.43 1433,-130.43 1427,-130.43"/>
<text text-anchor="middle" x="1282.5" y="-108.73" font-family="Times,serif" font-size="14.00">dep&#45;x&#45;aws&#45;lc&#45;rs&#45;1.12.6&#45;bc8082a139a1fe57</text>
</g>
<!-- stage_0&#45;&gt;stage_37 -->
<g id="edge15" class="edge">
<title>stage_0&#45;&gt;stage_37</title>
<path fill="none" stroke="black" d="M1003.9,-707.42C1044.44,-620.54 1219.8,-244.68 1268.76,-139.74"/>
<polygon fill="black" stroke="black" points="1272.04,-140.99 1273.09,-130.45 1265.7,-138.03 1272.04,-140.99"/>
</g>
<!-- stage_39 -->
<g id="node17" class="node">
<title>stage_39</title>
<path fill="none" stroke="black" d="M1992,-78.43C1992,-78.43 1705,-78.43 1705,-78.43 1699,-78.43 1693,-72.43 1693,-66.43 1693,-66.43 1693,-54.43 1693,-54.43 1693,-48.43 1699,-42.43 1705,-42.43 1705,-42.43 1992,-42.43 1992,-42.43 1998,-42.43 2004,-48.43 2004,-54.43 2004,-54.43 2004,-66.43 2004,-66.43 2004,-72.43 1998,-78.43 1992,-78.43"/>
<text text-anchor="middle" x="1848.5" y="-56.73" font-family="Times,serif" font-size="14.00">run&#45;z&#45;aws&#45;lc&#45;rs&#45;1.12.6&#45;6bf63cc1b640d11a</text>
</g>
<!-- stage_0&#45;&gt;stage_39 -->
<g id="edge16" class="edge">
<title>stage_0&#45;&gt;stage_39</title>
<path fill="none" stroke="black" d="M1066.52,-730.84C1198.07,-739.97 1474.46,-754.74 1565,-725.43"/>
<path fill="none" stroke="black" d="M1567,-725.43C1828.86,-633.98 1847.59,-203.48 1847.87,-88.64"/>
<polygon fill="black" stroke="black" points="1851.37,-88.53 1847.84,-78.54 1844.37,-88.55 1851.37,-88.53"/>
</g>
<!-- stage_41 -->
<g id="node18" class="node">
<title>stage_41</title>
<path fill="none" stroke="black" d="M6550,-182.43C6550,-182.43 6258,-182.43 6258,-182.43 6252,-182.43 6246,-176.43 6246,-170.43 6246,-170.43 6246,-158.43 6246,-158.43 6246,-152.43 6252,-146.43 6258,-146.43 6258,-146.43 6550,-146.43 6550,-146.43 6556,-146.43 6562,-152.43 6562,-158.43 6562,-158.43 6562,-170.43 6562,-170.43 6562,-176.43 6556,-182.43 6550,-182.43"/>
<text text-anchor="middle" x="6404" y="-160.73" font-family="Times,serif" font-size="14.00">dep&#45;n&#45;aws&#45;lc&#45;rs&#45;1.12.6&#45;98a89d00042f88c9</text>
</g>
<!-- stage_0&#45;&gt;stage_41 -->
<g id="edge17" class="edge">
<title>stage_0&#45;&gt;stage_41</title>
<path fill="none" stroke="black" d="M5239.5,-216.43C5366.83,-205.71 5399.35,-222.09 5527,-216.43"/>
<path fill="none" stroke="black" d="M5529,-216.43C5586.84,-213.87 5598.57,-194.8 5656,-187.43 5853.98,-162.02 6083.78,-158.85 6235.65,-160.36"/>
<polygon fill="black" stroke="black" points="6235.96,-163.86 6246,-160.47 6236.03,-156.86 6235.96,-163.86"/>
</g>
<!-- stage_3 -->
<g id="node19" class="node">
<title>stage_3</title>
<path fill="none" stroke="black" d="M1645,-841.43C1645,-841.43 1487,-841.43 1487,-841.43 1481,-841.43 1475,-835.43 1475,-829.43 1475,-829.43 1475,-817.43 1475,-817.43 1475,-811.43 1481,-805.43 1487,-805.43 1487,-805.43 1645,-805.43 1645,-805.43 1651,-805.43 1657,-811.43 1657,-817.43 1657,-817.43 1657,-829.43 1657,-829.43 1657,-835.43 1651,-841.43 1645,-841.43"/>
<text text-anchor="middle" x="1566" y="-819.73" font-family="Times,serif" font-size="14.00">out&#45;55bd35d1ef212c79</text>
</g>
<!-- stage_2&#45;&gt;stage_3 -->
<g id="edge18" class="edge">
<title>stage_2&#45;&gt;stage_3</title>
<path fill="none" stroke="black" stroke-dasharray="5,2" d="M1425.9,-823.43C1439.03,-823.43 1452.14,-823.43 1464.77,-823.43"/>
<polygon fill="none" stroke="black" points="1464.79,-826.93 1474.79,-823.43 1464.79,-819.93 1464.79,-826.93"/>
</g>
<!-- stage_5 -->
<g id="node21" class="node">
<title>stage_5</title>
<path fill="none" stroke="black" d="M2210,-795.43C2210,-795.43 2052,-795.43 2052,-795.43 2046,-795.43 2040,-789.43 2040,-783.43 2040,-783.43 2040,-771.43 2040,-771.43 2040,-765.43 2046,-759.43 2052,-759.43 2052,-759.43 2210,-759.43 2210,-759.43 2216,-759.43 2222,-765.43 2222,-771.43 2222,-771.43 2222,-783.43 2222,-783.43 2222,-789.43 2216,-795.43 2210,-795.43"/>
<text text-anchor="middle" x="2131" y="-773.73" font-family="Times,serif" font-size="14.00">out&#45;4dfd14a0b71a19ea</text>
</g>
<!-- stage_4&#45;&gt;stage_5 -->
<g id="edge28" class="edge">
<title>stage_4&#45;&gt;stage_5</title>
<path fill="none" stroke="black" stroke-dasharray="5,2" d="M1990.57,-777.43C2003.81,-777.43 2017.04,-777.43 2029.79,-777.43"/>
<polygon fill="none" stroke="black" points="2029.9,-780.93 2039.9,-777.43 2029.9,-773.93 2029.9,-780.93"/>
</g>
<!-- stage_7 -->
<g id="node22" class="node">
<title>stage_7</title>
<path fill="none" stroke="black" d="M2760.5,-887.43C2760.5,-887.43 2600.5,-887.43 2600.5,-887.43 2594.5,-887.43 2588.5,-881.43 2588.5,-875.43 2588.5,-875.43 2588.5,-863.43 2588.5,-863.43 2588.5,-857.43 2594.5,-851.43 2600.5,-851.43 2600.5,-851.43 2760.5,-851.43 2760.5,-851.43 2766.5,-851.43 2772.5,-857.43 2772.5,-863.43 2772.5,-863.43 2772.5,-875.43 2772.5,-875.43 2772.5,-881.43 2766.5,-887.43 2760.5,-887.43"/>
<text text-anchor="middle" x="2680.5" y="-865.73" font-family="Times,serif" font-size="14.00">out&#45;d68e352a3cdc3b08</text>
</g>
<!-- stage_6&#45;&gt;stage_7 -->
<g id="edge30" class="edge">
<title>stage_6&#45;&gt;stage_7</title>
<path fill="none" stroke="black" stroke-dasharray="5,2" d="M2489.32,-829.47C2519.3,-835.77 2553.14,-842.88 2583.88,-849.34"/>
<polygon fill="none" stroke="black" points="2583.23,-852.78 2593.74,-851.41 2584.67,-845.93 2583.23,-852.78"/>
</g>
<!-- stage_10 -->
<g id="node23" class="node">
<title>stage_10</title>
<path fill="none" stroke="black" d="M3352,-841.43C3352,-841.43 3188,-841.43 3188,-841.43 3182,-841.43 3176,-835.43 3176,-829.43 3176,-829.43 3176,-817.43 3176,-817.43 3176,-811.43 3182,-805.43 3188,-805.43 3188,-805.43 3352,-805.43 3352,-805.43 3358,-805.43 3364,-811.43 3364,-817.43 3364,-817.43 3364,-829.43 3364,-829.43 3364,-835.43 3358,-841.43 3352,-841.43"/>
<text text-anchor="middle" x="3270" y="-819.73" font-family="Times,serif" font-size="14.00">out&#45;5253d2060227d8a0</text>
</g>
<!-- stage_9&#45;&gt;stage_10 -->
<g id="edge40" class="edge">
<title>stage_9&#45;&gt;stage_10</title>
<path fill="none" stroke="black" stroke-dasharray="5,2" d="M3068.48,-783.47C3100.23,-789.8 3136.08,-796.94 3168.6,-803.42"/>
<polygon fill="none" stroke="black" points="3168.09,-806.89 3178.58,-805.41 3169.45,-800.02 3168.09,-806.89"/>
</g>
<!-- stage_13 -->
<g id="node25" class="node">
<title>stage_13</title>
<path fill="none" stroke="black" d="M3349,-535.43C3349,-535.43 3191,-535.43 3191,-535.43 3185,-535.43 3179,-529.43 3179,-523.43 3179,-523.43 3179,-511.43 3179,-511.43 3179,-505.43 3185,-499.43 3191,-499.43 3191,-499.43 3349,-499.43 3349,-499.43 3355,-499.43 3361,-505.43 3361,-511.43 3361,-511.43 3361,-523.43 3361,-523.43 3361,-529.43 3355,-535.43 3349,-535.43"/>
<text text-anchor="middle" x="3270" y="-513.73" font-family="Times,serif" font-size="14.00">out&#45;e58644cb7f510602</text>
</g>
<!-- stage_12&#45;&gt;stage_13 -->
<g id="edge49" class="edge">
<title>stage_12&#45;&gt;stage_13</title>
<path fill="none" stroke="black" stroke-dasharray="5,2" d="M3117.53,-517.43C3134.81,-517.43 3152.19,-517.43 3168.72,-517.43"/>
<polygon fill="none" stroke="black" points="3168.88,-520.93 3178.88,-517.43 3168.88,-513.93 3168.88,-520.93"/>
</g>
<!-- stage_16 -->
<g id="node27" class="node">
<title>stage_16</title>
<path fill="none" stroke="black" d="M3883,-685.43C3883,-685.43 3720,-685.43 3720,-685.43 3714,-685.43 3708,-679.43 3708,-673.43 3708,-673.43 3708,-661.43 3708,-661.43 3708,-655.43 3714,-649.43 3720,-649.43 3720,-649.43 3883,-649.43 3883,-649.43 3889,-649.43 3895,-655.43 3895,-661.43 3895,-661.43 3895,-673.43 3895,-673.43 3895,-679.43 3889,-685.43 3883,-685.43"/>
<text text-anchor="middle" x="3801.5" y="-663.73" font-family="Times,serif" font-size="14.00">out&#45;947438b818448e5e</text>
</g>
<!-- stage_15&#45;&gt;stage_16 -->
<g id="edge58" class="edge">
<title>stage_15&#45;&gt;stage_16</title>
<path fill="none" stroke="black" stroke-dasharray="5,2" d="M3672.22,-667.43C3680.76,-667.43 3689.27,-667.43 3697.62,-667.43"/>
<polygon fill="none" stroke="black" points="3697.72,-670.93 3707.72,-667.43 3697.72,-663.93 3697.72,-670.93"/>
</g>
<!-- stage_19 -->
<g id="node29" class="node">
<title>stage_19</title>
<path fill="none" stroke="black" d="M4445.5,-881.43C4445.5,-881.43 4286.5,-881.43 4286.5,-881.43 4280.5,-881.43 4274.5,-875.43 4274.5,-869.43 4274.5,-869.43 4274.5,-857.43 4274.5,-857.43 4274.5,-851.43 4280.5,-845.43 4286.5,-845.43 4286.5,-845.43 4445.5,-845.43 4445.5,-845.43 4451.5,-845.43 4457.5,-851.43 4457.5,-857.43 4457.5,-857.43 4457.5,-869.43 4457.5,-869.43 4457.5,-875.43 4451.5,-881.43 4445.5,-881.43"/>
<text text-anchor="middle" x="4366" y="-859.73" font-family="Times,serif" font-size="14.00">out&#45;3741a1f4e7374899</text>
</g>
<!-- stage_18&#45;&gt;stage_19 -->
<g id="edge65" class="edge">
<title>stage_18&#45;&gt;stage_19</title>
<path fill="none" stroke="black" stroke-dasharray="5,2" d="M4168.95,-789.46C4189.18,-794.34 4210.49,-800.06 4230,-806.43 4259.7,-816.13 4291.98,-829.64 4317.52,-841.07"/>
<polygon fill="none" stroke="black" points="4316.4,-844.41 4326.96,-845.34 4319.29,-838.03 4316.4,-844.41"/>
</g>
<!-- stage_22 -->
<g id="node31" class="node">
<title>stage_22</title>
<path fill="none" stroke="black" d="M4446.5,-385.43C4446.5,-385.43 4285.5,-385.43 4285.5,-385.43 4279.5,-385.43 4273.5,-379.43 4273.5,-373.43 4273.5,-373.43 4273.5,-361.43 4273.5,-361.43 4273.5,-355.43 4279.5,-349.43 4285.5,-349.43 4285.5,-349.43 4446.5,-349.43 4446.5,-349.43 4452.5,-349.43 4458.5,-355.43 4458.5,-361.43 4458.5,-361.43 4458.5,-373.43 4458.5,-373.43 4458.5,-379.43 4452.5,-385.43 4446.5,-385.43"/>
<text text-anchor="middle" x="4366" y="-363.73" font-family="Times,serif" font-size="14.00">out&#45;4ebb5633c029d02a</text>
</g>
<!-- stage_21&#45;&gt;stage_22 -->
<g id="edge70" class="edge">
<title>stage_21&#45;&gt;stage_22</title>
<path fill="none" stroke="black" stroke-dasharray="5,2" d="M4225.74,-367.43C4238.35,-367.43 4250.94,-367.43 4263.09,-367.43"/>
<polygon fill="none" stroke="black" points="4263.2,-370.93 4273.2,-367.43 4263.2,-363.93 4263.2,-370.93"/>
</g>
<!-- stage_25 -->
<g id="node33" class="node">
<title>stage_25</title>
<path fill="none" stroke="black" d="M4444,-535.43C4444,-535.43 4288,-535.43 4288,-535.43 4282,-535.43 4276,-529.43 4276,-523.43 4276,-523.43 4276,-511.43 4276,-511.43 4276,-505.43 4282,-499.43 4288,-499.43 4288,-499.43 4444,-499.43 4444,-499.43 4450,-499.43 4456,-505.43 4456,-511.43 4456,-511.43 4456,-523.43 4456,-523.43 4456,-529.43 4450,-535.43 4444,-535.43"/>
<text text-anchor="middle" x="4366" y="-513.73" font-family="Times,serif" font-size="14.00">out&#45;e6abd85383eef4c9</text>
</g>
<!-- stage_24&#45;&gt;stage_25 -->
<g id="edge75" class="edge">
<title>stage_24&#45;&gt;stage_25</title>
<path fill="none" stroke="black" stroke-dasharray="5,2" d="M4230.31,-517.43C4242.3,-517.43 4254.23,-517.43 4265.74,-517.43"/>
<polygon fill="none" stroke="black" points="4265.75,-520.93 4275.75,-517.43 4265.75,-513.93 4265.75,-520.93"/>
</g>
<!-- stage_28 -->
<g id="node35" class="node">
<title>stage_28</title>
<path fill="none" stroke="black" d="M5029,-489.43C5029,-489.43 4872,-489.43 4872,-489.43 4866,-489.43 4860,-483.43 4860,-477.43 4860,-477.43 4860,-465.43 4860,-465.43 4860,-459.43 4866,-453.43 4872,-453.43 4872,-453.43 5029,-453.43 5029,-453.43 5035,-453.43 5041,-459.43 5041,-465.43 5041,-465.43 5041,-477.43 5041,-477.43 5041,-483.43 5035,-489.43 5029,-489.43"/>
<text text-anchor="middle" x="4950.5" y="-467.73" font-family="Times,serif" font-size="14.00">out&#45;590398941c1af7ae</text>
</g>
<!-- stage_27&#45;&gt;stage_28 -->
<g id="edge80" class="edge">
<title>stage_27&#45;&gt;stage_28</title>
<path fill="none" stroke="black" stroke-dasharray="5,2" d="M4824.28,-471.43C4832.95,-471.43 4841.54,-471.43 4849.91,-471.43"/>
<polygon fill="none" stroke="black" points="4850,-474.93 4860,-471.43 4850,-467.93 4850,-474.93"/>
</g>
<!-- stage_30 -->
<g id="node37" class="node">
<title>stage_30</title>
<path fill="none" stroke="black" d="M5608,-332.43C5608,-332.43 5448,-332.43 5448,-332.43 5442,-332.43 5436,-326.43 5436,-320.43 5436,-320.43 5436,-308.43 5436,-308.43 5436,-302.43 5442,-296.43 5448,-296.43 5448,-296.43 5608,-296.43 5608,-296.43 5614,-296.43 5620,-302.43 5620,-308.43 5620,-308.43 5620,-320.43 5620,-320.43 5620,-326.43 5614,-332.43 5608,-332.43"/>
<text text-anchor="middle" x="5528" y="-310.73" font-family="Times,serif" font-size="14.00">out&#45;e68d7f20dd3d392b</text>
</g>
<!-- stage_29&#45;&gt;stage_30 -->
<g id="edge86" class="edge">
<title>stage_29&#45;&gt;stage_30</title>
<path fill="none" stroke="black" stroke-dasharray="5,2" d="M5400.06,-314.43C5408.75,-314.43 5417.35,-314.43 5425.74,-314.43"/>
<polygon fill="none" stroke="black" points="5425.87,-317.93 5435.87,-314.43 5425.87,-310.93 5425.87,-317.93"/>
</g>
<!-- stage_32 -->
<g id="node38" class="node">
<title>stage_32</title>
<path fill="none" stroke="black" d="M6198,-234.43C6198,-234.43 6034,-234.43 6034,-234.43 6028,-234.43 6022,-228.43 6022,-222.43 6022,-222.43 6022,-210.43 6022,-210.43 6022,-204.43 6028,-198.43 6034,-198.43 6034,-198.43 6198,-198.43 6198,-198.43 6204,-198.43 6210,-204.43 6210,-210.43 6210,-210.43 6210,-222.43 6210,-222.43 6210,-228.43 6204,-234.43 6198,-234.43"/>
<text text-anchor="middle" x="6116" y="-212.73" font-family="Times,serif" font-size="14.00">out&#45;d7d98da815527774</text>
</g>
<!-- stage_31&#45;&gt;stage_32 -->
<g id="edge506" class="edge">
<title>stage_31&#45;&gt;stage_32</title>
<path fill="none" stroke="black" stroke-dasharray="5,2" d="M5986.06,-216.43C5994.71,-216.43 6003.27,-216.43 6011.63,-216.43"/>
<polygon fill="none" stroke="black" points="6011.71,-219.93 6021.71,-216.43 6011.71,-212.93 6011.71,-219.93"/>
</g>
<!-- stage_35 -->
<g id="node39" class="node">
<title>stage_35</title>
<path fill="none" stroke="black" d="M6195.5,-130.43C6195.5,-130.43 6036.5,-130.43 6036.5,-130.43 6030.5,-130.43 6024.5,-124.43 6024.5,-118.43 6024.5,-118.43 6024.5,-106.43 6024.5,-106.43 6024.5,-100.43 6030.5,-94.43 6036.5,-94.43 6036.5,-94.43 6195.5,-94.43 6195.5,-94.43 6201.5,-94.43 6207.5,-100.43 6207.5,-106.43 6207.5,-106.43 6207.5,-118.43 6207.5,-118.43 6207.5,-124.43 6201.5,-130.43 6195.5,-130.43"/>
<text text-anchor="middle" x="6116" y="-108.73" font-family="Times,serif" font-size="14.00">out&#45;fd6e94371433d6e2</text>
</g>
<!-- stage_34&#45;&gt;stage_35 -->
<g id="edge509" class="edge">
<title>stage_34&#45;&gt;stage_35</title>
<path fill="none" stroke="black" stroke-dasharray="5,2" d="M5969.36,-112.43C5984.5,-112.43 5999.62,-112.43 6014.09,-112.43"/>
<polygon fill="none" stroke="black" points="6014.49,-115.93 6024.49,-112.43 6014.49,-108.93 6014.49,-115.93"/>
</g>
<!-- stage_38 -->
<g id="node41" class="node">
<title>stage_38</title>
<path fill="none" stroke="black" d="M1644.5,-130.43C1644.5,-130.43 1487.5,-130.43 1487.5,-130.43 1481.5,-130.43 1475.5,-124.43 1475.5,-118.43 1475.5,-118.43 1475.5,-106.43 1475.5,-106.43 1475.5,-100.43 1481.5,-94.43 1487.5,-94.43 1487.5,-94.43 1644.5,-94.43 1644.5,-94.43 1650.5,-94.43 1656.5,-100.43 1656.5,-106.43 1656.5,-106.43 1656.5,-118.43 1656.5,-118.43 1656.5,-124.43 1650.5,-130.43 1644.5,-130.43"/>
<text text-anchor="middle" x="1566" y="-108.73" font-family="Times,serif" font-size="14.00">out&#45;bc8082a139a1fe57</text>
</g>
<!-- stage_37&#45;&gt;stage_38 -->
<g id="edge513" class="edge">
<title>stage_37&#45;&gt;stage_38</title>
<path fill="none" stroke="black" stroke-dasharray="5,2" d="M1439.07,-112.43C1447.84,-112.43 1456.53,-112.43 1465.01,-112.43"/>
<polygon fill="none" stroke="black" points="1465.23,-115.93 1475.23,-112.43 1465.23,-108.93 1465.23,-115.93"/>
</g>
<!-- stage_40 -->
<g id="node43" class="node">
<title>stage_40</title>
<path fill="none" stroke="black" d="M2481,-78.43C2481,-78.43 2324,-78.43 2324,-78.43 2318,-78.43 2312,-72.43 2312,-66.43 2312,-66.43 2312,-54.43 2312,-54.43 2312,-48.43 2318,-42.43 2324,-42.43 2324,-42.43 2481,-42.43 2481,-42.43 2487,-42.43 2493,-48.43 2493,-54.43 2493,-54.43 2493,-66.43 2493,-66.43 2493,-72.43 2487,-78.43 2481,-78.43"/>
<text text-anchor="middle" x="2402.5" y="-56.73" font-family="Times,serif" font-size="14.00">out&#45;6bf63cc1b640d11a</text>
</g>
<!-- stage_39&#45;&gt;stage_40 -->
<g id="edge518" class="edge">
<title>stage_39&#45;&gt;stage_40</title>
<path fill="none" stroke="black" stroke-dasharray="5,2" d="M2004.36,-60.43C2099.58,-60.43 2218.78,-60.43 2301.62,-60.43"/>
<polygon fill="none" stroke="black" points="2301.8,-63.93 2311.8,-60.43 2301.8,-56.93 2301.8,-63.93"/>
</g>
<!-- stage_42 -->
<g id="node44" class="node">
<title>stage_42</title>
<path fill="none" stroke="black" d="M6768,-182.43C6768,-182.43 6610,-182.43 6610,-182.43 6604,-182.43 6598,-176.43 6598,-170.43 6598,-170.43 6598,-158.43 6598,-158.43 6598,-152.43 6604,-146.43 6610,-146.43 6610,-146.43 6768,-146.43 6768,-146.43 6774,-146.43 6780,-152.43 6780,-158.43 6780,-158.43 6780,-170.43 6780,-170.43 6780,-176.43 6774,-182.43 6768,-182.43"/>
<text text-anchor="middle" x="6689" y="-160.73" font-family="Times,serif" font-size="14.00">out&#45;98a89d00042f88c9</text>
</g>
<!-- stage_41&#45;&gt;stage_42 -->
<g id="edge520" class="edge">
<title>stage_41&#45;&gt;stage_42</title>
<path fill="none" stroke="black" stroke-dasharray="5,2" d="M6562.22,-164.43C6570.82,-164.43 6579.33,-164.43 6587.64,-164.43"/>
<polygon fill="none" stroke="black" points="6587.66,-167.93 6597.66,-164.43 6587.66,-160.93 6587.66,-167.93"/>
</g>
<!-- stage_3&#45;&gt;stage_4 -->
<g id="edge22" class="edge">
<title>stage_3&#45;&gt;stage_4</title>
<path fill="none" stroke="black" stroke-dasharray="1,5" d="M1657.3,-808.63C1679.05,-805.06 1702.65,-801.19 1725.58,-797.43"/>
<polygon fill="none" stroke="black" points="1725.65,-797.41 1730.93,-792.5 1737.5,-795.47 1732.22,-800.39 1725.65,-797.41"/>
</g>
<!-- stage_3&#45;&gt;stage_9 -->
<g id="edge23" class="edge">
<title>stage_3&#45;&gt;stage_9</title>
<path fill="none" stroke="black" stroke-dasharray="1,5" d="M1849.5,-829.43C2015.32,-825.24 2064.8,-859.37 2222,-806.43 2240.22,-800.3 2239.6,-788.01 2258,-782.43 2380.93,-745.21 2420.21,-761.86 2547,-782.43 2563.65,-785.13 2566.78,-789.81 2583,-794.43 2625.4,-806.53 2635.49,-814.83 2679.5,-817.43"/>
<path fill="none" stroke="black" stroke-dasharray="1,5" d="M2681.5,-817.43C2720,-818.97 2812.84,-801.25 2884.08,-786.08"/>
<polygon fill="none" stroke="black" points="2884.47,-786 2889.5,-780.83 2896.21,-783.48 2891.18,-788.65 2884.47,-786"/>
</g>
<!-- stage_3&#45;&gt;stage_15 -->
<g id="edge24" class="edge">
<title>stage_3&#45;&gt;stage_15</title>
<path fill="none" stroke="black" stroke-dasharray="1,5" d="M2681.5,-817.43C2812.35,-822.67 3144.16,-810.99 3269,-771.43"/>
<path fill="none" stroke="black" stroke-dasharray="1,5" d="M3271,-771.43C3311.7,-758.93 3328.26,-771.57 3364,-748.43 3385.79,-734.32 3378.29,-716.66 3400,-702.43 3407.24,-697.69 3415.09,-693.59 3423.24,-690.04"/>
<polygon fill="none" stroke="black" points="3423.36,-689.99 3427.45,-684.05 3434.51,-685.54 3430.42,-691.48 3423.36,-689.99"/>
</g>
<!-- stage_3&#45;&gt;stage_18 -->
<g id="edge25" class="edge">
<title>stage_3&#45;&gt;stage_18</title>
<path fill="none" stroke="black" stroke-dasharray="1,5" d="M1849.5,-829.43C2098.1,-821.83 2152.78,-921.43 2401.5,-921.43 2401.5,-921.43 2401.5,-921.43 3537,-921.43 3696.87,-921.43 3743.62,-937.85 3895,-886.43 3953.88,-866.44 4013.38,-824.55 4048.32,-797.23"/>
<polygon fill="none" stroke="black" points="4048.53,-797.07 4050.74,-790.2 4057.93,-789.6 4055.72,-796.47 4048.53,-797.07"/>
</g>
<!-- stage_3&#45;&gt;stage_27 -->
<g id="edge26" class="edge">
<title>stage_3&#45;&gt;stage_27</title>
<path fill="none" stroke="black" stroke-dasharray="1,5" d="M1657.07,-829.01C1712.12,-831.51 1783.92,-833.16 1847.5,-829.43"/>
<path fill="none" stroke="black" stroke-dasharray="1,5" d="M1849.5,-829.43C1918.8,-825.37 1950.16,-850.26 2004,-806.43 2039.98,-777.14 2003.22,-736.73 2040,-708.43 2073.06,-683 3493.67,-563.84 3535,-569.43"/>
</g>
<!-- stage_3&#45;&gt;stage_41 -->
<g id="edge27" class="edge">
<title>stage_3&#45;&gt;stage_41</title>
<path fill="none" stroke="black" stroke-dasharray="1,5" d="M1608.1,-841.52C1699.82,-880.2 1928.98,-967.43 2130,-967.43 2130,-967.43 2130,-967.43 3271,-967.43 3506.33,-967.43 3565.38,-957.35 3800.5,-967.43"/>
</g>
<!-- stage_1 -->
<g id="node20" class="node">
<title>stage_1</title>
<path fill="none" stroke="black" d="M1063.5,-867.43C1063.5,-867.43 925.5,-867.43 925.5,-867.43 919.5,-867.43 913.5,-861.43 913.5,-855.43 913.5,-855.43 913.5,-843.43 913.5,-843.43 913.5,-837.43 919.5,-831.43 925.5,-831.43 925.5,-831.43 1063.5,-831.43 1063.5,-831.43 1069.5,-831.43 1075.5,-837.43 1075.5,-843.43 1075.5,-843.43 1075.5,-855.43 1075.5,-855.43 1075.5,-861.43 1069.5,-867.43 1063.5,-867.43"/>
<text text-anchor="middle" x="994.5" y="-845.73" font-family="Times,serif" font-size="14.00">cratesio&#45;libc&#45;0.2.172</text>
</g>
<!-- stage_1&#45;&gt;stage_2 -->
<g id="edge19" class="edge">
<title>stage_1&#45;&gt;stage_2</title>
<path fill="none" stroke="black" stroke-dasharray="1,5" d="M1075.55,-842.16C1091.8,-840.68 1109.42,-839.08 1127.27,-837.45"/>
<polygon fill="none" stroke="black" points="1127.38,-837.44 1132.99,-832.92 1139.33,-836.36 1133.72,-840.88 1127.38,-837.44"/>
</g>
<!-- stage_1&#45;&gt;stage_4 -->
<g id="edge20" class="edge">
<title>stage_1&#45;&gt;stage_4</title>
<path fill="none" stroke="black" stroke-dasharray="1,5" d="M1075.81,-862.62C1133.06,-870.57 1211.9,-878.62 1281.5,-875.43"/>
<path fill="none" stroke="black" stroke-dasharray="1,5" d="M1283.5,-875.43C1353.29,-872.24 1380.6,-890.78 1439,-852.43 1464.36,-835.78 1448.83,-809.78 1475,-794.43 1556.93,-746.38 1667.3,-747.82 1746.6,-757.81"/>
<polygon fill="none" stroke="black" points="1746.67,-757.82 1753.15,-754.65 1758.56,-759.41 1752.08,-762.58 1746.67,-757.82"/>
</g>
<!-- stage_1&#45;&gt;stage_6 -->
<g id="edge21" class="edge">
<title>stage_1&#45;&gt;stage_6</title>
<path fill="none" stroke="black" stroke-dasharray="1,5" d="M1283.5,-875.43C1700.39,-856.73 1807.29,-892.96 2222,-846.43 2251.4,-843.13 2283.18,-837.6 2311.72,-831.89"/>
<polygon fill="none" stroke="black" points="2311.97,-831.84 2317.05,-826.72 2323.73,-829.44 2318.65,-834.56 2311.97,-831.84"/>
</g>
<!-- stage_5&#45;&gt;stage_6 -->
<g id="edge29" class="edge">
<title>stage_5&#45;&gt;stage_6</title>
<path fill="none" stroke="black" stroke-dasharray="1,5" d="M2222.11,-788.8C2230.03,-789.8 2238.18,-790.83 2246.43,-791.87"/>
<polygon fill="none" stroke="black" points="2246.67,-791.9 2253.13,-788.68 2258.58,-793.4 2252.13,-796.62 2246.67,-791.9"/>
</g>
<!-- stage_7&#45;&gt;stage_9 -->
<g id="edge31" class="edge">
<title>stage_7&#45;&gt;stage_9</title>
<path fill="none" stroke="black" stroke-dasharray="1,5" d="M2732.8,-851.32C2783,-833.59 2859.57,-806.55 2913.35,-787.56"/>
<polygon fill="none" stroke="black" points="2913.48,-787.51 2917.81,-781.74 2924.8,-783.51 2920.47,-789.28 2913.48,-787.51"/>
</g>
<!-- stage_7&#45;&gt;stage_15 -->
<g id="edge33" class="edge">
<title>stage_7&#45;&gt;stage_15</title>
<path fill="none" stroke="black" stroke-dasharray="1,5" d="M2772.52,-873.08C2830.79,-874.51 2907.95,-874.74 2976,-869.43"/>
<path fill="none" stroke="black" stroke-dasharray="1,5" d="M2978,-869.43C3051.44,-863.7 3076.27,-871.38 3140,-834.43 3160.69,-822.44 3155.49,-806.73 3176,-794.43 3212.52,-772.53 3228.41,-784.29 3269,-771.43"/>
</g>
<!-- stage_7&#45;&gt;stage_18 -->
<g id="edge35" class="edge">
<title>stage_7&#45;&gt;stage_18</title>
<path fill="none" stroke="black" stroke-dasharray="1,5" d="M2978,-869.43C3224.82,-850.18 3288.23,-855.58 3535,-875.43"/>
<path fill="none" stroke="black" stroke-dasharray="1,5" d="M3537,-875.43C3653.43,-888.33 3683.92,-880.92 3800.5,-869.43"/>
<path fill="none" stroke="black" stroke-dasharray="1,5" d="M3802.5,-869.43C3888.05,-861 3980.99,-821.21 4034.53,-794.99"/>
<polygon fill="none" stroke="black" points="4034.6,-794.96 4038.19,-788.71 4045.34,-789.62 4041.75,-795.87 4034.6,-794.96"/>
</g>
<!-- stage_7&#45;&gt;stage_27 -->
<g id="edge37" class="edge">
<title>stage_7&#45;&gt;stage_27</title>
<path fill="none" stroke="black" stroke-dasharray="1,5" d="M3802.5,-869.43C3994.03,-850.56 4049.22,-866.47 4230,-800.43 4295.72,-776.43 4300.73,-747.1 4365,-719.43"/>
</g>
<!-- stage_7&#45;&gt;stage_41 -->
<g id="edge38" class="edge">
<title>stage_7&#45;&gt;stage_41</title>
<path fill="none" stroke="black" stroke-dasharray="1,5" d="M3537,-875.43C3660.29,-889.09 3676.46,-968.22 3800.5,-967.43"/>
<path fill="none" stroke="black" stroke-dasharray="1,5" d="M3802.5,-967.43C4053.56,-965.84 4114.2,-926.88 4365,-915.43"/>
</g>
<!-- stage_10&#45;&gt;stage_15 -->
<g id="edge42" class="edge">
<title>stage_10&#45;&gt;stage_15</title>
<path fill="none" stroke="black" stroke-dasharray="1,5" d="M3339.39,-805.24C3348.38,-800.78 3356.92,-795.26 3364,-788.43 3393.83,-759.67 3368.69,-729.57 3400,-702.43 3404.85,-698.23 3410.14,-694.52 3415.74,-691.25"/>
<polygon fill="none" stroke="black" points="3416.18,-691.02 3419.65,-684.71 3426.82,-685.49 3423.34,-691.8 3416.18,-691.02"/>
</g>
<!-- stage_10&#45;&gt;stage_18 -->
<g id="edge44" class="edge">
<title>stage_10&#45;&gt;stage_18</title>
<path fill="none" stroke="black" stroke-dasharray="1,5" d="M3537,-719.43C3652.08,-697.74 3685.47,-697.45 3800.5,-719.43"/>
</g>
<!-- stage_10&#45;&gt;stage_27 -->
<g id="edge46" class="edge">
<title>stage_10&#45;&gt;stage_27</title>
<path fill="none" stroke="black" stroke-dasharray="1,5" d="M3319.83,-805.3C3334.1,-799.94 3349.69,-794.01 3364,-788.43 3440.36,-758.66 3454.46,-734.62 3535,-719.43"/>
<path fill="none" stroke="black" stroke-dasharray="1,5" d="M3537,-719.43C3596.81,-708.16 3621.49,-730.4 3672,-696.43 3697.18,-679.5 3683.48,-656.3 3708,-638.43 3742.24,-613.49 3758.18,-613.62 3800.5,-615.43"/>
</g>
<!-- stage_10&#45;&gt;stage_41 -->
<g id="edge47" class="edge">
<title>stage_10&#45;&gt;stage_41</title>
<path fill="none" stroke="black" stroke-dasharray="1,5" d="M3537,-719.43C3619.64,-703.85 3627.86,-774.95 3708,-800.43 3743.31,-811.66 4327.95,-915.68 4365,-915.43"/>
<path fill="none" stroke="black" stroke-dasharray="1,5" d="M4367,-915.43C4499.99,-909.36 4536.34,-907.4 4662,-863.43"/>
</g>
<!-- stage_8 -->
<g id="node24" class="node">
<title>stage_8</title>
<path fill="none" stroke="black" d="M2766,-783.43C2766,-783.43 2595,-783.43 2595,-783.43 2589,-783.43 2583,-777.43 2583,-771.43 2583,-771.43 2583,-759.43 2583,-759.43 2583,-753.43 2589,-747.43 2595,-747.43 2595,-747.43 2766,-747.43 2766,-747.43 2772,-747.43 2778,-753.43 2778,-759.43 2778,-759.43 2778,-771.43 2778,-771.43 2778,-777.43 2772,-783.43 2766,-783.43"/>
<text text-anchor="middle" x="2680.5" y="-761.73" font-family="Times,serif" font-size="14.00">cratesio&#45;jobserver&#45;0.1.32</text>
</g>
<!-- stage_8&#45;&gt;stage_9 -->
<g id="edge41" class="edge">
<title>stage_8&#45;&gt;stage_9</title>
<path fill="none" stroke="black" stroke-dasharray="1,5" d="M2778.34,-765.43C2785.96,-765.43 2793.8,-765.43 2801.73,-765.43"/>
<polygon fill="none" stroke="black" points="2801.86,-765.43 2807.86,-761.43 2813.86,-765.43 2807.86,-769.43 2801.86,-765.43"/>
</g>
<!-- stage_13&#45;&gt;stage_15 -->
<g id="edge51" class="edge">
<title>stage_13&#45;&gt;stage_15</title>
<path fill="none" stroke="black" stroke-dasharray="1,5" d="M3286.14,-535.52C3308.44,-560.98 3352.64,-607.12 3400,-632.43 3409.31,-637.41 3419.36,-641.7 3429.64,-645.41"/>
<polygon fill="none" stroke="black" points="3429.93,-645.51 3436.89,-643.63 3441.3,-649.34 3434.34,-651.22 3429.93,-645.51"/>
</g>
<!-- stage_13&#45;&gt;stage_18 -->
<g id="edge53" class="edge">
<title>stage_13&#45;&gt;stage_18</title>
<path fill="none" stroke="black" stroke-dasharray="1,5" d="M3299.13,-535.46C3324.56,-551.02 3363.51,-573.06 3400,-586.43 3457.62,-607.56 3475.24,-601.45 3535,-615.43"/>
<path fill="none" stroke="black" stroke-dasharray="1,5" d="M3537,-615.43C3596.26,-629.3 3621.49,-604.47 3672,-638.43 3697.18,-655.36 3683.48,-678.57 3708,-696.43 3742.24,-721.37 3758.89,-711.48 3800.5,-719.43"/>
<path fill="none" stroke="black" stroke-dasharray="1,5" d="M3802.5,-719.43C3857.89,-730.02 3919.56,-741.61 3970.62,-751.16"/>
<polygon fill="none" stroke="black" points="3970.89,-751.21 3977.52,-748.38 3982.68,-753.42 3976.05,-756.25 3970.89,-751.21"/>
</g>
<!-- stage_13&#45;&gt;stage_27 -->
<g id="edge55" class="edge">
<title>stage_13&#45;&gt;stage_27</title>
<path fill="none" stroke="black" stroke-dasharray="1,5" d="M3349.43,-535.45C3401.73,-546.82 3472.16,-560.93 3535,-569.43"/>
<path fill="none" stroke="black" stroke-dasharray="1,5" d="M3537,-569.43C3595.9,-577.4 3741.06,-615.59 3800.5,-615.43"/>
<path fill="none" stroke="black" stroke-dasharray="1,5" d="M3802.5,-615.43C3834.28,-615.35 4335.63,-731.56 4365,-719.43"/>
<path fill="none" stroke="black" stroke-dasharray="1,5" d="M4367,-719.43C4486.22,-668.1 4594.16,-552.15 4639.45,-499"/>
<polygon fill="none" stroke="black" points="4639.68,-498.72 4640.49,-491.55 4647.41,-489.54 4646.61,-496.7 4639.68,-498.72"/>
</g>
<!-- stage_13&#45;&gt;stage_41 -->
<g id="edge56" class="edge">
<title>stage_13&#45;&gt;stage_41</title>
<path fill="none" stroke="black" stroke-dasharray="1,5" d="M3329.51,-499.34C3426.43,-471.03 3626.85,-419.43 3800.5,-419.43 3800.5,-419.43 3800.5,-419.43 4081.5,-419.43 4339.5,-419.43 4404,-419.81 4662,-419.43"/>
</g>
<!-- stage_11 -->
<g id="node26" class="node">
<title>stage_11</title>
<path fill="none" stroke="black" d="M2746,-587.43C2746,-587.43 2615,-587.43 2615,-587.43 2609,-587.43 2603,-581.43 2603,-575.43 2603,-575.43 2603,-563.43 2603,-563.43 2603,-557.43 2609,-551.43 2615,-551.43 2615,-551.43 2746,-551.43 2746,-551.43 2752,-551.43 2758,-557.43 2758,-563.43 2758,-563.43 2758,-575.43 2758,-575.43 2758,-581.43 2752,-587.43 2746,-587.43"/>
<text text-anchor="middle" x="2680.5" y="-565.73" font-family="Times,serif" font-size="14.00">cratesio&#45;shlex&#45;1.3.0</text>
</g>
<!-- stage_11&#45;&gt;stage_12 -->
<g id="edge50" class="edge">
<title>stage_11&#45;&gt;stage_12</title>
<path fill="none" stroke="black" stroke-dasharray="1,5" d="M2758.11,-555.91C2789.74,-550.32 2827.08,-543.73 2861.82,-537.59"/>
<polygon fill="none" stroke="black" points="2862.17,-537.53 2867.38,-532.55 2873.99,-535.45 2868.78,-540.43 2862.17,-537.53"/>
</g>
<!-- stage_16&#45;&gt;stage_18 -->
<g id="edge60" class="edge">
<title>stage_16&#45;&gt;stage_18</title>
<path fill="none" stroke="black" stroke-dasharray="1,5" d="M3860.92,-685.52C3872.62,-690.24 3884.52,-695.87 3895,-702.43 3913.65,-714.11 3911.62,-725.99 3931,-736.43 3940.32,-741.45 3950.35,-745.76 3960.63,-749.45"/>
<polygon fill="none" stroke="black" points="3960.96,-749.56 3967.92,-747.67 3972.34,-753.36 3965.38,-755.25 3960.96,-749.56"/>
</g>
<!-- stage_16&#45;&gt;stage_27 -->
<g id="edge62" class="edge">
<title>stage_16&#45;&gt;stage_27</title>
<path fill="none" stroke="black" stroke-dasharray="1,5" d="M3885.77,-685.46C3940.57,-696.73 4014.02,-710.72 4079.5,-719.43"/>
<path fill="none" stroke="black" stroke-dasharray="1,5" d="M4081.5,-719.43C4143.95,-727.75 4306.77,-743.47 4365,-719.43"/>
</g>
<!-- stage_16&#45;&gt;stage_41 -->
<g id="edge63" class="edge">
<title>stage_16&#45;&gt;stage_41</title>
<path fill="none" stroke="black" stroke-dasharray="1,5" d="M4081.5,-719.43C4147.7,-728.24 4164.73,-728.29 4230,-742.43 4327.43,-763.54 4570.51,-903.05 4662,-863.43"/>
<path fill="none" stroke="black" stroke-dasharray="1,5" d="M4664,-863.43C4945.5,-736.63 4928.77,-473.93 5237.5,-471.43"/>
</g>
<!-- stage_14 -->
<g id="node28" class="node">
<title>stage_14</title>
<path fill="none" stroke="black" d="M3330,-737.43C3330,-737.43 3210,-737.43 3210,-737.43 3204,-737.43 3198,-731.43 3198,-725.43 3198,-725.43 3198,-713.43 3198,-713.43 3198,-707.43 3204,-701.43 3210,-701.43 3210,-701.43 3330,-701.43 3330,-701.43 3336,-701.43 3342,-707.43 3342,-713.43 3342,-713.43 3342,-725.43 3342,-725.43 3342,-731.43 3336,-737.43 3330,-737.43"/>
<text text-anchor="middle" x="3270" y="-715.73" font-family="Times,serif" font-size="14.00">cratesio&#45;cc&#45;1.2.16</text>
</g>
<!-- stage_14&#45;&gt;stage_15 -->
<g id="edge59" class="edge">
<title>stage_14&#45;&gt;stage_15</title>
<path fill="none" stroke="black" stroke-dasharray="1,5" d="M3342.09,-705.43C3369.6,-700.01 3401.62,-693.7 3431.58,-687.8"/>
<polygon fill="none" stroke="black" points="3431.61,-687.8 3436.73,-682.71 3443.39,-685.48 3438.27,-690.56 3431.61,-687.8"/>
</g>
<!-- stage_19&#45;&gt;stage_27 -->
<g id="edge67" class="edge">
<title>stage_19&#45;&gt;stage_27</title>
<path fill="none" stroke="black" stroke-dasharray="1,5" d="M4381.58,-845.04C4401.01,-820.44 4436.41,-775.4 4466,-736.43 4531.13,-650.67 4606.42,-547.79 4641.74,-499.31"/>
<polygon fill="none" stroke="black" points="4641.79,-499.25 4642.08,-492.04 4648.85,-489.54 4648.55,-496.75 4641.79,-499.25"/>
</g>
<!-- stage_19&#45;&gt;stage_41 -->
<g id="edge68" class="edge">
<title>stage_19&#45;&gt;stage_41</title>
<path fill="none" stroke="black" stroke-dasharray="1,5" d="M4456.9,-881.46C4517.36,-889.35 4597.49,-891.36 4662,-863.43"/>
</g>
<!-- stage_17 -->
<g id="node30" class="node">
<title>stage_17</title>
<path fill="none" stroke="black" d="M3876,-789.43C3876,-789.43 3727,-789.43 3727,-789.43 3721,-789.43 3715,-783.43 3715,-777.43 3715,-777.43 3715,-765.43 3715,-765.43 3715,-759.43 3721,-753.43 3727,-753.43 3727,-753.43 3876,-753.43 3876,-753.43 3882,-753.43 3888,-759.43 3888,-765.43 3888,-765.43 3888,-777.43 3888,-777.43 3888,-783.43 3882,-789.43 3876,-789.43"/>
<text text-anchor="middle" x="3801.5" y="-767.73" font-family="Times,serif" font-size="14.00">cratesio&#45;cmake&#45;0.1.54</text>
</g>
<!-- stage_17&#45;&gt;stage_18 -->
<g id="edge66" class="edge">
<title>stage_17&#45;&gt;stage_18</title>
<path fill="none" stroke="black" stroke-dasharray="1,5" d="M3888.25,-771.43C3898.01,-771.43 3908.19,-771.43 3918.53,-771.43"/>
<polygon fill="none" stroke="black" points="3918.75,-771.43 3924.75,-767.43 3930.75,-771.43 3924.75,-775.43 3918.75,-771.43"/>
</g>
<!-- stage_22&#45;&gt;stage_27 -->
<g id="edge72" class="edge">
<title>stage_22&#45;&gt;stage_27</title>
<path fill="none" stroke="black" stroke-dasharray="1,5" d="M4396.83,-385.51C4423.54,-401 4464.21,-422.9 4502,-436.43 4516.83,-441.74 4532.72,-446.39 4548.54,-450.42"/>
<polygon fill="none" stroke="black" points="4548.94,-450.52 4555.72,-448.07 4560.6,-453.38 4553.82,-455.84 4548.94,-450.52"/>
</g>
<!-- stage_22&#45;&gt;stage_41 -->
<g id="edge73" class="edge">
<title>stage_22&#45;&gt;stage_41</title>
<path fill="none" stroke="black" stroke-dasharray="1,5" d="M4427.76,-385.47C4487.03,-401.31 4579.99,-421.55 4662,-419.43"/>
<path fill="none" stroke="black" stroke-dasharray="1,5" d="M4664,-419.43C4831.81,-415.1 4874.04,-425.05 5041,-442.43 5128.8,-451.57 5149.22,-471.43 5237.5,-471.43"/>
<path fill="none" stroke="black" stroke-dasharray="1,5" d="M5239.5,-471.43C5497.49,-469.34 5562,-471.42 5820,-471.43"/>
</g>
<!-- stage_20 -->
<g id="node32" class="node">
<title>stage_20</title>
<path fill="none" stroke="black" d="M3870,-339.43C3870,-339.43 3733,-339.43 3733,-339.43 3727,-339.43 3721,-333.43 3721,-327.43 3721,-327.43 3721,-315.43 3721,-315.43 3721,-309.43 3727,-303.43 3733,-303.43 3733,-303.43 3870,-303.43 3870,-303.43 3876,-303.43 3882,-309.43 3882,-315.43 3882,-315.43 3882,-327.43 3882,-327.43 3882,-333.43 3876,-339.43 3870,-339.43"/>
<text text-anchor="middle" x="3801.5" y="-317.73" font-family="Times,serif" font-size="14.00">cratesio&#45;dunce&#45;1.0.5</text>
</g>
<!-- stage_20&#45;&gt;stage_21 -->
<g id="edge71" class="edge">
<title>stage_20&#45;&gt;stage_21</title>
<path fill="none" stroke="black" stroke-dasharray="1,5" d="M3882.25,-334.68C3906.23,-338.66 3933.09,-343.12 3959.08,-347.44"/>
<polygon fill="none" stroke="black" points="3959.12,-347.44 3965.69,-344.48 3970.95,-349.41 3964.38,-352.37 3959.12,-347.44"/>
</g>
<!-- stage_25&#45;&gt;stage_27 -->
<g id="edge77" class="edge">
<title>stage_25&#45;&gt;stage_27</title>
<path fill="none" stroke="black" stroke-dasharray="1,5" d="M4456.31,-503.51C4480.94,-499.67 4508.15,-495.42 4534.5,-491.31"/>
<polygon fill="none" stroke="black" points="4534.67,-491.29 4539.98,-486.41 4546.53,-489.44 4541.22,-494.32 4534.67,-491.29"/>
</g>
<!-- stage_25&#45;&gt;stage_41 -->
<g id="edge78" class="edge">
<title>stage_25&#45;&gt;stage_41</title>
<path fill="none" stroke="black" stroke-dasharray="1,5" d="M4393.06,-499.15C4419.31,-481.68 4461.6,-456.04 4502,-442.43 4570.08,-419.5 4590.16,-419.54 4662,-419.43"/>
</g>
<!-- stage_23 -->
<g id="node34" class="node">
<title>stage_23</title>
<path fill="none" stroke="black" d="M3877.5,-581.43C3877.5,-581.43 3725.5,-581.43 3725.5,-581.43 3719.5,-581.43 3713.5,-575.43 3713.5,-569.43 3713.5,-569.43 3713.5,-557.43 3713.5,-557.43 3713.5,-551.43 3719.5,-545.43 3725.5,-545.43 3725.5,-545.43 3877.5,-545.43 3877.5,-545.43 3883.5,-545.43 3889.5,-551.43 3889.5,-557.43 3889.5,-557.43 3889.5,-569.43 3889.5,-569.43 3889.5,-575.43 3883.5,-581.43 3877.5,-581.43"/>
<text text-anchor="middle" x="3801.5" y="-559.73" font-family="Times,serif" font-size="14.00">cratesio&#45;fs_extra&#45;1.3.0</text>
</g>
<!-- stage_23&#45;&gt;stage_24 -->
<g id="edge76" class="edge">
<title>stage_23&#45;&gt;stage_24</title>
<path fill="none" stroke="black" stroke-dasharray="1,5" d="M3889.76,-548.94C3911.64,-545.31 3935.5,-541.35 3958.69,-537.49"/>
<polygon fill="none" stroke="black" points="3958.91,-537.46 3964.17,-532.53 3970.74,-535.49 3965.48,-540.42 3958.91,-537.46"/>
</g>
<!-- stage_28&#45;&gt;stage_29 -->
<g id="edge84" class="edge">
<title>stage_28&#45;&gt;stage_29</title>
<path fill="none" stroke="black" stroke-dasharray="1,5" d="M4984.31,-453.42C5036,-425.05 5136.43,-369.92 5194.05,-338.28"/>
<polygon fill="none" stroke="black" points="5194.12,-338.25 5197.45,-331.85 5204.64,-332.47 5201.3,-338.87 5194.12,-338.25"/>
</g>
<!-- stage_28&#45;&gt;stage_41 -->
<g id="edge85" class="edge">
<title>stage_28&#45;&gt;stage_41</title>
<path fill="none" stroke="black" stroke-dasharray="1,5" d="M5041.03,-471.43C5097.41,-471.43 5171.71,-471.43 5237.5,-471.43"/>
</g>
<!-- stage_26 -->
<g id="node36" class="node">
<title>stage_26</title>
<path fill="none" stroke="black" d="M4454,-281.43C4454,-281.43 4278,-281.43 4278,-281.43 4272,-281.43 4266,-275.43 4266,-269.43 4266,-269.43 4266,-257.43 4266,-257.43 4266,-251.43 4272,-245.43 4278,-245.43 4278,-245.43 4454,-245.43 4454,-245.43 4460,-245.43 4466,-251.43 4466,-257.43 4466,-257.43 4466,-269.43 4466,-269.43 4466,-275.43 4460,-281.43 4454,-281.43"/>
<text text-anchor="middle" x="4366" y="-259.73" font-family="Times,serif" font-size="14.00">cratesio&#45;aws&#45;lc&#45;sys&#45;0.27.1</text>
</g>
<!-- stage_26&#45;&gt;stage_27 -->
<g id="edge81" class="edge">
<title>stage_26&#45;&gt;stage_27</title>
<path fill="none" stroke="black" stroke-dasharray="1,5" d="M4399.89,-281.59C4421.31,-294.88 4448.42,-314.69 4466,-338.43 4493.61,-375.73 4467.03,-405.94 4502,-436.43 4506.77,-440.59 4511.91,-444.29 4517.34,-447.58"/>
<polygon fill="none" stroke="black" points="4517.54,-447.68 4524.72,-447.03 4528.08,-453.41 4520.9,-454.06 4517.54,-447.68"/>
</g>
<!-- stage_26&#45;&gt;stage_29 -->
<g id="edge82" class="edge">
<title>stage_26&#45;&gt;stage_29</title>
<path fill="none" stroke="black" stroke-dasharray="1,5" d="M4951.5,-269.43C5016.79,-271.58 5089.5,-283.15 5145.27,-294.02"/>
<polygon fill="none" stroke="black" points="5145.49,-294.06 5152.15,-291.3 5157.26,-296.39 5150.6,-299.15 5145.49,-294.06"/>
</g>
<!-- stage_26&#45;&gt;stage_31 -->
<g id="edge83" class="edge">
<title>stage_26&#45;&gt;stage_31</title>
<path fill="none" stroke="black" stroke-dasharray="1,5" d="M4466.23,-263.09C4582.19,-263 4779.81,-263.84 4949.5,-269.43"/>
<path fill="none" stroke="black" stroke-dasharray="1,5" d="M4951.5,-269.43C5199.45,-279.33 5486.79,-254.7 5660.88,-235.78"/>
<polygon fill="none" stroke="black" points="5661.03,-235.77 5666.56,-231.14 5672.96,-234.46 5667.43,-239.09 5661.03,-235.77"/>
</g>
<!-- stage_30&#45;&gt;stage_31 -->
<g id="edge87" class="edge">
<title>stage_30&#45;&gt;stage_31</title>
<path fill="none" stroke="black" stroke-dasharray="1,5" d="M5582.71,-296.34C5631.26,-279.99 5702.86,-255.88 5754.7,-238.42"/>
<polygon fill="none" stroke="black" points="5754.74,-238.41 5759.14,-232.71 5766.11,-234.58 5761.7,-240.29 5754.74,-238.41"/>
</g>
<!-- stage_30&#45;&gt;stage_41 -->
<g id="edge88" class="edge">
<title>stage_30&#45;&gt;stage_41</title>
<path fill="none" stroke="black" stroke-dasharray="1,5" d="M5549.69,-332.67C5594.86,-370.79 5707.31,-456.6 5820,-471.43"/>
<path fill="none" stroke="black" stroke-dasharray="1,5" d="M5822,-471.43C6061.12,-502.91 6301.52,-273.04 6378.02,-192"/>
<polygon fill="none" stroke="black" points="6378.34,-191.66 6379.51,-184.54 6386.53,-182.88 6385.36,-190 6378.34,-191.66"/>
</g>
<!-- stage_32&#45;&gt;stage_41 -->
<g id="edge507" class="edge">
<title>stage_32&#45;&gt;stage_41</title>
<path fill="none" stroke="black" stroke-dasharray="1,5" d="M6210.25,-199.48C6236.38,-194.73 6265.04,-189.52 6292.08,-184.6"/>
<polygon fill="none" stroke="black" points="6292.16,-184.59 6297.35,-179.58 6303.97,-182.44 6298.78,-187.45 6292.16,-184.59"/>
</g>
<!-- stage_35&#45;&gt;stage_41 -->
<g id="edge511" class="edge">
<title>stage_35&#45;&gt;stage_41</title>
<path fill="none" stroke="black" stroke-dasharray="1,5" d="M6207.89,-128.96C6234.65,-133.82 6264.23,-139.2 6292.1,-144.27"/>
<polygon fill="none" stroke="black" points="6292.12,-144.27 6298.74,-141.41 6303.93,-146.42 6297.31,-149.28 6292.12,-144.27"/>
</g>
<!-- stage_33 -->
<g id="node40" class="node">
<title>stage_33</title>
<path fill="none" stroke="black" d="M5601,-182.43C5601,-182.43 5455,-182.43 5455,-182.43 5449,-182.43 5443,-176.43 5443,-170.43 5443,-170.43 5443,-158.43 5443,-158.43 5443,-152.43 5449,-146.43 5455,-146.43 5455,-146.43 5601,-146.43 5601,-146.43 5607,-146.43 5613,-152.43 5613,-158.43 5613,-158.43 5613,-170.43 5613,-170.43 5613,-176.43 5607,-182.43 5601,-182.43"/>
<text text-anchor="middle" x="5528" y="-160.73" font-family="Times,serif" font-size="14.00">cratesio&#45;zeroize&#45;1.8.1</text>
</g>
<!-- stage_33&#45;&gt;stage_34 -->
<g id="edge510" class="edge">
<title>stage_33&#45;&gt;stage_34</title>
<path fill="none" stroke="black" stroke-dasharray="1,5" d="M5613.17,-149.39C5642.49,-144.15 5675.88,-138.19 5707.15,-132.6"/>
<polygon fill="none" stroke="black" points="5707.2,-132.59 5712.41,-127.6 5719.02,-130.48 5713.81,-135.47 5707.2,-132.59"/>
</g>
<!-- stage_38&#45;&gt;stage_39 -->
<g id="edge517" class="edge">
<title>stage_38&#45;&gt;stage_39</title>
<path fill="none" stroke="black" stroke-dasharray="1,5" d="M1656.52,-95.84C1682.5,-91.02 1711.16,-85.71 1738.21,-80.69"/>
<polygon fill="none" stroke="black" points="1738.29,-80.68 1743.46,-75.65 1750.09,-78.49 1744.92,-83.52 1738.29,-80.68"/>
</g>
<!-- stage_36 -->
<g id="node42" class="node">
<title>stage_36</title>
<path fill="none" stroke="black" d="M1078,-104.43C1078,-104.43 911,-104.43 911,-104.43 905,-104.43 899,-98.43 899,-92.43 899,-92.43 899,-80.43 899,-80.43 899,-74.43 905,-68.43 911,-68.43 911,-68.43 1078,-68.43 1078,-68.43 1084,-68.43 1090,-74.43 1090,-80.43 1090,-80.43 1090,-92.43 1090,-92.43 1090,-98.43 1084,-104.43 1078,-104.43"/>
<text text-anchor="middle" x="994.5" y="-82.73" font-family="Times,serif" font-size="14.00">cratesio&#45;aws&#45;lc&#45;rs&#45;1.12.6</text>
</g>
<!-- stage_36&#45;&gt;stage_37 -->
<g id="edge514" class="edge">
<title>stage_36&#45;&gt;stage_37</title>
<path fill="none" stroke="black" stroke-dasharray="1,5" d="M1090.34,-95.05C1097.95,-95.75 1105.77,-96.46 1113.69,-97.18"/>
<polygon fill="none" stroke="black" points="1113.83,-97.19 1120.17,-93.75 1125.78,-98.28 1119.45,-101.72 1113.83,-97.19"/>
</g>
<!-- stage_36&#45;&gt;stage_39 -->
<g id="edge515" class="edge">
<title>stage_36&#45;&gt;stage_39</title>
<path fill="none" stroke="black" stroke-dasharray="1,5" d="M1567,-60.43C1603.76,-58.74 1643.26,-58.05 1680.68,-57.92"/>
<polygon fill="none" stroke="black" points="1680.75,-57.92 1686.75,-53.9 1692.75,-57.89 1686.76,-61.9 1680.75,-57.92"/>
</g>
<!-- stage_36&#45;&gt;stage_41 -->
<g id="edge516" class="edge">
<title>stage_36&#45;&gt;stage_41</title>
<path fill="none" stroke="black" stroke-dasharray="1,5" d="M1090.22,-82.12C1203.24,-76.98 1397.91,-68.11 1565,-60.43"/>
<path fill="none" stroke="black" stroke-dasharray="1,5" d="M1567,-60.43C1624.32,-56.38 1635.9,-37.92 1693,-31.43 2070.13,11.41 2169.65,9.38 2547,-31.43 2606.93,-37.91 2619.28,-57.62 2679.5,-60.43"/>
<path fill="none" stroke="black" stroke-dasharray="1,5" d="M2681.5,-60.43C2942.43,-70.27 3007.89,-60.43 3269,-60.43 3269,-60.43 3269,-60.43 5822,-60.43 5994.75,-60.43 6041.73,-44.34 6210,-83.43 6263.32,-95.82 6320.71,-121.67 6358.92,-140.86"/>
<polygon fill="none" stroke="black" points="6358.96,-140.88 6366.13,-140.04 6369.66,-146.32 6362.49,-147.17 6358.96,-140.88"/>
</g>
<!-- stage_40&#45;&gt;stage_41 -->
<g id="edge519" class="edge">
<title>stage_40&#45;&gt;stage_41</title>
<path fill="none" stroke="black" stroke-dasharray="1,5" d="M2493.04,-58.32C2547.08,-57.57 2617.28,-57.53 2679.5,-60.43"/>
</g>
<!-- stage_43 -->
<g id="node45" class="node">
<title>stage_43</title>
<path fill="#e5e5e5" stroke="black" d="M491.5,-801.43C491.5,-801.43 371.5,-801.43 371.5,-801.43 365.5,-801.43 359.5,-795.43 359.5,-789.43 359.5,-789.43 359.5,-777.43 359.5,-777.43 359.5,-771.43 365.5,-765.43 371.5,-765.43 371.5,-765.43 491.5,-765.43 491.5,-765.43 497.5,-765.43 503.5,-771.43 503.5,-777.43 503.5,-777.43 503.5,-789.43 503.5,-789.43 503.5,-795.43 497.5,-801.43 491.5,-801.43"/>
<text text-anchor="middle" x="431.5" y="-779.73" font-family="Times,serif" font-size="14.00">43</text>
</g>
</g>
</svg>
